<?xml version="1.0" encoding="UTF-8"?><svg id="Layer_3" xmlns="http://www.w3.org/2000/svg" viewBox="0 0 1080 1080"><defs><style>.cls-1{fill:#dab4ab;}.cls-2{fill:#030202;}.cls-3{fill:#ebeff1;}.cls-4{fill:#3d3d3d;}.cls-5{fill:#6d99d0;}.cls-6{fill:#6e99d0;}.cls-7{fill:#2e3030;}.cls-8{fill:#0f0d10;}.cls-9{fill:#040404;}.cls-10{fill:#deb7a7;}.cls-11{fill:#c79b8d;}.cls-12{fill:#beb6b7;}.cls-13{fill:#3e3e3e;}.cls-14{fill:#020202;}.cls-15{fill:#442d24;}.cls-16{fill:#949ba2;}.cls-17{fill:#2f3030;}.cls-18{fill:#07090b;}.cls-19{fill:#2d2e2f;}.cls-20{fill:#461e12;}.cls-21{fill:#595f6f;}.cls-22{fill:#a07363;}.cls-23{fill:#553e31;}.cls-24{fill:#7b7f81;}.cls-25{fill:#93b6d8;}.cls-26{fill:#a2a1a1;}.cls-27{fill:#6d99d2;}.cls-28{fill:#380f02;}.cls-29{fill:#94b5d8;}.cls-30{fill:#c89a8d;}.cls-31{fill:#030303;}.cls-32{fill:#3b3332;}.cls-33{fill:#2e2e2f;}.cls-34{fill:#7d7e80;}.cls-35{fill:#121416;}.cls-36{fill:#7c7d80;}.cls-37{fill:#2b2025;}.cls-38{fill:#0c1825;}.cls-39{fill:#999ea1;}.cls-40{fill:#91b6de;}.cls-41{fill:#051122;}.cls-42{fill:#9ab5d1;}.cls-43{fill:#b6b6b6;}.cls-44{fill:#0a0a0c;}.cls-45{fill:#635d5f;}.cls-46{fill:#2c2d2f;}.cls-47{fill:#2f2c28;}.cls-48{fill:#767d86;}.cls-49{fill:#c09c8e;}.cls-50{fill:#2d2d2d;}.cls-51{fill:#030406;}.cls-52{fill:#292929;}.cls-53{fill:#b7897a;}.cls-54{fill:#6f7483;}.cls-55{fill:#6d7783;}.cls-56{fill:#0a1322;}.cls-57{fill:#2d2d30;}.cls-58{fill:#6e99d1;}.cls-59{fill:#92b6dc;}.cls-60{fill:#6c747e;}.cls-61{fill:#959ba0;}.cls-62{fill:#6b7685;}.cls-63{fill:#deb7ab;}.cls-64{fill:#7f7f7f;}.cls-65{fill:#aaa9b6;}.cls-66{fill:#cc9887;}.cls-67{fill:#ac7f6f;}.cls-68{fill:#040507;}.cls-69{fill:#90b7dc;}.cls-70{fill:#dcb5a9;}.cls-71{fill:#010101;}.cls-72{fill:#061222;}.cls-73{fill:#c59b8c;}.cls-74{fill:#b9bbbb;}.cls-75{fill:#7a7b7f;}.cls-76{fill:#fcfcfc;}</style></defs><path class="cls-71" d="M734.05,910.63c7,1.43,14.8,1.76,15.85,11.44-1.39,2.51,.21,5.9-2.37,8.06-6.7,2.99-13.73,1.63-20.67,1.55-4.27-.02-7.54-2.58-11.1-4.41-11.85-2.19-23.69-4.39-35.54-6.58-20.63-1.31-40.79-5.59-58.14-9.77,13.93,7.08,29.84,15.45,42.79,28.56l-.12-.08c6.68,2.81,7.76,7.13,3.49,12.91-8.4,6.63-17.3,9.76-27.45,3.83-8.17-4.44-16.59-8.43-24.92-12.59-.83-.38-1.63-.83-2.43-1.28-2.36-1.41-4.9-2.47-7.42-3.58-.9-.36-1.75-.79-2.61-1.24-10.55-5.32-21.82-9.51-31.58-16.01-15.39-10.23-31.38-7.82-47.75-5.03-.96,.29-1.94,.48-2.92,.63-4.87,.69-9.87-.24-14.67,1.2-.95,.3-1.92,.52-2.9,.7-5.37,.94-10.93-.16-16.22,1.58-.96,.29-1.95,.47-2.94,.62-4.42,.59-8.97-.1-13.29,1.41-.94,.28-1.9,.47-2.87,.61-4.89,.46-9.85,.31-15.07,1.6,5.72,2.66,11.09,5.1,16.19,8.06,14.1,8.2,14.21,16.01,.4,24.9-12.9,4.61-25.45,2.57-37.89-1.89-8.22-4.68-17.73-4.48-26.54-6.92-4.51-1.4-7.78-4.09-8.06-9.07-.43-7.6-5.01-8.4-11.1-7.34-4.59,.79-9.24,1.84-13.73-.58-9.5-10.71-8.78-19.05,2.64-26.49,7.62-4.96,11.25-11.28,11.81-20.75,2.43-41.29,4.49-82.6,5.8-123.94,.1-3.04,.26-6.05,1.01-9.01,1.79-7.07,1.58-14.43,3.01-21.54,.67-3.99,2.1-7.85,2.04-11.96,.23-2.02,.95-3.89,1.77-5.73,.51-1.25-.56-1.2-.5-.8,.29,1.94-1.04,3.71-1.31,5.67,.22,3.46-.9,6.72-1.51,10.06-.72,3.6-1.54,7.18-1.61,10.87-8.57,47.94-18.22,95.67-27.9,143.38-1.25,6.16-2.24,12.62-6.4,17.83-18.5,4.34-37.55,5.83-55.97,10.68-5.56,1.46-8.98-1.51-9.4-7.37-.28-4-.53-8.01,.45-11.96,1.86-5.18,1.29-10.45,.61-15.73-.41-1.76-.1-3.46,.41-5.15-.45-16.53,2.05-32.89,2.69-49.36,.11-1.09,.34-2.16,.63-3.21,1.92-5.07,.84-10.45,1.56-15.65,.1-1.08,.32-2.13,.6-3.17,1.51-4.27,.73-8.73,1.06-13.11,3.95-34.55,11.65-68.44,18.61-102.41,3.6-17.56,3-35.23,4.96-52.79,2.38-21.38,3-42.97,2.52-64.56-.14-6.36,.32-12.87,4.78-18.17,2.79-1.65,5.82-1.41,8.81-.96,22.96,3.5,46.09,2.4,69.17,2.62,10.68,.5,21.36,.52,32.02-.03,.89-.4,1.81-.76,2.7-1.15,2.62-.88,3.61-4.48,6.92-4.24,1.21,.79,2.02,1.93,2.73,3.15,5.73,6.04,6.23,14.63,10.57,21.47,4.23,6.66,8.94,12.46,15.75,16.46,1.61,.99,3.3,1.81,5.09,2.41,9.17,1.76,18.29,4.08,27.64,1.17,4.86-.36,9.34-2.23,13.97-3.49,3.91-.73,7.67-1.93,11.22-3.74,1.26-.7,2.72-1.17,3.22-2.73-4.36-2.73-9.5-1.86-14.09-3.32-3.55-.59-7.01-1.4-9.88-3.78-2.78-3.03-2.33-5.8,.65-8.38,3.59-2.73,7.97-3.7,12.16-4.14,7.12-.75,13.42-3.24,19.48-6.79,9.37-1.11,18.74-1.23,28.11,.03,6.56,4.23,13.96,5.5,21.53,6.73,4.93,.8,12.01,1.07,12.33,7.67,.31,6.48-6.16,7.67-11.37,8.96-3.81,1.18-7.76,1.74-11.64,2.58-4.18,2.93-2.58,7.42-2.58,11.13-.18,91.99-.04,183.97-.26,275.96-.02,9.3,3.8,12.9,12.52,14.72,34.3,7.17,68.7,13.83,102.95,21.23,4.28,.93,8.6,1.68,12.74,3.11,5.17,3.16,10.46,6.08,16.75,6.38Z"/><path class="cls-19" d="M487.01,100.39c.42-4.62-1.26-9.59,2.22-13.71,.38-1,.95-1.88,1.72-2.64,3.28-1.89,6.33-7.55,10.19-.65,1.91,13.66,3.78,27.31,5.87,40.94,1.32,8.57,5.46,12.03,14.12,11.93,22.2-.26,44.4-.19,66.6-.02,5.26,.04,10.97-.79,14.79,4.39,.41,6.76-4.77,7.85-9.51,8.99-4.15,1-8.47,.75-12.73,.58-14.87,.38-29.81-.56-44.71,1.78,14.96,4.05,30.08,5.44,45.47,3.83,27.16,.21,54.24,2.28,81.35,3.21,10.44,1.15,20.23,7.19,31.38,3.71,4.04-1.26,5.37,4.73,10.3,4.59,7.28-.22,13.74-2.57,20.49-4.42,2.91,.71,6.23,.29,8.57,2.51,2.38,2.25,5.58,4.69,.96,7.93-16.75,2.71-33.58,1.71-50.35,.66-7.38-.46-14.74-1.36-22.16-1.26-37.39,.51-74.69-3.33-112.11-2.09-15.07,.5-21.87,7.32-21.25,22.26,.13,3.24,1.38,4.98,4.59,5.46,3.35,.51,6.72,.44,10.09,.44,32.69,.02,65.37,0,98.06,.01,3.71,0,7.42-.1,11.12,.19,12.72,.99,15.97,4.19,16.09,17,.25,28.3,.05,56.61,.1,84.92,.01,5.79-.13,11.65,6.04,14.96,3.3,5.24-1.68,5.65-4.2,5.86-4.31,.37-6.84,3.21-9.98,5.3-4.5,1.9-9.26,1.58-13.96,1.58-44.47,.04-88.95-.06-133.42,.1-7.64,.03-14.69-1.17-21.16-5.29-6.8-2.04-12.15-5.23-10.64-13.72,11.38-42.38,20.81-85.26,32.56-127.56,1.08-3.9,1.14-7.95,.22-11.95-.17-1.04-.15-2.09,0-3.14,.92-4.02,3.41-7.08,6.19-9.97,1.32-1.38,3.39-2.69,2.47-4.91-.88-2.12-3.26-1.98-5.2-2.09-4.63-.27-9.27,.01-13.9-.21-4.02-.2-8.02-.51-10.39-4.56-5.28-12.26-1.65-25.66-4.93-38.19-.57-2.18,.46-4.67-.98-6.78Z"/><path class="cls-71" d="M602.54,141.35c-3.91-2.66-8.36-2.12-12.71-2.13-24.58-.03-49.16-.25-73.73,.05-7.1,.09-10.26-2.24-11.2-9.46-2.12-16.24-6.52-32.2-5.75-48.78-.2-1.76,1.34-1.83,2.34-2.42,6.9,0,13.8-.01,20.71-.02,13.13,2.43,26.46-.45,39.6,1.53l33.94,.54c7.08,1.8,4.76,8.26,6.34,12.79,.19,1.76,.37,3.52,.56,5.28,2.42,6.9,2.42,14.2,3.53,21.31l-.31,.5,.39,.44c2.3,3.96,.92,8.5,1.94,12.75,.89,3.72-.6,7.43-5.65,7.62Z"/><path class="cls-16" d="M692.81,807.7c3.5,2.5,3.59,6.53,4.57,10.16,.1,2.13-.5,4.46,1.73,5.97,3.5,2.5,3.87,6.36,4.4,10.15-.3,2.36,.84,4.19,2.2,5.94,2.85,2.2,3.24,5.44,3.63,8.68,.58,5.73,2.65,10.93,5.66,15.79,3.58,3.19,2.83,8.12,4.8,11.97v.02c2.65,2.87,3.7,6.37,4.01,10.15v-.02c3.48,4.3,4.27,9.67,5.89,14.72-.23,3.91,.4,7.42,4.35,9.39-5.21,.64-11.5,5.63-14.28-3.55-3.52-2.44-4.94-6.15-6.41-9.97-38.54-99.87-78.04-199.36-115.97-299.46-2.73-7.21-9.19-13.74-5.43-22.58l10.63-1.94c6.68,13.52,14.09,26.76,15.86,42.13-.02,3.92,2.21,6.91,4.16,10.01,2.68,5.18,5.23,10.41,6,16.3-.1,1.56-.07,3.07,1.4,4.1,4.78,9.84,10.89,19.14,12.31,30.35,.22,.64,.44,1.29,.65,1.93,13.11,20.6,16.22,45.09,26.05,66.96l-.08-.04c4.66,6.16,5.4,13.84,8.08,20.77-.06,4.34,1.82,8.03,3.87,11.67,4.7,1.92,2.68,6.81,4.44,10.04-.09,1.57-.11,3.11,1.37,4.16"/><path class="cls-57" d="M723.99,969.52c0-2.52,.02-5.04,.03-7.56,1.57-2.25,0-4.91,.92-7.25,5.02-8.62,12.37-13.29,22.49-13.28,.99,.31,1.9,.77,2.74,1.37,4.02,2.18,8.04,4.35,12.05,6.53,4.49,1.11,4.81,5.14,5.98,8.57-.26,.64-.1,1.16,.46,1.56,.62,4.71,2.05,9.46-.73,13.99-1.94,.75-1.72,2.39-1.65,3.97-2.2,3.3-3.15,7.85-8.27,8.21l-5.86,2.35c-3.34,1.23-6.69,1.07-10.05,.11-6.16-.46-11.04-3.08-14.31-8.43-1.68-3.23-5.66-5.59-3.8-10.14Z"/><path class="cls-50" d="M294.5,935.19c-.77-1.37-1.55-2.75-2.32-4.12,.05-.68,.1-1.35,.15-2.03-1.83-2.17-2.46-4.75-2.52-7.51-.84-5.89,2.24-10.9,3.62-16.29-.29-4.95-2.03-10.12,2.05-14.45,.8-.77,1.73-.99,2.79-.65,1.78,18.83,1.77,18.77,21.02,14.16,13.93-3.34,28-5.8,42.4-5.73,2.83-1.47,4.32,.15,5.36,2.45,4.05,8.92-3.7,28.73-12.8,32.88-5.98-.94-4.34-4.98-2.83-8.19,2.79-5.92-.18-7.93-5.25-8.84-8.53-1.54-17.13-3.51-24.91,2.54-1.33,1.03-2.98,1.71-4.63,1.71-7.7,.01-11.35,4.44-12.81,11.41-1.55,2.31-3.97,3.02-6.5,3.53-1.06,.1-2.01-.19-2.83-.87Z"/><path class="cls-76" d="M697.38,817.86c-2.67-2.87-3.59-6.53-4.56-10.16"/><path class="cls-76" d="M723.99,969.52c1.27,3.38,2.53,6.76,3.8,10.14"/><path class="cls-76" d="M750.17,942.8l-.78,.14-.79-.11c-4.38-4.45-3.75-9.16-.73-14,.68-2.26,1.35-4.51,2.03-6.77,.09,6.91,.18,13.82,.27,20.73Z"/><path class="cls-27" d="M335.11,548.44c-7.66-9.31-1.61-19.46-1.16-29.01,.79-16.75,3.56-33.4,5.51-50.09,1.02-3.15,3.5-4.05,6.39-3.66,16.43,2.24,30.01-5.34,44-12.11,7.78-3.76,14.06-10.65,23.28-11.45,4.86,2.11,3.69,5.58,1.95,9.08-1.19,2.4-3.15,4.27-4.77,6.38-2.79,3.64-4.45,7.53-2.03,11.97,2.18,4,5.86,5.12,10.18,4.68,1.65-.17,3.31-.3,4.96,.14,3.91,1.55,5.09,5.14,6.33,8.6,6.67,18.6,13.22,37.25,20.01,55.8,1.38,3.76,2.9,7.53,.52,11.46-.66-.05-1.29,.06-1.9,.33-11.55,2.15-23.33-.68-34.88,1.55-26.17-.23-52.42,1.09-78.38-3.67Z"/><path class="cls-50" d="M436.31,837.97c.79-25.22,5.48-49.98,8.98-74.88,3.55-25.23,7.57-50.36,9.44-75.84,2.86-38.8,4.41-77.61,3.78-118.64,8.17,10.18,13.47,20.32,24.51,24.35,3.98,9.21,1.07,18.69,.23,27.8-3.32,35.89-6.36,71.83-11.2,107.57-.95,7.01-2.67,13.89-3.11,20.96-1.5,4.28-1.65,8.76-1.8,13.23-7.35,24.22-17.67,47.38-25.97,71.27-.74,2.12-1.73,4.57-4.87,4.18Z"/><path class="cls-61" d="M468.65,752.82c18.28-49.67,36.59-99.33,54.76-149.04,1.06-2.9,4.07-5.67,1.66-9.27,4.71-1.36,9.41-2.73,14.12-4.09-23.29,63.11-46.48,126.25-69.93,189.3-5.14,13.81-10.07,27.62-12.45,42.21-7.08,14.95-11.23,31.01-17.59,46.22-2.41,5.77-3.15,12.45-8.66,16.62-1.53,4.1-2.71,8.37-4.68,12.24-2.18,4.27-1.85,13-9.39,10.09-6.42-2.47-1.78-8.8-.23-13.18,5.52-15.52,11.37-30.92,17.03-46.38,1.15-3.14,2.01-6.38,3.01-9.57,9.48-25.03,18.96-50.05,28.43-75.08,2.11-3.04,.87-7.38,3.9-10.07Z"/><path class="cls-6" d="M454.59,548.05c-.14-1.23-.29-2.47-.43-3.7-5.99-3.95-6.12-10.94-8.21-16.72-6.81-18.84-15.12-37.18-19.27-56.92,3.03-9.35,10.61-15.48,16.34-22.93,3.14-2.65,4.39-7.62,9.56-7.8,1.21,.28,2.18,.89,2.95,1.86,3.18,7.27,3.86,15.05,3.98,22.77,.36,24.28,.19,48.56,.09,72.84-.01,3.37-.1,6.77-1.82,9.84-.8,1.31-1.87,1.56-3.18,.77Z"/><path class="cls-62" d="M588.15,483.59c-6.36-1.39-6.21,2.73-6.18,7.08,.15,21.17,.21,42.34,.3,63.51l-30.57,.2c-1.74-4.03-.8-8.37-1.48-12.55,6.79-17.48,13.64-34.94,18.37-53.12,1.64-6.3,6.68-7.86,12.03-9.17,4.45-.76,8.9-1.38,13.09,1.07,1.07,.93,1.04,1.82-.11,2.67l-5.44,.32Z"/><path class="cls-73" d="M521.43,564.69c-1.61,1.92-1.35,3.86-.03,5.8,4.79,7.96,1.92,14.4-4.01,20.24-10.33,2.79-20.47,2.1-30.41-1.78,6.34-8.7,6.33-18.09,3.06-27.86-1.51-4.53-1.98-9.2-1.61-13.95,2.43-7.74,.95-16.55,6.33-23.5,7.97,1.64,10.38,7.37,10.74,14.6-7.49,2.85-7.47,8.27-5.12,14.63,2.88,7.79,8.11,14.3,11.89,23.38,1.29-10.35-4.42-19.22,.37-27.85,3.37-1.69,5.51,0,7.28,2.67,.06,4.59,1.84,8.99,1.52,13.63Z"/><path class="cls-7" d="M430.57,884.77c7.68-20.93,15.38-41.85,23.02-62.79,1.15-3.16,2.07-4.09,3.22-.06-2.87,23.54-4.15,47.26-8.35,70.65-6.89-.48-15.65,3.33-17.89-7.8Z"/><path class="cls-33" d="M454.59,548.05c.58,.37,1.18,.42,1.81,.14,9.39-3.96,18.98-4.34,28.74-1.54,1.41,5.46-.49,11.29,1.81,16.67,1.04,8.26,.84,16.3-4.18,23.47-12.12-5.09-17.36-16.06-21.69-27.11-1.71-4.36-3.64-8.13-6.5-11.63Z"/><path class="cls-54" d="M666.87,951.14c.2,5.35,.4,10.71,.59,16.06-1.24,2.29-3.54,3.05-5.74,3.8-9.47,3.23-15.3,9.42-16.43,19.64-.22,2-.75,3.99-2.53,5.3l-1.67-2.04c-5.6-13.37-5.06-26.82-.48-40.31,9.39,5.99,17.9,2.59,26.26-2.44Z"/><path class="cls-55" d="M406.08,946.88c-8.92-.68-5.41,6.43-6.62,10.58-7.21-8.11-16.55-12.87-26.43-16.76,.2-3.25,.4-6.51,.6-9.76,3.61-.37,7.23-.6,10.82-1.13,13.27-1.95,13.72-2.03,15.11,11.06,.53,4.99,4.61,3.81,6.53,6.01Z"/><path class="cls-60" d="M747.87,928.84c1.62,4.59,.72,9.32,.73,14-9.46,.71-16.69,5.44-22.58,12.58-.1-8.74-.2-17.49-.31-26.23l22.16-.35Z"/><path class="cls-72" d="M428.1,469.33c7.23,25.51,17.57,49.95,26.06,75.02-2.31,1.29-.83,5.08-3.89,5.88-4.04-17.95-12.25-34.46-18.09-51.8-2.68-7.94-2.99-17.17-10.05-23.31,.09-3.88,1.91-5.99,5.97-5.79Z"/><path class="cls-39" d="M531.4,586.72c-1.13-4.59,4.96-9.22-.08-13.79,4.87-.02,9.42,1.95,14.44,1.79,4.59-.15,5.37,2.66,1.87,5.98-2.41-1.63-2.91,.73-3.97,1.91-3.79,2.26-7.69,4.19-12.27,4.12Z"/><path class="cls-72" d="M413.5,552.1c11.54-2.44,23.22-1.79,34.88-1.55-11.48,3.69-23.23,1.43-34.88,1.55Z"/><path class="cls-64" d="M398.09,728.77c-.7-.69-1.41-1.39-2.11-2.08,.62-3.4,1.25-6.81,1.87-10.21,.65-.76,1.34-.79,2.06-.11-.1,4.21,.75,8.56-1.82,12.4Z"/><path class="cls-52" d="M399.9,716.37c-.69,.04-1.38,.07-2.06,.11-.2-2.51,.89-4.49,2.55-6.35,2.51,2.33,1.51,4.32-.49,6.24Z"/><path class="cls-3" d="M543.66,582.61c-.06-2.11-.93-4.87,2.11-5.33,2.23-.34,1.65,2.02,1.87,3.42-1.32,.64-2.65,1.27-3.97,1.91Z"/><path class="cls-71" d="M594.45,481.79c-4.67-.04-9.34-.09-14.02-.13-3.87,.81-7.77,2.1-11.36-.84-5.29-37.02-15.43-73.08-22.04-109.83-1.88-10.47-6.52-16.73-16.59-20.43-12.95-4.75-25.04-11.63-37.77-17.03-3-1.27-6.54-2.32-6.84-6.56,.52-3,2.61-4.5,5.27-5.43,1.77-.85,4.93-2.89,5.33-1.57,2.82,9.24,10.21,5.35,15.55,5.37,49.81,.2,99.63,.02,149.44-.04,2.11-2.05,4.86-2.72,7.49-2.21,15.85,3.08,31.21,7.55,44.6,17.11,4.05,1.4,8.09,2.8,12.14,4.2,1.79-.6,3.12,.08,4.18,1.51l-.08-.03c10.61,4.65,10.81,12.55,.61,24.21-1.25,3.16-3.39,6.08-2.62,9.79-1.24,14.47-6.35,27.72-12.73,40.58-2.19,1.66-1.17,4.05-1.39,6.16-2.61,14.83-5.63,29.45-11.73,43.47-3,6.9-6.66,9.11-13.54,8.4-3.28-.34-6.73-.61-9.96,.75l-15.35,.41c-22.88,.42-45.64,4.66-68.61,2.14Z"/><path class="cls-71" d="M675.61,317.65c-7.96,.74-10.88-2.17-10.71-10.8,.58-30.01,.22-60.05,.21-90.07,0-13.85-.7-14.62-15.08-14.65-38.46-.07-76.92-.03-115.38-.04-12.15,0-12.42-.09-9.34-11.55,7.49-27.82,.13-23.05,28.72-22.92,40.08,.18,80.21,.27,120.2,2.46,20.55,1.13,41.04,.93,61.54,1.57,5.45,6.46,4.81,9.97-3.72,20.2-1.63,1.56-2.68,3.34-2.29,5.71-5.57,14.51-8.09,30.37-18.71,42.67-1.87,.92-1.55,2.59-1.44,4.18-1.28,3.43-.84,7.58-4.23,10.12l.05-.13c-1.65,6.58-1.9,13.75-7.91,18.45l-.54,.42,.2,.65c-2.63,13.37-9.18,25.26-14.39,37.65-1.27,3.02-2.96,6.23-7.2,6.05Z"/><path class="cls-13" d="M700.99,161.76c7.61,.64,15.22,1.28,22.83,1.93-6.95,8.18-18.13,8.72-24.84,5.18-11.17-5.89-23.77,.14-33.86-7.07,6.07-.14,12.13-.29,18.2-.43,5.89,.13,11.77,.26,17.66,.39Z"/><path class="cls-2" d="M490.94,193.89c5.39-5.6,10.79-11.21,16.18-16.81,2.77-2.51,4.55-6.13,8.39-7.43,3.33,3.48,2.26,7.86,1.34,11.49-10.38,41.27-21.04,82.47-31.68,123.68-.4,1.56-1.39,2.97-2.1,4.44-4.63-2.79-4.76-7.53-5.24-12.11-2.69-14.24-3.85-28.68-4.92-43.09-.38-5.07-1.47-9.93-2.18-14.7-.48,3.17,1.52,5.58,1.84,8.4,.28,10.99,1.65,21.92,1.13,32.92-.37,4.79-.18,9.59-.17,14.38-.04,10.89,1.34,21.96-4.25,32.12-6.37,.95-4.33-4.27-5.34-7.27-.06-3.05,.01-6.09,.72-9.08,2.1-17.56,1.55-35.14,.25-52.71-1.02-5.5-1.71-11.11-5.42-15.7-3.84-12.34-1.24-25.02-1.99-37.51,.76-8.59-.04-17.18-.23-25.77,2.21-4.28,5.41-2.53,8.51-1.39,2.55,1.2,3.23,3.98,4.94,5.89l.04,.04c7.23,2.67,8.95,9.43,11.7,16.23,3.5-1.2,4.86-5.43,8.47-6.05Z"/><path class="cls-34" d="M571.95,297.33c-21.59,0-43.18,.09-64.77-.11-2.76-.03-7.83,2.19-7.56-3.46,.19-4.12,1.05-8.64,7.47-8.62,43.86,.15,87.72,.1,131.58-.02,4.86-.01,6.45,1.88,6.45,6.6,0,5.57-3.39,5.65-7.37,5.64-21.93-.04-43.86-.02-65.79-.02Z"/><path class="cls-36" d="M580.13,228.45c-17.49,0-34.99,.21-52.47-.18-3.48-.08-9.85,3.47-10.08-4.12-.23-7.41,5.06-7.94,11.08-7.91,33.97,.18,67.95,.08,101.93,.08,2.69,0,5.39,.16,8.07-.04,4.91-.36,6.47,1.98,6.41,6.62-.06,4.59-2.44,5.63-6.4,5.62-19.51-.07-39.02-.03-58.53-.03v-.05Z"/><path class="cls-24" d="M573.66,250.54c-18.2,0-36.39,.07-54.59-.08-2.55-.02-7.18,1.68-6.82-3,.28-3.66-.29-9.19,6.65-9.16,37.4,.15,74.8,.1,112.2,.03,4.32,0,5.84,1.8,5.96,6.03,.14,5.09-2.33,6.23-6.8,6.2-18.87-.12-37.74-.05-56.61-.05v.03Z"/><path class="cls-29" d="M480.52,297c.85,4.09,1.71,8.18,2.56,12.28-2.7,7.62,3.99,9.08,8.03,12.27-.26,2.49-1.83,3.76-4.08,4.41,.28,9.77,3.89,19.23,2.64,29.13,.11,2.21,.03,4.41-.04,6.61-1.9,13.28-9.45,21.89-21.93,26.4-1.85-.28-3.45-.96-4.44-2.67-2.14-19.66-1.47-39.07,5.34-57.9,.39-10.63,4.07-21.02,2.38-31.81,.35-.94,.99-1.57,1.94-1.92,3.27-.7,5.51,1.07,7.59,3.19Z"/><path class="cls-75" d="M566.24,273.24c-17.49-.01-34.97,.1-52.45-.13-2.77-.04-7.84,2.27-7.72-3.24,.1-4.69,1.8-9.26,8.45-8.88,6.37,.37,12.77,.05,19.16,.05,27.91,0,55.82,0,83.73,.01,4.41,0,9.05-.51,9.23,6.19,.12,4.39-.46,6.35-5.92,6.19-18.14-.5-36.31-.19-54.47-.21Z"/><path class="cls-9" d="M580.66,147.46c-.13,3.22-.26,6.44-.4,9.66-2.82,3.53-6.8,2.34-10.31,2.21-11.67-.44-23.32-1.27-34.98-1.79-3.66-.16-5.56-1.47-5.48-5.39,.08-4.13,2.5-4.95,5.93-4.92,15.08,.1,30.16,.15,45.24,.22Z"/><path class="cls-76" d="M515.51,169.66c-2.8,2.48-5.59,4.95-8.39,7.43,.84-4.71,4.47-7.07,8.02-9.51,.12,.69,.25,1.38,.37,2.08Z"/><path class="cls-58" d="M372.7,280.95c.33-5.95,.65-11.89,.98-17.84,1.04-.88,1.97-.78,2.8,.31,4.28,9.69-.45,19.86,1.6,29.67-.74,23.59,6.17,45.71,13.1,67.82,4.92,15.69,9.93,31.35,14.44,47.16,1.08,3.8,2.99,7.65,.34,11.61-12.16,6.22-25.37,5.54-38.27,4.79-6.48-.38-8.9-6.44-9.05-12.76,3.23-9.56,2.24-19.12-.05-28.71-4.21-17.59-5.69-35.79-12.42-52.92,.96,14.09,1.87,28.14,2.81,42.19,.82,12.25,3.74,24.74-2.65,36.52-8.05,6.3-18.41,6.78-27.35,10.86-6,1.83-9.5,.24-10.61-6.53-4.88-29.85-9.45-59.65-4.26-90,2.36-13.82,10.37-21.88,23.52-25.7,15.39-4.47,30.59-9.5,45.08-16.46Z"/><path class="cls-2" d="M375.4,293.2c-2.41-10.01,1.61-20.09-.33-30.1-3.18-10.99-12.66-16.83-20.25-24.03-4.43-4.2-8.93-7.27-4.94-14.04,2.03-3.45-.23-5.49-2.64-7.59-2.9-2.53-5.33-5.38-2.06-9.36,.18-.6,.37-1.21,.55-1.81-.67-4.03,.88-7.34,3.37-10.34,.7-4.14,1.4-8.27,2.09-12.41,2.06-6.52-1.22-14.1,3.97-20,.62-2.16-.57-4.9,2.05-6.43,6.19-12.22,18.19-18.11,28.48-25.78,2.75-2.05,6.65-1.78,8.74,1.92,2.07,3.66,1.29,7.2-1.59,10.13-3.12,3.18-7.38,4.6-11.14,6.78-5.79,3.36-12.08,6.19-14.44,13.27-1.53,2.98-2.05,6.29-2.94,9.47-.28,.89-.58,1.79-.78,2.71-.14,.62-.18,1.25-.2,1.88,.22-.63,.14-1.31,.33-1.99,.7-2.22,1.39-4.38,1.86-6.62,7.46-16.12,22.98-20.89,37.7-26.8,3.85,.22,4.65-3.16,6.37-5.46,.26-.24,.64-.69,.75-.64,12.55,6.8,29.23,1.52,39.96,13.65l-.13-.09c4.63,3.28,9.75,6.1,11.33,12.21-3.03,4.66-5.79,.45-8.66-.24-4.67-2.72-9.69-3.84-15.08-3.39-14.31,2.06-28.46,4.57-41.62,11.09-7.83,3.88-12.85,9.48-13.71,18.38,.6,14.63,7.51,27.94,8.75,42.44,.26,3.01,.85,5.99,1.24,9,1.23,9.37-1.6,16.51-10.64,20.48-2.89,7.71-.71,15.73-1.54,23.54-.41,3.88,1.36,9-4.85,10.19Z"/><path class="cls-63" d="M361.19,410.47c-.65,10.03,4.82,14.01,13.74,11.85,10.2-2.47,21.01,.42,30.81-4.19,1.32-.84,2.66-1.65,4.15-2.17,2.65-.6,5.35-1.41,7.15,1.66,.33,7.72,0,15.41-1.18,23.06-.42,1.08-1.11,1.95-2.05,2.62-12.61,5.23-23.14,14.35-36.1,19.01-10.97,3.94-21.53,9.32-33.77,5.27-1.17-.39-2.97,1.14-4.48,1.77-.51-2.14,.17-4.69-2.12-6.23-4.13-1.64-6.32-5.14-7.65-8.97-4.24-12.17-12.57-23.15-11.02-37.04l26.45-8.79c8.99-5.93,11.49-5.59,16.07,2.16Z"/><path class="cls-14" d="M353.07,933.11c3.39,3.45,6.79,6.91,10.18,10.36-3.57,7.74-9.93,14.03-11.2,23.05-.39,2.75-3.96,3.25-6.85,2.9-3.34-1.47-7.43-1.06-10.2-3.99-2-.75-4-1.5-5.99-2.25-21.62,1.93-32-6.91-30.27-21.16,.74-3.18,1.46-6.38,3.82-8.87-.53-9.06,1.81-14.23,12.79-14.65,6.88-.27,12.75-7.96,21.12-5.76,2.56,.67,5.37,.35,7.97,.92,13.29,2.93,13.31,3,7.79,15.19-.8,1.77-.98,3.13,.83,4.25Z"/><path class="cls-17" d="M344.93,967.63c2.91-.5,6.32-.34,6.15-4.8-.37-9.23,5.42-14.6,12.17-19.36,3.26-.92,6.52-1.84,9.77-2.77,12.41-.09,21.52,5.03,26.43,16.76,4.87,21.23-11.12,35.69-28.72,32.68-7.48-1.28-12.34-6.11-17.26-11.1-.72-1.15-1.45-2.29-2.17-3.44-2.2-2.6-6.19-3.76-6.37-7.97Z"/><path class="cls-33" d="M642.75,995.94c.72-19.06,5.56-24.69,24.71-28.74,19.48,4.1,28.78,17.05,23.97,33.39-3.53,12.02-13.18,17.6-30.38,17.54l-.39-.49-.59,.21c-3.33-.64-6.55-1.54-9.16-3.87-4.05-5.41-10.54-9.72-8.16-18.04Z"/><path class="cls-68" d="M413.8,443.29c.49-.41,.68-.92,.59-1.55,4.9-2.75,10.2-4.06,15.78-4.45,4.4,.73,7.75,3.36,11.05,6.09,1.5,1.64,4.18,2.64,3.2,5.68-5.44,6.76-10.87,13.52-16.31,20.27-1.99,1.93-3.98,3.86-5.97,5.79-6.13,3.94-11.7,2.78-15.83-2.79-4.21-5.68-2.31-11.12,1.72-16.49,2.75-3.66,8.75-6.17,5.78-12.56Z"/><path class="cls-74" d="M468.65,752.82c.25,3.96-.95,7.35-3.9,10.07-.22-4.21-.95-8.49,1.59-12.35,.77,.76,1.54,1.52,2.31,2.28Z"/><path class="cls-59" d="M490.52,546.53c-6.55,.65-1.47,7.48-5.14,9.66-2.48-2.45-1.65-5.14-.59-7.86-9.45-2.24-18.94,2.34-28.39-.14,.03-28.31,.31-56.62-.09-84.93-.1-7.5-.71-15.25-3.84-22.4-1.02-2.19,.28-3.55,1.75-4.85,.85-.47,1.75-.8,2.7-1.01,1.95-.32,3.89-.29,5.8,.24,.94,.34,1.76,.88,2.45,1.61,.41,.91,.63,1.87,.68,2.87,4.51,25.82,13.65,49.95,26.54,72.71,1.67,3.49,5.09,6.55,2.85,11.05-1.58,7.68-3.15,15.36-4.73,23.04Z"/><path class="cls-1" d="M454.29,437.12c-.6,1.25-1.2,2.51-1.81,3.76-.72,.09-1.44,.18-2.16,.27-3.6,.64-4.59,7.97-10.02,3.9-3.37-2.09-6.73-4.18-10.1-6.27-8.82-7.53-2.6-15.39-.09-22.82,1.47-4.35,5.12-7.81,7.47-11.89,4.81-3.49,10-4.31,15.62-2.25,10.03,6.09,12.48,12.63,8.48,22.57-2.18,1.79-3.58,.47-4.88-1.22-.99-.92-1.11-2.42-2.18-3.31,.74,1.07,1.28,2.27,2.14,3.28,1.1,2.09,3.21,3.59,3.56,6.12,.16,2.52,.14,4.98-2.65,6.24-2.65,.25-3.42-2.63-5.86-3.56,2.36,1.34,2.41,3.26,2.48,5.19Z"/><path class="cls-37" d="M440.3,445.05c1.9-.43,5.31,2.35,5.12-2.52-.27-6.98,3.16-1.26,4.9-1.39-.6,3.66-3.13,5.88-5.91,7.91-1.37-1.34-2.74-2.67-4.11-4.01Z"/><path class="cls-8" d="M495.25,523.49c-1.43-3.22-2.87-6.44-4.3-9.66-1.69-2.19-.84-3.67,1.34-4.78,4.65-.13,5.66,3.94,7.62,6.78,4.29,6.22,7.39,13.24,12.55,18.89,3.34,3.74,6.8,7.36,10.51,10.72,8.86,8.03,14.41,7.18,20.82-3.16,2.64-4.26,4.67-8.85,6.49-13.53,6.35-15.4,10.91-31.4,15.89-47.26,.85-1.4,1.87-2.5,3.73-2.08,2.93,3.49,7.07,1.31,10.55,2.26-5.77,1.13-8.72,4.44-10.2,10.36-4.49,17.92-10.79,35.26-18.77,51.95-11.52,16.88-16.49,18.19-32.27,8.49-1.91-1.55-3.81-3.1-5.72-4.64-5.36-1-6.99-5.2-8.29-9.67-3.31-4.89-6.61-9.77-9.92-14.66Z"/><path class="cls-70" d="M505.17,538.15c2.76,3.22,5.53,6.45,8.29,9.67-2.15,11.2,4.06,22.24,.24,36.4-6.53-14.1-15.43-24.46-17.77-37.77-.83-4.75,.18-12.23,9.23-8.29Z"/><path class="cls-35" d="M484.79,548.34c.2,2.62,.39,5.24,.59,7.86-.27,2.06-.54,4.13-.81,6.2-2.72-4.73-2.87-9.42,.23-14.06Z"/><path class="cls-46" d="M569.88,479.4c-.68,.71-1.36,1.42-2.03,2.13-11.49-1.88-13.65-12.06-18.05-20.25-4.92-11.34-7.8-23.33-11.07-35.19-1.09-8.62-3.73-16.48-10.84-22.15-6.72-4.23-14.8-5.77-21.16-10.69q-6.81-10.69-16.27-1.66c-2.95,2.19-4.18,6.23-8.03,7.45-5.03-3.7-11.36-6-13.73-12.6,8.19-6.63,17.69-12.27,18.54-24.46,8.8-2.87,9.19-3.93,5.65-15.95-3.53,2.49,.31,9.14-5.65,9.89-1.27-7.34,1.19-14.97-2.23-22.25-1-2.12-1.59-5.93,2.03-7.71,3.06,6,9.7,6.35,14.78,8.87,12.28,6.11,24.97,11.42,37.55,16.92,4.89,2.14,7.4,4.92,8.58,10.87,6.85,34.73,14.43,69.32,22.11,103.88,1,4.52-.78,8.61-.17,12.9Z"/><path class="cls-21" d="M655.07,405.7c0,4.72,.09,9.45-.03,14.17-.11,4.5-.78,9.11,6.15,8.76,3.8-.19,4.02,2.66,4.04,5.56,.02,3.49-1.78,4.68-5.04,4.68-8.77-.01-17.55,.08-26.32,.19-3.66,.04-5.63-1.33-5.63-5.31,0-4.04,2.09-5.51,5.68-5.16,6.09,.6,7.49-2.55,7.2-7.89-.31-5.72-.17-11.47-.03-17.21,.12-4.98,.41-9.7-6.92-9.27-2.92,.17-3.82-2.24-3.85-4.88-.03-2.72,1.06-4.36,3.93-4.92,3.96-.78,7.81-2.16,11.78-2.75,5.79-.85,9.91,.42,9.21,7.85-.5,5.35-.1,10.79-.1,16.19h-.07Z"/><path class="cls-10" d="M460.31,204.29c.11,10.41,.16,20.83,.37,31.24,.05,2.5-1.26,5.47,1.85,7.23-3.76,9.44-5.02,20.81-17.93,23.18-5.15-1.46-4.5-5.96-5.13-9.79-3.68-22.35-4.32-45.31-13.65-66.51-1.85-4.21-4.58-8.31-2.87-13.33,2.72-4.22,7.14-5.57,11.59-6.89,15.96-.74,21.98,4.37,24.54,19.92,.82,4.99-.66,10.1,1.25,14.94Z"/><path class="cls-42" d="M440.56,315.16c13.24-4.69,16.45-15.26,15.98-28.29,4.18-.1,6.69,2.94,9.91,4.12,2.12,6.75,1.39,13.56,.43,20.37-.17,2.51-.34,5.02-.51,7.53-.95,23.51-4.92,46.86-3.75,70.49-.84,3.08-2.37,5.4-5.98,5.4-5.56-11.94-3.2-24.46-1.8-36.62,1.73-15.03,3.14-30.12,6.25-46.23-8.14,2.87-13.48,9.68-21.67,8.99-6-.49-12.05-.07-17.99-.85-2.95-.39-7.97,.62-6.94-5.4,8.76-3.58,17.46-3.75,26.07,.5Z"/><path class="cls-20" d="M460.31,204.29c-2.1-3.33-1.56-7.14-2-10.77-2.01-16.53-7.52-21.55-24.08-21.9-1.33-6.04-2.06-11.93,4.06-16.09,5.9-.74,11.25,.79,16.2,3.95,2.73,5.78,9.11,10.73,4.1,18.25,2.79,8.71,2.22,17.64,1.72,26.56Z"/><path class="cls-38" d="M460.78,390.34c-1.12-24.05-.05-47.93,5.59-71.45,1.02,2.81-.75,6.34,2.24,8.64-1.63,19.46-4.28,38.85-3.55,58.46-.42,2.44-1.01,4.71-4.28,4.35Z"/><path class="cls-32" d="M458.59,177.73c1.38-6.7-4.6-11.75-4.1-18.25,2.31-.2,3.07,4.56,6.14,1.9,1.96,4.79,3.93,9.57,5.89,14.36-.05,1.35-.09,2.7-.14,4.04-2.6-.69-5.2-1.37-7.79-2.06Z"/><path class="cls-38" d="M466.88,311.36c-.14-6.79-.28-13.58-.43-20.37,.12-11.43,.23-22.86,.35-34.29,3.19,18.22,3.18,36.44,.08,54.66Z"/><path class="cls-26" d="M472.39,234.58c-3.2,2.94-.42,7.07-2.05,10.33-1.88-3.57-1.81-7.44-1.64-11.29,.06-1.37,1.1-2.4,2.57-2.11,1.79,.35,1.29,1.85,1.12,3.08Z"/><path class="cls-38" d="M470.98,280.36c.55,4.93,1.09,9.87,1.64,14.8-.59,.07-1.13,.26-1.64,.56-.84-5.12-.82-10.24,0-15.36Z"/><path class="cls-51" d="M460.78,390.34c1.43-1.45,2.85-2.9,4.28-4.35,1.21,.15,2.42,.3,3.63,.45,4.99,3.64,10.91,6.21,14.04,12.03,3.99,5.27-.53,8.44-3.06,12-4.69,6.6-11.61,12.09-10.42,21.53-.79,2.91,.33,7.21-4.94,6.9,.1-.69,.21-1.38,.31-2.07-2.72-3.71-4.26-7.82-4.3-12.45,2.15-8.67,1.28-16.16-7.99-20.34-.89-1.05-1.22-2.22-.84-3.57,1.25-2.3,2.66-4.45,5.39-5.21,1.3-1.64,2.6-3.27,3.89-4.91Z"/><path class="cls-18" d="M487.24,355.92c2.71-3.16,1.18-7.02,1.77-10.53,.28-1.69-.72-4.53,2.56-4.06,2.35,.34,5.15,1.83,4.91,4.23-.53,5.31,4.78,11.05-.56,15.77-2.19,1.94-5.42,5.97-8.69,.66,0-2.02,0-4.04,0-6.06Z"/><path class="cls-40" d="M361.19,410.47c-4.53-6.87-10.54-2.72-16.07-2.16,3.53-10.5,2.91-21.52,1.58-31.98-2.06-16.24-.98-32.81-5.21-48.8-.48-1.81-1.09-4.43,1.63-4.94,1.21-.22,3.04,1.11,4.1,2.21,3.4,3.54,4.59,8.34,5.52,12.83,3.8,18.32,6.63,36.85,10.83,55.06,1.54,6.71-.96,11.96-2.38,17.78Z"/><path class="cls-41" d="M410.35,417.65c-1.53,.16-3.07,.32-4.6,.47-8.44-31.16-20.24-61.34-27.26-92.91-2.33-10.48-4.15-21.15-3.1-32.02,4.22-6.38,1.12-13.5,2.08-20.21,.78-5.44-1.74-11.26,1.91-16.36,.96,.73,1.65,1.66,2.08,2.79,1.4,5.15,.84,10.41,.92,15.64,.18,5.14,.06,10.28,.09,15.41-.21,18.04,3.03,35.58,8.34,52.71,6.39,20.61,12.51,41.3,19.16,61.83,1.34,4.15,3.06,8.35,.36,12.64Z"/><path class="cls-28" d="M438.29,155.53c-3.53,4.81-.56,11.27-4.06,16.09-3.35,1.47-6.7,2.95-10.05,4.42-1.33,1.02-2.43,2.6-4.1,2.86-12,1.91-20.67,8.98-28.21,17.89-8.68,1.47-8.04-7.41-12.19-10.98,1.63-13.54,12.15-18.54,22.83-22.41,11.48-4.16,23.44-7.11,35.77-7.87Z"/><path class="cls-47" d="M379.69,185.81c7.39-.68,4.47,10.65,11.75,10.09,5.15,9.46,5.41,20.07,7.2,30.33-.99,10.99,2.38,22.65-5,32.67-4.62,4.63-9.28,4.68-13.97,.09-.09-.79-.18-1.58-.28-2.36,9.4-1.95,11.49-8.21,10.37-16.83-1.68-12.96-4.03-25.77-8.11-38.18-1.72-5.22-2.66-10.37-1.96-15.81Z"/><path class="cls-4" d="M365.28,175.53c.5,3.14-.56,5.81-3.9,10.52,0-5.76-.88-9.19,1.63-12.54,1.33,.02,1.5,1.35,2.26,2.02Z"/><path class="cls-43" d="M365.28,175.53c-.75-.67-1.51-1.34-2.26-2.02,.54-3.48-.29-7.23,2.06-10.35,.58,2.04,1.17,4.07,1.75,6.11-.52,2.09-1.03,4.18-1.55,6.27Z"/><path class="cls-45" d="M403.94,143.33c.59-3.53,3.46-3.58,6.09-3.99-.22,4.09-2.12,5.63-6.09,3.99Z"/><path class="cls-5" d="M410.35,417.65c-7.41-24.64-14.93-49.26-22.19-73.94-5.02-17.04-8.93-34.31-8.26-52.28,1.98-.62,3.22,.58,4.1,1.98,6.19,9.76,15.18,15.67,25.95,19.24,1.59,.53,3.04,1.36,3.98,2.84,5.02,3.83,10.83,1.29,16.24,2.02,3.48,.47,7.33-1.14,10.33,1.89,2.38,1.58,3.66,3.94,4.17,6.62,4.7,24.66,7.61,49.51,7.97,74.63-.1,1.13-.21,2.26-.32,3.38-4.89-2.69-9.32,.35-13.94,1.08-5.96,6.77-13.05,11.38-22.37,11.77l-5.68,.77Z"/><path class="cls-30" d="M416.03,416.89c7.46-3.93,14.91-7.85,22.37-11.78-1.29,8.22-9.16,13.49-9.65,22.28-.23,4.06-.84,7.81,1.45,11.4-5.36,.52-10.11,4.31-15.82,2.96-.72-8.37-1.23-16.72,1.64-24.85Z"/><path class="cls-56" d="M464.32,438.9c3.44-2.06,1.62-5.71,2.57-8.52,3.96,.71,4.1,4.1,4.43,6.93,2.83,24.26,11.79,46.44,22.8,67.94,.32,1.69,.07,3.24-1.09,4.58-1.69,.81-1.98,2.35-2.09,3.99-11.44-18.47-20.31-38.12-23.94-59.56-.86-5.07-7.68-9.36-2.69-15.36Z"/><path class="cls-23" d="M454.29,437.12c-2.42-3.25-4.84-6.51-8.79-11.8,7.72,1.64,8.46,6.49,11.07,9.39,1.11,.97,.95,1.64-.48,1.99-.62,.04-1.23,.18-1.8,.42Z"/><path class="cls-56" d="M460.33,424.38c4.12,3.22,5,7.57,4.3,12.45-.37-.04-.74-.12-1.09-.25-4.19-.95-2.04-5.96-4.95-7.73-.68-2.02-1.36-4.03-2.04-6.05l.03-.04c1.25,.54,2.51,1.08,3.76,1.61Z"/><path class="cls-65" d="M458.58,428.85c5.76-.06,4.08,4.65,4.95,7.73-2.48,.04-4.96,.08-7.44,.12,.16-.66,.32-1.33,.48-1.99,2.48-1.33,1.69-3.78,2.01-5.86Z"/><path class="cls-15" d="M456.54,422.8c-4.13-1.26-5.49-5.01-9.24-10.2,6.61,2.6,9.95,4.56,9.27,10.16l-.03,.04Z"/><path class="cls-11" d="M504.79,474.9c2.46,20.37,6.81,40.55,6.4,61.22-8.09-7.36-11.51-17.94-18.16-26.29-.21-1.2-.42-2.4-.63-3.59,.12-7.31-.19-14.61-.5-21.91-.16-3.71-.23-7.34,2.1-10.54,3.9-2.61,7.39-1.22,10.79,1.1Z"/><path class="cls-48" d="M552.14,530.33c.03-23.1,.06-46.19,.08-69.29,3.68,8,7.69,15.74,15.62,20.49-3.38,16.86-9.23,32.93-15.71,48.8Z"/><path class="cls-25" d="M494.97,473.53c-.03,7.54,.03,15.09-.11,22.63-.07,3.5,1.08,7.39-2.45,10.09-12.88-20.97-20.44-43.77-23.65-68.1-.35-2.62-1.23-5.17-1.86-7.75-.91-6.19,2.11-10.67,5.64-15.46,3.8-5.16,11.06-8.39,10.21-16.46,.76-3.4,3.46-5.41,5.59-7.82,.44,.24,.89,.49,1.34,.73,2.56,4.07,1.16,9.03,3.05,13.27,.34,1.05,.55,2.11,.71,3.2,.12,15.87,1.27,31.69,2.07,47.51-2.34,5.99-.15,12.12-.52,18.18Z"/><path class="cls-31" d="M494.97,473.53c-4.72-5.04-5.01-10.56-1.79-16.46,1.56-6.35,5.55-11.47,8.65-17.04,6.91-11.41,14.8-22.17,21.85-33.49,1.22-1.96,2.31-4.13,5.02-4.45,8.17,5.52,12.24,13.01,11.01,23.02-9.29,14.37-18.71,28.65-27.74,43.17-1.9,3.05-4.71,4.5-7.17,6.61-3.41,.51-6.65-.23-9.83-1.38Z"/><path class="cls-44" d="M507.49,392.92c5.39,10.39-5.79,6.37-8.47,9.74-2.36,2.09-4.67,4.37-8.12,1.95l.24-.57c-3.3-3.98,1.11-9.54-2.76-13.4h-.08c.69-.69,1.39-1.39,2.08-2.09q11.82-12,17.1,4.37Z"/><path class="cls-66" d="M396.11,226.27c-1.1-10.2-5.86-19.83-4.68-30.38,6.22-14.36,19.2-17.58,32.74-19.86-.5,6.52,4.05,11.27,6.14,16.86,7.74,20.67,8.77,42.52,11.97,63.99,.46,3.11-1.14,7.12,3.87,7.97,.64,7.64-.17,15.3,1.34,22.98,1.52,7.74-3.28,13.11-9.08,17.54-7.72,4.51-15.62,3.56-23.57,.82-3.12-4.62,1.32-6.64,3.52-8.97,6.03-6.36,11.3-13.27,16.09-20.56,.51-2.17,5.28-5.04-1.2-5.99-4.85-.71-9.73-1.25-14.52-2.43-4.62-2.09-8.05-5.79-12-8.76-7.08-5.33-10.74-12.25-10.05-21.42,.29-3.88,.81-7.93-.58-11.79Z"/><path class="cls-12" d="M413.97,303.28c7.86,4.14,16.34,.96,24.46,2.09,1.92,3,1.82,6.44,2.13,9.79-8.87,.11-17.74,.22-26.62,.33-15.62-1.98-26.36-10.86-34.04-24.07-.08-5.53-.16-11.06-.25-16.59,2.39-2.1,4.96-3.54,8.28-2.28,3.36,5.22,2.85,12.12,7.31,16.86,5.13,6.13,12.58,9.12,18.73,13.86Z"/><path class="cls-69" d="M452.66,400.66c-3.74-6.55-3.43-14.04-4.04-21.09-1.74-20.2-3.91-40.31-8.11-60.16,5.55-2.26,11.27-4.3,15.33-8.99,1.79-2.07,3.52-4.85,6.39-3.49,3.4,1.61,2.16,4.99,1.62,8-4.73,26.56-8.99,53.17-6.96,80.33-1.41,1.8-2.82,3.6-4.23,5.4Z"/><path class="cls-22" d="M389.52,268.56c.74-3.34,1.48-6.68,2.21-10.01,6.03-10.14,3.55-21.43,4.38-32.27,.49,.87,1.53,1.83,1.39,2.58-3.51,19.24,9.52,28.6,22.55,37.98,2.41,1.37,6.36,1.97,2.85,6.15-5.08,6.05-26.67,7.43-32.19,1.91-1.71-1.71-2.69-3.87-1.19-6.33Z"/><path class="cls-49" d="M490.91,404.61c2.71-.65,5.41-1.3,8.12-1.95,.65,12.99-1.01,26.25,4.4,38.7-3.42,5.24-6.84,10.47-10.26,15.71-1.81-17.44-2.88-34.91-2.26-52.46Z"/><path class="cls-46" d="M488.4,390.64c4.77,3.67,1.74,8.95,2.76,13.4-3.42-3.95-1.45-9.01-2.76-13.4Z"/><path class="cls-67" d="M389.52,268.56c.41,3.28,1.79,5.52,5.39,6.26,8.37,1.71,16.4,.61,24.45-1.9,5.43-1.7,2.72-3.81,.69-6.08,7.15-1.47,13.88,4.55,21.41-.22-.11,5.37-2.93,7.69-5.18,10.32-2.96,4.41-6.85,8.04-10.16,12.18-5.29,6.61-21.01,7.3-32.28,1.93-5.5-4.99-6.42-11.58-6.47-18.48,.72-1.33,1.43-2.67,2.15-4Z"/><path class="cls-53" d="M393.84,291.04c7.07,2.08,14.24-.12,21.35,.53,6.09,.56,9.48-3.25,12.97-7.41,2.31-2.75,5.39-4.84,8.12-7.23-5.26,10.62-12.24,19.8-22.32,26.34-9.01-.3-14.42-6.51-20.12-12.24Z"/></svg>