<?xml version="1.0" encoding="UTF-8"?><svg id="Layer_10" xmlns="http://www.w3.org/2000/svg" viewBox="0 0 1080 1080"><defs><style>.cls-1{fill:#7eb133;}.cls-2{fill:#847371;}.cls-3{fill:#030302;}.cls-4{fill:#030202;}.cls-5{fill:#cc9986;}.cls-6{fill:#b8aebe;}.cls-7{fill:#cf9e8e;}.cls-8{fill:#ba9888;}.cls-9{fill:#0c3164;}.cls-10{fill:#390f03;}.cls-11{fill:#1a5697;}.cls-12{fill:#cbbcb1;}.cls-13{fill:#040404;}.cls-14{fill:#1859aa;}.cls-15{fill:#deb7aa;}.cls-16{fill:#303030;}.cls-17{fill:#deb7a9;}.cls-18{fill:#2f381c;}.cls-19{fill:#143988;}.cls-20{fill:#0d0a08;}.cls-21{fill:#39342b;}.cls-22{fill:#194d97;}.cls-23{fill:#cc978b;}.cls-24{fill:#291917;}.cls-25{fill:#4f7109;}.cls-26{fill:#cfb795;}.cls-27{fill:#756e83;}.cls-28{fill:#deb7a8;}.cls-29{fill:#b5b2c4;}.cls-30{fill:#030303;}.cls-31{fill:#1a59aa;}.cls-32{fill:#dbb7a4;}.cls-33{fill:#af9585;}.cls-34{fill:#054ea4;}.cls-35{fill:#2e4e7f;}.cls-36{fill:#4e4646;}.cls-37{fill:#4c7e01;}.cls-38{fill:#4c7e02;}.cls-39{fill:#adadad;}.cls-40{fill:#2e2e2e;}.cls-41{fill:#012b7f;}.cls-42{fill:#543a30;}.cls-43{fill:#5d8121;}.cls-44{fill:#00297b;}.cls-45{fill:#776f83;}.cls-46{fill:#0d509e;}.cls-47{fill:#060404;}.cls-48{fill:#0b4c8d;}.cls-49{fill:#454545;}.cls-50{fill:#044ea4;}.cls-51{fill:#ca9888;}.cls-52{fill:#af8b7d;}.cls-53{fill:#2f2d31;}.cls-54{fill:#00297a;}.cls-55{fill:#6b7693;}.cls-56{fill:#010101;}.cls-57{fill:#c6b19d;}.cls-58{fill:#c2a28c;}.cls-59{fill:#195ba8;}</style></defs><g><path class="cls-56" d="M731.45,643.65c1.51-5.91,3.03-11.82,4.54-17.73,2.4-22.03,9.9-43.07,12.6-65.07,.59-4.81,1.84-9.82,5.98-13.28,4.01-2.17,8.3-1.95,12.38-.73,29.27,8.72,59.31,8.12,89.37,7.85,8.02-.07,16.18-.95,24.04,1.7,6.92,6.28,2.44,13.44,1.6,20.33-.22,1.23-.55,2.44-.92,3.63-1.83,10.72-1.66,21.45,0,32.18,.36,1.15,.59,2.33,.75,3.52,.95,7.05-.52,14.24,1.35,21.24,.37,1.14,.62,2.31,.82,3.49,1.28,7.64-.5,15.52,1.79,23.08,.35,1.16,.57,2.34,.73,3.53,.72,5.93-.29,12.01,1.72,17.82,.67,2.98,.92,6,.99,9.04-.47,5.5,.88,10.77,2.02,16.07,.22,1.21,.3,2.43,.31,3.66-.13,9.81,2.27,19.31,3.65,28.93,1.15,8.29,2.53,16.54,4.4,24.69,.94,3.94,.91,8.05,2.25,11.92,.38,1.1,.65,2.23,.88,3.36,1.03,5.74,2.66,11.34,4.2,16.96,3.68,18.59,9.01,36.82,11.98,55.56,.44,4.22,.2,8.53,1.71,12.61,.35,1.21,.56,2.43,.71,3.68,.77,8.78-.7,17.72,2.04,26.35,.48,3.32,.32,6.6-.34,9.88-.75,2.94-1.44,5.9-1.3,8.97,.97,21.71-1.82,43.12-5.2,64.48-.26,1.33-.7,2.6-1.27,3.82-7.06,12.06-18.39,9.63-28.61,7.17-8.64-2.08-16.21-1.7-24.57,1.05-22.05,7.27-44.23,7.59-66.07-1.42-18.07,.24-35.77-2.58-53.49-5.69-9.87-1.73-14.5-5.95-13.94-16.79,.83-16.01,.33-32.09,.14-48.14-1.75-17.88-1.72-35.78-1.15-53.72,.2-6.44,1.07-13-.9-19.37-.07-1.12-.13-2.24-.2-3.36-6.23-14.26-5.38-29.76-7.64-44.7-1.78-11.73-3.54-23.42-8.43-34.22-2.54-5.62,.13-11.42-2.18-16.77,1.66-8.01-2.07-16.52,2.21-24.3,1.75-20.54,7.95-40.04,14.58-59.34,1.16-3.38,1.97-7.14,3.87-10.35l-.02,.08c2.81-3.46-2.13-8.64,2.59-11.68Z"/><path class="cls-40" d="M800.59,1006.86l-.37,3.69c-2.13,3.93,1.09,9.63-4.12,12.55-3.29,6.96-12.4,3.31-16.39,9-1.41,1.29-2.7,.45-4.02-.19-2.6-1.62-5.62-1.65-8.5-2.21-.99-.17-1.96-.44-2.92-.72-4.54-1.45-8.93-.82-13.27,.91-2.73,.94-5.4,2.04-8.14,2.97-16.89,5-33.75,2.34-50.62-.06-3.03-.57-5.95-1.56-8.67-2.99-6.44-3.4-11.43-8.06-11.48-15.9-.06-8.07,6.22-11.1,12.34-13.36,12.27-4.53,23.84-10.36,35.46-16.33,6.33-3.25,8-7.01,7.86-13.4-.3-13.8-.21-27.62,0-41.42,.05-3.03-1.98-7.18,2.94-8.74,.17,16.5,.56,33.01,.41,49.51-.07,6.95,.8,10.58,9.36,12.11,19.28,3.44,38.5,6.27,58.09,6.29,5.2,5.6,6.65,11.61,2.03,18.3Z"/><path class="cls-56" d="M668.78,208.37c-8.58,1.49-17.16,2.97-25.74,4.46l-4.48,.64c-8.66,2.63-17.03,9.01-26.45,2.07-3.79-17.56-5.02-35.36-4.34-53.27,.3-7.85,5.93-9.93,12.75-9.98,4.71-.38,9.42-.12,14.13,.14,1.88,.1,3.74,.37,5.56,.81,6.11,2.38,12.64,1.15,18.92,2.13,1.12,.16,2.23,.43,3.32,.74,3.73,1.32,7.74,1.25,11.54,2.23,4.38,1.57,9.21,.59,13.56,2.34,3.02,1.5,4.01,4.06,3.79,7.25-4.46,10.6-2.66,21.44-1.22,32.29-4.16,10.45-13.9,6.29-21.35,8.14Z"/><path class="cls-24" d="M689.44,169.22c-.16-2.53,.37-5.3-2.41-6.91-2.74-4.61-1.7-9.18,.11-13.75,.03-.73,.13-1.46,.31-2.17,1.7-2.18,4.1-2.57,6.65-2.6,8.05,1.48,14.43,5.59,17.93,13.04,2.63,5.59,1.44,10.71-5.89,9.75-6.11-.8-11.03,2.64-16.7,2.64Z"/><path class="cls-36" d="M673.22,160.32c3.25-2.95,11.23,5.34,11.45-4.81-.81-2.9-.93-5.55,2.47-6.95-.04,4.59-.07,9.17-.11,13.76-4.77,.47-9.57,1.12-13.82-1.99Z"/><path class="cls-44" d="M754.63,548.6c-19.28-8.36-14.16-22.52-9.21-37.1,8.9-26.2,19.32-52.1,23.18-79.64,2.88-20.54,3.36-41.41,5.16-62.1,.42-4.79-1.74-5-5.42-4.58-6.89,.78-14,.46-20.67,2.03-14.08,3.32-25.63-.82-36.42-9.6-10.51-8.56-20.02-18.06-28.65-28.45-12.05-14.49-12.21-17.77-2.51-34.81,5.5-.92,10.53,5.96,16.57,.39,4.26-3.93,9.11-6.94,6.91-13.87-1.03-3.23-.86-6,3.16-7.02,8.74-.32,16.32,3.15,23.72,7.24,11.71,11.84,19.33,26.77,29.93,39.51,14.03,16.86,26.96,34.47,44.11,48.69,22.06,18.28,38.22,17.4,55.83-4.99,5.01-6.37,9.35-13.22,14.31-19.62,1.61-2.07,3.45-4.79,6.52-3.72,2.29,.79,2.8,3.53,3.09,5.83,.82,6.5,2.58,12.87,2.63,19.46,.43,55.89-.91,111.67-9.94,166.99-.62,7.67-7.31,16.56,4.4,21.76,.69,.94,.73,1.93,.21,2.96-40.25,.31-80.69,3.26-120-9.03-2.13-.67-4.59-.26-6.89-.35Z"/><path class="cls-23" d="M705.78,275.22c2.1,7.34,3.69,13.94-4.3,19.8-7.94,5.82-14.53,9.41-21.4-.66-1.91-9.52-9.21-16.61-11.44-26.13-2.19-9.33-4.58-18.48-5.08-28.18-.46-9.06,1.24-16.54,8.6-22.43,2.23-1.79,5.81-4.04,4.72-7.27-1.23-3.64-5.6-.2-8.11-1.98,6.38-3.98,16.42,.01,20.31-9.35,8.22,3.53,12.95,9.9,14.98,18.45-1.34,4.45-9.4,5.37-6.35,12.13,.52,1.44,.74,2.92,.72,4.44-.8,3.46,1.73,6.81,.4,10.31-8.59,13.7-8.19,15.49,6.94,30.88Z"/><path class="cls-56" d="M710.25,44c6.66,1.03,13.31,2.06,19.97,3.08,7.78,7.31,3.82,17.03,4.95,25.62,.92,7.02-1.27,14.05-2.97,20.94-.71,14.11,3.3,27.96,2.41,42.08,12.22,16.07,8.61,34.89,9.16,52.97,.09,2.94,.48,6.4-3.79,7.19-5.65-1.15-5.74-6.53-7.88-10.37-7.77-13.95-11.32-30.24-23.22-41.91-1.18-2.24-1.53-4.67-1.73-7.15,.25-9.89-1.58-19.66-1.94-29.46-.35-9.74-3.93-14.08-13.62-13.24-1.34-.25-2.66-.45-4.01-.61-13.94-.67-15.12-1.74-15.37-15.05-.15-8.35-.11-16.68-1.28-25.01-.71-5.07-1.61-11.16,6.38-12.02,6.36,.54,12.87-1.26,19.11,1.17,.54,.7,1.13,.76,1.79,.16,3.95,1.04,8.32-1.03,12.05,1.62Z"/><path class="cls-16" d="M678.33,41.88c-5.02,1.04-5.88,4.75-4.62,8.68,2.63,8.24,2.39,16.71,1.59,24.94-1.11,11.45,2.14,17.33,14.49,15.45-1.56,5.65-6.16,2.58-9.41,3.16-4,.71-8.25-.89-12.17,1.11l-5.59-.24c-16.03,1.01-20.32-2.92-18.29-16.73,.3-1.27,1.12-2.03,2.41-2.24,.35,.04,.73,.07,1.11,.14,5.33,1.01,10.85,6.96,15.83,2.16,4.36-4.2,1.5-10.79,1.05-16.39-.52-6.46-3.45-8.72-9.77-6.52-2.51,.88-5.25,.86-7.85-.19-2.21-1.47-3.62-3.13-1.44-5.69,7.96-11.26,19.95-9.07,31.2-9.36,1.02,.13,1.51,.7,1.47,1.73Z"/><path class="cls-40" d="M691.5,90.9c16.04-.34,15.48-.29,16.79,14.88,.91,10.54,2.42,21.01,1.78,31.62-3.04,4.63-6.87,5.17-11.38,2.2-1.45-1.04-2.91-2.08-4.36-3.12,.33-.67,.23-1.27-.3-1.8-1.65-14.55-2.26-29.15-2.53-43.78Z"/><path class="cls-49" d="M645.61,76.87c-.69-4.88-1.37-9.75-2.06-14.63,1.06-4.19-1.12-8.91,2.11-12.73,.25,1.95,.85,3.69,2.79,4.62,3.86,7.76,4.5,15.4-.91,22.79-.65,0-1.29-.01-1.94-.04Z"/><path class="cls-28" d="M710.48,143.91c3.8,.2,6.89,2.17,8.07,5.5,5.5,15.43,15.66,28.79,19.79,44.81,1.43,2.93,4.64,4.42,6.03,7.4,5.03,10.77,12.71,19.92,18.62,30.16-.34,9.94-6.79,17.18-11.17,25.34-1.08,1.89-2.11,3.81-3.13,5.73-2.09,3.22-3.71,7.06-8.61,6.65-7.8-6.64-10.03-16.77-15.53-24.85-2.02-7.44-7.22-12.49-12.9-17.18-2.05-2.21-4.58-3.88-6.74-5.99-1.01-1.19-1.61-2.53-1.45-4.13-4.79-6.11-9.58-12.22-14.37-18.32-5.93-10.01-5.87-19.94,.36-29.8,5.24-8.64,13.02-6.77,21.23-3.55,.34-12.96-8.28-16.28-16.48-19.97,1.45-.75,2.91-1.49,4.36-2.23,4.06-2.26,8.05-2.42,11.93,.44Z"/><path class="cls-40" d="M573.35,142.18c3.74,2.28,7.9,1.91,12.01,1.88,3.42,3.2,7.59,2.12,11.59,2.02,9.93-.65,18.59,2.32,25.87,9.15-9.78-.79-13,3.51-12.1,13.29,1.46,15.84,1.73,31.78,2.51,47.68-5.68,8-14.85,6.32-22.73,8.12-4.75,1.09-9.9,.13-14.37,2.78-3.58,2.89-8.32-.28-11.96,2.31-2.89,.02-5.79,.04-8.68,.06-.31-.67-.45-1.38-.4-2.11-3.35-7.92-1.33-13.98,6.05-18.47,2.95-1.79,6.02-4.12,5.71-8-.79-9.87-2.17-19.67-1.01-29.63,.4-3.4-2.17-5.61-5.23-6.76-8.6-3.22-11.42-9.47-9.79-18.17,5.49-12.4,15.25-1.58,22.54-4.15Z"/><path class="cls-13" d="M550.81,146.33c2.32,8.07,4.4,16.01,15.27,16.73,3.96,.26,3.32,4.74,3.04,7.65-.99,10.3-1.51,20.51,1.84,30.54,1.01,3.02-.35,5.43-2.94,6.79-7.84,4.13-14.05,9.24-12.94,19.31-10.29-10.11-10.86-14.27-2.22-24.73,2.13-2.58,2.29-4.46,1.26-7.15-2.44-6.36-1.56-12.9-.87-19.4,.27-2.5,1.56-4.56-1.36-7.08-9.38-8.08-9.34-12.09-1.08-22.66Z"/><path class="cls-10" d="M728.86,92.99c11.13-3.86,20.95-10.94,32.68-13.35,8.39-.82,16.56,.81,24.74,2.25,3.79,3.56,8.86,4.27,13.47,5.97,27.96,10.3,40.73,31.31,37.54,60.7-1,9.16-6.79,19.24,3.72,27.33,1.34,1.03-1.13,5.4-3.42,7.48-.89,.73-1.9,1.08-3.05,1.02-12.37-3.2-23.16-9.88-34.21-15.93-5.64-3.09-8.55-8.53-10.73-14.43-1.06-2.86-2.42-5.98-6.33-5.52-3.11,.37-4.17,3.05-5.06,5.62-1.24,3.58-1.82,8.17-6.45,8.52-4.51,.34-5.99-4.09-8.04-7.25-.63-.96-1.23-1.94-1.82-2.92-6.9-11.54-15.2-20.25-30.39-15l-2.67-44.5Z"/><path class="cls-50" d="M747.07,261.59c0-1.86,.1-3.67,2.15-4.57,5.51-.99,5.72,3.98,7.58,6.91,7.56,11.98,15.68,13.73,26.55,4.74,7.98-6.6,14.72-14.57,22.11-21.83,4.58-4.5,8.26-5.34,11.87,.74,.6,4.85-2.65,6.94-6.25,8.79-6.29,2.08-8.42,8.75-13.44,12.24-4.71,3.28-8.29,7.98-14.05,11.23,6.9,.28,13.11,.56,18.98-2.37,3.23-.3,4.82,2.11,6.71,4.02,9,9.12,9.48,9.3,14.01-2.29,6.12-15.65,14.24-29.63,28.08-39.72,1.83-1.34,4.1-2.76,2.8-5.52-1.38-2.95-4.08-3.12-6.89-2.36-2.97,.8-5.57,2.54-8.5,3.43-1,.25-2.02,.3-3.04,.13-3.83-1.98-3.93-6.29-5.85-9.46,1.66-3.63-3.79-4.45-3.09-7.72,0-1.03,.2-2.01,.58-2.96,2.87-4.31,6.47-7.84,11.07-10.27,3.61-1.32,6.77-3.7,10.54-4.67,3.35-3.54,6.76-6.9,9.56,.42,3.16,8.27,14.44,13.33,9.8,24.77-.21,.51,1.3,1.78,2.1,2.61,26.37,27.66,32.68,62.63,36.67,98.72,4.64,41.96,3.08,83.82,.64,125.82-1.54,26.53-.91,53.18-1.45,79.77-.08,4.05,1.65,8.47-1.58,12.16-2.86-16.66-.35-33.4-1.25-47.22-.25,11.07,.1,25.02-.09,38.97-.15,10.84-15,21.38-25.17,18.09-3.45-1.12-4.98-3.42-4.76-6.88,.26-4.14-1.05-8.42,1.04-12.4,4.28-33.83,7.31-67.8,8.65-101.85,1.01-25.72,2.2-51.54-.87-77.26-.5-4.19-.8-8.4-1.36-14.38-6.44,8.82-12.25,16.54-17.8,24.44-3.81,5.42-8.18,10.29-13.75,13.82-15.5,9.82-29.68,6.97-45.59-6.66-28.05-24.01-48.94-53.76-69.57-83.82-1.49-2.17-3.5-3.97-5.26-5.95,3.16-4.19,6.34-8.37,10.71-11.43,6.38-.56,7.67-4.84,7.42-10.23Z"/><path class="cls-48" d="M874.5,534.91c0,.38-.07,.79,.03,1.14,1.69,6.08-4.63,16.12,7.47,17.06,10.39,.8,20.24-9.28,20.27-19.62,.05-14.08,.01-28.15,2.47-42.24,0,17.7,0,35.4,0,53.09-4.47,9.62-14.36,8.89-22.38,11.72-13.41-.78-14.32-3.25-7.85-21.16Z"/><path class="cls-51" d="M839.81,206.45c-3.82,3.1-7.64,6.19-11.46,9.29-10.8-7.45-11.66-10.25-6.35-21.33,.64-1.34,2.47-2.63,1.47-4.06-5.07-7.29-14.1-7.26-21.18-10.82-5.1-2.56-8.64,1.86-11.03,5.97-3.88,6.67-7.22,13.64-14.43,17.61-3.89,2.14-7.66,3.84-11.87,1.06-7.06-4.64-14.68-3.49-22.32-2.25-3.21-1.58-4.96-3.97-4.29-7.7,1.53,.07,3.1,.15,3.03-2.06-.43-13.28-1.26-26.57-1.16-39.85,.05-7.11-9.91-7.53-8.68-14.81,11.83-7.9,16.38-7.47,25.32,3.42,4.13,5.02,7.41,10.75,11.08,16.15,1.23,1.8,1.86,4.61,4.81,3.97,2.18-.47,2.7-2.64,2.74-4.59,.11-5.59,.2-11.6,7.46-12.19,7.9-.65,8.93,6.24,10.21,11.68,1.31,5.55,4.94,8.63,9.46,10.92,10.96,5.53,22.06,10.8,33.1,16.18,.77,5.36,4.05,8.99,8.25,11.99,.91,1.48,1.82,2.96,2.73,4.45-1.22,3.39-4.3,4.95-6.89,6.99Z"/><path class="cls-7" d="M843.97,195c-7.38-2.56-10.87-7.62-8.25-11.99,.71-.35,1.34-.23,1.88,.35,2.12,3.88,4.25,7.76,6.37,11.64Z"/><path class="cls-7" d="M839.81,206.45c1.49-3.13,3.82-5.42,6.89-6.99,.77,.21,1.54,.42,2.3,.63-2.27,3.27-4.75,6.23-9.19,6.37Z"/><path class="cls-21" d="M705.58,243.57c-2.35-.14-4.71-.28-7.07-.43-3.62-2.14-4.87-4.8-1.81-8.38,3.3-3.94,5.32-10.4,12.66-6.45,2.24,5.95,2.27,11.36-3.77,15.26Z"/><path class="cls-42" d="M703.46,217.35c.84,.96,1.68,1.92,2.52,2.87,.13,6.6-3.81,8.77-9.66,8.86-2.24-.21-5.46-.35-3.19-3.59,2.51-3.59,5.18-7.62,10.33-8.13Z"/><path class="cls-33" d="M696.32,229.08c3.19-2.98,7.89-4.32,9.66-8.86,2.2,1.57,4.41,3.14,6.61,4.71-1.17,1.47-2.56,2.52-4.56,2.39-3.77,2.48-7.55,4.95-11.32,7.43-.13-1.89-.26-3.79-.38-5.68Z"/><path class="cls-39" d="M647.55,76.91c.3-7.6,.61-15.19,.91-22.79,19.15-4.1,19.31-4.1,19.51,17.28,.04,4.02,3.09,10.96-2.89,11.57-5.81,.59-14.01,2.42-17.52-6.06Z"/><path class="cls-7" d="M742.63,201.92c5.63-8.92,16.83-5.5,20.11-2.69,11.54,9.87,15.16-1.14,20.91-5.93,2.43-2.03,3.13-6.05,4.87-9.02,4.52-7.66,9.36-12.6,19.07-5.89,6.63,4.59,15.26,5.96,22.63,11.88-13.49,7.54-9.88,16.41-1.87,25.46-.06,.7-.15,1.4-.27,2.09-6.6,7.91-14,14.56-24.85,15.77-1.5-.34-3.06-.83-3.94-2.07-5.67-8.07-11.57-8.25-18.54-1.34-2.9,2.88-6.95,4.54-11.14,5.32-3.18,.24-5.44-1.93-8.07-3.13-7.82-9.21-15.59-18.45-18.91-30.44Z"/><path class="cls-59" d="M761.54,232.36c3.16-2.93,4.8,1.2,7.24,1.57,.47,1.01,.57,2.05,.34,3.13-2.06,5.4-4.91,11.02,.16,16.12,4.16,4.18,8.9,4,13.37,.06,6.09-7.79,8.08-19.58,20.58-21.09,9.52-2.63,15.68-11.08,24.85-14.33,.14,2.61,5.14,3.5,2.51,7.09-1.92,2.5-5.05,3.18-7.44,4.96-1.41,2.88-7.6,4.01-3.14,8.95,1.53,.31,2.85,.92,3.93,2.04,.2,5.07-3.43,6.24-7.29,7.18-3.03-1.76-5.16-4.67-8.98,.36-5.47,7.2-12.49,13.27-19.08,19.58-11.84,11.36-24.55,17.23-35.9-6.56-.79-1.65-2.3-2.95-3.47-4.41,4.11-8.22,8.21-16.44,12.32-24.66Z"/><path class="cls-20" d="M708.02,227.33c.71-2.34,2.76-2.14,4.56-2.39,6.48,4.5,11.93,9.77,13.69,17.88-6.9,.25-13.8,.5-20.7,.75,3.08-5.07,2.12-10.75,2.44-16.24Z"/><path class="cls-59" d="M739.72,273.21c.33-1.44,.66-2.88,1-4.33,2.12-2.43,4.24-4.86,6.36-7.29,4.38,8.2,3.45,13.03-7.35,11.61Z"/><path class="cls-41" d="M837.5,234.14c6.67-3.39,13.08-13.19,20.38-.87,1.46,2.46,2.07,4.55-1.36,6.49-16.21,9.18-24.18,24.48-30.96,41.05-6.58,16.08-7.17,15.84-18.09,1.93-2.82-4.45,.95-6.1,3.6-7.92,10.51-7.23,16.84-17.1,19.56-29.51,.97-4.42,2.2-8.92,6.87-11.17Z"/><path class="cls-19" d="M837.5,234.14c-4.3,19.72-13.09,36.68-30.03,48.6-1.52-1.54-3.04-3.09-4.56-4.63-5.05-8.91-3.95-12.63,6.85-23.17,3.12-1.48,5.42-3.78,6.9-6.89,2.33-2.31,4.67-4.62,7-6.94,2.37-4.74,5.84-7.68,11.5-7.01,.78,.01,1.56,.03,2.34,.04Z"/><path class="cls-14" d="M809.75,254.94c-3.16,7.46-10.63,13.65-6.85,23.17-6.3,10.2-15.79,1.2-23.71,4.08,10.94-8.65,18.31-20.67,30.56-27.25Z"/><path class="cls-31" d="M835.16,234.1c-3.83,2.34-7.67,4.67-11.5,7.01-1.56,0-3.13-.02-4.69-.03-2.72-5.18,1.52-9.2,2.33-13.78,2.88-1.65,5.9-2.74,9.29-2.39,3.39,2.13,3.25,6.02,4.57,9.19Z"/><path class="cls-46" d="M768.59,236.16c5.21,6.35,10.43,12.7,15.64,19.05-6.32,8.31-13.38,4.89-18.06-.69-4.82-5.76-5.11-13.12,2.42-18.36Z"/><path class="cls-50" d="M821.29,227.3c.88,4.87-1.54,9.19-2.33,13.79-1.87-.64-6.46,1.6-4.41-3.3,1.57-3.77,4.45-7.01,6.74-10.48Z"/><path class="cls-40" d="M863.13,1003.65c2.74-.93,5.4-2.03,8.14-2.97,4.33-1.72,8.73-2.36,13.27-.91,.96,.28,1.93,.54,2.92,.72,2.88,.56,5.9,.59,8.5,2.21,1.31,.65,2.61,1.48,4.02,.19,3.99-5.69,13.1-2.04,16.39-9,5.21-2.92,1.99-8.61,4.12-12.55l.37-3.69c4.62-6.69,3.17-12.7-2.03-18.3-19.59-.02-38.81-2.85-58.09-6.29-8.56-1.53-9.43-5.16-9.36-12.11,.16-16.5-.24-33-.41-49.51-4.92,1.56-2.89,5.71-2.94,8.74-.22,13.8-.3,27.62,0,41.42,.14,6.39-1.53,10.15-7.86,13.4l-36.78,18.07-.93,21.3-1.85,12.48,62.54-3.21Z"/></g><g><path class="cls-54" d="M146.15,705.02c8.11,5.25,17.5,3.94,26.4,5.19,15.87,8.1,32.19,6.38,48.32,1.47,8.9-2.71,17.58-5.83,26.99-5.93,12.19-.94,22.67,5.02,33.79,8.43,10.68,2.23,18.77-1.05,23.63-11.17,4.24-1.32,7.81,1.49,11.77,1.92,9.99,4.65,10.66,4.43,10.63-5.67-.2-63.71,.97-127.41-6.52-190.96-3.31-28.04-5.13-56.23-11.65-83.79-2.88-12.2-3.54-12.94-14.51-8.37-15.38,6.41-29.64,1.09-44.29-2.01-12.86-2.73-25.11-8.44-38.62-7.92-2.01,.18-3.4,1.23-4.12,3.12-.37,3.72-.88,7.38-5.17,8.84-.76,.74-1.17,1.65-1.32,2.67,.63,4.41-5.97,4.31-5.45,8.69,.86,7.37-2.51,13.81-5.01,20.24-19.51,50.24-27.11,103.22-36.02,155.88-5.26,31.12-9.5,62.39-11.33,93.94,.22,2.08,1.31,3.77,2.48,5.42Z"/><path class="cls-9" d="M317.54,470.46c-2.96-20.63-6.07-41.23-11.73-61.34-10.45,.86-20.14,6.91-31.06,4.52-12.56,.27-24.16-4.44-36.19-6.89-8.6-1.75-16.99-5.25-26.08-3.6-1.85,.88-3.61,1.83-2.84,4.4,22.87,5.36,45.61,11.46,68.69,15.68,8.44,1.54,16.87-4.06,25.93-7.38,5.94,23.33,9.74,47.16,12.82,71.04,4.41,34.17,6.07,68.54,7.86,102.98,1.87,35.78,.35,71.47,1.72,107.17,.29,7.68-1.58,11.11-9.6,7.9,2.08,3.36,4.46,7.48,8.8,6.24,5.01-1.43,2.93-6.63,2.94-10.17,.12-41.34,.9-82.7-.3-124-.82-28.29-4.23-56.52-7.16-84.71-.45-4.35,.32-8.4,.06-12.58-1.66-2.93-2.34-6.27-3.86-9.26Z"/><path class="cls-55" d="M317.54,470.46c-1.1,4.08-.4,7.41,3.86,9.26,.03-2.34,.05-4.67,.08-7.01-1.32-.75-2.63-1.5-3.95-2.25Z"/><path class="cls-28" d="M249.41,702.79c-6.25-1.27-12.59-.61-18.11,1.98-19.03,8.94-38.8,7.84-58.76,5.44-1.42,9.81-8.75,16.48-13.29,24.6-15.95,28.51-24.75,59.32-29.23,91.36-3.8,27.17-6.54,54.51-9.14,81.83-.7,7.39-5.11,12.82-7.3,19.33,.88,28.8,30.36,59.51,58.65,61.1,10.34,.58,13.29-3.38,9.19-12.38,.36-.54,.4-1.11,.13-1.71-2.98-2.01-5.68-4.28-7.17-7.68-14.39-10.66-25.46-35.75-15.46-61.67,11.15-28.9,23.16-57.44,36.55-85.39,1.4-2.92,1.93-7.1,6.77-6.73,14.7-34.59,30.93-68.49,46.97-102.46,1.15-2.43,2.33-5.03,.2-7.63Z"/><path class="cls-5" d="M249.41,702.79c-14.12,30.43-28.1,60.92-42.49,91.22-2.91,6.12-4.88,12.14-4.68,18.87,2.66,24.71,9.71,48.63,13.19,73.16,2.27,16.01,4.48,32.4-3.57,47.81,12.24,9.48,23.54,20.1,35.83,29.53,18.34,14.07,38.75,13.65,59.85,9.23,1.05-1.09,1.05-2.19,.02-3.29-12.26,1.6-21.41-2.35-25.92-14.55-2.07-1.84-1.78-4.86-3.44-6.9-3.23-3.13-6.96-5.71-10.19-8.86-11.19-11.87-13.12-26.97-13.72-42.11-1.26-31.99,2.99-63.64,7.78-95.15,4.6-30.27,9.73-60.49,19.73-89.6-10.19-5.23-20.37-10.49-32.4-9.35Z"/><path class="cls-4" d="M307.51,971.21c-4.61,.04-9.31-.51-13.82,.2-21.67,3.43-39.08-4.35-54.79-18.81-8.03-7.39-14.88-17.1-27.05-18.77-10.34,18.18-3.31,35.3,3.31,52.4,.73,1.89,2.64,2.97,4.74,2.74,27.18-2.89,52.83,9.04,79.78,8.17,5.06-.16,10.15-.06,15.15-.67,4.84-.59,10.71-.34,11.86-7.08,1.03-6.03-.98-10.68-7.05-13.1-1.4-.56-2.58-1.64-3.87-2.48-2.35-2.15-5.25-2.58-8.28-2.63Z"/><path class="cls-30" d="M181.42,976.05c3.39,11.78-4.01,10.88-11.37,9.44-26.74-5.2-48.51-26.79-54.06-53.47-.38-1.85-.01-3.95-2.42-4.69-4.28,7.2-4.22,15.71-7.02,23.35l-.19,2.34c.11,3.11,.6,6.25,.27,9.31-.94,8.87,1.89,14.29,11.08,17.41,9.27,3.15,16.44,10.41,23.01,17.55,13.83,15.01,31.67,17.42,50.28,15.94,12.27-.97,16.71-13.7,8.82-23.49-4.88-6.06-10.93-10.96-18.42-13.7Z"/><path class="cls-2" d="M174.38,966.67c.71,4.13,1.7,8,7.17,7.68-.98-3.88-4.34-5.53-7.17-7.68Z"/><path class="cls-53" d="M244.51,60.7c-17.23-.18-26.82,10.37-33.89,24.3-5.59,11.02-8.91,23.32-7,35.01,2.55,15.62-2.1,28.07-10.07,40.41-2.71,4.2-4.93,8.71-7.38,13.08,.31,3.82-1.9,6.6-3.89,9.47-4.88,2.55-4.65,7.41-5.35,11.84,.31,.78,.13,1.42-.53,1.93-.89,4.75-1.79,9.51-2.68,14.26,.59,7.79,8.38,7.85,12.59,11.77,13.63,6.34,22.22,17.23,28.38,30.58,1.92,4.17,3.49,12.05,10.75,4.39,2.32-6.92,3.43-14.02,2.69-18.79-.54,3.47,.8,9.1,3.24,14.57,4.29,3.9,2.97,17.73,14.78,8.4,4.53-7.76,4.57-16.1,3.17-24.62-2.79-14.1-8.46-27.21-13.8-40.46-5.1-12.65-8.71-25.63-5.2-39.47,1.92-7.47-1.11-14.65-1.3-22.01-.16-6.33,1.36-10.44,7.91-13.76,12.52-6.35,15.78-20.4,22.79-31.33-2.7-11.07-8.16-20.72-15.2-29.56Z"/><path class="cls-38" d="M186.06,220.38c-4.11-3.13-8.23-6.26-12.34-9.37-27.03,20.36-43.01,50.18-64.54,75.23-3.02,5.18-1.25,9.65,2.02,13.91,5.72,6.21,12.36,11.42,18.57,17.12,.71,.76,1.53,1.4,2.44,1.92,4.66,.29,9.02-1.71,13.65-1.79,10.59-5.24,19.73-13.03,30.81-17.44,17.58-20.11,19.91-43.76,15.88-68.83-.7-4.35-3.13-7.88-6.48-10.75Z"/><path class="cls-15" d="M113.57,299.69c-2.67-4.09-5.84-8.02-4.39-13.45-6.56,17.32-20.93,30.03-27.78,47.2-1.75,4.37-4.16,8.55-1.6,13.28,15.02,27.83,34.17,52.41,57.45,73.89,9.64,8.9,21.22,7.38,32.56,8.04,.5,.04,1,.09,1.49,.14,4.5-.25,8.68-2.39,13.27-2.15,2.64-.09,5.28-.17,7.74-1.31,1.54-.89,2.2-2.29,2.31-4-.08-1.08-.41-2.09-.93-3.03-1.62-2.14-4.03-3.31-6.1-4.91-4.18-6.24-8.38-12.45-16.3-14.47-15.26,4.05-24.67-2.82-31.81-15.84-5.93-10.82-12.2-21.49-18.45-32.15-4.85-8.27-4.47-15.08,3.06-21.49,3.14-2.67,6.57-5.59,6.55-10.44-5.3-6.78-13.69-10.82-17.08-19.29Z"/><path class="cls-11" d="M169.8,428.65c-29.33,56.14-43.37,117.27-58.51,178.09-6.29,25.26-12.5,50.69-26.17,73.35-3.1,5.13-.51,8.17,3.49,10.49,7.45,4.31,15.21,5.46,23.1,.94-.48-1.19-1.3-2.03-2.46-2.55-17.71-3.21-17.61-3.17-10.71-20.25,14.66-36.32,23.28-74.39,32.07-112.37,8.84-38.2,23.09-74.42,38.65-110.22,2.95-6.79,6.81-9.78,14.55-6.92,4.32,1.59,10.14,3.79,12.06-3.89-7.81-5.56-15.66-10.96-25.95-6.31l-.12-.35Z"/><path class="cls-22" d="M146.15,705.02c.03-1.64,.06-3.27,.08-4.91-6.47-9.12-16.44-12.48-26.41-15.45-4.26-1.27-8.71-.32-8.75,5.9l.65,.95c8.02-1.84,14.88,.16,20.9,5.84,3.82,3.61,7.87,7.15,13.53,7.66Z"/><path class="cls-3" d="M317.46,117.08c10.57-13.65,4.3-39.62-11.87-48.58-1.66-.92-3.68-1.12-4.54-3.13-11.94-8.33-25.32-12.19-39.76-12.19-6.53,0-13.16,.63-16.77,7.53,2.2,10.9,8.52,19.7,14.59,28.63,7.87,3.81,17.08,3.92,24.41,9.58,5.79,4.48,12.16,8.12,16.32,14.46,2.43,3.7,5.15,7.61,9.55,1.75,4.14-5.52,5.01,2.87,8.09,1.96Z"/><path class="cls-34" d="M111.07,690.56c2.63-4.52,6.11-5.09,10.66-2.72,8.1,4.23,16.33,8.19,24.5,12.26,4.01-40.79,9.04-81.47,16.6-121.75,7.99-42.56,14.46-85.5,30.84-126.12,3.06-7.58,9.43-15.81,4-25.23-.32-1.08-1.04-1.72-2.14-1.92-1.74,.14-2.9,.98-3.27,2.76,.05,2.7,.96,5.06,2.84,7.02-3.67,5.08-8.12,3.58-12.11,.91-7.14-4.77-11.52-2.33-14.59,4.76-11.53,26.59-23.02,53.18-31.43,81-12.61,41.72-19.85,84.88-33.74,126.25-3.18,9.46-6.71,18.87-11.04,27.84-5.31,10.98-3.6,14.76,8.38,15.15,3.49,.11,7-.13,10.5-.2Z"/><path class="cls-35" d="M209.65,407.55c.75-.81,1.5-1.63,2.25-2.44-.14-4.97-3.93-4.01-6.96-4.3-3.4,.73-6.74,.68-10.21,.02-4.29-.81-9.46-.73-10.71,4.08-1.42,5.48,4.13,6.44,7.95,7.63,3.25,1.02,6.56,2.12,10.05,2.29,2.67,.08,5.22-.23,7.26-2.21,.12-1.69,.24-3.38,.36-5.07Z"/><path class="cls-6" d="M195.73,426.34c.67,.17,1.32,.4,1.95,.68,2.65-2.01,6.43,3.54,8.51-1.12,1.24-2.77-1.63-3.44-3.22-4.65-2.98-2.06-5.76-5.1-9.82-2.08-.09,1.55-.18,3.1-.27,4.64,.37,1.49,1.83,1.76,2.84,2.52Z"/><path class="cls-6" d="M209.28,412.62c-2.28-.1-4.56-.2-6.84-.3-.83,1.46,.66,3.19-.57,4.61-.15,.86,.1,1.59,.72,2.19,3.02,.31,6.34,1.5,8.55-1.64,1.53-2.18-.71-3.43-1.85-4.86Z"/><path class="cls-27" d="M202.59,419.12c-.01-.75-.11-1.49-.29-2.22-1.83-2.03-4.1-2.41-6.65-1.78-1.75,.78-3.16,1.77-2.48,4.05h0c3.27,.69,6.54,1.38,9.81,2.07-.16-.7-.29-1.41-.38-2.12Z"/><path class="cls-25" d="M314.8,328.09c11.67-14.02,6.57-28.94,2.2-43.71-5.89-19.92-12.05-39.76-18.09-59.63-.22-.8-.44-1.6-.67-2.4-3.8-3.47-8.06-2.94-12.42-1.43-4.94,4.86-.77,9.57,.9,13.74,5.23,13.02,4.3,24.13-7.94,32.71-2.71,3.07-6.06,5.66-7.33,9.8-.16,1.89,.19,3.55,2.03,4.54,12.45,.77,20.82-7.37,30.04-14.05,1.96,6.42,4.32,12.46,6.13,18.63,3.98,13.59,6.95,27.26-2.99,39.99-2.13,2.72-3.62,6.3-3.51,9.78,.53,18.01-5.56,35.29-5.46,53.26,.1,17.11-1.16,18.41-18.27,22.62-1.53,.38-2.94,.97-4.22,1.91-.98,1.15-.83,2.13,.46,2.92,11.16,1.81,21.05-1.38,30.17-7.64,.37-23.51-.3-47.07,4.35-70.31,3.85-2.58,2.11-7.57,4.63-10.73Z"/><path class="cls-1" d="M275.65,416.77c-.13-.76-.1-1.52,.08-2.26,5.54-15.93,3.45-32.39,1.84-48.4-1.63-16.19-.87-31.67,3.26-47.33,3.6-13.65,3.06-26.92-7.85-37.79l-.08-4.2c-8.53-6.3-17.92-10.44-28.59-11.38-9.28,4.24-6.94,15.81-13.03,21.4,5.71-8.05,6.02-17.14,2.79-26.7-2.78-3.09-5.92-4.97-10.2-3.04-6.43,5.47-4.91-2.23-5.77-3.98-7.11-14.49-15.4-27.63-32.04-32.71,10.2,28.79,5.44,55.37-11.86,80.09-2.83,6.27,1.32,11.3,3.28,16.53,8.14,21.69,13.64,43.8,12.33,67.2,.91,15.31,1.04,15.47,15.34,18.57,2.41,.31,5.06-.05,6.75,2.35,16.39,.96,31.75,6.86,47.65,10.15,5.38,1.11,10.63,2.08,16.1,1.5Z"/><path class="cls-17" d="M317.46,117.08c-1.06-4.23-2.84-7.96-7.14-10.29-3.67,2.19-.28,7.52-4.1,9.52-12.71-14.21-24.8-29.53-47.12-26.98-7.93,6.61-11.12,16.46-16.78,24.62-1.48,2.13-2.04,5.94-5.16,5.55-14.92-1.88-10.95,9.17-11.56,16.75-.56,6.88,3.97,13.31,2.35,20.4-4.84,21.44,8.74,32.34,24.12,42.24,4.28,2.22,8.51,4.56,13.42,5.17,16.41-1.06,33.29-16.07,37.36-33.19,7.48-17.22,12.46-35.12,14.62-53.79Z"/><path class="cls-52" d="M253.92,196.87c-5.3-3.84-10.9-7.19-15.42-12.13-7.35-8.03-11.96-16.87-10.55-28.09-4.49,12.39-1.43,24.38,2.69,35.98,5.26,14.8,12.08,29.04,16.03,44.33,4.21-.29,7.29,4.81,11.94,2.5,8.92-12.47,7.38-26.5-4.68-42.58Z"/><path class="cls-32" d="M256.29,238.98c-3.72,1.77-4.28-11.54-9.62-2.02,.35,8.57,.37,17.11-2.53,25.35-.95,1.6-.98,3.15,.28,4.62,9.98,1.87,17.94,9.62,28.49,9.85,2.42-2.34,4.83-4.68,7.25-7.02,1.72-6.88-4.59-9.64-7.26-14.28-.61-.8-1.29-1.55-1.99-2.27-3.31-2.98-6.07-6.45-8.74-10-1.58-1.93-3.99-2.72-5.87-4.24Z"/><path class="cls-18" d="M244.41,266.94c-.09-1.54-.19-3.08-.28-4.62-9.7,3.95-4.75-9.14-10.87-9.35-2.43,2.21-2.1,4.64-.55,7.16,.95,9.35-.08,18.56-2.63,29.06,9.19-5.82,8.87-15.9,14.34-22.24Z"/><path class="cls-57" d="M232.71,260.12l.55-7.16c-1.85-6.49-2.11-13.51-6.56-20.97-1.07,9.53-1.95,17.31-2.83,25.09,2.95,1.01,5.89,2.02,8.84,3.04Z"/><path class="cls-26" d="M129.93,318.63c.56-.69,1.13-1.37,1.69-2.06-6.02-5.63-12.04-11.25-18.06-16.88,.74,10.39,7.82,15.3,16.37,18.94Z"/><path class="cls-43" d="M132.69,318.38c5.12,6.27,7.74-.37,11.3-2.18-4.46-2.86-7.69,.66-11.3,2.18Z"/><path class="cls-12" d="M192.89,384.22c-.12,14.09-11.91,13.36-20.77,16.34,6.16,4.11,10.79,9.54,14.06,16.16,2.97-2.09,6.08-.23,9.12-.33,2.33,.17,4.66,.34,6.99,.51,7.98-1.27-.78-3.08,.15-4.58-5.75-1.77-11.49-3.54-17.88-5.51,6.08-8.23,14.97,2.28,20.59-4.06-6-4.92-14.88-7.92-12.26-18.54Z"/><path class="cls-29" d="M195.11,434.87c.69-2.46,.68-4.72-1.85-6.23-2.26-3.38-6.59-2.62-9.48-4.74-5.14,.27-10.24,.67-13.86,5.09,9.31-1.96,16.19,6.5,25.19,5.87Z"/><g><path class="cls-38" d="M296.63,216.64c4.11-3.13,8.23-6.26,12.34-9.37,27.03,20.36,43.01,50.18,64.54,75.23,3.02,5.18,1.25,9.65-2.02,13.91-5.72,6.21-12.36,11.42-18.57,17.12-.71,.76-1.53,1.4-2.44,1.92-4.66,.29-9.02-1.71-13.65-1.79-10.59-5.24-19.73-13.03-30.81-17.44-17.58-20.11-19.91-43.76-15.88-68.83,.7-4.35,3.13-7.88,6.48-10.75Z"/><path class="cls-15" d="M369.12,295.95c2.67-4.09,5.84-8.02,4.39-13.45,6.56,17.32,20.93,30.03,27.78,47.2,1.75,4.37,4.16,8.55,1.6,13.28-15.02,27.83-34.17,52.41-57.45,73.89-9.64,8.9-21.22,7.38-32.56,8.04-.5,.04-1,.09-1.49,.14-4.5-.25-8.68-2.39-13.27-2.15-2.64-.09-5.28-.17-7.74-1.31-1.54-.89-2.2-2.29-2.31-4,.08-1.08,.41-2.09,.93-3.03,1.62-2.14,4.03-3.31,6.1-4.91,4.18-6.24,8.38-12.45,16.3-14.47,15.26,4.05,24.67-2.82,31.81-15.84,5.93-10.82,12.2-21.49,18.45-32.15,4.85-8.27,4.47-15.08-3.06-21.49-3.14-2.67-6.57-5.59-6.55-10.44,5.3-6.78,13.69-10.82,17.08-19.29Z"/><path class="cls-6" d="M286.96,422.59c-.67,.17-1.32,.4-1.95,.68-2.65-2.01-6.43,3.54-8.51-1.12-1.24-2.77,1.63-3.44,3.22-4.65,2.98-2.06,5.76-5.1,9.82-2.08,.09,1.55,.18,3.1,.27,4.64-.37,1.49-1.83,1.76-2.84,2.52Z"/><path class="cls-6" d="M273.41,408.88c2.28-.1,4.56-.2,6.84-.3,.83,1.46-.66,3.19,.57,4.61,.15,.86-.1,1.59-.72,2.19-3.02,.31-6.34,1.5-8.55-1.64-1.53-2.18,.71-3.43,1.85-4.86Z"/><path class="cls-27" d="M280.1,415.38c.01-.75,.11-1.49,.29-2.22,1.83-2.03,4.1-2.41,6.65-1.78,1.75,.78,3.16,1.77,2.48,4.05h0c-3.27,.69-6.54,1.38-9.81,2.07,.16-.7,.29-1.41,.38-2.12Z"/><path class="cls-43" d="M350,314.63c-5.12,6.27-7.74-.37-11.3-2.18,4.46-2.86,7.69,.66,11.3,2.18Z"/><path class="cls-12" d="M289.8,380.48c.12,14.09,11.91,13.36,20.77,16.34-6.16,4.11-10.79,9.54-14.06,16.16-2.97-2.09-6.08-.23-9.12-.33-2.33,.17-4.66,.34-6.99,.51-7.98-1.27,.78-3.08-.15-4.58,5.75-1.77,11.49-3.54,17.88-5.51-6.08-8.23-14.97,2.28-20.59-4.06,6-4.92,14.88-7.92,12.26-18.54Z"/><path class="cls-29" d="M287.58,431.12c-.69-2.46-.68-4.72,1.85-6.23,2.26-3.38,6.59-2.62,9.48-4.74,5.14,.27,10.24,.67,13.86,5.09-9.31-1.96-16.19,6.5-25.19,5.87Z"/></g><path class="cls-45" d="M183.78,423.91c2.16,3.58,5.74,4.32,9.48,4.73,.82-.77,1.64-1.54,2.47-2.31-.94-.84-1.89-1.68-2.83-2.52-3.04,.03-6.08,.06-9.12,.09Z"/><path class="cls-6" d="M195.3,416.4c-3.14-2.67-6.19-2.82-9.13,.33,2.33,.81,4.66,1.63,6.99,2.45,.71-.93,1.43-1.85,2.14-2.77Z"/><path class="cls-47" d="M302.84,170.87c-6.73,9.42-12.47,19.67-22.46,26.33-4.32,2.88-8.97,4.54-14.18,4.53-5.19,6.34-.48,10.63,3.43,14.65,3.19,3.28,7.15,5.78,11.68,7.11,1.29,.25,2.39-.1,3.31-1.04,4.54-.03,9.08-.07,13.62-.1,5.33-3.26,8.2-7.63,7.32-14.25-1.62-12.35,3-25.16-2.72-37.22Z"/><path class="cls-37" d="M272.98,280.99c6.43,15.18,8.24,30.32,2.38,46.42-4.32,11.87-2.48,24.41-1.35,36.91,1.5,16.64,1.22,33.45,1.71,50.18,21.4-.11,25.4-3.83,25.01-25.23-.33-17.96,6.94-35.12,5.06-53.2-.18-1.73,.78-3.98,1.94-5.4,15.55-19.15,7.71-38.48,.64-57.82-1.3-3.55-2.6-7.1-3.9-10.64-8.68,9.31-19.42,15.17-31.5,18.78Z"/><path class="cls-58" d="M284.62,222.45c-.53-.37-1.11-.49-1.75-.36-12.7,1.17-17.42,7.59-14.39,19.9,1.08,4.4,3.99,8.49,1.89,13.33,3.26,4.82,6.51,9.63,9.77,14.45,16.79-13.94,17.42-20.66,4.48-47.32Z"/><path class="cls-8" d="M270.38,255.32c6.58-1.46,4.85-5.47,3.05-9.65-5.77-13.4-4.1-17.49,9.44-23.58-7.18-5.46-18.76-7.32-16.67-20.36-4.09-1.62-8.19-3.24-12.28-4.85-1.43,2.8-.39,4.43,1.65,6.89,7.35,8.89,7.35,25.1,.72,35.21,.17,2.9,1.64,4.52,4.59,4.7,2.92,4.08,6.92,7.28,9.51,11.64h0Z"/><path class="cls-58" d="M270.38,255.31c-.62-5.96-4.92-8.92-9.5-11.64,.84,5.78,5.12,8.75,9.5,11.64Z"/></g></svg>