<?xml version="1.0" encoding="UTF-8"?><svg id="Layer_4" xmlns="http://www.w3.org/2000/svg" viewBox="0 0 1080 1080"><defs><style>.cls-1{fill:#362621;}.cls-2{fill:#a37c72;}.cls-3{fill:#91b7dc;}.cls-4{fill:#a80100;}.cls-5{fill:#4a2212;}.cls-6{fill:#0c0c0c;}.cls-7{fill:#1f191b;}.cls-8{fill:#222;}.cls-9{fill:#040404;}.cls-10{fill:#700000;}.cls-11{fill:#b48375;}.cls-12{fill:#020305;}.cls-13{fill:#3e3e3e;}.cls-14{fill:#c28e7e;}.cls-15{fill:#131313;}.cls-16{fill:#deb7a9;}.cls-17{fill:#413836;}.cls-18{fill:#5c301e;}.cls-19{fill:#3c241a;}.cls-20{fill:#3f1607;}.cls-21{fill:#e7a397;}.cls-22{fill:#9a0907;}.cls-23{fill:#eacfc6;}.cls-24{fill:#850c0c;}.cls-25{fill:#c2ddf6;}.cls-26{fill:#33312d;}.cls-27{fill:#deb7a8;}.cls-28{fill:#160b08;}.cls-29{fill:#981010;}.cls-30{fill:#6f0103;}.cls-31{fill:#060403;}.cls-32{fill:#181818;}.cls-33{fill:#722118;}.cls-34{fill:#020103;}.cls-35{fill:#fdfdfd;}.cls-36{fill:#e7d9d5;}.cls-37{fill:#171717;}.cls-38{fill:#464646;}.cls-39{fill:#3f1207;}.cls-40{fill:#4e1c0a;}.cls-41{fill:#4a2314;}.cls-42{fill:#121212;}.cls-43{fill:#bddcf6;}.cls-44{fill:#3b0f01;}.cls-45{fill:#2e2e2e;}.cls-46{fill:#5d2d1e;}.cls-47{fill:#050505;}.cls-48{fill:#161616;}.cls-49{fill:#3c1003;}.cls-50{fill:#643533;}.cls-51{fill:#2d2d2d;}.cls-52{fill:#c99983;}.cls-53{fill:#292929;}.cls-54{fill:#0b0b0b;}.cls-55{fill:#6b100d;}.cls-56{fill:#252525;}.cls-57{fill:#2f2c2d;}.cls-58{fill:#070404;}.cls-59{fill:#3d1808;}.cls-60{fill:#700103;}.cls-61{fill:#525252;}.cls-62{fill:#bdbbbc;}.cls-63{fill:#1f1516;}.cls-64{fill:#eedcd4;}.cls-65{fill:#ca9987;}.cls-66{fill:#d97a74;}.cls-67{fill:#404040;}.cls-68{fill:#12110f;}.cls-69{fill:#390f02;}.cls-70{fill:#deb6ab;}.cls-71{fill:#5d2c1c;}.cls-72{fill:#010101;}.cls-73{fill:#3e3732;}.cls-74{fill:#888;}.cls-75{fill:#fefefe;}</style></defs><path class="cls-72" d="M88.41,833.15c-.74-3.5-1.15-6.97,.51-10.35,.43-5.5-.2-11.09,1.46-16.48l.29-.37-.28-.38c1.71-4.34-.5-9.1,1.42-13.42l.15-1.53c-.75-4.88-2.05-9.82,1.58-14.22l.37-.4-.26-.48c.51-3.38-.28-6.92,1.23-10.18l.24-2.7c1.1-9.04,1.02-18.23,3.34-27.12l-.08,.18c1.73-4.17-.91-8.88,1.57-12.96-.25-2.71-.59-5.44,1.15-7.87,1.16-12.8,1.65-25.6,.36-38.42-.05-.85-.1-1.7-.15-2.56-2.27-9.52-3.22-19.18-2.81-28.94,.13-3.08,.93-6.12-.17-9.16l.07,.17c-1.59-10.51-1.77-21.16-3.24-31.68l.05,.09c-9.9-9.11-17.12-19.87-20.27-33.12-.18-.47-.36-.94-.53-1.41-1.73-1.2-.44-3.35-1.48-4.77v.02c-1.78-2.94-2.85-6.03-1.99-9.52,3.61-2.26,6.5,.39,9.59,1.48,12.77,4.47,25.6,7.26,39.35,4.55,11.17-2.2,19.2-7.3,23.99-18.01,2.76-6.17,4.7-13.72,13.05-15.48,3.46,1.22,4.22,4.47,5.42,7.32,10.4,24.52,17.93,49.81,21.87,76.26,4.88,32.76,13.43,64.81,20.34,97.17,8.18,38.28,18.13,76.15,26.79,114.32,1.01,4.45,1.19,9.92,8.05,9.62,8.82,1.13,11.3,3.29,11.99,9.97,.26,2.52-.65,3.91-3.02,4.48-17.8-.64-19.91,1.34-24.8,23.16-.45,.64-1.06,1.01-1.83,1.12q-6.02-5.08-12.52,.47c-7.12-1.02-10.63-4.64-11.63-12.08-.37-2.78,.41-5.78-1.58-8.25,.13-.49,0-.88-.42-1.17-2.7-1.82-2.27-4.87-2.94-7.49-2.26-3.48-2.51-7.53-3.29-11.44-5.46-10.49-9.14-21.55-10.71-33.3l.03,.09c-2.04-1.22-.69-3.48-1.56-5.05-2.46-1.39-.36-4.2-1.83-5.9-6.21-11.31-9.29-23.8-13.21-35.95-2.64-8.17-5.45-16.31-6.74-22.3-1.76,12.31-2.42,27.06-8.23,40.92-1.87,3.38-1.96,7.06-1.78,10.78-1.7,2.49,.23,5.62-1.41,8.12-.45,.37-.52,.8-.19,1.29-2.04,2.9,.97,6.87-2.02,9.57-2.02,3.33-.9,7.03-1.22,10.55-.97,10.8-.4,11.57,9.62,12.9,7.45,.99,10.58,5.03,9.15,12.45-1.41,7.32-5.1,13.1-12.36,15.97-5.16,2.04-10.19,4.72-13.69,8.8-8.81,10.27-19.76,11.44-31.93,9.1-5.78-.79-7.62-5.56-9.25-9.97-.74-1.99-.83-3.37-3.26-2.91-2.33-7.83-.55-15.72-.37-23.59Z"/><path class="cls-3" d="M156.5,528.89c-5.47,4.05-8.61,9.92-10.85,15.96-4.25,11.45-13.13,16.42-24.12,18.61-15.61,3.11-30.61,.98-44.89-6.11-1.59-.79-3.08-2.09-5.09-1.49-8.03-3.15-11.78-8.94-11.32-17.64,1.43-27.18,3.94-54.38,2.94-81.57-.88-24.1,1.25-48.12,.33-72.18-.27-7.16,.74-14.15,6.36-19.51l-.04,.06c4.02-10.25,13.01-16.02,20.81-22.78,5.49-4.75,12.13-8.26,15.46-15.19,.49-1.05,.98-2.09,1.48-3.14,4.16-13.55,14.64-13.31,25.7-11.79,8.62-.28,14.94,5.1,21.89,8.92,3.4,1.87,6.63,4.02,9.83,6.23,2.01,1.75,4.97,2.88,4.34,6.42-2.96,3.44-8.08,2.14-11.55,5.52,9.25,.58,18.08,2.1,26.55,5.3,9.57,3.61,19.07,7.45,29.53,7.77,2.37,.07,4.61,1.05,6.11,3.14,.16,8.87-3.22,16.76-6.88,24.54-1.33,2.83-2.36,5.79-3.74,8.61-3.35,4.43-6.9,8.6-12.79,9.7-8.62,.36-17.28,1.07-25.83-.38-5.97-1.01-7.57,1.78-7.31,6.9,.68,13.05,1.54,26.1,3.5,39.02,3.5,23.02,7.63,45.92,13.26,68.55,2.08,8.36,5.46,15.71,12,21.56,2.12,1.9,5.6,3.78,2.99,7.72-4.7,4.02-11.02,2.81-16.28,5.02-4.72-.74-3.59-5.07-4.77-7.95-.79-1.92-1.24-3.99-1.83-6-2.53-8.57-3.2-8.9-11.37-5.4-1.45,.62-3,.92-4.42,1.58Z"/><path class="cls-72" d="M828.23,382.18c-2.08-2.22-.79-5.39-2.18-7.8-1.18-1.02-2.7-1.93-2.98-3.52-2.94-16.19-11.67-30.62-14.3-46.92,.32-5.09,3.07-7.94,8.05-8.71,3.88,.99,3.86,4.61,4.85,7.45,6.38,18.35,11.52,37.09,17.93,55.43,.61,1.73,.97,3.57,1.94,5.14,2.51,4.07,7.17,4.43,10.5,3.43,4.48-1.35,1.08-5.43,.38-7.92-5.2-18.43-11.05-36.68-16.46-55.06-.81-2.75-1.99-5.47-1.13-8.45,4.49-4.88,5.47-9.69,.29-14.92-2.58-2.6-2.75-5.72,.74-7.93,4.35-2.75,6.66-7.27,9.94-10.96,.57-.6,1.22-1.05,1.96-1.42,34.92-9.97,69.49-21.04,104.3-31.34,5.28-1.56,11.08-4.65,15.77,1.56,4.93,10.56,3.42,13.72-7.49,17.17-6.7,2.12-13.81,2.83-20.17,6.06-.1,1.83-.28,3.66-.28,5.48-.02,152.67-.02,305.35-.01,458.02,0,2.09,.2,4.18,.3,6.27,5.03,5.01,10.46,9.68,13.85,16.1,.42,.48,.84,.95,1.26,1.43,4.42,1.21,6.33,5.22,9.25,8.15,17.15,17.22,33.14,35.52,49.78,53.23,2.72,2.9,8.67,6.24,3.39,10.71-4.46,3.77-7.5-1.68-9.9-4.69-5.08-6.39-11.11-11.82-16.71-17.69-2.14-2.25-4.81-4.18-4.91-7.74-1.97-.57-2.82-2.21-3.72-3.82-.64-.67-1.28-1.34-1.91-2.01-3.31-1.46-5.35-4.31-7.59-6.94-1.64-1.95-3.58-3.57-5.57-5.14-8.15-9.52-17.42-17.96-25.46-26.69,.2,15.1,.29,30.72-.04,46.34-.24,2.06-.86,4-1.94,5.77-2.87,4.43-6.3,3.28-10.14,1.28-8.15-4.26-7.89-4.08-10.25,5.02-1.85,7.15-1.66,15.04-6.91,21.1-1.89,1.89-1.02,4.27-1.16,6.47-.84,2.37-1.09,5.86-4.82,4.6-2.65-.9-2.18-3.6-1.93-6.1,1.28-12.86,4.98-25.16,8.33-37.55,1.37-3.43,1.46-7.16,2.51-10.67,1.83-9.75,4.28-19.36,6.67-28.97,.14-.44,.34-.87,.53-1.31,.41-.97,.07,.38,.31-.64,.15-.62-.11-.69-.47-.05-6.54,7.65-14.15,14.18-20.5,21.9-1.85,1.59-3.61,3.28-5.11,5.22-9.74,10.09-17.86,21.79-29.53,29.98l-.02,.02c-.79,2.98-3.77,4.05-5.46,6.25-1.71,2.23-3.73,5.27-6.68,2.41-3.49-3.38,.36-5.21,2.48-7.21l.09-.11c2.09-1.74,2.69-4.89,5.57-5.87,1.86-.33,1.16-2.53,2.41-3.31,.86-2.88,2.98-4.83,4.96-6.93,12.88-13.62,26.24-26.79,38.47-41.03,1.59-1.86,3.51-3.08,5.73-3.94l-.07,.08c.43-1.54,1.34-2.71,2.76-3.47,.58-.59,1.16-1.19,1.74-1.78,2.56-2.6,4.13-6.18,7.72-7.74l.08-.1c1.67-2.39,.86-5.1,.86-7.65,.04-136.35,.29-272.7-.29-409.05-.07-15.9-1.14-31.91-1.43-47.88-.02-1.29-.04-2.65-1.68-3.65-3.91,2.53-5.18,6.97-6.92,10.9-3.73,8.41-7.8,16.65-11.71,24.97-1.48,3.15-3.45,5.86-5.86,8.31l.08-.12c-2.76,11.83-8.97,22.22-14.2,32.97-2.68,5.5-3.26,12.31-8.88,16.23-.48,.29-.63,.7-.45,1.23-1.06,2.18-.9,4.93-3.05,6.61h0c-.48,4.67-2.17,8.93-4.25,13.11-5.91,11.92-9.21,12.86-20.93,5.74l.06,.02c-1.84-1.38-4.03-.64-6.04-.94-11.07-1.65-13.85-4.77-14.35-16.42Z"/><path class="cls-34" d="M698.53,603.07c6.35,10.84,3.08,20.86-8.4,25.06-2.76,1.01-4.83,1.71-3.9,5.32,4.19,16.19,8.27,32.41,12.4,48.62,0,2.67-.45,5.45,1.79,7.6,6.22,9.97,6,21.78,9.27,32.59,1.18,3.9,1.04,8.06,1.49,12.1,.12,2.04-.51,4.22,1.11,5.98,1.69,.55,2.46,1.95,2.81,3.47,2.71,11.87,7.04,23.42,6.95,35.83,.12,.48,.23,.97,.35,1.45,5.54,9.96,6.79,20.95,7.71,32.02-.34,.44-.27,.8,.21,1.09,1.53,2.7,2.29,5.72-1.25,7.01-4.51,1.64-5.27-2.55-6.67-5.41-2.72-2.16-.34-5.44-1.71-7.89-2.85-1.71-3.32-4.81-3.49-7.52-.46-7.16-4.66-13.1-5.95-19.96-.91-4.86-3.84-6.34-8.6-4.88-7.97,2.44-16.12,4.29-23.98,7.05-6.39,2.25-12.8,4.19-19.6,4.57l.11-.05c-1.43,2.67-4.23,.8-6.15,1.84h0c-6.17,2.92-7.9,7.51-6.32,14.18,1.63,6.86,.45,14.05,1.38,21.05l-.26,.57,.41,.47c1.76,5.97,4.14,11.79,4.23,18.17,.04,2.98,.35,5.99-3.54,6.8-3.63,.76-6.04-.87-7.54-4.13-1.33-2.89-2.02-5.98-2.56-9.06-1.71-9.82-4.59-19.43-5.84-29.31-.97-7.64-3.52-13.47-11.49-15.67l-.42-.36-.47,.31c-2.73-1.27-5.78-.07-8.55-1.08l-6.34-.26c-5.23,2.46-10.01-2.36-15.17-.96-3.64-1.39-6.38-2.97-.86-5.67,1.88-.92,3.97-1.32,6.04-1.63,.81-.13,1.65-.19,2.47-.21,8.07-.39,15.95,1.87,24.05,1.73,4.35-.08,5.26-1.38,4.64-5.53-2-13.46-2.49-14.1-16.47-15.59-2.32-.25-4.69-.24-6.76-1.59-2.83-3.06-2.56-5.43,1.52-6.98,1.52-.41,3.09-.44,4.66-.49,11.92-.33,12-.35,9.44-12.44-6.22-29.4-12.29-58.83-18.14-88.22-.18-.03,.28-.54-.31-.31-2.22,11.78-4.21,23.5-6.58,35.15-.65,3.2-.74,6.85-4.49,8.48-2.96-.51-3.47-3.04-3.8-5.24-1.23-8.16-4.2-16.01-4.4-24.35,.2-4.64,1.42-9.16,1.84-13.8,.38-4.19-.6-7.05-4.42-8.85-5.44-7.14-5.81-15.36-4.97-23.78,.3-2.95,2.33-4.53,5.19-5.08,1.55-.3,3.14-.63,4.67-.38,17.8,2.93,35.25,.04,52.68-3.07,17.17-1.6,33.88-5.73,50.68-9.35,3.91-.84,7.62-1.68,11.28,.58Z"/><path class="cls-72" d="M373.99,423.15c-.48-.09-.96-.17-1.44-.26-1.28,.24-2.57,.5-3.86,.65-16.28,1.9-21.14-1.71-24.2-17.84-.24-1.27-.74-2.5-.92-3.8-1.28-6.18-2.14-12.41-2.56-17.16,1.31,6.71,.53,15,.53,23.28,0,99.53,0,199.06,.03,298.59,0,7.34-.26,14.73,1.99,21.86,1.46,4.22-1.81,8.75,.87,12.9,2.32,8.34,7.02,16.37,3.33,25.5-1.1,.91-2.32,1.05-3.64,.58-4.11-4.62-3.97-10.63-5.28-16.17-.37-3.19-1.15-5.31-4.54-2.07-1.45,1.38-1.69,4.71-5,3.29-2.9-5.23-.29-11.16-1.92-16.72-6.73,5.08-9.23,15.1-19.42,15.47-1.47-1.45-1.47-3.16-.95-4.99,2.2-4.94,6.07-8.75,9.89-12.14,10.52-9.33,12.09-21.65,12.11-34.27,.17-83.75,.09-167.5,.09-251.26,0-38.07,.02-76.14-.03-114.21,0-3.52,1.17-7.56-3.07-9.8-3.23-2.11-6.45-4.23-9.87-6.08-7.29-3.94-7.58-5.22-3.84-13.52l.5-2.46c.2-.9,.71-1.53,1.55-1.9,2.88-1.05,5.68-.36,8.38,.6,15.69,5.56,31.84,9.68,47.52,15.27,3.65,1.3,7.61,2.35,8.55,7.01-1.63,14.73-7.79,28.24-11.67,42.37-3.34,12.14-7.44,24.07-11,36.16-1.26,4.28-.13,6.31,4.36,7.05,15.28,2.53,30.51,5.32,45.81,7.69,4.95,.77,7.19-1.2,8.68-5.6,10.09-29.85,19.52-59.91,29.14-89.91,4.97-15.5,10.1-30.95,15.38-46.35,2.11-6.17,1.13-9.26-5.16-12.13-15.99-7.28-32.36-13.8-47.7-22.46-2.01-1.54-3.93-3.14-3.83-6.02,1.6-5.62,5.41-4.87,9.31-3.02,8.31,3.93,16.47,8.16,24.71,12.22,1.38,.69,2.76,1.41,4.15,2.1,10.12,5.66,21.1,9.69,30.79,16.16,3.09,4.03,.95,7.99-.31,11.86-6.25,19.29-13.1,38.39-18.64,57.9-3.37,9-6.15,18.21-9.18,27.33-1.9,5.19-3.66,10.42-5.23,15.72-3.17,9.84-5.9,19.83-9.35,29.59-.74,1.94-1.25,3.95-1.88,5.92q-6.48,19.68-28.11,18.06c-4.38-2.19-9.98,.34-13.9-3.58l.11,.06c-3.59-1.78-7.75,.64-11.29-1.49Z"/><path class="cls-69" d="M164.63,328.95c-9.75-6.13-19.66-11.96-30.43-16.18-.44-.35-.57-.68-.4-1,.16-.31,.32-.46,.48-.46,.14-.33,.32-.66,.4-1.01,.04-.16-.12-.37-.18-.55-2.72-13.94-3.56-27.92-.54-41.91,3.73-17.32,15.72-26,32.05-29.46,22.27-4.72,39.69,2.34,51.47,22.27,4.27,7.22,5.75,15.07,6.07,23.28,.15,3.72-1.78,5.85-4.92,7.22-6.12,3-7.98,9.39-11.44,14.49-1.44,2.12-2.35,5.07-5.63,4.64-2.73-.36-3.47-2.77-4.26-5.08-2.24-6.56-5.22-2.38-7.05-.01-5.09,6.63-9.23,14-15.47,19.73-2.87,2.63-5.44,5.98-10.13,4.02Z"/><path class="cls-51" d="M178.37,546.11c5.77,19.08,11.55,38.16,17.32,57.24-.28,.48-.2,.88,.25,1.2,5.02,9.38,6.46,19.85,8.78,29.98,4.44,19.42,9.33,38.74,14.03,58.09,1.56,6.43,1.06,12.92,2.28,19.29-.04,5.44,1.14,10.63,3.32,15.6,2.91,6.24,4.95,12.68,4.42,19.7l-.2,.44,.36,.33c3.39,11.5,7.01,22.95,7.81,35.02-.05,2.66-.45,5.41,1.75,7.55,1.42,1.38,1.71,3.02,1.11,4.86,.13,3.24,.47,6.44,2.18,9.31,1.37,1.35-.12,3.5,1.33,4.83v-.04c.9,4.2,2.63,8.06,4.74,11.78,.77,2.62,1.89,5.19,1.14,8.03-.37,1.12-1.06,2.02-1.95,2.77-2.03,1.72-4.95,1.05-7.05,2.62-4.95,2.1-8.11,1.43-9.35-4.69-6.53-32.24-15.95-63.8-22.34-96.09-3.8-19.2-8.19-38.29-12.9-57.29-6.99-28.13-11.36-56.76-17.17-85.11-4.44-21.66-10.87-43.02-21.73-62.64,1.69-2.89,4.7-3.85,7.47-5.22,5.25-2.59,8.09-.98,9.43,4.65,1.42,5.99,3.29,11.86,4.97,17.79Z"/><path class="cls-45" d="M966.69,251.43c-2.27-3.43-5.03-3.32-8.77-2.16-27.36,8.43-54.79,16.64-82.24,24.82-9.46,2.82-18.73,6.42-28.66,7.43-2.24-3.02-2.65-6.81-4.25-10.1-2.75-5.65-7.31-8.8-13.39-9.81-1.51-.25-3.49-.45-4.23,1.21-.81,1.81,.93,2.72,2.22,3.6,.65,.44,1.41,.71,2.08,1.11,9.23,5.47,10.42,11.1,4.2,19.87-4.71,3.02-5.83-2.33-8.68-3.7-4.05-4.88-4.42-11.17-6.23-16.86-7.88-24.78-15.34-49.69-22.54-74.68-.24-3.22-1.86-6.39-.37-9.67,.73-.87,1.76-1.31,2.74-.87,7.73,3.48,15.75,6.54,21.46,13.29,4.12,3.62,9.4,5.13,14.09,7.72,2.25,.81,5.19,.34,6.19,3.42l.35-.24-.37,.2c1.92,.56,3.75,1.27,5.05,2.92l-.04-.02c.9,.76,2.57,.19,3.03,1.73l-.04-.04c4.33,2.06,9.57,2.63,12.25,7.42,.4,5.24-.86,10.41-.76,15.65,.04,1.81-.13,3.95-1.94,4.85-2.29,1.14-3.96-.72-5.48-2.06-3.93-3.46-7.41-7.4-11.25-10.96-1.74-1.61-3.88-3.65-6.13-1.64-2.68,2.4,.14,4.2,1.66,5.75,8.46,8.57,16.97,17.1,25.55,25.54,1.77,1.74,3.72,4.8,6.51,2.75,3.28-2.41-.02-4.56-1.38-6.5-3.72-5.32-.32-6.11,3.97-6.61,5.18-.6,11.07,1.58,15.76-4-3.59-2.51-7.29-1.55-10.7-1.62-12.6-.23-15.04-4.94-8.5-16.7,6.39,.72,11.56,4.4,17.16,7.05,.95,.45,1.85,.99,2.76,1.51q25.87,14.84,54.05,4.88c2.72-.96,5.53-1.64,8.31-2.41,4.57-1.27,9.96-3.19,13.17,1.26,3.36,4.66,6.42,10.27,3.41,16.64Z"/><path class="cls-45" d="M377.33,324.2c-.31-2.34-1.76-3.7-3.89-4.38-18.78-6-37.56-11.99-56.36-17.93-.95-.3-2.07-.08-3.11-.1-2.36-10.79,1.59-15.29,11.91-13.57,1.55,.26,3.15,.42,4.61,.98,7.23,2.77,13.79,1.53,19.83-3.13l.02-.02c2-3.25,3.98-6.52,7.9-7.85h0c1.35-2.86,3.51-4.91,6.32-6.3h0c.59-2.37,2.63-3.42,4.37-4.74,.64-.64,1.28-1.28,1.92-1.92,8.51-11.35,19.33-20.48,29.32-30.41,.94-.93,2.21-1.36,3.61-1.1-.16,2.52,2.28,3.28,3.36,4.96-8.97,24.51-15.71,49.73-23.66,74.57-1.27,3.97-.94,9.09-6.15,10.94Z"/><path class="cls-31" d="M506.47,804.75c-.16,.48-.31,.95-.47,1.43,.95,7.38-3.13,13.65-4.63,20.49-.59,2.7-3.07,3.46-5.67,2.88-2.47-.55-3.62-2.58-3.08-4.75,1.54-6.25,1.14-13.14,5.72-18.46,1.06-9.96,4.07-19.47,6.7-29.07,.73-4.03,.89-8.19,2.89-11.91,.91-2.54-.51-5.62,1.84-7.83-.18-1.75,.32-3.32,1.23-4.78,.47-.4,.55-.87,.24-1.4,.83-2.87-.45-6.47,2.96-8.44,6.07,2.56,7.08,7.72,6.95,13.47-.08,.78-.23,1.55-.41,2.31q-2.63,10.93,8.32,10.3c2.39,.99,3.85,2.56,3.32,5.35-.22,.47-.52,.87-.89,1.2-1.09,.96-2.61,.89-3.8,1.6,1.23-.31,2.47-.62,3.75-.36,3.73,.7,7.26,3.47,11.27,1,5.05-2.79,7.83-7.23,9.76-12.53,3.03-8.3,3.8-17.15,6.54-25.51,3.25-5.61,6.61-3.95,9.69,.05,2.63,3.42,3.46,7.63,3.99,11.78,.69,5.44,.91,10.92,2.49,16.25,.79,2.67,1.57,6.26-2.11,7.33-3.15,.91-4.17-2.42-5.5-4.59-.8-1.31-1.22-2.87-3.12-4.3-4.36,7.32-2.75,16.64-8.32,23.16-6.11,4.93-12.52,9.43-20.24,11.4-6.06,1.55-9.43-1.84-8.97-8.01,.18-2.43,4.26-5.77-.26-7.25-4.3-1.41-9.13-2.06-13.25,1.63-2.46,2.2-2.6,5.41-4.22,7.93l.1-.18c-.51,3.39-1.32,6.7-2.79,9.82Z"/><path class="cls-70" d="M448.09,722.45c6.41-3.14,8.3-9.72,11.42-15.28,7.39-13.18,14.92-26.32,17.93-41.41,.5-2.53,1.59-4.97,.65-7.6,.69-.87,1.01-2.05,2.15-2.53,4.06-1.23,7.18,1.59,10.75,2.48,3.54,1.37,6.71,3.39,9.73,5.67,1.45,1.41,2.26,3.07,1.94,5.15-2.57,6.88-8.93,11.6-10.77,18.9-2.24,2.18-.97,5-1.38,7.53-7.61,8.59-13.41,18.66-22.04,26.41-7.86,7.06-13.39,7.82-23.33,2.7l2.94-2.01Z"/><path class="cls-9" d="M796.43,182.34c.53,3.13,1.06,6.26,1.59,9.39-1.17,1.72-2.01,3.83-3.94,4.81-9.65,4.94-9.09,12.29-5.92,21.13,6.73,18.73,12.28,37.87,18.36,56.82,1.12,3.49,2.15,7.01,2.66,10.66-1.46,7.33-2.64,7.65-9.9,2.66h-.63l-.59,.21c-1.95-1.25-1.08-3.38-1.58-5.09-1.15-1.4-1.51-3.03-1.35-4.81-2.37-7.3-5.72-14.29-6.79-21.99-5.17-6.51-5.48-14.6-7.24-22.22-2.26-1.54-.55-4.35-1.96-6.16-2.83-5.31-5.2-10.8-6.88-16.61-1.43-4.93-.76-8.56,3.2-12.67,4.89-5.07,9.82-10.09,14.97-14.89,1.76-1.64,3.45-3.48,6-1.25Z"/><path class="cls-58" d="M474.14,724.1c-.8,1.14-1.59,2.28-2.39,3.42-1.56,4.08-3.67,7.7-8.03,9.39-4.68,1.17-9.36,2.33-14.04,3.5-3.22,2.46-6.99,1.7-10.62,1.82-2.31-.2-4.5-.69-5.96-2.75-1.39-3.05-1.05-5.93,.83-8.67,1.56-2.25,4.38-2,6.46-3.23,1.34-1.41,3.98-.84,4.76-3.12,2.04,.14,4.23-.15,6.1,.49,6.56,2.27,11.6-.1,16.17-4.6,6.87-6.77,12.49-14.55,18.09-22.35,1.22-1.7,1.7-4.75,5.04-3.36,5.56,2.69,1.95,7.05,1.96,10.76-3.04,9.95-6.09,19.9-9.13,29.85-2.61-2.32-1.83-5.79-2.07-8.49-.63-7.04-3.06-6.42-7.17-2.64Z"/><path class="cls-68" d="M563.55,806.45c.91-5.26,1.82-10.52,2.73-15.77,3.57-2.13,5.53-1.16,5.84,3.02,.88,5.48,.17,10.86-1.41,16.09-.82,2.73-2.25,5.92-5.81,4.97-3.91-1.04-2.71-4.17-1.61-6.86,.14-.31,.31-.6,.39-.92,.04-.15-.08-.35-.13-.52Z"/><path class="cls-48" d="M259.23,861.65c-7.98,1.47-15.96,2.94-23.95,4.42-.99-3.97,3.55-5.34,4.13-9-6.7,.6-3.98,6.37-5.57,9.57-3.32,2.49-6.99,4.07-11.19,4.24-.07-5.95-.48-11.9,3.14-17.26,5.48-8.13,12.82-10.6,22.09-7.86,10.26,5.29,10.75,7.78,2.94,14.87q3.95-.87,8.41,1.03Z"/><path class="cls-54" d="M259.23,861.65c-2.78-.13-5.57-.27-9.74-.47,8.68-6.99,2.5-11-1.61-15.42,3.31-5.57,.12-10.04-7.88-11.05,1.62-2,3.83-2.82,6.27-3.19,3.34-1.64,5.96-.64,6.29,2.96,.88,9.63,6.24,14.94,15.21,17.33,1.14,.3,1.52,1.25,.87,2.39-2.39,3.42-4.28,7.49-9.41,7.46Z"/><path class="cls-8" d="M221.11,871.08c-3.69,1.68-7.39,1.69-11.08,0,.55-3.94,3.05-7.15,6.53-7.43,4.72-.38,1.97,5.5,4.55,7.43Z"/><path class="cls-16" d="M216.44,289.56c.32,1.82-1.95,3.21-.7,5.46,4.42-.62,8.86-1.54,13.6-.3,7.28,1.9,12.28,5.63,13.47,13.29,.56,3.61,1.83,6.48,5.26,8.1,7.23,1.5,10.93,7.61,15.39,12.41,3.61,3.88,3.55-.64,5.14-1.36,1.21,8.26,4.89,15.35,8.9,22.66,5.74,10.47,4.23,13.44-5.41,20.17-1.28,.89-2.49,1.87-3.74,2.8-19.37,7.36-39.05,13.47-59.84,15.28-.44-6.14,4.27-10.29,5.99-15.58,1.84-5.63,3.2-11.41,4.77-17.13-.97-2.97-.23-5.64,1.42-8.16,1.25-1.03,2.75-1.36,4.3-1.52,1.82-.12,3.75-.32,5.42,.37,3.36,1.38,.85-1.69,1.74-2.12,2.99-.99,5.86-1.39,2.98-5.99-4.91-7.85-7.95-16.66-18.42-19.95-5.87-1.85-8.86-2.07-11.6,3.94-3.56,7.81-7.91,15.25-14.14,21.38-7.78-2.29-15.65-4.38-21.95-9.92-.57-2.38-3.22-2.69-4.41-4.45,9.96-4.06,15.42-12.74,21.2-20.97,1.47-2.1,2.33-4.66,4.35-6.42,1.98-1.73,4.05-3.68,6.93-2.49,2.6,1.07,1.59,3.49,1.46,5.5-.14,2.3,.47,4.32,2.91,4.88,2.55,.58,2.72-2,3.56-3.39,3.48-5.72,5.49-12.44,11.39-16.49Z"/><path class="cls-25" d="M197.46,396.52c-2.91,2.67-6.53,1.62-9.77,1.46-5.93-.3-7.52,2.26-7.72,7.9-1.01,28.37,2.05,56.25,8.83,83.78,3.61,14.67,6.71,29.48,10.68,44.06,1.53,5.62-.47,7.18-5.25,7.64,.36-.92,1.29-2.08,.18-2.79-13.89-8.91-15.74-23.7-19.23-37.99-5.34-21.83-8.54-44.02-11.91-66.16-1.68-11.06-1.34-22.41-2.11-33.62-.35-5.09,2.09-6.95,6.56-5.75,9.85,2.65,19.84,.86,29.74,1.48Z"/><path class="cls-43" d="M221.2,347.3c-.32,2.76,.07,5.7-1.91,8.07-18.58-.35-34.68-10.52-52.69-13.27-4.67-.71-9.11-1.04-14.05,.62,3.3-8.18,10.38-7.85,16.49-9.32,7.65,2.41,15.04,5.44,22.14,9.18,10.25,.03,20.7-1.15,30.03,4.72Z"/><path class="cls-35" d="M807.56,286.03c-7.62-24.46-14.86-49.05-23.09-73.3-2.39-7.04-1.54-11.13,4.68-14.69,3.14-1.79,5.93-4.19,8.87-6.32,8.38,27.79,16.73,55.58,25.17,83.35,.82,2.69,.93,5.7,3.01,7.93,5.53,9.78,9.06,20.18,9.61,31.48,6.56,22.27,13.12,44.55,19.67,66.82,.79,2.7,1.53,5.41,2.48,8.76-5.18-.64-9.78-1.27-14.4-1.75-3.81-.4-4.01-3.4-4.9-6.15-7.14-22.07-14.38-44.12-21.58-66.17-6.12-9.06-7.9-19.49-9.51-29.98Z"/><path class="cls-32" d="M807.56,286.03c4.12,9.69,7.06,19.76,9.51,29.98-2.89,2.03-6.72,3.3-6.39,7.92-4.65-11.77-8.29-23.86-11.4-36.11,2.46-1.98,7.14,6.36,8.27-1.78Z"/><path class="cls-32" d="M832.76,286.09c5.2,1.04,9.13-3.38,14.12-3.27-3.59,3.88-5.26,9.25-10.84,11.69-3.59,1.57-.21,3.39,1.2,5.1,6.47,7.85,6.21,9.89-1.42,14.88-3.97-10.26-7.06-20.79-9.61-31.48,3.55-1.87,2.39,6.26,6.56,3.08Z"/><path class="cls-13" d="M940.09,804.53c10.03-6.55,21.08-11.58,29.69-20.21l4.72,4.93c-5.91,.11-9.47,4.79-14.15,7.3-7.5,4.02-13.82,10-21.8,13.24,.51-1.75,1.02-3.51,1.53-5.26Z"/><path class="cls-67" d="M900.59,784.28c4.45,5.5,9.63,9.82,17.02,10.58-1.82,3.06,.31,7.16-2.62,9.93-.29-1.71,1.05-3.91-.96-5.08-6.02-3.5-10.84-9.08-18.07-10.49,1.55-1.65,3.09-3.3,4.64-4.95Z"/><path class="cls-74" d="M924.51,764c-.57-1.05-.1-2.65-1.68-3.17,.42-1.25,1.67-2.95,2.42-2.16,1.5,1.58,.91,3.73-.75,5.33Z"/><path class="cls-72" d="M705.23,576.12c-2.71,7.07-4.52,14.55-9.36,20.65-1.49,.92-1.12,3.88-3.46,3.63-10.1-1.07-20.57,.38-30.14-4.32-2.94-7.15,.15-15.28-3.13-22.2-7.02-14.82-7.77-28.22,6.78-39.15,10.49-14.73,18.85-30.46,22.73-48.3,.7-3.21,1.69-6.07,5.52-6.64,11.07,.26,21.87,2.22,32.26,5.99,7.15,2.59,7.81,4.93,4.05,11.9-4.85,8.99-9.97,17.82-14.8,26.82-7.35,13.68-11.62,27.99-8.23,43.65,.71,3.26-.65,5.54-2.2,7.97Z"/><path class="cls-10" d="M597.8,495.76c-1.36-8.03,.48-15.01,6.82-20.46,5.01-4.31,6.25-10.92,9.89-16.06,.51-.15,.96-.39,1.32-.73,1.59-1.42,1.65-5.22,4.72-4.13,3.34,1.19,1.56,4.36,1.47,6.78-.49,2.96-1.88,5.66-2.66,8.45,6.43,1.02,12.56,3.19,19.04,3.47,6.46,.39,12.82,1.9,19.33,1.64,2.26,.36,4.51,.73,5.47,3.26-1.78,12.29-5.95,23.72-12.18,34.46-6.26,10.79-10.45,21.96-8.7,35,1.15,8.57-1.87,11.06-10.08,14.27-10.7,4.18-21.2,.96-31.77,.19-3.36-.24-6.73-.89-10.07-1.52-3.76-1.79-8.63,.17-11.86-3.46-1.03-5.23,3.56-7.71,5.58-11.45,3.79-3.76,6.35-7.98,6.62-13.6,.17-3.62,1.93-7.04,3.6-10.23,4.33-8.27,6.95-16.64,3.46-25.89Z"/><path class="cls-27" d="M705.23,576.12c.25-1.78,1.13-3.74,.66-5.3-5.36-17.75,.76-33.44,8.68-48.73,4.69-9.07,9.65-18.02,14.88-26.79,2.65-4.45,1.5-6.18-3.09-7.58-10.82-3.3-21.87-5.3-33.07-6.6-3.49,.13-6.79,1.09-10.36-1.08-5.36-3.26-7.43-6.95-4.54-12.86,1.37-2.8,2.31-5.79,3.63-8.62,2.95-6.31,7.35-10,14.7-8.95,1.59,.04,3.15,.26,4.65,.77,2.83,1.32,5.62,2.89,7.52,5.35,2.76,3.57,1.13-2.67,2.78-1.12,1.22,4.45,4.48,6.33,8.66,7.8,13.26,4.68,25.36,11.17,34.04,22.89,2.72,3.67,2.8,6.86,1.11,10.89-5.05,11.98-14.09,20.92-23.42,29.16-12.25,10.81-17.35,24.13-11.04,39.34,2.58,6.21-3.32,8.21-3.45,12.65-.04,1.29-1.12,.45-1.63-.06-3.26-3.26-7.09-1.12-10.7-1.16Z"/><path class="cls-27" d="M657.52,476.58c-6.73-.51-13.45-1.02-20.18-1.54-2.71-3.16-.27-5.62,1.18-8.14,1.51-2.6,3.73-4.77,4.68-7.72,1.01-2.91,2.78-5.19,5.6-6.55,2.69-.09,4.24-2.26,6.3-3.5,1.93-.52,3.64-.41,4.69,1.61,.28,1.7-1.2,3.35-.16,5.13,2.91-1.18,.37-3.22,.78-4.77,1.22-3.39,3.69-3.9,7.02-2.89-4.21-3.58-4.58-8.56-5.71-13.29-.43-1.82,.28-5.57-3.92-3.64-3.66,2.03-7.53,3.26-11.72,3.35-1.8,.05-3.59,.24-5.37,.46-1.79,.11-3.52-.3-5.25-.69-1.05-.25-1.93-.82-2.76-1.5-8.53-3.5-9.66-14.06-17.41-18.35-.49-.27-.92-1.6-.67-2.08,4.84-9.67-.23-18.92-1.07-28.34-.07-.76,.21-1.55,.33-2.32,9.39,1.19,18.82-4.2,28.63,2.01,3.35,2.12,8.78,.53,8.61,7.07-.51,1.76-1.18,3.41-3.2,4.22,4.15-.36,8.63-3.43,12.21,1.19,1.75,5.84-1.78,12.77,3.71,17.82,1.83,1.86,3.77,4.4,6.54,3.46,6.2-2.09,6.54,1.73,6.61,5.94,.07,4.48,1.08,8.75,2.38,12.98,1.13,3.07,3.24,5.58,4.84,8.38,.64,1.38,1.33,2.76,.17,4.22-7.48,3.96-10.96,11.15-14.12,18.33-2.56,5.83-6.01,9.55-12.75,9.14Z"/><path class="cls-40" d="M659.01,396.63c-4.11-4.09-8.65,2.98-13.69-1.56,1.44-1.07,3-2.21,4.56-3.36,5.79-7.3,4.99-12.33-2.41-17.57-8.99-6.37-18.29-5.07-27.78-1.65-2.4,.86-4.49,2.93-7.38,1.85,1.31-12.7,12.02-23.35,26.18-24.99,14.91-1.73,28.74,1.05,39.54,12.58,1.74,1.85,3.41,2.67,6,2.83,12.89,.77,19.39,6.38,21.72,19.21,.92,5.09,.61,10.4,.85,15.61-1.38,1.1-1.65,3.22-3.53,3.87-1.73,.25-3.77-.52-3.28-2.07,1.63-5.22-2.67-7.6-4.62-11.1,3.13-9.89,.72-13.89-8.86-14.71-3.72,.38-4.17,4.89-8.69,5.44,3.8,1.4,6.89,.48,9.01,2.77,.53,1.12,.51,2.23-.05,3.33-1.15,1.19-2.71,1.85-4.19,1.65-9.12-1.23-15.85,4.44-23.36,7.87Z"/><path class="cls-65" d="M597.8,495.76c5.52,6.78,4.59,13.6,1.04,21.07-3.05,6.41-7.41,12.34-6.62,20.46,.29,2.95-3.36,6.84-6.67,9.18-9.24,1.92-18.04,5.14-26.66,8.9-7.15,4.14-15.56,3.52-23.18,6.07-4.7,1.57-5.83-.19-5.25-6.32-2.38,.09-4.45,1.34-6.73,1.8-2.39,.53-4.68,0-6.96-.63-1.59-.36-3.12-.83-4.1-2.27,5.87-1.37,10.92-4.24,15.39-8.24,4.97-4.46,10.98-2.9,16.44-1.99,5.39,.9,9.77-.24,13.97-3.24,16.59-11.86,32.59-24.25,39.34-44.76Z"/><path class="cls-44" d="M612.3,374.35c6.61-5.24,14.72-5.98,22.56-7.31,5.92-1.01,19.71,7.9,20.98,13.76,1.07,4.95,1.41,10.25-5.97,10.92-1.41-5.62-1.4-5.59-6.6-4.27-.59,.15-1.77,0-1.86-.27-2.66-8.14-8.88-4.17-13.72-3.81-4.78,.36-9.28-.29-13.8-1.54-.82-2.43-2.42-4.7-1.59-7.48Z"/><path class="cls-5" d="M683.01,445.26c-2.57-2.01-4.14-4.63-4.76-7.82,.14-.34,.29-.68,.43-1.03,6.49-7.48,13.7-14.4,18.03-23.57,.7-1.49,1.79-3.48,4.19-1.98,2.59,4.89,.84,10.2,1.53,15.54,2.5-.89,2.17-5.35,5.73-4.73,1.17,10.98,2.34,21.95,3.51,32.93-.43,2.47,.16,6.61-4.15,2.31-1.75-1.75-3.84-3.17-5.77-4.75-2.95-2.98,.04-8.87-3.93-10.47-3.63-1.46-6.96,2.97-10.9,3.47-1.32,.17-2.6,.18-3.91,.09Z"/><path class="cls-57" d="M662.8,595.12c11.01,.86,21.84,5.19,33.07,1.65-1.92,3.29,1.24,4.42,2.66,6.29-12.23,.91-23.78,5.41-35.89,6.92-8.5,1.06-16.72,3.92-25.37,4.01-.56-2.07,1-3.08,2.38-3.33,10.01-1.84,17.07-7.93,23.16-15.55Z"/><path class="cls-29" d="M512.65,553.99c1.72,.07,3.45,.13,5.17,.2,1.22,3.03,.37,5.63-1.67,7.98-5.56-.38-8.56,2.69-10.55,7.5-8.22,19.85-13.69,40.55-19.49,61.18-1.85,6.57-1.11,14.26-7.12,19.36-.77,.34-1.55,.38-2.35,.1,6.52-28.01,13.17-56,24.13-82.71,2.35-5.73,4.71-11.89,11.87-13.62Z"/><path class="cls-18" d="M708.17,421.69c-2.4,3.14-3.13,7.49-7.86,10.49v-21.55c-.92-.8-1.04-1.82-.82-2.94,.63-2.2,2.53-3.39,3.99-4.93,.05-2.02,1.07-3.09,3.11-3.17,1.54,7.29,1.82,14.67,1.58,22.09Z"/><path class="cls-7" d="M632.72,432.92c.98-.04,1.97-.07,2.95-.11,2.71,4.29,5.12,8.61,1.11,13.47-1.47,1.71-3.31,2.17-5.44,1.58-1.19-.51-2.03-1.34-2.42-2.6,1.27-4.11,2.54-8.23,3.81-12.34Z"/><path class="cls-55" d="M620.23,461.61c.18-1.93,.36-3.85,.55-5.89-3.16-.34-3.32,4.03-6.26,3.53,.78-3.91,3.13-6.42,6.84-7.75,1.68-1.01,3.02-.62,4.09,.96,.32,.75,.46,1.53,.44,2.35-.72,3.23-1.71,6.25-5.65,6.81Z"/><path class="cls-50" d="M624.97,453.47c-.7-1.58-2.21-1.7-3.62-1.98,2.52-2.08,5.04-4.16,7.56-6.23,.68,.45,1.36,.91,2.04,1.36,.84,4.76-2.15,6.17-5.97,6.85Z"/><path class="cls-33" d="M476.66,650.32c.48-.04,.95-.07,1.43-.09,.32,.07,.64,.15,.96,.22,1.2,.64,2.11,1.54,2.64,2.81,.35,1.52-.76,2.35-1.58,3.32-.67,.52-1.34,1.05-2.01,1.57-.12-2.68-2.68-4.9-1.44-7.83Z"/><path class="cls-60" d="M589.51,788.51c-4.39,.19-8.78,.45-13.18,.56-2.96,.08-4.28,1.44-3.99,4.38-.31-.03-.6-.1-.89-.21-.78-2.78-2.85-2.93-5.18-2.57-3.62-1.06-7.61,.34-11.08-1.71,2.1-7.75,4.21-15.49,6.29-23.24,.45-1.68,.17-4.09,2.66-4.03,1.99,.05,2.99,1.93,3.59,3.7,1.07,3.16,1.85,6.44,4.85,8.91,.51-.69,1.35-1.32,1.27-1.79-1.55-9.44-2.78-18.96-5.07-28.21-.73-2.93-1.54-10.7-8.31-4.39-8.18-7.59-10.65-16.79-7.74-27.5,5.42-3.61,8.23,1.18,11,4,9.3,9.46,16.44,20.38,19.96,33.35,2.76,10.19,7.16,19.66,12.37,28.79,.73,1.84,1.95,3.69,.1,5.58-2.37,.61-4.85,.96-7.09,1.89-2.45,1.01,.9,1.53,.44,2.5Z"/><path class="cls-24" d="M596.16,784.13c-.48-1.53-.96-3.05-1.44-4.58,5.59-2.52,5.94-6.55,4.74-12.21-8.53-40.25-17.38-80.44-25.28-120.82-1.36-6.97-2.28-13.97-3.05-21-1.1-10.14,5.19-16.82,15.14-14.41,19.03,4.6,37.01-.13,55.05-4.51,14.78-3.59,19.55-11.96,16.53-27-1.08-5.4-2.07-10.94-4.65-15.81-4.74-8.94-3.93-16.46,4.25-22.92,2.62-2.06,3.99-5.62,7.65-6.49,.92-.03,1.71,.27,2.38,.9-1.2,4.64-5,7.36-8.27,10.19-4.48,3.87-5.34,7.73-2.92,13.07,5.26,11.6,7.65,23.79,6.5,36.57-2.68,8.9-9.18,13.48-17.74,15.76-2.72,.73-5.65,.93-7.79,3.12-6.7,1.03-13.51,1.57-20.06,3.21-11.53,2.88-22.88-.03-34.3-.31-5.52-.13-7.7,1.64-7.14,7.15,.68,6.68,.15,13.6,4.52,19.41,2.2,7.22,2.88,14.67,3.26,22.16,1.36,10.26,2.5,20.57,6.46,30.28,2.01,18.7,6.82,36.87,10.31,55.3,.59,3.11,2.95,3.13,4.76,4.27-2.75,1.13-2.52,2.87-1.03,4.88,1.51,3.08,2.15,6.4,2.75,9.74,1.88,10.35,1.02,11.73-8.83,14.07l-1.82-.04Z"/><path class="cls-62" d="M600.52,645.77c2.78,.21,2.08,2.64,1.98,4.52"/><path class="cls-75" d="M377.33,324.2c9.52-25.93,16.31-52.73,25.02-78.91,.86-2.6,.02-6.73,4.79-6.6,17.08,7.95,34.07,16.11,51.3,23.72,4.88,2.15,5.88,4.08,4.17,9.29-15.62,47.48-30.97,95.05-46.25,142.63-1.42,4.43-3.04,6.18-8.22,5.18-16.97-3.27-34.05-6.07-51.14-8.63-4.61-.69-5.45-1.6-3.96-6.3,8.01-25.19,15.57-50.52,23.26-75.82,.45-1.49,.68-3.05,1.02-4.57Z"/><path class="cls-6" d="M360.82,748.24c12.53,13.61,25.11,27.18,37.55,40.87,1.46,1.61,5.49,3.27,2.33,6-2.43,2.1-3.94-1.36-5.42-2.93-9.28-9.87-18.49-19.81-27.72-29.73-1.74-1.68-4.54-1.65-6.06-3.7-4.74-4.08-7.86-9.67-12.7-13.65-1.88-1.54-3.02-4.54-6.35-3.42-3.81-3.94-.11-7.72,.25-11.56,2.55,2.29,5.1,4.59,7.65,6.88,1.45,.63,2.49,1.65,3.03,3.16,.53,1.63,1.53,2.81,3.19,3.37,2.71,.39,4.24,1.86,4.26,4.69Z"/><path class="cls-32" d="M329.66,774.46c.14-7.26,.29-14.52,.43-21.78,1.87-2.11,1.71-5.68,4.69-6.93,3.99-1.68,5.93-.05,5.99,4.13-1.56,8.08,2.11,16.02,.66,24.1-.05,1.38-.22,2.74-.72,4.03-2.57,4.07-5.72,5.95-10.22,2.67-1.43-1.92-2.35-3.91-.83-6.22Z"/><path class="cls-15" d="M347.44,766.84c.48-.06,.89,.07,1.25,.4,1.06,.99,1.03,2.1,.39,3.29,.29,4.98,3.43,9.01,4.51,13.73-.18,2.27-.36,4.54,1.53,6.31,2.85,3.83,1.43,8.66,3,12.79l-.03-.05c.03,.78,.17,1.58,.05,2.34-.31,1.98,2.54,5.27-1.34,5.67-2.95,.31-2.72-3.16-3.29-5.31-1.54-5.77-3.07-11.54-4.6-17.31,.3-.49,.22-.91-.24-1.26-2.86-2.67-3.05-6.28-3.5-9.8-.05-2.25-.74-4.38-1.29-6.54-.25-1.44-.76-2.91,.44-4.2l3.11-.05Z"/><path class="cls-56" d="M309.2,751.1c-.28,3.08-3.17,4.22-4.74,6.34-.4,2.4-1.54,4.41-3.27,6.11-1.6,1.91-3.11,3.96-5.97,4-1.51-.31-2.79-.97-3.61-2.34,2.32-7.95,8.8-12.33,14.77-17.15,.46-.04,.91-.09,1.37-.15,.49,1.06,.97,2.13,1.46,3.19Z"/><path class="cls-37" d="M268.63,854.19c-9.95-2.56-17.97-6.91-17.65-19.02,.09-3.32-2.27-3.57-4.72-3.65,.66-.58,1.32-1.17,1.99-1.75,4.86,.5,9.71,1.41,14.57,1.38,4.69-.02,7.82,1.8,10.01,5.71,1.18,5.95-.94,11.34-2.89,16.76-.4,.29-.84,.48-1.32,.57Z"/><path class="cls-38" d="M349.07,770.53c-.13-1.1-.26-2.2-.39-3.29,5.51-2.12,10.74-4.65,14.21-9.74,1.56,1.65,3.11,3.31,4.67,4.96-4.58-1.35-6.81,2.88-10.21,4.33-2.78,1.18-4.77,4.14-8.27,3.75Z"/><path class="cls-30" d="M514.2,743.21c-6.31-14.15-12.62-28.3-18.93-42.45-1.96-4.06-5.39-7.55-4.91-12.57,.2-8.53,7.43-12.82,11.48-19.03,10.63,0,16.79,6.73,22.14,14.71,6.28,15.86,11.11,32.2,15.78,48.58,3.1,10.89-.52,21.89,.3,32.85,.37,4.97,.24,9.94,2.21,14.64-3.84,2.82-6.85-.69-10.23-1.34,3.03-1.7-.94-2.82-.36-4.32-.14-2.03-1.26-3.36-3-4.27-4.31-3.93-6.25-9.4-9.21-14.21,.68-5.22-2.39-8.86-5.27-12.59Z"/><path class="cls-52" d="M542.26,779.94c-3.16,.15-4.73-.86-4.39-4.5,.99-10.65-.49-21.38,1.11-32.06,.82-5.52-1.28-10.83-2.88-16.03-4.52-14.69-9.27-29.31-13.93-43.96,2.13-1.7,4-.57,5.57,.78,7.63,6.59,15.83,12.52,23.02,19.61,2.12,2.09,4.89,4.16,3.55,7.92-1.27,8.56-1.4,16.84,4.97,23.89,.9,.99,.82,2.86,1.19,4.32-1.69,9.78-3.82,19.45-7.23,28.81-1.97,5.4-4.97,9.79-10.98,11.23Z"/><path class="cls-36" d="M531.67,774.28c1.32,1.34,5.93,2.42,.35,4.32-2.27-.3-4.55-.61-7.08-.95,1.83-2.33,4.59-2.26,6.73-3.37Z"/><path class="cls-26" d="M268.6,327.16v8.45c-7.4-7.03-13.97-13.27-20.53-19.5,9.78-6.38,15.91-3.08,20.53,11.05Z"/><path class="cls-4" d="M554.31,711.7c-8.61-11.82-20.22-20.25-32.14-28.31-5.47-6.61-12.26-11.35-20.34-14.23,.14-1.73-.91-2.91-1.91-4.11-2.63-3.5-6.35-5.44-10.25-7.12-.67-.28-1.28-.65-1.85-1.09-3.02-2.54-6.55-4.33-9.75-6.6h.01c5.35-10.25,5.69-21.92,9.33-32.67,5.63-16.61,9.6-33.76,16.41-49.98,2.89-6.89,7.6-8.99,12.3-5.78,1.84-2.27,3.87-4.24,6.95-4.64,2.95-.74,7.36-5.98,7.1,2.75-.06,2.16,3.74,1.65,5.45,.99,15.02-5.83,30.31-5.98,45.87-2.88,2.77,.55,5.74-.72,8.45,.79,7.27,.61,14.82,.19,21.73,2.08,8.55,2.34,16.07-.17,23.74-2.41,7-2.05,5.9-8.69,4.71-13.26-2.68-10.39,1.55-19.31,5.58-27.66,5.44-11.24,12.36-21.7,14.02-34.47,.21-1.65,1.81-3.12,2.76-4.68,5.05-6.39,8.74-13.6,12.52-20.75,.98-1.84,1.7-3.8,3.34-5.25,1.67-1.47,3.42-2.72,5.56-1.19,2.04,1.45,.86,3.4,.08,4.93-2.01,3.96-3.75,8.03-5.62,12.06-2.06,4.44-1.64,8.12,3.27,10.34,5.78,2.6,7.58,7.43,5.91,12.97-4.77,15.77-11.05,30.87-21.93,43.61-4.08,4.37-8.12,8.78-12.24,13.11-2.65,2.79-1.89,5.57-.55,8.68,4.15,9.61,7.83,19.42,8.06,30.06,.22,10.46-3.94,17.58-13.94,20.23-20.07,5.32-40.15,11.66-61.46,5.67-8.08-2.27-13.83,3.9-12.56,12.19,4.66,30.38,11.29,60.37,17.99,90.35,4.09,18.3,7.61,36.72,11.52,55.05,1.87,8.74,1.91,8.83-7.72,9.06-7.56-10.48-10.79-22.84-14.98-34.76-4.87-13.82-13.22-24.92-25.42-33.09Z"/><path class="cls-23" d="M490.35,688.19c1.64,4.19,3.28,8.38,4.91,12.57-.92,1.54-1.84,3.09-2.76,4.63-.29-3.65,.36-7.47-1.96-10.76-1.61-2.1-3.4-4.2-.2-6.44Z"/><path class="cls-29" d="M488.81,657c5.02,.86,9.07,3.07,11.11,8.05-3.01-1.8-6.03-3.61-9.04-5.41-1-.63-2.34-1.01-2.07-2.64Z"/><path class="cls-21" d="M488.81,657c.69,.88,1.38,1.76,2.07,2.64-3.92,.15-6.74-3.6-10.78-3.06,.32-1.05,.64-2.1,.96-3.15,4.02-1.99,5.4,1.93,7.83,3.49l-.08,.08Z"/><path class="cls-47" d="M233.84,866.63c-2.77-5.62-2.49-10.1,4.47-12.2,1.54-.46,3.17-1.19,4.24,.43,1,1.52,.12,2.99-.98,4.22-2.09,2.32-4.18,4.65-6.28,6.97l-1.44,.57Z"/><path class="cls-12" d="M221.2,347.3c-3.86-3.18-8.34-.8-12.5-1.27-5.96-.68-11.75-1.95-17.53-3.45,5.19-9.29,10.51-18.51,15.49-27.91,1.65-3.11,3.17-1.38,5.03-.73,10.59,3.7,19.95,8.66,23.67,20.47,1.06,3.37,3.34,6.36,5.42,10.19h-8.61c-1.71,1.97-4.84,.81-6.48,2.93-1.5-.08-3-.16-4.49-.23Z"/><path class="cls-63" d="M208.61,307.48c3.62-2.58,1.44-8.12,7.12-6.35,2.53,.79,3.79,2.72,2.91,4.67-1.72,3.83-5.23,2.09-10.03,1.68Z"/><path class="cls-22" d="M665.63,535.13c7.77-12.38,13.81-25.61,19.07-39.21,2.7-6.98,2.71-13.1-5.18-17.3-6-3.19-3.57-8.37-1.69-12.94,1.83-4.44,5.26-8.23,5.8-13.87-4.63,.06-5.84,2.81-7.25,6.1-3.29,7.68-7.37,14.95-13.9,20.5-1.19-1.89-3.26-1.36-4.97-1.84,5.21-.47,8.02-3.5,10.03-8.21,2.43-5.71,5.27-11.32,9.31-16.17,1.9-2.28,4.08-4.01,7.22-4.03,4.63-1.2,9.11-1.79,12.43,2.81-6.56-.86-10.11,2.78-12.43,8.28-.51,1.2-1.04,2.4-1.55,3.6-5.45,12.78-3.1,16.75,10.77,18.27-2.48,.93-2.12,3.12-2.57,5.16-3.98,18.1-11.78,34.43-23.23,49-.62-.05-1.24-.11-1.86-.16Z"/><path class="cls-14" d="M620.23,461.61c1.54-2.25,3.08-4.5,4.62-6.76,7.47-1.68,14.36-.78,20.21,4.62-.82,6.06-8.24,8.85-7.72,15.58-3.34-.51-6.72-.85-10.01-1.56-10.21-2.2-10.2-2.26-7.1-11.88Z"/><path class="cls-29" d="M589.94,558.82c-10.39-.62-20.74,.48-31.25-1.63-6.08-1.22-13.06,2.32-19.68,3.38-3.7,.59-8.58,5.43-10.31-3.22-.56-2.83-4.17,2.73-6.97,1.28-.27-1.52,1.14-2.06,1.79-3.04,3.55-2.34,7.33-3.44,11.58-2.48,.03,3.34-3.7,3.89-4.35,7.43,9.5-2.24,18.63-4.39,27.77-6.55,6.97-1.39,13.8-1.02,20.42,1.74,2.99,3.46,8.03-.44,11,3.09Z"/><path class="cls-39" d="M696.5,450.99c-4.14-.94-8.29-1.87-12.43-2.81-.35-.97-.71-1.94-1.06-2.91,4.39-2.16,8.84-4.21,13.14-6.53,3.13-1.68,4.69,.04,5.09,2.53,.57,3.57,.38,7.26,.51,10.91-1.75-.39-3.5-.79-5.25-1.18Z"/><path class="cls-41" d="M703.48,402.76c.02,2.27-1.07,3.82-3.12,4.74-6.45,10.45-14.23,19.93-21.75,29.6l-.36,.35c-3.34-5.9-3.08-12.48-3.4-19.7-5.99,6.16-9.03,1.41-12.31-2.48,.57-6.21,2.47-7.57,9.81-5.15,4.03,1.33,5.51-.27,4.47-3.2-2.65-7.47,1.21-11.3,6.74-14.7,1.81-1.11,2.62-3.27,4.4-4.46,3.13-1.04,5.71-.37,7.63,2.4,3.37,2.71,10.66,3.31,5.41,10.64-.87,1.21,1.27,1.71,2.47,1.97Z"/><path class="cls-46" d="M687.74,388.55c.62,4.16-2.75,4.97-5.31,6.74-3.33,2.29-7.46,4.49-3.29,9.83,2.11,2.69-.08,5.42-1.96,7.73-2.51,3.08-3.21-.96-4.88-1.3-4.21-.87-8.45-2.72-9.75,3.72-6.39-5.22-3.41-12.22-3.53-18.63,6.89-9.29,16.68-10.41,27.14-9.67,1.42-.37,1.95,.16,1.58,1.58Z"/><path class="cls-11" d="M645.06,459.47c-6.5-2.59-13.32-3.78-20.21-4.62-.06-.47-.03-.93,.12-1.37,1.99-2.28,3.98-4.57,5.98-6.85,1.81,.44,3.61,.86,4.97-.98,1.05-1.73,2.62-2.58,4.6-2.79,3.71,2.4,10.32,.76,10.77,7.72-.18,1.18-.59,2.22-1.77,2.76-1.3,2.18-4.13,3.24-4.44,6.14Z"/><path class="cls-2" d="M649.95,450.18c-.8-5.77-7.72-2.44-9.67-6.5-.83-.94-.68-2.03-.48-3.12,2.04-2.48,3.06-5.68,5.55-7.84,4.45,.42,8.27-1.56,12.18-3.18,.28,.27,.55,.55,.83,.82,.85,5.22-1.49,9.87-2.64,14.74-1.49,2.18-2.33,5.12-5.78,5.09Z"/><path class="cls-73" d="M659.38,451.63c-.95-2.43-3.05-1.56-4.81-1.69-.36-.71-.28-1.37,.16-2.01,2.79-1.76,4.73-3.98,3.61-7.55-1.12-3.57,.16-7.07,.12-10.6-.29-.13-.6-.21-.93-.24,1.92-.83,4.06-4.49,5.19,.93,1.41,6.77,2.33,13.8,6.93,19.48,.9,1.11,1.06,2.49-.45,3.21-1.39,.66-2.42,.01-2.9-1.5-1.77-5.62-3.59-1.13-5.4-.02-.51,.37-1.02,.35-1.52,0Z"/><path class="cls-1" d="M659.38,451.63c.51,.01,1.02,.01,1.52,0,2.83,1.77,4.41,3.87,1.45,6.82-1.26,1.25-2.95,1.37-4.2,.13-2.82-2.78-1.64-5.06,1.23-6.95Z"/><path class="cls-17" d="M640.59,440.48c-.1,1.07-.21,2.13-.31,3.2-1.46,.65-2.91,1.3-4.37,1.95,1.84-4.31-.61-8.54-.24-12.83,1.86-.38,3.27,.47,4.53,1.69,2.12,1.86,1.79,3.89,.39,5.98Z"/><path class="cls-64" d="M640.59,440.48c-.13-1.99-.26-3.99-.39-5.98,1.24-1.98,3.22-1.79,5.15-1.79-.73,3.11-.36,6.9-4.76,7.77Z"/><path class="cls-19" d="M654.66,448.28l-.09,1.67c-.35,3.13-.47,6.61-5.07,3.39,.15-1.05,.3-2.1,.45-3.15,1.46-1.74,2.92-3.49,4.39-5.23,1.1,1.01,1.22,2.12,.32,3.33Z"/><path class="cls-20" d="M687.74,388.55c-.53-.53-1.06-1.06-1.58-1.58v-3.1c-.54-3.16-2.67-6.33,.02-9.48,5.95-3.85,8.95,1.08,11.2,4.69,2.14,3.43,3.76,8.2-1.76,11.09-2.62-.54-5.24-1.07-7.87-1.61Z"/><path class="cls-71" d="M686.17,374.38c-1.23,3.16,3.59,6.33-.02,9.48-2.07-.01-4.16,.13-6.21-.07-2.12-.2-5.34,1.16-5.86-2.06-.5-3.11,2.6-2.44,4.46-2.7,2.36-.33,2.48-2.13,3.04-3.88,.93-2.89,2.67-2.73,4.57-.77Z"/><path class="cls-66" d="M523.51,555.58c-.6,1.01-1.19,2.03-1.79,3.04-1.99,.85-2.82,3.71-5.59,3.19-.71-2.82,1.11-5.08,1.69-7.61,1.76,1.04,3.6,1.73,5.69,1.39Z"/><path class="cls-59" d="M678.61,437.09c-.7-2.85,.31-5.36,2.34-7.07,6.93-5.82,11.48-13.31,15.59-21.18,.8-1.52,1.5-3.84,3.81-1.35-.02,1.04-.03,2.09-.05,3.13-5.05,9.06-10.66,17.71-18.44,24.75-.99,.89-1.77,1.9-3.26,1.72Z"/><path class="cls-29" d="M488.9,656.92c-3.02-.24-4.5-3.95-7.83-3.49-1-1.06-1.99-2.13-2.99-3.19,4.19,1.29,9.14,1.34,10.82,6.68Z"/><path class="cls-61" d="M331.35,779.69c-8.14-4.99-16.27-10-24.43-14.97-2.14-1.31-3.99-3.54-6.98-2.46,1.51-1.61,3.02-3.21,4.52-4.82,7.14,7.54,16.32,12.05,25.19,17.02,.57,1.74,1.13,3.49,1.7,5.23Z"/><path class="cls-53" d="M347.08,776.65c-3.36-4.36-5.11,1.28-7.78,1.25l.21-3.56c2.24-1.22,4.6-2.29,5.92-4.68,.55,2.33,1.1,4.66,1.65,6.99Z"/><path class="cls-72" d="M336.56,764.91v-13.71c.25,0,.5,0,.75,0v13.8l-.75-.1Z"/><path class="cls-42" d="M295.12,766.62c-8.66,9.6-17.27,19.24-26.02,28.77-1.39,1.52-2.86,4.92-5.45,2.51-2.64-2.45,.79-4.11,2.16-5.57,8.5-9.15,17.16-18.15,25.76-27.19,1.18,.5,2.37,.99,3.55,1.49Z"/><path class="cls-49" d="M686.38,395.02c2.94,3.92,4.69,7.68,1.41,10.36-4.12,3.37-7.85,3.63-4.62-3.64,.83-1.87,1.76-3.69,3.21-6.72Z"/><path class="cls-28" d="M654.66,448.28c-.11-1.11-.21-2.22-.32-3.33,.95-5.17,1.83-10.36,4.12-15.17,.78,4.24,1.64,8.48,2.32,12.74,.77,4.81-1.38,6.7-6.12,5.76Z"/></svg>