<?xml version="1.0" encoding="UTF-8"?><svg id="Layer_6" xmlns="http://www.w3.org/2000/svg" viewBox="0 0 1080 1080"><defs><style>.cls-1{fill:#7eb133;}.cls-2{fill:#dab4ab;}.cls-3{fill:#cb9a87;}.cls-4{fill:#847371;}.cls-5{fill:#dcb7a7;}.cls-6{fill:#030302;}.cls-7{fill:#030202;}.cls-8{fill:#ebeff1;}.cls-9{fill:#a80100;}.cls-10{fill:#3d3d3d;}.cls-11{fill:#cc9986;}.cls-12{fill:#6d99d0;}.cls-13{fill:#e0b6a7;}.cls-14{fill:#6e99d0;}.cls-15{fill:#ddb7a8;}.cls-16{fill:#b8aebe;}.cls-17{fill:#ba9888;}.cls-18{fill:#2e3030;}.cls-19{fill:#cb9a8a;}.cls-20{fill:#b18878;}.cls-21{fill:#0c3164;}.cls-22{fill:#565656;}.cls-23{fill:#a25b56;}.cls-24{fill:#bc907d;}.cls-25{fill:#1a5697;}.cls-26{fill:#0f0d10;}.cls-27{fill:#cbbcb1;}.cls-28{fill:#040404;}.cls-29{fill:#cb9788;}.cls-30{fill:#deb7a7;}.cls-31{fill:#c79b8d;}.cls-32{fill:#beb6b7;}.cls-33{fill:#3e3e3e;}.cls-34{fill:#020202;}.cls-35{fill:#442d24;}.cls-36{fill:#949ba2;}.cls-37{fill:#2f3030;}.cls-38{fill:#07090b;}.cls-39{fill:#deb7aa;}.cls-40{fill:#deb7a9;}.cls-41{fill:#2d2e2f;}.cls-42{fill:#2f381c;}.cls-43{fill:#461e12;}.cls-44{fill:#595f6f;}.cls-45{fill:#a07363;}.cls-46{fill:#553e31;}.cls-47{fill:#7b7f81;}.cls-48{fill:#194d97;}.cls-49{fill:#93b6d8;}.cls-50{fill:#a2a1a1;}.cls-51{fill:#6f0302;}.cls-52{fill:#4f7109;}.cls-53{fill:#6d99d2;}.cls-54{fill:#380f02;}.cls-55{fill:#ddb7a9;}.cls-56{fill:#cfb795;}.cls-57{fill:#756e83;}.cls-58{fill:#deb7a8;}.cls-59{fill:#94b5d8;}.cls-60{fill:#b5b2c4;}.cls-61{fill:#a4796a;}.cls-62{fill:#c89a8d;}.cls-63{fill:#c99989;}.cls-64{fill:#030303;}.cls-65{fill:#3b3332;}.cls-66{fill:#863732;}.cls-67{fill:#2e2e2f;}.cls-68{fill:#7d7e80;}.cls-69{fill:#dbb7a4;}.cls-70{fill:#582c16;}.cls-71{fill:#121416;}.cls-72{fill:#054ea4;}.cls-73{fill:#2e4e7f;}.cls-74{fill:#181818;}.cls-75{fill:#7c7d80;}.cls-76{fill:#2b2025;}.cls-77{fill:#0c1825;}.cls-78{fill:#999ea1;}.cls-79{fill:#91b6de;}.cls-80{fill:#4c7e01;}.cls-81{fill:#051122;}.cls-82{fill:#9ab5d1;}.cls-83{fill:#b6b6b6;}.cls-84{fill:#4c7e02;}.cls-85{fill:#0a0a0c;}.cls-86{fill:#635d5f;}.cls-87{fill:#2c2d2f;}.cls-88{fill:#2e2e2e;}.cls-89{fill:#2f2c28;}.cls-90{fill:#880203;}.cls-91{fill:#767d86;}.cls-92{fill:#c09c8e;}.cls-93{fill:#2d2d2d;}.cls-94{fill:#030406;}.cls-95{fill:#5d8121;}.cls-96{fill:#292929;}.cls-97{fill:#b7897a;}.cls-98{fill:#6f7483;}.cls-99{fill:#dfb6a8;}.cls-100{fill:#6d7783;}.cls-101{fill:#776f83;}.cls-102{fill:#0a1322;}.cls-103{fill:#2d2d30;}.cls-104{fill:#6e99d1;}.cls-105{fill:#060404;}.cls-106{fill:#92b6dc;}.cls-107{fill:#6c747e;}.cls-108{fill:#959ba0;}.cls-109{fill:#1d0101;}.cls-110{fill:#6b7685;}.cls-111{fill:#deb7ab;}.cls-112{fill:#7f7f7f;}.cls-113{fill:#700101;}.cls-114{fill:#aaa9b6;}.cls-115{fill:#af8b7d;}.cls-116{fill:#cc9887;}.cls-117{fill:#2f2d31;}.cls-118{fill:#ac7f6f;}.cls-119{fill:#d7a797;}.cls-120{fill:#00297a;}.cls-121{fill:#9e9e9e;}.cls-122{fill:#c68f80;}.cls-123{fill:#6b7693;}.cls-124{fill:#040507;}.cls-125{fill:#d0d0d0;}.cls-126{fill:#892d30;}.cls-127{fill:#390f02;}.cls-128{fill:#90b7dc;}.cls-129{fill:#bc8a7a;}.cls-130{fill:#dcb5a9;}.cls-131{fill:#010101;}.cls-132{fill:#c6b19d;}.cls-133{fill:#061222;}.cls-134{fill:#c2a28c;}.cls-135{fill:#c59b8c;}.cls-136{fill:#b9bbbb;}.cls-137{fill:#7a7b7f;}.cls-138{fill:#fcfcfc;}</style></defs><g><path class="cls-131" d="M413.23,534.16c0-.71,.01-1.42,.02-2.12,1.79-7.11-.32-14.21,0-21.31-.13-.95-.37-1.9-.64-2.82-1.24-2.99-1.51-6.21-2.01-9.39-.19-.93-.47-1.83-.79-2.72-.94-2.24-1.41-4.79-3.94-5.99-1.02-.33-2.05-.44-3.11-.38-11.39,2.11-22.71,.05-34.07-.6-1.17,.15-2.3,.44-3.41,.82-19.83,3.79-39.98,3.34-59.99,4.57-7.14,.44-14.34-.72-21.44,.88-9.59,7.25-7.1,18.54-9.45,28.22-.1,2.4-.09,4.8-.27,7.2-1.84,14.05,1.79,27.76,2.78,41.63,1.35,18.99,3.59,37.92,3.6,56.99,.02,30.03,.1,60.06-.12,90.09-.02,3.43,2.39,10.6-6.23,6.77-4.02-1.91-8.04-3.78-12.28-.58-7.25,14.93-6.31,31.35-8.1,47.18-4.33,38.4-6.55,77-10.14,115.47-.64,6.83-.22,13.69-.57,20.53-.31,6.04,2.04,9.91,8.37,10.72,3.62,.54,7.26,.39,10.9,.21,9.43-.65,12.19-7.12,13.72-15.16,10.18-53.4,21.8-106.47,35.16-159.17,12.16-47.98,25.47-95.67,35.88-144.08,1.3-8.55,3.88-16.89,4.49-21.46-1.88,6.55-3.01,17.35-6.01,27.81-9.69,46.1-16.76,92.66-24.8,139.05-1.46,8.4-2.97,16.82-3.33,25.37,.12,5.07,.62,10.16-1.05,15.12-1.16,4.94-.36,10.17-2.19,15.02-1.3,6.27,.08,12.84-2.24,18.99-2.21,22.92-4.72,45.82-6.51,68.77-.65,8.36-2.21,17.15,5.36,23.76,5.4,3.87,11.62,4.11,17.91,4.07,.68-.01,1.36-.07,2.05-.07,25.02-.22,22.79,1.29,24.88-23.92,2.99-36.11,6.27-72.24,8.34-108.4,2.2-38.36,12.84-74.79,21.5-111.71,7.27-30.97,14.73-61.91,22-92.88,.79-3.36,1.83-6.57,3.13-9.73,1.94-7.12,2.16-14.56,4.11-21.69,.33-1.1,.52-2.23,.64-3.37,.48-4.11-1.26-7.82-2.14-11.69Z"/><path class="cls-93" d="M363.53,915.01c.74-15.43,1.43-30.87,2.27-46.29,.22-3.99-.36-8.14,1.61-11.91l-.02,.12c1.33-1.29,1.99-2.95,2.57-4.66,1.05-12.28-.37-24.68,1.67-36.92-.46-.56-.4-1.06,.17-1.51,3.85-4.14,4.79-9.26,4.94-14.65-.39-19,5.34-37.38,5.87-56.28,.38-1.05,.86-2.07,1.43-3.03,5.18-19.13,10.06-38.31,10.5-58.3-.11-.54-.23-1.08-.35-1.62-.38-.71-.27-1.34,.33-1.88,2.41-4.05,3.11-8.7,4.64-13.06,.88-2.97,1.78-5.93,1.89-9.06,.22-4.02-.27-8.11,1.1-12.03,.34-1,.56-2.02,.73-3.06,1.26-8.44-.22-17.05,1.62-25.45l-.33-.59,.47-.49c1.59-1.6,2.45-3.53,2.56-5.78-.33-7.43,.58-14.68,3.14-21.71,.36-1.04,.59-2.11,.77-3.19,.22-4.95,1.6-10.07-2-14.49-6.47,12.55-7.72,26.58-11.06,39.98-10.64,42.62-21.07,85.3-31.03,128.08-4.95,21.26-5.6,43.17-7.45,64.85-3.03,35.61-5.63,71.26-8.22,106.91-.34,4.69-2.69,5.61-6.64,5.59-5.46-.03-10.92,.23-16.39,.36,8.83,8.8,19,4.74,28.79,2.7,2.08-.43,4.18-1.95,6.42-2.62Z"/><path class="cls-120" d="M122.8,727.61c7.12,4.61,15.38,3.46,23.19,4.56,13.94,7.12,28.28,5.61,42.45,1.29,7.81-2.38,15.45-5.13,23.71-5.21,10.71-.83,19.92,4.41,29.68,7.41,9.39,1.96,16.49-.93,20.76-9.81,3.73-1.16,6.86,1.31,10.34,1.69,8.78,4.08,9.36,3.9,9.33-4.98-.18-55.97,.85-111.93-5.73-167.76-2.9-24.63-4.51-49.4-10.23-73.6-2.53-10.72-3.11-11.37-12.74-7.35-13.51,5.63-26.04,.96-38.91-1.77-11.3-2.4-22.06-7.42-33.93-6.96-1.77,.16-2.98,1.08-3.62,2.74-.33,3.27-.77,6.49-4.54,7.77-.66,.65-1.03,1.45-1.16,2.35,.56,3.87-5.24,3.79-4.79,7.63,.75,6.48-2.21,12.14-4.4,17.78-17.13,44.14-23.82,90.67-31.64,136.93-4.62,27.34-8.35,54.8-9.95,82.52,.19,1.83,1.15,3.31,2.18,4.76Z"/><path class="cls-113" d="M375.98,289.35c-.61-.76-1.22-1.53-1.83-2.29-6.12-.19-12.2-2.01-18.37-.53-.76,.65-1.18,1.47-1.21,2.48,.62,2.85,2.52,5.13,3.5,7.82,6.2,17.84,4.16,26.01-9.05,35.88-2.83,1.93-6.28,2.97-8.46,5.84-.36,1.64,.34,2.95,1.3,4.18,5.36,9.11,9.78,18.59,11.54,29.14,.6,3.74,1.48,7.55,.83,11.24-5.18,29.63,2.19,58.57,4.88,87.75,.72,7.79,1.58,14.34-8.05,16.7-1.63,.4-2.72,2.02-1.56,4.02,6.17,2.68,12.15,.5,18.16-.7h-.02c12.39-.82,24.78,.7,37.17-.14,.48-.07,.95-.19,1.41-.35,4.04-4.91,1.25-10.09-.44-14.44-6.41-16.4-7.41-33.76-10.02-50.83-1.46-9.6-.4-19.16,4.7-27.71,10.13-17.01,9.34-33.63-1.16-50.09-5.18-6.97-8.06-15.06-11.18-23.03-1.97-5.32-5.53-10.04-5.88-15.96-.13-.95-.36-1.88-.62-2.81-1.51-4.55-2.16-9.35-3.89-13.84-.53-.81-1.12-1.58-1.76-2.31Z"/><path class="cls-88" d="M283.32,920.81c6.83,.62,9.71-1.81,11-9.3,5.52-31.91,12.02-63.66,18.16-95.46,2.82-4.33,2.69-9.25,2.83-14.11,2.53-4.91,1.55-10.37,2.4-15.54,1.41-4.34,1.1-9,2.43-13.37,3.1-28.38,8.88-56.33,13.54-84.47,4.55-27.46,9.07-54.92,13.61-82.38,.39-2.43,2.97-5.63-2.15-6.15-6.77,26.71-13.54,53.42-20.3,80.13-14.51,57.35-29.78,114.51-41.42,172.55-3.67,18.3-8.14,36.44-10.65,54.97-.78,5.72-4.01,9.25-10.23,9.19,5.76,7.47,12.91,7.58,20.77,3.92Z"/><path class="cls-15" d="M283.32,920.81c-6.92-1.32-14.19-.8-20.77-3.92-3.36,0-6.71,0-10.07,0-1.98,3.39-3.96,6.78-5.95,10.17-2.08,3.85-6.91,5.81-7.41,10.76,.46,3.59,.33,7.24,1.03,10.82,4.29,10.62,11.83,15.62,23.45,13.52,3.87-.75,6.55-3.12,8.6-6.34,1.56-2.82,1.96-6.4,5.24-8.12,1.96-8.96,3.92-17.92,5.88-26.88Z"/><path class="cls-21" d="M273.37,521.56c-2.6-18.12-5.33-36.22-10.31-53.88-9.18,.75-17.69,6.07-27.28,3.97-11.03,.24-21.22-3.9-31.79-6.06-7.56-1.54-14.93-4.61-22.91-3.16-1.62,.78-3.17,1.61-2.49,3.87,20.09,4.71,40.06,10.07,60.34,13.77,7.41,1.36,14.82-3.57,22.77-6.48,5.21,20.49,8.55,41.43,11.26,62.41,3.87,30.02,5.33,60.21,6.91,90.46,1.64,31.43,.31,62.79,1.51,94.14,.26,6.75-1.39,9.76-8.44,6.94,1.83,2.95,3.92,6.57,7.73,5.48,4.41-1.26,2.57-5.82,2.58-8.93,.1-36.31,.79-72.65-.26-108.93-.72-24.85-3.72-49.65-6.29-74.41-.4-3.82,.28-7.38,.05-11.05-1.46-2.58-2.05-5.51-3.39-8.13Z"/><path class="cls-29" d="M363.53,915.01c-11.74,1.08-23.48,3.3-35.21-.07-5.46,.45-10.56-1.32-15.76-2.47-.13,2.79-.26,5.57-.39,8.36-.29,4.19,3.27,4.91,5.89,6.01,13.88,5.8,27.78,11.56,42.31,15.63,10.89,3.05,20.9,1.28,30.04-5.39-9.46-3.66-18.2-8.61-26.69-14.14-4.5-2.93-3.87-5.19-.19-7.92Z"/><path class="cls-109" d="M283.03,494.69c.04,.78,.08,1.56,.11,2.34,26.81,.53,53.54-.69,80.16-4.04,1.52-.19,2.92-1.39,4.38-2.12-6.16,.02-12.31,.05-18.47,.07-2.86-3.09-6.76-3.41-10.38-2.91-14.15,1.95-28.4,1.45-42.59,2.21-4.69,.25-9.5,.91-13.21,4.45Z"/><path class="cls-109" d="M404.82,490.73c-12.4-2.99-24.79-3.19-37.17,.15,12.39,1.16,24.8,4.85,37.17-.15Z"/><path class="cls-74" d="M345.14,600.03c2.46,1.44,1.84,3.96,2.15,6.15,4-10.54,4.78-21.61,4.56-32.95l-6.7,26.8Z"/><path class="cls-125" d="M314.54,801.64c-.69,4.8-1.37,9.6-2.06,14.4,.65,1.44,1.3,2.88,1.95,4.32,2.64-6.06,2.04-12.48,2.09-18.83-.7-.64-1.36-.64-1.98,.11Z"/><path class="cls-121" d="M314.54,801.64h1l.99-.11c3.17-4.42,1.49-9.52,2.02-14.3,.69-2.09-.06-2.55-1.95-1.73-.68,5.38-1.37,10.77-2.05,16.15Z"/><path class="cls-22" d="M316.59,785.49c.65,.58,1.3,1.15,1.95,1.73,3.2-4.43,1.78-9.39,1.6-14.2-2.62,3.75-3.14,8.1-3.55,12.47Z"/><path class="cls-123" d="M273.37,521.56c-.96,3.59-.35,6.51,3.39,8.13,.02-2.05,.05-4.1,.07-6.16-1.16-.66-2.31-1.32-3.47-1.98Z"/><path class="cls-58" d="M213.52,725.65c-5.49-1.11-11.06-.54-15.91,1.74-16.72,7.86-34.08,6.89-51.62,4.78-1.25,8.62-7.68,14.48-11.68,21.61-14.01,25.05-21.74,52.11-25.67,80.25-3.34,23.87-5.75,47.89-8.03,71.89-.62,6.49-4.49,11.26-6.41,16.99,.77,25.3,26.67,52.28,51.52,53.67,9.09,.51,11.67-2.97,8.08-10.87,.31-.48,.35-.98,.12-1.5-2.62-1.76-4.99-3.76-6.3-6.74-12.64-9.37-22.37-31.4-13.58-54.17,9.8-25.39,20.35-50.46,32.11-75.01,1.23-2.57,1.7-6.24,5.95-5.92,12.91-30.39,27.17-60.16,41.26-90.01,1.01-2.14,2.05-4.42,.18-6.7Z"/><path class="cls-11" d="M213.52,725.65c-12.41,26.73-24.69,53.52-37.33,80.13-2.55,5.38-4.29,10.66-4.11,16.58,2.34,21.7,8.53,42.72,11.58,64.26,1.99,14.07,3.94,28.46-3.14,42,10.75,8.33,20.68,17.65,31.47,25.94,16.11,12.36,34.04,11.99,52.58,8.11,.92-.96,.93-1.92,.02-2.89-10.77,1.41-18.81-2.06-22.77-12.78-1.82-1.62-1.56-4.27-3.02-6.06-2.84-2.75-6.11-5.02-8.95-7.78-9.83-10.43-11.53-23.69-12.05-36.99-1.11-28.1,2.63-55.91,6.84-83.58,4.04-26.59,8.54-53.14,17.33-78.71-8.96-4.59-17.9-9.21-28.46-8.21Z"/><path class="cls-7" d="M264.56,961.45c-4.05,.03-8.18-.45-12.14,.18-19.04,3.01-34.33-3.82-48.13-16.52-7.06-6.49-13.08-15.02-23.77-16.48-9.08,15.97-2.91,31.01,2.91,46.04,.64,1.66,2.32,2.61,4.16,2.41,23.87-2.54,46.41,7.94,70.09,7.18,4.44-.14,8.92-.05,13.31-.59,4.25-.52,9.41-.3,10.42-6.22,.9-5.3-.86-9.38-6.19-11.51-1.23-.49-2.27-1.44-3.4-2.17-2.07-1.89-4.62-2.27-7.27-2.31Z"/><path class="cls-51" d="M390.41,937.06c-29.48,10.95-53.05-6.57-78.24-16.25-7.86,4.54-5.03,11.95-4.75,18.5,.27,6.29,1.41,12.61,8.78,14.54,4.9,1.28,10.46,3.47,14.95,2.3,18.15-4.73,34.83,2.68,52.11,4.93,6.81,.88,13.64,1.33,20.38,.22,3.58-.59,7.65-1.78,8.44-6.29,.68-3.91-1.96-6.44-4.89-8.26-5.48-3.4-11.17-6.47-16.77-9.68Z"/><path class="cls-64" d="M153.79,965.71c2.98,10.34-3.52,9.55-9.98,8.3-23.49-4.57-42.61-23.53-47.49-46.97-.34-1.62-.01-3.47-2.13-4.12-3.76,6.33-3.71,13.8-6.17,20.51l-.16,2.06c.1,2.73,.52,5.49,.24,8.18-.82,7.79,1.66,12.56,9.74,15.3,8.14,2.76,14.44,9.15,20.22,15.42,12.15,13.19,27.82,15.3,44.17,14,10.78-.86,14.68-12.03,7.75-20.64-4.29-5.33-9.6-9.63-16.18-12.04Z"/><path class="cls-126" d="M264.56,961.45c1.76,2.84,4.64,2.19,7.27,2.31,.5-1.87,.99-3.75,1.48-5.63,.78-2.22,1.69-4.5-2.19-4.41-2.17,2.02-4.35,4.03-6.52,6.05-.08,.56-.1,1.11-.04,1.67Z"/><path class="cls-23" d="M271.12,953.73c1.98,.85,1.7,2.82,2.19,4.41,1.38-3.48,2.75-6.97,4.13-10.45-5.57-1.61-4.17,4.07-6.31,6.04Z"/><path class="cls-4" d="M147.6,957.46c.62,3.63,1.49,7.03,6.3,6.74-.86-3.41-3.82-4.86-6.3-6.74Z"/><path class="cls-117" d="M209.21,161.6c-15.14-.16-23.56,9.11-29.77,21.35-4.91,9.68-7.83,20.49-6.15,30.75,2.24,13.72-1.84,24.66-8.85,35.5-2.38,3.69-4.33,7.66-6.48,11.49,.27,3.35-1.67,5.8-3.42,8.32-4.29,2.24-4.08,6.51-4.7,10.4,.27,.68,.12,1.25-.47,1.69-.78,4.18-1.57,8.35-2.35,12.53,.52,6.84,7.36,6.89,11.06,10.34,11.97,5.57,19.52,15.13,24.93,26.86,1.69,3.66,3.06,10.58,9.44,3.85,2.04-6.08,3.01-12.32,2.36-16.51-.48,3.05,.7,7.99,2.84,12.8,3.77,3.43,2.61,15.57,12.99,7.38,3.98-6.82,4.02-14.14,2.78-21.63-2.45-12.39-7.44-23.9-12.13-35.55-4.48-11.11-7.65-22.52-4.57-34.68,1.68-6.56-.97-12.87-1.14-19.34-.14-5.56,1.2-9.17,6.95-12.09,11-5.58,13.86-17.92,20.02-27.52-2.37-9.72-7.16-18.2-13.35-25.97Z"/><path class="cls-84" d="M157.87,301.87c-3.61-2.75-7.23-5.5-10.84-8.23-23.74,17.88-37.78,44.08-56.7,66.09-2.65,4.55-1.09,8.47,1.77,12.22,5.02,5.45,10.86,10.04,16.31,15.04,.63,.67,1.34,1.23,2.14,1.68,4.09,.25,7.92-1.5,11.99-1.57,9.31-4.6,17.34-11.44,27.07-15.32,15.45-17.66,17.49-38.44,13.95-60.46-.61-3.82-2.75-6.92-5.69-9.44Z"/><path class="cls-39" d="M94.18,371.55c-2.35-3.59-5.13-7.05-3.85-11.82-5.77,15.21-18.38,26.38-24.41,41.46-1.53,3.84-3.65,7.51-1.41,11.67,13.2,24.45,30.02,46.04,50.47,64.91,8.47,7.82,18.64,6.48,28.6,7.06,.44,.04,.87,.08,1.31,.12,3.95-.22,7.63-2.1,11.65-1.89,2.32-.08,4.64-.15,6.8-1.15,1.35-.78,1.93-2.01,2.03-3.52-.07-.95-.36-1.84-.82-2.67-1.42-1.88-3.54-2.91-5.36-4.31-3.67-5.48-7.36-10.93-14.31-12.72-13.4,3.56-21.68-2.48-27.94-13.92-5.21-9.51-10.72-18.88-16.21-28.24-4.26-7.27-3.93-13.25,2.69-18.88,2.76-2.35,5.77-4.91,5.76-9.17-4.66-5.95-12.03-9.51-15.01-16.95Z"/><path class="cls-25" d="M143.58,484.83c-25.77,49.31-38.1,103.02-51.4,156.44-5.52,22.19-10.98,44.53-22.99,64.44-2.72,4.51-.45,7.18,3.06,9.21,6.55,3.79,13.36,4.8,20.3,.83-.42-1.04-1.14-1.79-2.16-2.24-15.56-2.82-15.47-2.78-9.41-17.79,12.88-31.9,20.45-65.35,28.17-98.72,7.76-33.56,20.28-65.37,33.95-96.83,2.59-5.96,5.98-8.59,12.78-6.08,3.79,1.4,8.91,3.33,10.6-3.42-6.86-4.88-13.76-9.63-22.8-5.54l-.11-.3Z"/><path class="cls-48" d="M122.8,727.61c.02-1.44,.05-2.87,.07-4.31-5.68-8.01-14.44-10.97-23.2-13.57-3.74-1.11-7.65-.28-7.69,5.18l.57,.84c7.05-1.61,13.07,.14,18.36,5.13,3.36,3.17,6.91,6.28,11.89,6.73Z"/><path class="cls-127" d="M355.31,287.5c6.28,.01,12.66,4.13,18.84-.44-6.22-27.6-12.13-55.29-18.8-82.78-3.08-12.69-9.51-24.02-17.57-34.44-19.26-24.87-53.82-20.1-70.19-7.75-2.65,2-4.58,5.33-8.71,3.61-1.27,2.68,1.01,3.53,2.49,4.75,14.53,12.01,17.57,24.85,9.85,41.77-2.91,15.8-8.79,30.82-12.08,46.52,.22,14.4,4,29.06-3.2,42.91-.36,1.01-.43,2.06-.2,3.11,3.13,3.89,6.28,.93,8.93-.43,4.38-2.26,8.94-2.9,13.7-3.11,13.79-5.5,14.21-18.01,15.72-29.96-.1-1.63-.46-3.2-1.06-4.71-8.42-14.4-8.62-30.45-8.62-46.35,0-7.77,4.47-14.36,10.28-19.28,6.98-5.92,13.53-12.33,20.66-18.05,9.99-1.75,16.26,4.43,21.03,11.34,13.47,19.5,16.72,40.47,6.57,62.65-1.41,3.08-3.19,6.01-4.03,9.36-1.18,5.91,.64,11.33,2.89,16.59,2.73,6.37,7.04,8.78,13.51,4.7Z"/><path class="cls-3" d="M396.31,347.08c1.65-3.09,4.77-3.52,7.71-4.32,17.99-4.86,35.98-9.74,53.96-14.62,28.94-7.13,46.18-28.77,63.22-50.75,4.57-5.89,9.79-11.27,14.71-16.89-1.36-2.57-3.74-3.76-6.24-4.96-8.59-4.09-9.67-7.45-4.78-15.76,2.75-4.69,6.08-9.04,7.37-14.49-.13-5.22,.46-11.16-8.01-8.1-5.18,25.07-26.79,37.03-42.92,53.2-16.41,16.45-38.43,19.72-60.16,23.08-4.79,3.28-4.79,9.7-8.99,13.51-1.69-2.16,1.73-7.22-2.48-7.17-5.59,.06-6.2,6.53-9.45,9.93-.8,.27-.8,0-.64-.99,.71-4.4,5.18-11.14,.09-12.63-5.87-1.72-6.6,6.08-8.07,10.78-1.01,3.24-1.63,6.6-2.68,9.84-.86,2.57-2.47,4.87-2.83,7.63,1.91,8.24,5.54,15.71,10.19,22.72Z"/><path class="cls-6" d="M273.3,211.13c9.29-11.99,3.77-34.81-10.43-42.67-1.46-.81-3.23-.98-3.99-2.75-10.49-7.32-22.25-10.71-34.93-10.71-5.73,0-11.56,.55-14.74,6.62,1.93,9.58,7.49,17.3,12.81,25.15,6.92,3.35,15.01,3.44,21.44,8.41,5.09,3.93,10.68,7.13,14.34,12.7,2.13,3.25,4.53,6.69,8.39,1.54,3.64-4.85,4.4,2.52,7.11,1.72Z"/><path class="cls-55" d="M390.34,318.17c4.71-6.26,2.3-15.39,10.35-23.14-1.7,6.23-2.78,10.13-3.81,14.03-.56,2.1-3.45,4.64-.57,6.26,3.37,1.9,4.2-2.22,6.04-3.92,3.14-2.91,2.98-8.2,8.2-10.81-1.22,4.52-2.22,8.22-3.76,13.96,9.89-5.33,12.37-13.04,14.39-21.07-8.56-13.2-26.12-16.52-36.81-6.54-2.75,2.56-5.51,1.95-8.38,2.41,.03,.67,.06,1.35,.08,2.02,4.54,4.1,1.78,10.04,3.74,14.8-.18,.6-.1,1.17,.25,1.7,4.88,2.79,5.05-1.85,6.65-4.23q-3.44,13.39,3.64,14.54Z"/><path class="cls-5" d="M550.68,196.78c-1.6,3.59-4.54,5.85-7.72,7.93-2.25,1.47-4.82,2.77-4.65,6.13,.23,4.66,4.94,1.54,7.01,3.87-2.77,1.86-5.36,3.43-7.73,5.27-.96,.74-1.44,2.08-2.15,3.15,7.18,3-.25,7.19,.87,10.68q3.51,13.62,18.93,8.53c12.05-13.48,6.92-28.85,4.35-43.7-.91-5.25-5.36-3.87-8.92-1.86Z"/><path class="cls-24" d="M555.26,242.33c-.47-.45-.95-1.31-1.42-1.3-3.06,.06-12.97-3.9-14.86-5.89-.64-.68-1.76-.9-2.65-1.34q-3.23,.66-5.93-6.22c-2.97,4.03-6.21,7.89-8.86,12.12-5.27,8.44-2.67,14.58,7.08,17.77,2.49,.82,4.87,2.01,7.29,3.02,6.46-6.04,14.07-10.87,19.34-18.17Z"/><path class="cls-72" d="M91.99,714.91c2.31-3.97,5.36-4.47,9.36-2.39,7.11,3.71,14.34,7.2,21.53,10.77,3.53-35.83,7.94-71.57,14.58-106.95,7.02-37.39,12.7-75.11,27.09-110.8,2.68-6.65,8.28-13.89,3.51-22.16-.28-.95-.91-1.51-1.88-1.69-1.53,.12-2.55,.86-2.87,2.42,.04,2.37,.84,4.44,2.5,6.16-3.23,4.46-7.13,3.14-10.64,.8-6.27-4.19-10.12-2.04-12.82,4.18-10.13,23.36-20.22,46.72-27.61,71.15-11.08,36.65-17.44,74.57-29.64,110.9-2.79,8.31-5.89,16.58-9.7,24.46-4.66,9.65-3.16,12.97,7.36,13.31,3.07,.1,6.15-.11,9.22-.18Z"/><path class="cls-73" d="M178.58,466.3c.66-.72,1.32-1.43,1.98-2.15-.12-4.37-3.45-3.52-6.11-3.78-2.99,.65-5.92,.6-8.97,.02-3.77-.72-8.31-.64-9.41,3.59-1.25,4.81,3.63,5.65,6.98,6.7,2.86,.89,5.77,1.86,8.83,2.01,2.34,.07,4.59-.2,6.38-1.94,.11-1.49,.21-2.97,.32-4.46Z"/><path class="cls-16" d="M166.36,482.8c.59,.15,1.16,.35,1.71,.6,2.33-1.76,5.65,3.11,7.48-.98,1.09-2.43-1.43-3.02-2.83-4.08-2.62-1.81-5.06-4.48-8.62-1.82-.08,1.36-.16,2.72-.23,4.08,.32,1.31,1.6,1.54,2.49,2.22Z"/><path class="cls-16" d="M178.27,470.75c-2-.09-4.01-.17-6.01-.26-.73,1.28,.58,2.81-.5,4.05-.13,.76,.08,1.39,.63,1.92,2.66,.27,5.57,1.32,7.51-1.44,1.35-1.92-.63-3.01-1.63-4.27Z"/><path class="cls-57" d="M172.38,476.46c-.01-.66-.1-1.31-.26-1.95-1.61-1.79-3.61-2.11-5.84-1.56-1.54,.68-2.78,1.56-2.18,3.56h0c2.87,.6,5.75,1.21,8.62,1.82-.14-.62-.26-1.24-.34-1.86Z"/><path class="cls-9" d="M277.01,299.67c-8.13-2.83-13.53,3.41-20.01,6.04-2.53,7.39,1.05,14.02,3,20.67,3.35,11.42,6.4,22.98,10.66,34.1,4.63,12.08,5.42,23.77-1.19,35.35-1.36,5.69,1.23,9.7,5.55,12.96,13.55,20.49,20.16,41.9,11.11,66.44-2.18,5.92-5.02,12.53-3.1,19.47,22.06-1.25,44.12-2.5,66.18-3.75,1.49-.66,3.03-1.96,4.48-1.88,10.68,.65,10.42-5.8,9.34-13.42-3.44-24.2-7.17-48.39-7.57-72.89-.12-7.42,1.35-14.86,1.98-22.3,.33-3.79,0-7.52-2.08-10.88-4.17-9.57-8.62-19.02-12.38-28.77-.65-.56-1.3-1.11-1.96-1.67-.52-.96-1.28-1.66-2.29-2.09-8.03-1.62-16.35-.99-24.32-3.54-11.24-3.6-20.51-9.03-25.31-20.64-2.33-5.64-5.49-11.18-12.1-13.2Z"/><path class="cls-20" d="M291.34,266.86c.19,1.39,.39,2.78,.58,4.17,6.21,9.87,13.82,18.61,22.37,26.45,6.06,5.55,12,11.16,17.24,17.49,2.58,2.11,4.78,4.76,8.13,5.82,7.2-3.66,11.84-10.61,19.13-14.38,4.45-2.3-.8-7.53,1.2-11.16-.77-2.46-1.38-5.02-4.14-6.12-11.19-4.31-17.6,2.71-23.84,11.66-4.98-10.3-4.84-21-10.79-29.35-10.05-.95-19.86-3.41-29.88-4.57Z"/><path class="cls-61" d="M322.52,273.12c-1.42,11.47,6.19,20.76,6.49,32.6,9.9-5.91,13.22-19.78,26.84-16.6-.2-.54-.38-1.08-.54-1.62-10.54-.68-14.77-7.45-14.21-22.78-5-.59-8.05,4.17-12.69,4.58-2.2,.91-4.58,1.55-5.9,3.82Z"/><path class="cls-129" d="M359.99,295.24c-1.52,12.97-15.85,15.12-21.08,24.96,1.66,6.17,8.6,8.62,10.37,14.71,16.02-9.17,18.61-18.79,10.71-39.67Z"/><path class="cls-19" d="M349.28,334.91c1.88-8.67-5.79-10.6-10.37-14.71-.12-4.04-3.53-4.72-6.24-6.12-3.64,9.52-1.08,17.48,6.09,24.29,.75,.25,1.5,.51,2.25,.76,2.75-1.41,5.5-2.81,8.26-4.22Z"/><path class="cls-119" d="M390.34,318.17c-5.13-.86-4.15-4.26-3.34-7.75,.99-4.22,1.77-8.48,2.65-12.76-7.78-.7-2.77,10.21-9.61,10.19-1.92,6.95,4,11.02,6.08,16.5,2.76-1.14,4.17-3.2,4.21-6.19Z"/><path class="cls-90" d="M342.98,340.8c.35,11.22,6.76,19.82,12.38,28.77-2.12-10.45-5.09-20.54-12.38-28.77Z"/><path class="cls-122" d="M379.8,306.16c.34-3.32,.23-6.77,1.13-9.92,1.47-5.12-1.77-4.75-4.87-4.88,.22,5.19,1.7,10.07,3.74,14.8Z"/><path class="cls-52" d="M270.95,396.49c10.25-12.31,5.77-25.42,1.93-38.4-5.18-17.5-10.59-34.92-15.89-52.38-.19-.71-.39-1.41-.59-2.11-3.34-3.05-7.08-2.59-10.91-1.26-4.34,4.27-.68,8.4,.79,12.07,4.6,11.44,3.78,21.19-6.98,28.73-2.38,2.69-5.32,4.97-6.44,8.61-.14,1.66,.16,3.12,1.78,3.99,10.94,.68,18.29-6.47,26.39-12.35,1.72,5.64,3.8,10.95,5.38,16.37,3.49,11.94,6.11,23.95-2.63,35.13-1.87,2.39-3.18,5.54-3.09,8.59,.47,15.82-4.89,31-4.8,46.78,.09,15.03-1.02,16.17-16.05,19.87-1.35,.33-2.59,.85-3.7,1.68-.86,1.01-.73,1.87,.4,2.57,9.8,1.59,18.49-1.21,26.5-6.71,.32-20.65-.26-41.35,3.82-61.77,3.38-2.27,1.85-6.65,4.07-9.42Z"/><path class="cls-70" d="M270.95,396.49c-3.23,2.33-4.13,5.67-4.07,9.42,2.71,.96,5.42,1.92,8.13,2.87-1.3-4.12-4.42-7.63-4.06-12.3Z"/><path class="cls-66" d="M240.11,937.09c-.76,1.34-1.51,2.69-2.27,4.03,.19,2.74-.87,6.32,3.99,5.87-.57-3.3,2.76-7.28-1.72-9.9Z"/><path class="cls-1" d="M236.56,474.39c-.12-.67-.09-1.33,.07-1.99,4.87-13.99,3.03-28.45,1.62-42.52-1.43-14.22-.77-27.82,2.86-41.57,3.16-11.99,2.69-23.65-6.9-33.2l-.07-3.69c-7.5-5.53-15.74-9.17-25.12-10-8.15,3.73-6.1,13.89-11.44,18.8,5.01-7.07,5.29-15.06,2.45-23.45-2.44-2.71-5.2-4.37-8.96-2.67-5.65,4.81-4.31-1.96-5.07-3.5-6.25-12.73-13.53-24.27-28.15-28.74,8.96,25.29,4.78,48.64-10.42,70.35-2.49,5.51,1.16,9.93,2.88,14.52,7.15,19.05,11.98,38.48,10.83,59.03,.8,13.45,.92,13.59,13.47,16.31,2.12,.27,4.45-.05,5.93,2.06,14.4,.85,27.89,6.03,41.86,8.92,4.72,.98,9.34,1.82,14.14,1.32Z"/><path class="cls-40" d="M273.3,211.13c-.93-3.72-2.49-7-6.27-9.04-3.23,1.93-.24,6.6-3.61,8.36-11.16-12.49-21.79-25.94-41.4-23.7-6.96,5.81-9.77,14.46-14.74,21.63-1.3,1.88-1.79,5.22-4.53,4.88-13.11-1.65-9.62,8.06-10.16,14.71-.49,6.04,3.48,11.69,2.06,17.92-4.25,18.83,7.67,28.41,21.19,37.1,3.76,1.95,7.48,4.01,11.79,4.54,14.41-.93,29.25-14.11,32.82-29.15,6.57-15.13,10.95-30.85,12.84-47.25Z"/><path class="cls-115" d="M217.48,281.22c-4.66-3.37-9.58-6.32-13.55-10.66-6.45-7.05-10.51-14.82-9.27-24.67-3.95,10.88-1.26,21.42,2.36,31.61,4.62,13,10.62,25.51,14.08,38.94,3.7-.25,6.4,4.22,10.48,2.19,7.84-10.96,6.48-23.28-4.11-37.41Z"/><path class="cls-69" d="M219.55,318.21c-3.27,1.56-3.76-10.14-8.45-1.77,.31,7.53,.33,15.03-2.23,22.27-.83,1.41-.86,2.77,.25,4.06,8.77,1.64,15.76,8.45,25.03,8.65,2.12-2.05,4.24-4.11,6.37-6.16,1.51-6.04-4.04-8.47-6.38-12.55-.54-.71-1.13-1.36-1.75-1.99-2.91-2.62-5.33-5.67-7.68-8.78-1.39-1.7-3.5-2.39-5.16-3.72Z"/><path class="cls-42" d="M209.12,342.77c-.08-1.35-.16-2.71-.25-4.06-8.52,3.47-4.17-8.03-9.55-8.22-2.14,1.94-1.85,4.07-.48,6.29,.83,8.21-.07,16.31-2.31,25.53,8.07-5.11,7.79-13.97,12.59-19.54Z"/><path class="cls-132" d="M198.84,336.78l.48-6.29c-1.62-5.7-1.86-11.86-5.76-18.42-.94,8.37-1.71,15.21-2.48,22.04,2.59,.89,5.18,1.78,7.76,2.67Z"/><path class="cls-56" d="M108.56,388.18c.5-.6,.99-1.2,1.49-1.81-5.29-4.94-10.58-9.89-15.86-14.83,.65,9.13,6.87,13.44,14.38,16.64Z"/><path class="cls-95" d="M110.98,387.96c4.5,5.5,6.8-.33,9.93-1.92-3.92-2.51-6.75,.58-9.93,1.92Z"/><path class="cls-27" d="M163.86,445.8c-.11,12.38-10.46,11.74-18.25,14.36,5.41,3.61,9.48,8.38,12.35,14.2,2.61-1.83,5.34-.2,8.02-.29,2.05,.15,4.1,.3,6.14,.44,7.01-1.12-.68-2.71,.13-4.02-5.05-1.55-10.09-3.11-15.71-4.84,5.34-7.23,13.15,2,18.09-3.57-5.27-4.32-13.07-6.96-10.77-16.28Z"/><path class="cls-60" d="M165.82,490.29c.6-2.16,.6-4.15-1.62-5.47-1.99-2.97-5.79-2.3-8.33-4.16-4.52,.24-8.99,.59-12.17,4.47,8.18-1.72,14.22,5.71,22.13,5.16Z"/><path class="cls-101" d="M155.86,480.66c1.9,3.15,5.04,3.8,8.33,4.16,.72-.68,1.44-1.35,2.17-2.03-.83-.74-1.66-1.48-2.49-2.21-2.67,.03-5.34,.05-8.01,.08Z"/><path class="cls-16" d="M165.98,474.07c-2.76-2.34-5.44-2.48-8.02,.29,2.05,.72,4.09,1.43,6.14,2.15,.63-.81,1.25-1.63,1.88-2.44Z"/><path class="cls-13" d="M322.52,273.12c2.15-.49,4.66,.07,6.26-2.08,3.08-2.03,4.45-4.99,4.62-8.59,1.22-24.59,1.02-48.97-10.75-71.59-2.16-4.15-3.5-8.98-8.52-10.91-5.04,4.54-9.7,9.59-15.18,13.51-15.09,10.79-20.31,25.11-16.54,42.94,2.19,10.38-.44,22.2,8.94,30.47,9.38,7.14,20.38,6.19,31.18,6.26Z"/><path class="cls-99" d="M338.77,338.37c-3.17-7.81-5.74-15.77-6.09-24.29-1.95-2.72-3.59-5.74-5.9-8.1-11.52-11.75-23.22-23.32-34.86-34.96-2.36,10.91-1.39,23.54-14.91,28.64,6.16,7.2,9.17,16.78,15.36,23.5,12.24,13.29,28.62,17.17,46.4,15.2Z"/><path class="cls-63" d="M314.13,179.94c15.26,25.45,18.58,53.32,16.48,82.23-.22,2.98-1.21,5.91-1.84,8.87,5.34,.3,8.86-2.97,12.33-6.32,16.66-23.26,12.55-60.73-8.91-78.88-5.04-4.26-10.49-8.71-18.06-5.9Z"/><path class="cls-105" d="M260.45,258.38c-5.92,8.27-10.96,17.28-19.73,23.13-3.79,2.53-7.88,3.99-12.46,3.98-4.56,5.57-.43,9.34,3.02,12.87,2.81,2.88,6.28,5.07,10.26,6.25,1.13,.22,2.1-.09,2.91-.91,3.99-.03,7.98-.06,11.96-.09,4.68-2.87,7.2-6.7,6.43-12.52-1.43-10.85,2.63-22.1-2.39-32.7Z"/><path class="cls-80" d="M234.22,355.11c5.65,13.34,7.24,26.64,2.09,40.78-3.79,10.42-2.18,21.44-1.18,32.43,1.32,14.62,1.07,29.38,1.5,44.08,18.8-.09,22.32-3.37,21.97-22.17-.29-15.77,6.1-30.85,4.45-46.74-.16-1.52,.69-3.5,1.7-4.75,13.66-16.82,6.77-33.8,.56-50.8-1.14-3.12-2.28-6.23-3.42-9.35-7.62,8.18-17.06,13.33-27.67,16.5Z"/><path class="cls-134" d="M244.45,303.69c-.47-.32-.98-.43-1.54-.31-11.16,1.03-15.3,6.67-12.64,17.48,.95,3.87,3.51,7.46,1.66,11.71,2.86,4.23,5.72,8.46,8.58,12.69,14.75-12.24,15.31-18.15,3.93-41.57Z"/><path class="cls-17" d="M231.94,332.56c5.78-1.28,4.26-4.81,2.68-8.47-5.07-11.77-3.6-15.37,8.3-20.71-6.31-4.79-16.48-6.43-14.65-17.89-3.6-1.42-7.19-2.84-10.79-4.26-1.25,2.46-.34,3.89,1.45,6.06,6.45,7.81,6.45,22.05,.63,30.93,.15,2.55,1.44,3.97,4.03,4.13,2.57,3.58,6.08,6.4,8.35,10.22h0Z"/><path class="cls-134" d="M231.94,332.56c-.54-5.24-4.32-7.83-8.35-10.22,.73,5.08,4.5,7.68,8.35,10.22Z"/></g><g><path class="cls-131" d="M598.18,951.97c-7,1.43-14.8,1.76-15.85,11.44,1.39,2.51-.21,5.9,2.37,8.06,6.7,2.99,13.73,1.63,20.67,1.55,4.27-.02,7.54-2.58,11.1-4.41,11.85-2.19,23.69-4.39,35.54-6.58,20.63-1.31,40.79-5.59,58.14-9.77-13.93,7.08-29.84,15.45-42.79,28.56l.12-.08c-6.68,2.81-7.76,7.13-3.49,12.91,8.4,6.63,17.3,9.76,27.45,3.83,8.17-4.44,16.59-8.43,24.92-12.59,.83-.38,1.63-.83,2.43-1.28,2.36-1.41,4.9-2.47,7.42-3.58,.9-.36,1.75-.79,2.61-1.24,10.55-5.32,21.82-9.51,31.58-16.01,15.39-10.23,31.38-7.82,47.75-5.03,.96,.29,1.94,.48,2.92,.63,4.87,.69,9.87-.24,14.67,1.2,.95,.3,1.92,.52,2.9,.7,5.37,.94,10.93-.16,16.22,1.58,.96,.29,1.95,.47,2.94,.62,4.42,.59,8.97-.1,13.29,1.41,.94,.28,1.9,.47,2.87,.61,4.89,.46,9.85,.31,15.07,1.6-5.72,2.66-11.09,5.1-16.19,8.06-14.1,8.2-14.21,16.01-.4,24.9,12.9,4.61,25.45,2.57,37.89-1.89,8.22-4.68,17.73-4.48,26.54-6.92,4.51-1.4,7.78-4.09,8.06-9.07,.43-7.6,5.01-8.4,11.1-7.34,4.59,.79,9.24,1.84,13.73-.58,9.5-10.71,8.78-19.05-2.64-26.49-7.62-4.96-11.25-11.28-11.81-20.75-2.43-41.29-4.49-82.6-5.8-123.94-.1-3.04-.26-6.05-1.01-9.01-1.79-7.07-1.58-14.43-3.01-21.54-.67-3.99-2.1-7.85-2.04-11.96-.23-2.02-.95-3.89-1.77-5.73-.51-1.25,.56-1.2,.5-.8-.29,1.94,1.04,3.71,1.31,5.67-.22,3.46,.9,6.72,1.51,10.06,.72,3.6,1.54,7.18,1.61,10.87,8.57,47.94,18.22,95.67,27.9,143.38,1.25,6.16,2.24,12.62,6.4,17.83,18.5,4.34,37.55,5.83,55.97,10.68,5.56,1.46,8.98-1.51,9.4-7.37,.28-4,.53-8.01-.45-11.96-1.86-5.18-1.29-10.45-.61-15.73,.41-1.76,.1-3.46-.41-5.15,.45-16.53-2.05-32.89-2.69-49.36-.11-1.09-.34-2.16-.63-3.21-1.92-5.07-.84-10.45-1.56-15.65-.1-1.08-.32-2.13-.6-3.17-1.51-4.27-.73-8.73-1.06-13.11-3.95-34.55-11.65-68.44-18.61-102.41-3.6-17.56-3-35.23-4.96-52.79-2.38-21.38-3-42.97-2.52-64.56,.14-6.36-.32-12.87-4.78-18.17-2.79-1.65-5.82-1.41-8.81-.96-22.96,3.5-46.09,2.4-69.17,2.62-10.68,.5-21.36,.52-32.02-.03-.89-.4-1.81-.76-2.7-1.15-2.62-.88-3.61-4.48-6.92-4.24-1.21,.79-2.02,1.93-2.73,3.15-5.73,6.04-6.23,14.63-10.57,21.47-4.23,6.66-8.94,12.46-15.75,16.46-1.61,.99-3.3,1.81-5.09,2.41-9.17,1.76-18.29,4.08-27.64,1.17-4.86-.36-9.34-2.23-13.97-3.49-3.91-.73-7.67-1.93-11.22-3.74-1.26-.7-2.72-1.17-3.22-2.73,4.36-2.73,9.5-1.86,14.09-3.32,3.55-.59,7.01-1.4,9.88-3.78,2.78-3.03,2.33-5.8-.65-8.38-3.59-2.73-7.97-3.7-12.16-4.14-7.12-.75-13.42-3.24-19.48-6.79-9.37-1.11-18.74-1.23-28.11,.03-6.56,4.23-13.96,5.5-21.53,6.73-4.93,.8-12.01,1.07-12.33,7.67-.31,6.48,6.16,7.67,11.37,8.96,3.81,1.18,7.76,1.74,11.64,2.58,4.18,2.93,2.58,7.42,2.58,11.13,.18,91.99,.04,183.97,.26,275.96,.02,9.3-3.8,12.9-12.52,14.72-34.3,7.17-68.7,13.83-102.95,21.23-4.28,.93-8.6,1.68-12.74,3.11-5.17,3.16-10.46,6.08-16.75,6.38Z"/><path class="cls-41" d="M845.22,141.73c-.42-4.62,1.26-9.59-2.22-13.71-.38-1-.95-1.88-1.72-2.64-3.28-1.89-6.33-7.55-10.19-.65-1.91,13.66-3.78,27.31-5.87,40.94-1.32,8.57-5.46,12.03-14.12,11.93-22.2-.26-44.4-.19-66.6-.02-5.26,.04-10.97-.79-14.79,4.39-.41,6.76,4.77,7.85,9.51,8.99,4.15,1,8.47,.75,12.73,.58,14.87,.38,29.81-.56,44.71,1.78-14.96,4.05-30.08,5.44-45.47,3.83-27.16,.21-54.24,2.28-81.35,3.21-10.44,1.15-20.23,7.19-31.38,3.71-4.04-1.26-5.37,4.73-10.3,4.59-7.28-.22-13.74-2.57-20.49-4.42-2.91,.71-6.23,.29-8.57,2.51-2.38,2.25-5.58,4.69-.96,7.93,16.75,2.71,33.58,1.71,50.35,.66,7.38-.46,14.74-1.36,22.16-1.26,37.39,.51,74.69-3.33,112.11-2.09,15.07,.5,21.87,7.32,21.25,22.26-.13,3.24-1.38,4.98-4.59,5.46-3.35,.51-6.72,.44-10.09,.44-32.69,.02-65.37,0-98.06,.01-3.71,0-7.42-.1-11.12,.19-12.72,.99-15.97,4.19-16.09,17-.25,28.3-.05,56.61-.1,84.92-.01,5.79,.13,11.65-6.04,14.96-3.3,5.24,1.68,5.65,4.2,5.86,4.31,.37,6.84,3.21,9.98,5.3,4.5,1.9,9.26,1.58,13.96,1.58,44.47,.04,88.95-.06,133.42,.1,7.64,.03,14.69-1.17,21.16-5.29,6.8-2.04,12.15-5.23,10.64-13.72-11.38-42.38-20.81-85.26-32.56-127.56-1.08-3.9-1.14-7.95-.22-11.95,.17-1.04,.15-2.09,0-3.14-.92-4.02-3.41-7.08-6.19-9.97-1.32-1.38-3.39-2.69-2.47-4.91,.88-2.12,3.26-1.98,5.2-2.09,4.63-.27,9.27,.01,13.9-.21,4.02-.2,8.02-.51,10.39-4.56,5.28-12.26,1.65-25.66,4.93-38.19,.57-2.18-.46-4.67,.98-6.78Z"/><path class="cls-131" d="M729.69,182.69c3.91-2.66,8.36-2.12,12.71-2.13,24.58-.03,49.16-.25,73.73,.05,7.1,.09,10.26-2.24,11.2-9.46,2.12-16.24,6.52-32.2,5.75-48.78,.2-1.76-1.34-1.83-2.34-2.42-6.9,0-13.8-.01-20.71-.02-13.13,2.43-26.46-.45-39.6,1.53l-33.94,.54c-7.08,1.8-4.76,8.26-6.34,12.79-.19,1.76-.37,3.52-.56,5.28-2.42,6.9-2.42,14.2-3.53,21.31l.31,.5-.39,.44c-2.3,3.96-.92,8.5-1.94,12.75-.89,3.72,.6,7.43,5.65,7.62Z"/><path class="cls-36" d="M639.42,849.04c-3.5,2.5-3.59,6.53-4.57,10.16-.1,2.13,.5,4.46-1.73,5.97-3.5,2.5-3.87,6.36-4.4,10.15,.3,2.36-.84,4.19-2.2,5.94-2.85,2.2-3.24,5.44-3.63,8.68-.58,5.73-2.65,10.93-5.66,15.79-3.58,3.19-2.83,8.12-4.8,11.97v.02c-2.65,2.87-3.7,6.37-4.01,10.15v-.02c-3.48,4.3-4.27,9.67-5.89,14.72,.23,3.91-.4,7.42-4.35,9.39,5.21,.64,11.5,5.63,14.28-3.55,3.52-2.44,4.94-6.15,6.41-9.97,38.54-99.87,78.04-199.36,115.97-299.46,2.73-7.21,9.19-13.74,5.43-22.58l-10.63-1.94c-6.68,13.52-14.09,26.76-15.86,42.13,.02,3.92-2.21,6.91-4.16,10.01-2.68,5.18-5.23,10.41-6,16.3,.1,1.56,.07,3.07-1.4,4.1-4.78,9.84-10.89,19.14-12.31,30.35-.22,.64-.44,1.29-.65,1.93-13.11,20.6-16.22,45.09-26.05,66.96l.08-.04c-4.66,6.16-5.4,13.84-8.08,20.77,.06,4.34-1.82,8.03-3.87,11.67-4.7,1.92-2.68,6.81-4.44,10.04,.09,1.57,.11,3.11-1.37,4.16"/><path class="cls-103" d="M608.24,1010.86c0-2.52-.02-5.04-.03-7.56-1.57-2.25,0-4.91-.92-7.25-5.02-8.62-12.37-13.29-22.49-13.28-.99,.31-1.9,.77-2.74,1.37-4.02,2.18-8.04,4.35-12.05,6.53-4.49,1.11-4.81,5.14-5.98,8.57,.26,.64,.1,1.16-.46,1.56-.62,4.71-2.05,9.46,.73,13.99,1.94,.75,1.72,2.39,1.65,3.97,2.2,3.3,3.15,7.85,8.27,8.21l5.86,2.35c3.34,1.23,6.69,1.07,10.05,.11,6.16-.46,11.04-3.08,14.31-8.43,1.68-3.23,5.66-5.59,3.8-10.14Z"/><path class="cls-93" d="M1037.73,976.52c.77-1.37,1.55-2.75,2.32-4.12-.05-.68-.1-1.35-.15-2.03,1.83-2.17,2.46-4.75,2.52-7.51,.84-5.89-2.24-10.9-3.62-16.29,.29-4.95,2.03-10.12-2.05-14.45-.8-.77-1.73-.99-2.79-.65-1.78,18.83-1.77,18.77-21.02,14.16-13.93-3.34-28-5.8-42.4-5.73-2.83-1.47-4.32,.15-5.36,2.45-4.05,8.92,3.7,28.73,12.8,32.88,5.98-.94,4.34-4.98,2.83-8.19-2.79-5.92,.18-7.93,5.25-8.84,8.53-1.54,17.13-3.51,24.91,2.54,1.33,1.03,2.98,1.71,4.63,1.71,7.7,.01,11.35,4.44,12.81,11.41,1.55,2.31,3.97,3.02,6.5,3.53,1.06,.1,2.01-.19,2.83-.87Z"/><path class="cls-138" d="M634.85,859.2c2.67-2.87,3.59-6.53,4.56-10.16"/><path class="cls-138" d="M608.24,1010.86c-1.27,3.38-2.53,6.76-3.8,10.14"/><path class="cls-138" d="M582.06,984.14l.78,.14,.79-.11c4.38-4.45,3.75-9.16,.73-14-.68-2.26-1.35-4.51-2.03-6.77-.09,6.91-.18,13.82-.27,20.73Z"/><path class="cls-53" d="M997.11,589.78c7.66-9.31,1.61-19.46,1.16-29.01-.79-16.75-3.56-33.4-5.51-50.09-1.02-3.15-3.5-4.05-6.39-3.66-16.43,2.24-30.01-5.34-44-12.11-7.78-3.76-14.06-10.65-23.28-11.45-4.86,2.11-3.69,5.58-1.95,9.08,1.19,2.4,3.15,4.27,4.77,6.38,2.79,3.64,4.45,7.53,2.03,11.97-2.18,4-5.86,5.12-10.18,4.68-1.65-.17-3.31-.3-4.96,.14-3.91,1.55-5.09,5.14-6.33,8.6-6.67,18.6-13.22,37.25-20.01,55.8-1.38,3.76-2.9,7.53-.52,11.46,.66-.05,1.29,.06,1.9,.33,11.55,2.15,23.33-.68,34.88,1.55,26.17-.23,52.42,1.09,78.38-3.67Z"/><path class="cls-93" d="M895.92,879.31c-.79-25.22-5.48-49.98-8.98-74.88-3.55-25.23-7.57-50.36-9.44-75.84-2.86-38.8-4.41-77.61-3.78-118.64-8.17,10.18-13.47,20.32-24.51,24.35-3.98,9.21-1.07,18.69-.23,27.8,3.32,35.89,6.36,71.83,11.2,107.57,.95,7.01,2.67,13.89,3.11,20.96,1.5,4.28,1.65,8.76,1.8,13.23,7.35,24.22,17.67,47.38,25.97,71.27,.74,2.12,1.73,4.57,4.87,4.18Z"/><path class="cls-108" d="M863.58,794.16c-18.28-49.67-36.59-99.33-54.76-149.04-1.06-2.9-4.07-5.67-1.66-9.27-4.71-1.36-9.41-2.73-14.12-4.09,23.29,63.11,46.48,126.25,69.93,189.3,5.14,13.81,10.07,27.62,12.45,42.21,7.08,14.95,11.23,31.01,17.59,46.22,2.41,5.77,3.15,12.45,8.66,16.62,1.53,4.1,2.71,8.37,4.68,12.24,2.18,4.27,1.85,13,9.39,10.09,6.42-2.47,1.78-8.8,.23-13.18-5.52-15.52-11.37-30.92-17.03-46.38-1.15-3.14-2.01-6.38-3.01-9.57-9.48-25.03-18.96-50.05-28.43-75.08-2.11-3.04-.87-7.38-3.9-10.07Z"/><path class="cls-14" d="M877.64,589.39c.14-1.23,.29-2.47,.43-3.7,5.99-3.95,6.12-10.94,8.21-16.72,6.81-18.84,15.12-37.18,19.27-56.92-3.03-9.35-10.61-15.48-16.34-22.93-3.14-2.65-4.39-7.62-9.56-7.8-1.21,.28-2.18,.89-2.95,1.86-3.18,7.27-3.86,15.05-3.98,22.77-.36,24.28-.19,48.56-.09,72.84,.01,3.37,.1,6.77,1.82,9.84,.8,1.31,1.87,1.56,3.18,.77Z"/><path class="cls-110" d="M744.08,524.92c6.36-1.39,6.21,2.73,6.18,7.08-.15,21.17-.21,42.34-.3,63.51l30.57,.2c1.74-4.03,.8-8.37,1.48-12.55-6.79-17.48-13.64-34.94-18.37-53.12-1.64-6.3-6.68-7.86-12.03-9.17-4.45-.76-8.9-1.38-13.09,1.07-1.07,.93-1.04,1.82,.11,2.67l5.44,.32Z"/><path class="cls-135" d="M810.8,606.03c1.61,1.92,1.35,3.86,.03,5.8-4.79,7.96-1.92,14.4,4.01,20.24,10.33,2.79,20.47,2.1,30.41-1.78-6.34-8.7-6.33-18.09-3.06-27.86,1.51-4.53,1.98-9.2,1.61-13.95-2.43-7.74-.95-16.55-6.33-23.5-7.97,1.64-10.38,7.37-10.74,14.6,7.49,2.85,7.47,8.27,5.12,14.63-2.88,7.79-8.11,14.3-11.89,23.38-1.29-10.35,4.42-19.22-.37-27.85-3.37-1.69-5.51,0-7.28,2.67-.06,4.59-1.84,8.99-1.52,13.63Z"/><path class="cls-18" d="M901.66,926.11c-7.68-20.93-15.38-41.85-23.02-62.79-1.15-3.16-2.07-4.09-3.22-.06,2.87,23.54,4.15,47.26,8.35,70.65,6.89-.48,15.65,3.33,17.89-7.8Z"/><path class="cls-67" d="M877.64,589.39c-.58,.37-1.18,.42-1.81,.14-9.39-3.96-18.98-4.34-28.74-1.54-1.41,5.46,.49,11.29-1.81,16.67-1.04,8.26-.84,16.3,4.18,23.47,12.12-5.09,17.36-16.06,21.69-27.11,1.71-4.36,3.64-8.13,6.5-11.63Z"/><path class="cls-98" d="M665.36,992.48c-.2,5.35-.4,10.71-.59,16.06,1.24,2.29,3.54,3.05,5.74,3.8,9.47,3.23,15.3,9.42,16.43,19.64,.22,2,.75,3.99,2.53,5.3l1.67-2.04c5.6-13.37,5.06-26.82,.48-40.31-9.39,5.99-17.9,2.59-26.26-2.44Z"/><path class="cls-100" d="M926.15,988.22c8.92-.68,5.41,6.43,6.62,10.58,7.21-8.11,16.55-12.87,26.43-16.76-.2-3.25-.4-6.51-.6-9.76-3.61-.37-7.23-.6-10.82-1.13-13.27-1.95-13.72-2.03-15.11,11.06-.53,4.99-4.61,3.81-6.53,6.01Z"/><path class="cls-107" d="M584.36,970.17c-1.62,4.59-.72,9.32-.73,14,9.46,.71,16.69,5.44,22.58,12.58,.1-8.74,.2-17.49,.31-26.23l-22.16-.35Z"/><path class="cls-133" d="M904.13,510.67c-7.23,25.51-17.57,49.95-26.06,75.02,2.31,1.29,.83,5.08,3.89,5.88,4.04-17.95,12.25-34.46,18.09-51.8,2.68-7.94,2.99-17.17,10.05-23.31-.09-3.88-1.91-5.99-5.97-5.79Z"/><path class="cls-78" d="M800.83,628.06c1.13-4.59-4.96-9.22,.08-13.79-4.87-.02-9.42,1.95-14.44,1.79-4.59-.15-5.37,2.66-1.87,5.98,2.41-1.63,2.91,.73,3.97,1.91,3.79,2.26,7.69,4.19,12.27,4.12Z"/><path class="cls-133" d="M918.73,593.44c-11.54-2.44-23.22-1.79-34.88-1.55,11.48,3.69,23.23,1.43,34.88,1.55Z"/><path class="cls-112" d="M934.14,770.11c.7-.69,1.41-1.39,2.11-2.08-.62-3.4-1.25-6.81-1.87-10.21-.65-.76-1.34-.79-2.06-.11,.1,4.21-.75,8.56,1.82,12.4Z"/><path class="cls-96" d="M932.33,757.71c.69,.04,1.38,.07,2.06,.11,.2-2.51-.89-4.49-2.55-6.35-2.51,2.33-1.51,4.32,.49,6.24Z"/><path class="cls-8" d="M788.57,623.94c.06-2.11,.93-4.87-2.11-5.33-2.23-.34-1.65,2.02-1.87,3.42,1.32,.64,2.65,1.27,3.97,1.91Z"/><path class="cls-131" d="M737.78,523.13c4.67-.04,9.34-.09,14.02-.13,3.87,.81,7.77,2.1,11.36-.84,5.29-37.02,15.43-73.08,22.04-109.83,1.88-10.47,6.52-16.73,16.59-20.43,12.95-4.75,25.04-11.63,37.77-17.03,3-1.27,6.54-2.32,6.84-6.56-.52-3-2.61-4.5-5.27-5.43-1.77-.85-4.93-2.89-5.33-1.57-2.82,9.24-10.21,5.35-15.55,5.37-49.81,.2-99.63,.02-149.44-.04-2.11-2.05-4.86-2.72-7.49-2.21-15.85,3.08-31.21,7.55-44.6,17.11-4.05,1.4-8.09,2.8-12.14,4.2-1.79-.6-3.12,.08-4.18,1.51l.08-.03c-10.61,4.65-10.81,12.55-.61,24.21,1.25,3.16,3.39,6.08,2.62,9.79,1.24,14.47,6.35,27.72,12.73,40.58,2.19,1.66,1.17,4.05,1.39,6.16,2.61,14.83,5.63,29.45,11.73,43.47,3,6.9,6.66,9.11,13.54,8.4,3.28-.34,6.73-.61,9.96,.75l15.35,.41c22.88,.42,45.64,4.66,68.61,2.14Z"/><path class="cls-131" d="M656.62,358.99c7.96,.74,10.88-2.17,10.71-10.8-.58-30.01-.22-60.05-.21-90.07,0-13.85,.7-14.62,15.08-14.65,38.46-.07,76.92-.03,115.38-.04,12.15,0,12.42-.09,9.34-11.55-7.49-27.82-.13-23.05-28.72-22.92-40.08,.18-80.21,.27-120.2,2.46-20.55,1.13-41.04,.93-61.54,1.57-5.45,6.46-4.81,9.97,3.72,20.2,1.63,1.56,2.68,3.34,2.29,5.71,5.57,14.51,8.09,30.37,18.71,42.67,1.87,.92,1.55,2.59,1.44,4.18,1.28,3.43,.84,7.58,4.23,10.12l-.05-.13c1.65,6.58,1.9,13.75,7.91,18.45l.54,.42-.2,.65c2.63,13.37,9.18,25.26,14.39,37.65,1.27,3.02,2.96,6.23,7.2,6.05Z"/><path class="cls-33" d="M631.24,203.1c-7.61,.64-15.22,1.28-22.83,1.93,6.95,8.18,18.13,8.72,24.84,5.18,11.17-5.89,23.77,.14,33.86-7.07-6.07-.14-12.13-.29-18.2-.43-5.89,.13-11.77,.26-17.66,.39Z"/><path class="cls-7" d="M841.29,235.23c-5.39-5.6-10.79-11.21-16.18-16.81-2.77-2.51-4.55-6.13-8.39-7.43-3.33,3.48-2.26,7.86-1.34,11.49,10.38,41.27,21.04,82.47,31.68,123.68,.4,1.56,1.39,2.97,2.1,4.44,4.63-2.79,4.76-7.53,5.24-12.11,2.69-14.24,3.85-28.68,4.92-43.09,.38-5.07,1.47-9.93,2.18-14.7,.48,3.17-1.52,5.58-1.84,8.4-.28,10.99-1.65,21.92-1.13,32.92,.37,4.79,.18,9.59,.17,14.38,.04,10.89-1.34,21.96,4.25,32.12,6.37,.95,4.33-4.27,5.34-7.27,.06-3.05-.01-6.09-.72-9.08-2.1-17.56-1.55-35.14-.25-52.71,1.02-5.5,1.71-11.11,5.42-15.7,3.84-12.34,1.24-25.02,1.99-37.51-.76-8.59,.04-17.18,.23-25.77-2.21-4.28-5.41-2.53-8.51-1.39-2.55,1.2-3.23,3.98-4.94,5.89l-.04,.04c-7.23,2.67-8.95,9.43-11.7,16.23-3.5-1.2-4.86-5.43-8.47-6.05Z"/><path class="cls-68" d="M760.28,338.67c21.59,0,43.18,.09,64.77-.11,2.76-.03,7.83,2.19,7.56-3.46-.19-4.12-1.05-8.64-7.47-8.62-43.86,.15-87.72,.1-131.58-.02-4.86-.01-6.45,1.88-6.45,6.6,0,5.57,3.39,5.65,7.37,5.64,21.93-.04,43.86-.02,65.79-.02Z"/><path class="cls-75" d="M752.1,269.79c17.49,0,34.99,.21,52.47-.18,3.48-.08,9.85,3.47,10.08-4.12,.23-7.41-5.06-7.94-11.08-7.91-33.97,.18-67.95,.08-101.93,.08-2.69,0-5.39,.16-8.07-.04-4.91-.36-6.47,1.98-6.41,6.62,.06,4.59,2.44,5.63,6.4,5.62,19.51-.07,39.02-.03,58.53-.03v-.05Z"/><path class="cls-47" d="M758.57,291.88c18.2,0,36.39,.07,54.59-.08,2.55-.02,7.18,1.68,6.82-3-.28-3.66,.29-9.19-6.65-9.16-37.4,.15-74.8,.1-112.2,.03-4.32,0-5.84,1.8-5.96,6.03-.14,5.09,2.33,6.23,6.8,6.2,18.87-.12,37.74-.05,56.61-.05v.03Z"/><path class="cls-59" d="M851.71,338.33c-.85,4.09-1.71,8.18-2.56,12.28,2.7,7.62-3.99,9.08-8.03,12.27,.26,2.49,1.83,3.76,4.08,4.41-.28,9.77-3.89,19.23-2.64,29.13-.11,2.21-.03,4.41,.04,6.61,1.9,13.28,9.45,21.89,21.93,26.4,1.85-.28,3.45-.96,4.44-2.67,2.14-19.66,1.47-39.07-5.34-57.9-.39-10.63-4.07-21.02-2.38-31.81-.35-.94-.99-1.57-1.94-1.92-3.27-.7-5.51,1.07-7.59,3.19Z"/><path class="cls-137" d="M765.99,314.58c17.49-.01,34.97,.1,52.45-.13,2.77-.04,7.84,2.27,7.72-3.24-.1-4.69-1.8-9.26-8.45-8.88-6.37,.37-12.77,.05-19.16,.05-27.91,0-55.82,0-83.73,.01-4.41,0-9.05-.51-9.23,6.19-.12,4.39,.46,6.35,5.92,6.19,18.14-.5,36.31-.19,54.47-.21Z"/><path class="cls-28" d="M751.57,188.8c.13,3.22,.26,6.44,.4,9.66,2.82,3.53,6.8,2.34,10.31,2.21,11.67-.44,23.32-1.27,34.98-1.79,3.66-.16,5.56-1.47,5.48-5.39-.08-4.13-2.5-4.95-5.93-4.92-15.08,.1-30.16,.15-45.24,.22Z"/><path class="cls-138" d="M816.72,210.99c2.8,2.48,5.59,4.95,8.39,7.43-.84-4.71-4.47-7.07-8.02-9.51-.12,.69-.25,1.38-.37,2.08Z"/><path class="cls-104" d="M959.53,322.28c-.33-5.95-.65-11.89-.98-17.84-1.04-.88-1.97-.78-2.8,.31-4.28,9.69,.45,19.86-1.6,29.67,.74,23.59-6.17,45.71-13.1,67.82-4.92,15.69-9.93,31.35-14.44,47.16-1.08,3.8-2.99,7.65-.34,11.61,12.16,6.22,25.37,5.54,38.27,4.79,6.48-.38,8.9-6.44,9.05-12.76-3.23-9.56-2.24-19.12,.05-28.71,4.21-17.59,5.69-35.79,12.42-52.92-.96,14.09-1.87,28.14-2.81,42.19-.82,12.25-3.74,24.74,2.65,36.52,8.05,6.3,18.41,6.78,27.35,10.86,6,1.83,9.5,.24,10.61-6.53,4.88-29.85,9.45-59.65,4.26-90-2.36-13.82-10.37-21.88-23.52-25.7-15.39-4.47-30.59-9.5-45.08-16.46Z"/><path class="cls-7" d="M956.83,334.54c2.41-10.01-1.61-20.09,.33-30.1,3.18-10.99,12.66-16.83,20.25-24.03,4.43-4.2,8.93-7.27,4.94-14.04-2.03-3.45,.23-5.49,2.64-7.59,2.9-2.53,5.33-5.38,2.06-9.36-.18-.6-.37-1.21-.55-1.81,.67-4.03-.88-7.34-3.37-10.34-.7-4.14-1.4-8.27-2.09-12.41-2.06-6.52,1.22-14.1-3.97-20-.62-2.16,.57-4.9-2.05-6.43-6.19-12.22-18.19-18.11-28.48-25.78-2.75-2.05-6.65-1.78-8.74,1.92-2.07,3.66-1.29,7.2,1.59,10.13,3.12,3.18,7.38,4.6,11.14,6.78,5.79,3.36,12.08,6.19,14.44,13.27,1.53,2.98,2.05,6.29,2.94,9.47,.28,.89,.58,1.79,.78,2.71,.14,.62,.18,1.25,.2,1.88-.22-.63-.14-1.31-.33-1.99-.7-2.22-1.39-4.38-1.86-6.62-7.46-16.12-22.98-20.89-37.7-26.8-3.85,.22-4.65-3.16-6.37-5.46-.26-.24-.64-.69-.75-.64-12.55,6.8-29.23,1.52-39.96,13.65l.13-.09c-4.63,3.28-9.75,6.1-11.33,12.21,3.03,4.66,5.79,.45,8.66-.24,4.67-2.72,9.69-3.84,15.08-3.39,14.31,2.06,28.46,4.57,41.62,11.09,7.83,3.88,12.85,9.48,13.71,18.38-.6,14.63-7.51,27.94-8.75,42.44-.26,3.01-.85,5.99-1.24,9-1.23,9.37,1.6,16.51,10.64,20.48,2.89,7.71,.71,15.73,1.54,23.54,.41,3.88-1.36,9,4.85,10.19Z"/><path class="cls-111" d="M971.04,451.81c.65,10.03-4.82,14.01-13.74,11.85-10.2-2.47-21.01,.42-30.81-4.19-1.32-.84-2.66-1.65-4.15-2.17-2.65-.6-5.35-1.41-7.15,1.66-.33,7.72,0,15.41,1.18,23.06,.42,1.08,1.11,1.95,2.05,2.62,12.61,5.23,23.14,14.35,36.1,19.01,10.97,3.94,21.53,9.32,33.77,5.27,1.17-.39,2.97,1.14,4.48,1.77,.51-2.14-.17-4.69,2.12-6.23,4.13-1.64,6.32-5.14,7.65-8.97,4.24-12.17,12.57-23.15,11.02-37.04l-26.45-8.79c-8.99-5.93-11.49-5.59-16.07,2.16Z"/><path class="cls-34" d="M979.16,974.45c-3.39,3.45-6.79,6.91-10.18,10.36,3.57,7.74,9.93,14.03,11.2,23.05,.39,2.75,3.96,3.25,6.85,2.9,3.34-1.47,7.43-1.06,10.2-3.99,2-.75,4-1.5,5.99-2.25,21.62,1.93,32-6.91,30.27-21.16-.74-3.18-1.46-6.38-3.82-8.87,.53-9.06-1.81-14.23-12.79-14.65-6.88-.27-12.75-7.96-21.12-5.76-2.56,.67-5.37,.35-7.97,.92-13.29,2.93-13.31,3-7.79,15.19,.8,1.77,.98,3.13-.83,4.25Z"/><path class="cls-37" d="M987.3,1008.97c-2.91-.5-6.32-.34-6.15-4.8,.37-9.23-5.42-14.6-12.17-19.36-3.26-.92-6.52-1.84-9.77-2.77-12.41-.09-21.52,5.03-26.43,16.76-4.87,21.23,11.12,35.69,28.72,32.68,7.48-1.28,12.34-6.11,17.26-11.1,.72-1.15,1.45-2.29,2.17-3.44,2.2-2.6,6.19-3.76,6.37-7.97Z"/><path class="cls-67" d="M689.48,1037.28c-.72-19.06-5.56-24.69-24.71-28.74-19.48,4.1-28.78,17.05-23.97,33.39,3.53,12.02,13.18,17.6,30.38,17.54l.39-.49,.59,.21c3.33-.64,6.55-1.54,9.16-3.87,4.05-5.41,10.54-9.72,8.16-18.04Z"/><path class="cls-124" d="M918.43,484.63c-.49-.41-.68-.92-.59-1.55-4.9-2.75-10.2-4.06-15.78-4.45-4.4,.73-7.75,3.36-11.05,6.09-1.5,1.64-4.18,2.64-3.2,5.68,5.44,6.76,10.87,13.52,16.31,20.27,1.99,1.93,3.98,3.86,5.97,5.79,6.13,3.94,11.7,2.78,15.83-2.79,4.21-5.68,2.31-11.12-1.72-16.49-2.75-3.66-8.75-6.17-5.78-12.56Z"/><path class="cls-136" d="M863.58,794.16c-.25,3.96,.95,7.35,3.9,10.07,.22-4.21,.95-8.49-1.59-12.35-.77,.76-1.54,1.52-2.31,2.28Z"/><path class="cls-106" d="M841.71,587.87c6.55,.65,1.47,7.48,5.14,9.66,2.48-2.45,1.65-5.14,.59-7.86,9.45-2.24,18.94,2.34,28.39-.14-.03-28.31-.31-56.62,.09-84.93,.1-7.5,.71-15.25,3.84-22.4,1.02-2.19-.28-3.55-1.75-4.85-.85-.47-1.75-.8-2.7-1.01-1.95-.32-3.89-.29-5.8,.24-.94,.34-1.76,.88-2.45,1.61-.41,.91-.63,1.87-.68,2.87-4.51,25.82-13.65,49.95-26.54,72.71-1.67,3.49-5.09,6.55-2.85,11.05,1.58,7.68,3.15,15.36,4.73,23.04Z"/><path class="cls-2" d="M877.94,478.46c.6,1.25,1.2,2.51,1.81,3.76,.72,.09,1.44,.18,2.16,.27,3.6,.64,4.59,7.97,10.02,3.9,3.37-2.09,6.73-4.18,10.1-6.27,8.82-7.53,2.6-15.39,.09-22.82-1.47-4.35-5.12-7.81-7.47-11.89-4.81-3.49-10-4.31-15.62-2.25-10.03,6.09-12.48,12.63-8.48,22.57,2.18,1.79,3.58,.47,4.88-1.22,.99-.92,1.11-2.42,2.18-3.31-.74,1.07-1.28,2.27-2.14,3.28-1.1,2.09-3.21,3.59-3.56,6.12-.16,2.52-.14,4.98,2.65,6.24,2.65,.25,3.42-2.63,5.86-3.56-2.36,1.34-2.41,3.26-2.48,5.19Z"/><path class="cls-76" d="M891.92,486.39c-1.9-.43-5.31,2.35-5.12-2.52,.27-6.98-3.16-1.26-4.9-1.39,.6,3.66,3.13,5.88,5.91,7.91,1.37-1.34,2.74-2.67,4.11-4.01Z"/><path class="cls-26" d="M836.98,564.82c1.43-3.22,2.87-6.44,4.3-9.66,1.69-2.19,.84-3.67-1.34-4.78-4.65-.13-5.66,3.94-7.62,6.78-4.29,6.22-7.39,13.24-12.55,18.89-3.34,3.74-6.8,7.36-10.51,10.72-8.86,8.03-14.41,7.18-20.82-3.16-2.64-4.26-4.67-8.85-6.49-13.53-6.35-15.4-10.91-31.4-15.89-47.26-.85-1.4-1.87-2.5-3.73-2.08-2.93,3.49-7.07,1.31-10.55,2.26,5.77,1.13,8.72,4.44,10.2,10.36,4.49,17.92,10.79,35.26,18.77,51.95,11.52,16.88,16.49,18.19,32.27,8.49,1.91-1.55,3.81-3.1,5.72-4.64,5.36-1,6.99-5.2,8.29-9.67,3.31-4.89,6.61-9.77,9.92-14.66Z"/><path class="cls-130" d="M827.06,579.48c-2.76,3.22-5.53,6.45-8.29,9.67,2.15,11.2-4.06,22.24-.24,36.4,6.53-14.1,15.43-24.46,17.77-37.77,.83-4.75-.18-12.23-9.23-8.29Z"/><path class="cls-71" d="M847.44,589.67c-.2,2.62-.39,5.24-.59,7.86,.27,2.06,.54,4.13,.81,6.2,2.72-4.73,2.87-9.42-.23-14.06Z"/><path class="cls-87" d="M762.35,520.74c.68,.71,1.36,1.42,2.03,2.13,11.49-1.88,13.65-12.06,18.05-20.25,4.92-11.34,7.8-23.33,11.07-35.19,1.09-8.62,3.73-16.48,10.84-22.15,6.72-4.23,14.8-5.77,21.16-10.69q6.81-10.69,16.27-1.66c2.95,2.19,4.18,6.23,8.03,7.45,5.03-3.7,11.36-6,13.73-12.6-8.19-6.63-17.69-12.27-18.54-24.46-8.8-2.87-9.19-3.93-5.65-15.95,3.53,2.49-.31,9.14,5.65,9.89,1.27-7.34-1.19-14.97,2.23-22.25,1-2.12,1.59-5.93-2.03-7.71-3.06,6-9.7,6.35-14.78,8.87-12.28,6.11-24.97,11.42-37.55,16.92-4.89,2.14-7.4,4.92-8.58,10.87-6.85,34.73-14.43,69.32-22.11,103.88-1,4.52,.78,8.61,.17,12.9Z"/><path class="cls-44" d="M677.15,447.04c0,4.72-.09,9.45,.03,14.17,.11,4.5,.78,9.11-6.15,8.76-3.8-.19-4.02,2.66-4.04,5.56-.02,3.49,1.78,4.68,5.04,4.68,8.77-.01,17.55,.08,26.32,.19,3.66,.04,5.63-1.33,5.63-5.31,0-4.04-2.09-5.51-5.68-5.16-6.09,.6-7.49-2.55-7.2-7.89,.31-5.72,.17-11.47,.03-17.21-.12-4.98-.41-9.7,6.92-9.27,2.92,.17,3.82-2.24,3.85-4.88,.03-2.72-1.06-4.36-3.93-4.92-3.96-.78-7.81-2.16-11.78-2.75-5.79-.85-9.91,.42-9.21,7.85,.5,5.35,.1,10.79,.1,16.19h.07Z"/><path class="cls-30" d="M871.91,245.63c-.11,10.41-.16,20.83-.37,31.24-.05,2.5,1.26,5.47-1.85,7.23,3.76,9.44,5.02,20.81,17.93,23.18,5.15-1.46,4.5-5.96,5.13-9.79,3.68-22.35,4.32-45.31,13.65-66.51,1.85-4.21,4.58-8.31,2.87-13.33-2.72-4.22-7.14-5.57-11.59-6.89-15.96-.74-21.98,4.37-24.54,19.92-.82,4.99,.66,10.1-1.25,14.94Z"/><path class="cls-82" d="M891.67,356.5c-13.24-4.69-16.45-15.26-15.98-28.29-4.18-.1-6.69,2.94-9.91,4.12-2.12,6.75-1.39,13.56-.43,20.37,.17,2.51,.34,5.02,.51,7.53,.95,23.51,4.92,46.86,3.75,70.49,.84,3.08,2.37,5.4,5.98,5.4,5.56-11.94,3.2-24.46,1.8-36.62-1.73-15.03-3.14-30.12-6.25-46.23,8.14,2.87,13.48,9.68,21.67,8.99,6-.49,12.05-.07,17.99-.85,2.95-.39,7.97,.62,6.94-5.4-8.76-3.58-17.46-3.75-26.07,.5Z"/><path class="cls-43" d="M871.91,245.63c2.1-3.33,1.56-7.14,2-10.77,2.01-16.53,7.52-21.55,24.08-21.9,1.33-6.04,2.06-11.93-4.06-16.09-5.9-.74-11.25,.79-16.2,3.95-2.73,5.78-9.11,10.73-4.1,18.25-2.79,8.71-2.22,17.64-1.72,26.56Z"/><path class="cls-77" d="M871.45,431.68c1.12-24.05,.05-47.93-5.59-71.45-1.02,2.81,.75,6.34-2.24,8.64,1.63,19.46,4.28,38.85,3.55,58.46,.42,2.44,1.01,4.71,4.28,4.35Z"/><path class="cls-65" d="M873.64,219.07c-1.38-6.7,4.6-11.75,4.1-18.25-2.31-.2-3.07,4.56-6.14,1.9-1.96,4.79-3.93,9.57-5.89,14.36,.05,1.35,.09,2.7,.14,4.04,2.6-.69,5.2-1.37,7.79-2.06Z"/><path class="cls-77" d="M865.35,352.7c.14-6.79,.28-13.58,.43-20.37-.12-11.43-.23-22.86-.35-34.29-3.19,18.22-3.18,36.44-.08,54.66Z"/><path class="cls-50" d="M859.84,275.92c3.2,2.94,.42,7.07,2.05,10.33,1.88-3.57,1.81-7.44,1.64-11.29-.06-1.37-1.1-2.4-2.57-2.11-1.79,.35-1.29,1.85-1.12,3.08Z"/><path class="cls-77" d="M861.25,321.7c-.55,4.93-1.09,9.87-1.64,14.8,.59,.07,1.13,.26,1.64,.56,.84-5.12,.82-10.24,0-15.36Z"/><path class="cls-94" d="M871.45,431.68c-1.43-1.45-2.85-2.9-4.28-4.35-1.21,.15-2.42,.3-3.63,.45-4.99,3.64-10.91,6.21-14.04,12.03-3.99,5.27,.53,8.44,3.06,12,4.69,6.6,11.61,12.09,10.42,21.53,.79,2.91-.33,7.21,4.94,6.9-.1-.69-.21-1.38-.31-2.07,2.72-3.71,4.26-7.82,4.3-12.45-2.15-8.67-1.28-16.16,7.99-20.34,.89-1.05,1.22-2.22,.84-3.57-1.25-2.3-2.66-4.45-5.39-5.21-1.3-1.64-2.6-3.27-3.89-4.91Z"/><path class="cls-38" d="M844.99,397.26c-2.71-3.16-1.18-7.02-1.77-10.53-.28-1.69,.72-4.53-2.56-4.06-2.35,.34-5.15,1.83-4.91,4.23,.53,5.31-4.78,11.05,.56,15.77,2.19,1.94,5.42,5.97,8.69,.66,0-2.02,0-4.04,0-6.06Z"/><path class="cls-79" d="M971.04,451.81c4.53-6.87,10.54-2.72,16.07-2.16-3.53-10.5-2.91-21.52-1.58-31.98,2.06-16.24,.98-32.81,5.21-48.8,.48-1.81,1.09-4.43-1.63-4.94-1.21-.22-3.04,1.11-4.1,2.21-3.4,3.54-4.59,8.34-5.52,12.83-3.8,18.32-6.63,36.85-10.83,55.06-1.54,6.71,.96,11.96,2.38,17.78Z"/><path class="cls-81" d="M921.88,458.99c1.53,.16,3.07,.32,4.6,.47,8.44-31.16,20.24-61.34,27.26-92.91,2.33-10.48,4.15-21.15,3.1-32.02-4.22-6.38-1.12-13.5-2.08-20.21-.78-5.44,1.74-11.26-1.91-16.36-.96,.73-1.65,1.66-2.08,2.79-1.4,5.15-.84,10.41-.92,15.64-.18,5.14-.06,10.28-.09,15.41,.21,18.04-3.03,35.58-8.34,52.71-6.39,20.61-12.51,41.3-19.16,61.83-1.34,4.15-3.06,8.35-.36,12.64Z"/><path class="cls-54" d="M893.94,196.87c3.53,4.81,.56,11.27,4.06,16.09,3.35,1.47,6.7,2.95,10.05,4.42,1.33,1.02,2.43,2.6,4.1,2.86,12,1.91,20.67,8.98,28.21,17.89,8.68,1.47,8.04-7.41,12.19-10.98-1.63-13.54-12.15-18.54-22.83-22.41-11.48-4.16-23.44-7.11-35.77-7.87Z"/><path class="cls-89" d="M952.54,227.15c-7.39-.68-4.47,10.65-11.75,10.09-5.15,9.46-5.41,20.07-7.2,30.33,.99,10.99-2.38,22.65,5,32.67,4.62,4.63,9.28,4.68,13.97,.09,.09-.79,.18-1.58,.28-2.36-9.4-1.95-11.49-8.21-10.37-16.83,1.68-12.96,4.03-25.77,8.11-38.18,1.72-5.22,2.66-10.37,1.96-15.81Z"/><path class="cls-10" d="M966.95,216.87c-.5,3.14,.56,5.81,3.9,10.52,0-5.76,.88-9.19-1.63-12.54-1.33,.02-1.5,1.35-2.26,2.02Z"/><path class="cls-83" d="M966.95,216.87c.75-.67,1.51-1.34,2.26-2.02-.54-3.48,.29-7.23-2.06-10.35-.58,2.04-1.17,4.07-1.75,6.11,.52,2.09,1.03,4.18,1.55,6.27Z"/><path class="cls-86" d="M928.29,184.67c-.59-3.53-3.46-3.58-6.09-3.99,.22,4.09,2.12,5.63,6.09,3.99Z"/><path class="cls-12" d="M921.88,458.99c7.41-24.64,14.93-49.26,22.19-73.94,5.02-17.04,8.93-34.31,8.26-52.28-1.98-.62-3.22,.58-4.1,1.98-6.19,9.76-15.18,15.67-25.95,19.24-1.59,.53-3.04,1.36-3.98,2.84-5.02,3.83-10.83,1.29-16.24,2.02-3.48,.47-7.33-1.14-10.33,1.89-2.38,1.58-3.66,3.94-4.17,6.62-4.7,24.66-7.61,49.51-7.97,74.63,.1,1.13,.21,2.26,.32,3.38,4.89-2.69,9.32,.35,13.94,1.08,5.96,6.77,13.05,11.38,22.37,11.77l5.68,.77Z"/><path class="cls-62" d="M916.2,458.23c-7.46-3.93-14.91-7.85-22.37-11.78,1.29,8.22,9.16,13.49,9.65,22.28,.23,4.06,.84,7.81-1.45,11.4,5.36,.52,10.11,4.31,15.82,2.96,.72-8.37,1.23-16.72-1.64-24.85Z"/><path class="cls-102" d="M867.91,480.24c-3.44-2.06-1.62-5.71-2.57-8.52-3.96,.71-4.1,4.1-4.43,6.93-2.83,24.26-11.79,46.44-22.8,67.94-.32,1.69-.07,3.24,1.09,4.58,1.69,.81,1.98,2.35,2.09,3.99,11.44-18.47,20.31-38.12,23.94-59.56,.86-5.07,7.68-9.36,2.69-15.36Z"/><path class="cls-46" d="M877.94,478.46c2.42-3.25,4.84-6.51,8.79-11.8-7.72,1.64-8.46,6.49-11.07,9.39-1.11,.97-.95,1.64,.48,1.99,.62,.04,1.23,.18,1.8,.42Z"/><path class="cls-102" d="M871.9,465.72c-4.12,3.22-5,7.57-4.3,12.45,.37-.04,.74-.12,1.09-.25,4.19-.95,2.04-5.96,4.95-7.73,.68-2.02,1.36-4.03,2.04-6.05l-.03-.04c-1.25,.54-2.51,1.08-3.76,1.61Z"/><path class="cls-114" d="M873.65,470.19c-5.76-.06-4.08,4.65-4.95,7.73,2.48,.04,4.96,.08,7.44,.12-.16-.66-.32-1.33-.48-1.99-2.48-1.33-1.69-3.78-2.01-5.86Z"/><path class="cls-35" d="M875.69,464.14c4.13-1.26,5.49-5.01,9.24-10.2-6.61,2.6-9.95,4.56-9.27,10.16l.03,.04Z"/><path class="cls-31" d="M827.44,516.24c-2.46,20.37-6.81,40.55-6.4,61.22,8.09-7.36,11.51-17.94,18.16-26.29,.21-1.2,.42-2.4,.63-3.59-.12-7.31,.19-14.61,.5-21.91,.16-3.71,.23-7.34-2.1-10.54-3.9-2.61-7.39-1.22-10.79,1.1Z"/><path class="cls-91" d="M780.09,571.67c-.03-23.1-.06-46.19-.08-69.29-3.68,8-7.69,15.74-15.62,20.49,3.38,16.86,9.23,32.93,15.71,48.8Z"/><path class="cls-49" d="M837.26,514.86c.03,7.54-.03,15.09,.11,22.63,.07,3.5-1.08,7.39,2.45,10.09,12.88-20.97,20.44-43.77,23.65-68.1,.35-2.62,1.23-5.17,1.86-7.75,.91-6.19-2.11-10.67-5.64-15.46-3.8-5.16-11.06-8.39-10.21-16.46-.76-3.4-3.46-5.41-5.59-7.82-.44,.24-.89,.49-1.34,.73-2.56,4.07-1.16,9.03-3.05,13.27-.34,1.05-.55,2.11-.71,3.2-.12,15.87-1.27,31.69-2.07,47.51,2.34,5.99,.15,12.12,.52,18.18Z"/><path class="cls-64" d="M837.26,514.86c4.72-5.04,5.01-10.56,1.79-16.46-1.56-6.35-5.55-11.47-8.65-17.04-6.91-11.41-14.8-22.17-21.85-33.49-1.22-1.96-2.31-4.13-5.02-4.45-8.17,5.52-12.24,13.01-11.01,23.02,9.29,14.37,18.71,28.65,27.74,43.17,1.9,3.05,4.71,4.5,7.17,6.61,3.41,.51,6.65-.23,9.83-1.38Z"/><path class="cls-85" d="M824.73,434.26c-5.39,10.39,5.79,6.37,8.47,9.74,2.36,2.09,4.67,4.37,8.12,1.95l-.24-.57c3.3-3.98-1.11-9.54,2.76-13.4h.08c-.69-.69-1.39-1.39-2.08-2.09q-11.82-12-17.1,4.37Z"/><path class="cls-116" d="M936.12,267.61c1.1-10.2,5.86-19.83,4.68-30.38-6.22-14.36-19.2-17.58-32.74-19.86,.5,6.52-4.05,11.27-6.14,16.86-7.74,20.67-8.77,42.52-11.97,63.99-.46,3.11,1.14,7.12-3.87,7.97-.64,7.64,.17,15.3-1.34,22.98-1.52,7.74,3.28,13.11,9.08,17.54,7.72,4.51,15.62,3.56,23.57,.82,3.12-4.62-1.32-6.64-3.52-8.97-6.03-6.36-11.3-13.27-16.09-20.56-.51-2.17-5.28-5.04,1.2-5.99,4.85-.71,9.73-1.25,14.52-2.43,4.62-2.09,8.05-5.79,12-8.76,7.08-5.33,10.74-12.25,10.05-21.42-.29-3.88-.81-7.93,.58-11.79Z"/><path class="cls-32" d="M918.26,344.62c-7.86,4.14-16.34,.96-24.46,2.09-1.92,3-1.82,6.44-2.13,9.79,8.87,.11,17.74,.22,26.62,.33,15.62-1.98,26.36-10.86,34.04-24.07,.08-5.53,.16-11.06,.25-16.59-2.39-2.1-4.96-3.54-8.28-2.28-3.36,5.22-2.85,12.12-7.31,16.86-5.13,6.13-12.58,9.12-18.73,13.86Z"/><path class="cls-128" d="M879.57,442c3.74-6.55,3.43-14.04,4.04-21.09,1.74-20.2,3.91-40.31,8.11-60.16-5.55-2.26-11.27-4.3-15.33-8.99-1.79-2.07-3.52-4.85-6.39-3.49-3.4,1.61-2.16,4.99-1.62,8,4.73,26.56,8.99,53.17,6.96,80.33,1.41,1.8,2.82,3.6,4.23,5.4Z"/><path class="cls-45" d="M942.71,309.9c-.74-3.34-1.48-6.68-2.21-10.01-6.03-10.14-3.55-21.43-4.38-32.27-.49,.87-1.53,1.83-1.39,2.58,3.51,19.24-9.52,28.6-22.55,37.98-2.41,1.37-6.36,1.97-2.85,6.15,5.08,6.05,26.67,7.43,32.19,1.91,1.71-1.71,2.69-3.87,1.19-6.33Z"/><path class="cls-92" d="M841.32,445.95c-2.71-.65-5.41-1.3-8.12-1.95-.65,12.99,1.01,26.25-4.4,38.7,3.42,5.24,6.84,10.47,10.26,15.71,1.81-17.44,2.88-34.91,2.26-52.46Z"/><path class="cls-87" d="M843.83,431.98c-4.77,3.67-1.74,8.95-2.76,13.4,3.42-3.95,1.45-9.01,2.76-13.4Z"/><path class="cls-118" d="M942.71,309.9c-.41,3.28-1.79,5.52-5.39,6.26-8.37,1.71-16.4,.61-24.45-1.9-5.43-1.7-2.72-3.81-.69-6.08-7.15-1.47-13.88,4.55-21.41-.22,.11,5.37,2.93,7.69,5.18,10.32,2.96,4.41,6.85,8.04,10.16,12.18,5.29,6.61,21.01,7.3,32.28,1.93,5.5-4.99,6.42-11.58,6.47-18.48-.72-1.33-1.43-2.67-2.15-4Z"/><path class="cls-97" d="M938.39,332.38c-7.07,2.08-14.24-.12-21.35,.53-6.09,.56-9.48-3.25-12.97-7.41-2.31-2.75-5.39-4.84-8.12-7.23,5.26,10.62,12.24,19.8,22.32,26.34,9.01-.3,14.42-6.51,20.12-12.24Z"/></g></svg>