<?xml version="1.0" encoding="UTF-8"?><svg id="Layer_9" xmlns="http://www.w3.org/2000/svg" viewBox="0 0 1080 1080"><defs><style>.cls-1{fill:#7eb133;}.cls-2{fill:#4a691e;}.cls-3{fill:#deb6a9;}.cls-4{fill:#547e17;}.cls-5{fill:#030202;}.cls-6{fill:#c69983;}.cls-7{fill:#91b7dc;}.cls-8{fill:#001b4a;}.cls-9{fill:#caa196;}.cls-10{fill:#3b5014;}.cls-11{fill:#ddb7a8;}.cls-12{fill:#b58775;}.cls-13{fill:#2c3c5c;}.cls-14{fill:#c7b991;}.cls-15{fill:#2d2d2c;}.cls-16{fill:#435b1a;}.cls-17{fill:#bf9587;}.cls-18{fill:#597d24;}.cls-19{fill:#222;}.cls-20{fill:#4f7c07;}.cls-21{fill:#b17d6b;}.cls-22{fill:#020305;}.cls-23{fill:#7fb133;}.cls-24{fill:#deb7aa;}.cls-25{fill:#deb7a9;}.cls-26{fill:#ae6c4f;}.cls-27{fill:#cb8d78;}.cls-28{fill:#4c7e00;}.cls-29{fill:#3e6a06;}.cls-30{fill:#af6952;}.cls-31{fill:#010102;}.cls-32{fill:#c2ddf6;}.cls-33{fill:#33312d;}.cls-34{fill:#deb7a8;}.cls-35{fill:#588716;}.cls-36{fill:#f2ebe3;}.cls-37{fill:#020301;}.cls-38{fill:#4e7f08;}.cls-39{fill:#6f8259;}.cls-40{fill:#5f8426;}.cls-41{fill:#608624;}.cls-42{fill:#5f7e18;}.cls-43{fill:#bc9182;}.cls-44{fill:#cb9985;}.cls-45{fill:#171717;}.cls-46{fill:#4c7e01;}.cls-47{fill:#0f3a7c;}.cls-48{fill:#315a06;}.cls-49{fill:#4c7f00;}.cls-50{fill:#4e7e06;}.cls-51{fill:#0c3c7d;}.cls-52{fill:#d4aca0;}.cls-53{fill:#c89986;}.cls-54{fill:#f5f8f6;}.cls-55{fill:#517221;}.cls-56{fill:#4f7a14;}.cls-57{fill:#bddcf6;}.cls-58{fill:#2e2c2f;}.cls-59{fill:#020102;}.cls-60{fill:#fefcfe;}.cls-61{fill:#c2daf5;}.cls-62{fill:#050505;}.cls-63{fill:#161616;}.cls-64{fill:#47611d;}.cls-65{fill:#2d2d2d;}.cls-66{fill:#cd9986;}.cls-67{fill:#0b0b0b;}.cls-68{fill:#a19b57;}.cls-69{fill:#c6b0b1;}.cls-70{fill:#7da43f;}.cls-71{fill:#4c6d23;}.cls-72{fill:#7eb035;}.cls-73{fill:#0a2049;}.cls-74{fill:#1f1516;}.cls-75{fill:#051c45;}.cls-76{fill:#2f2d2f;}.cls-77{fill:#ddb9a9;}.cls-78{fill:#fbf1ec;}.cls-79{fill:#0e3b78;}.cls-80{fill:#2d2d2b;}.cls-81{fill:#fefdfe;}.cls-82{fill:#b66b50;}.cls-83{fill:#050b0e;}.cls-84{fill:#390f02;}.cls-85{fill:#deb6ab;}.cls-86{fill:#423c39;}.cls-87{fill:#010101;}.cls-88{fill:#010404;}</style></defs><g><path class="cls-5" d="M397.31,410.32c-.09,.32-.02,.61,.21,.86,2.27,4.86,5.9,9.7,.22,14.69-5.11,4.03-11.05,3.41-16.9,2.81-3.68-.37-7.31-1.13-11.02-.77-7.82,1.35-7.8,7.95-9.07,13.64-1.38,6.19-2.2,6.68-7.67,4.2-2.65-4.55-4.82-9.46-9.51-12.45-1.96-2.25-6.16-3.07-4.8-7.45-.02-2.98,1.94-5.27,2.76-7.95,.52-.97,1.03-1.95,1.55-2.92,3.04-8.73,9.52-12.89,18.42-13.29,6.81-.31,13.54-.61,20.28-2.02,7.02-1.47,9.88,4.26,13,9.06,.26,1.46,1.45,1.45,2.54,1.6Z"/><path class="cls-49" d="M30.91,796.13c-4.99-3.01-7.86-7.48-8.97-13.14-.86-3.88-.54-7.87-1.12-11.79-.63-4.21,1.8-7.2,4.66-9.74,7.27-6.48,8.66-14.41,6.32-23.51-1.97,.3-1.99,2.36-3.27,3.16-.96,.6-1.88,1.24-3.03,.75-1.54-.66-1.67-2.11-1.21-3.36,2.1-5.6,.9-9.9-3.55-14.2-3.52-3.41-1.53-8.78-1.83-13.22-1.4-20.66-.94-41.41-2.75-62.06-.44-5.05,.76-10.07,.49-15.13,1.72-13,9.37-21.14,21.18-22.54,3.03-.82,6.13-.75,9.1-.03,22.17,5.33,44.24,11,66.13,17.41,1.31,.52,2.55,1.18,3.67,2.04,3.83,3.68,3.13,6.16-1.9,7.77-1.69,.54-3.36,.94-5.11,1.17-7.84,1.02-11.02,4.12-12.88,12.48,1.39,8.86,6.4,14.35,13.46,14.71,8.03,.42,13-3.7,15.07-12.54-1.9-1.36-2.81,.19-3.65,1.39-1.4,1.99-2.77,3.99-4.88,5.32-2.66,1.67-5.72,2.33-7.89-.1-2.28-2.56,.81-4.25,2.17-6,1.21-1.56,2.72-2.88,4.13-4.29q5.1-5.03,.98-12.5c4.23-2.13,7.09,.37,9.79,2.89,4.65,4.33,8.98,9,13.57,13.4,1.28,1.23,2.81,2.64,4.57,1.15,1.84-1.56,.44-3.08-.6-4.55-1.78-2.5-6.26-4.25-4.23-7.95,1.88-3.42,6.12-3.88,9.95-3.97,.66-.02,1.32-.02,1.98,0,1.02,.02,2.02,.13,3.02,.32,8.07,1.8,16.13,3.64,24.12,5.81,12.15,6.54,17.44,17.65,17.77,30.52,.39,14.98,2,29.93,1.62,44.91-.74,29.12,1.71,58.16,1.64,87.27-.02,8.39,.94,16.69-1.91,24.79-.87,2.48-2.65,4.3-4.44,6.1-3.15,3.5-7.3,5.06-11.77,5.99-5.7,1.61-10.98,.47-16.02-2.38-9.25-4.62-19.24-7.19-28.96-10.51-16.62-5.67-33.36-10.98-50-16.6-14.15-4.78-28.29-9.63-42.54-14.09-4.46-1.39-8.64-3.28-12.87-5.16Z"/><path class="cls-1" d="M195.75,834.26c3.45-23.16,1.13-46.33,.33-69.53-.6-17.4,.28-34.86-.53-52.24-.59-12.53-.41-25.08-1.23-37.57-.8-12.24-6.43-22.21-17.17-28.83,4.94-6.3,1.36-15.57-6.9-17.8-3.21-.87-6.62-.23-9.84-1.16-1.32-.38-1.94,0-2.1,1.55-.46,4.46-3.01,8.13-4.9,12.04h-2.61c-.45-.44-.89-.89-1.33-1.33-1.83-2.73-2.02-5.63-1.39-8.85,1.26-6.47-2.09-11.94-8.55-14.51-6.28-2.5-11.95-.82-15.36,5.12-2.54,4.43-5.93,7.51-10.7,9.17-22.86-5.88-45.71-11.77-68.57-17.61-2.32-.59-4.71-.9-7.06-1.35,12.52-3.99,25.43-5.05,38.47-5.17,7.17-3.45,14.72-1.72,22.1-1.38,6.22,.29,6.27,.63,5.08-5.75-4.77-25.61-9.68-51.18-14.33-76.81-.63-3.48-1.14-6.95-1.31-10.5-.45-8.99,2.28-16.06,11.19-19.69,11.64-5.29,24.25-3.92,36.42-4.84,40.3-3.06,80.65-5.43,120.98-7.99,4.61-.29,9.25-.14,13.88-.19,3.05,7.4-1.98,13.07-4.12,19.36-12.49,13.04-24.25,26.77-37.34,39.25-1.95,1.81-3.85,3.69-5.7,5.6-1.49,1.44-2.94,2.91-4.36,4.42-7.29,6.94-13.29,15.09-20.62,21.99-2.84,2.68-5.58,5.46-8.3,8.28-4.36,4.23-8.62,8.54-12.69,13.05-1.17,.97-2.35,1.94-3.56,2.88-1.07,.72-2.2,1.19-3.52,.83-6.23-2.95-2.24-9.21-4.55-14.03-2.99,2.34-2.34,5.5-2.6,8.35-.23,2.54,.66,5.86-2.45,6.94-2.94,1.02-4.69-1.81-6.59-3.56-3.09-2.83-5.77-6.08-9.05-8.7-1.12-.9-2.47-1.15-3.57-.01-.87,.9-.81,2.31,0,3.02,7.05,6.08,10.75,15.66,20.13,19.29-.32,3.92-3.61,4.63-6.38,5.9-3.6-1.62-4.79-5.68-7.93-7.8-1.49-1-2.99-2.36-4.62-.56-1.55,1.71-.46,3.38,.84,4.63,2.7,2.6,5.35,5.24,7.77,8.1,3.92,4.04,9.92,2.01,14.25,4.87,15.48,3.78,30.94,7.58,46.44,11.22,21.14,4.98,28.81,12.98,32.25,33.63-.05,11.18,1.32,22.38-.79,33.49-2.45-.22-3.46,.5-3.16,3.34,.92,8.89-1.97,17.94,1.13,26.8,.57,1.62,.41,3.69-.45,5.18-4.07,7-2.53,14.34-2.19,21.83,.75,16.46,.35,32.95-.86,49.4-.26,3.48-.33,6.95,.26,12.18,1.95-5.59,3.75-9.02,7.74-3.65,1.01,2.36,.86,4.57-.84,6.58-18.43,15.31-40.64,20.48-63.57,23.71,3.66-1.9,7.49-3.53,10.58-6.38,2.4,.1,4.76-.09,7.09-.93,.77,.26,.32-.68,.08-.61-2.21,.63-3.69,.03-3.31-2.68Z"/><path class="cls-28" d="M244.88,821.16c.03-2.22,.06-4.43,.09-6.65-1.73-2.19-2.16-4.78-2.13-7.45,.36-30.52-2.28-60.99-1.34-91.51,.73-5.22,.89-10.59,1.01-15.74,.16-6.98,3.57-8.13,8.92-8.42,1.1-.06,2.2-.19,3.3-.15,5.48,1.63,10.86,.05,16.25-.6,9.53-1.15,19.11-1.84,28.57-3.56,19.43-1.34,38.51-6.13,58.11-5.72,5.41-.18,10.45,1.65,15.39,3.44,4.33,1.57,7.49,.93,10.67-2.4,1.56-1.64,3.14-5.7,6.63-2.01-1.7,25.26,1.36,50.06,6.89,74.65,1.27,5.63,1.22,11.36,.38,17.07-3.58,7.03-4.84,14.21-1.59,21.78,.59,1.37,.61,2.97-.29,4.37-25.68,3.92-51.37,7.84-77.05,11.74-24.6,3.74-49.2,7.45-73.8,11.17Z"/><path class="cls-66" d="M396.28,773.04c1.03-14.29-2.97-27.93-5.56-41.72-3.24-17.25-3.31-34.54-1.83-51.91-1.02-2.36,.22-4.33,1.19-6.27,6.24-12.44,12.5-24.88,18.56-37.41,.74-1.52,1.29-3.44,3.66-3.17,16.22,8.37,21.47,19.86,18.3,40.38-.8,5.2-1.71,10.39-1.96,15.66-2.58,6.01-2.85,12.41-3.21,18.81-3.6,17.49-5.32,35.24-7.33,52.95-.64,5.66-.62,11.43,1.53,16.95,2.45,6.29,5.79,11.8,12.13,14.89-2,1.19-4.66,2.17-1.05,4.68,1.78,1.24,3.42,2.66,5.13,4.01-6.36,4.26-13.37,4.97-18.21,.41-8.65-8.16-15.83-17.63-21.35-28.25Z"/><path class="cls-28" d="M431.77,792.2c-4.97,.89-7.57-1.9-9.83-5.85-4.02-7.03-6.71-14.26-5.92-22.55,1.81-19.02,3.69-38.02,7.84-56.71,1.88-2.47,.26-5.42,1.15-8.09,2.02-6.03,3.45-6.6,8.4-2.87,.69,.52,1.34,1.08,2.08,1.53,7.85,7.4,14.58,15.74,20.41,24.78,2.88,4.48,4.45,9.53,4.27,14.98-.51,4.44,.81,8.13,4.23,11.14,1.97,1.74,3.49,3.92,4.43,6.45,.35,.99,.53,2.01,.61,3.06,.19,5.73,.47,11.47-2.74,16.63-3.25,3.93-3.53,9.42-6.93,13.28-9.34,1.41-18.67,2.81-28.01,4.22Z"/><path class="cls-49" d="M99.01,492.07c-10.06,7.25-10.5,17.02-8.29,28.16,5.55,27.93,10.56,55.97,15.76,83.96,.38,2.06,1.43,5.11-2.67,3.72-9.05-3.08-18.35-1.16-27.52-1.73-3.81-20.32-7.52-40.66-11.46-60.95-4.87-25.11,10.63-49.35,34.18-53.17Z"/><path class="cls-82" d="M264.57,499.05c1.97-6.65,5.64-12.81,5.72-20,4.19-4.37,4.45-10.36,6.3-15.67,3.33-9.53,5.94-19.32,9.4-28.79,4.55-12.47,16.01-20.07,28.4-19.62,3.92,.14,7.68,1.11,10.09,4.1,3.78,4.7,9.01,5.62,14.29,6.77,.47,3.54,4.51,3.71,5.95,6.33,.58,10.82-.68,12.88-8.55,14.05-3.71,.06-7.44-.21-11.15-.02-6.31,.32-12.04,2.1-16.6,6.79-1.52,1.57-3.12,3.3-5.32,3.71-5.61,1.05-6.56,4.33-4.78,9.13,1.82,4.91,.44,9.98,.77,14.96-.82,3.09-2.74,5.72-3.63,8.78-1.07,2.9-2.8,5.43-4.47,7.99-1.24,1.69-2.76,3.17-3.86,4.97-1.43,2.04-3.01,3.94-5.23,5.18-4.35,1.67-8.49,3.84-12.85,5.48-2.98,1.13-5.85,2.5-8.7,3.92-1.99,.55-3.95,.65-5.79-.49,2.71-6.22,6.46-11.84,10.03-17.58Z"/><path class="cls-59" d="M459.77,787.98c.74-4.86,1.84-9.57,5.36-13.31,2.24-1.52,3.65,.36,5.29,1.28,7.24,4.08,13.26,2.79,17.97-3.89,2.26-3.2,5.25-4.55,9.14-3.75,5.31,3.29,7.69,10.48,14.93,11.23,2.35,.45,4.61,1.24,6.97,1.6,3.17,.85,6.32,1.73,9.51,2.48,7.65,1.81,9.72,4.09,9.51,10.2-.2,5.72-1.91,7.23-9.85,8.69-7.46,.92-14.79,2.9-22.37,2.86-5.1-1.31-10.17-2.76-15.3-3.89-2.86-.63-5.17-.75-8.24,1.63-4.77,3.69-11.5,2.26-17.16,1.52-3.63-.48-3.11-5.73-4.19-8.91-.84-2.47-1.07-5.15-1.57-7.74Z"/><path class="cls-75" d="M396.28,773.04c5.71,5.53,10.34,12.01,14.53,18.62,6.22,9.83,14.07,13.26,25.04,9.22,3.41,1.51,6.84,2.99,10.23,4.56,2.47,1.14,3.45,3.16,3.38,5.88-.08,2.9-2.18,3.68-4.31,4.17-6.26,1.45-12.6,2.06-19.02,1.38-5.28-.56-8.74-3.69-11.44-8.01-2.21-3.54-4.57-6.99-6.88-10.47-.89-1.33-1.95-2.52-3.77-1.99-1.85,.54-2.03,2.23-2,3.74,.07,4.18,.32,8.36,.44,12.53,.04,1.26,.33,2.86-1.56,3.03-1.87,.17-2.01-1.31-2.03-2.66-.06-5.15-1.9-9.91-3.16-14.8-2.74-8.47-6.98-16.97,.55-25.2Z"/><path class="cls-35" d="M16.64,633.9c.45,1.23,1.58,2.69,1.25,3.66-2.38,7.03,.42,13.96,.14,20.9-.71,17.42,1.48,34.74,1.79,52.13,.09,5.3-1.28,12.52,6.64,16.55,2.99,1.52,1.43,8.89-1.64,13.54q3.14-1.29,4.85-5.1c.5-1.1,.34-2.91,2.23-2.66,1.17,.16,1.81,1.27,1.95,2.39,1.21,9.86,2.92,20.01-6.74,26.98-7.75,5.59-4.08,13.65-5.17,20.7-2.1-3.58-2.08-7.68-2.22-11.56-1.52-42.83-2.89-85.66-4.24-128.5-.1-3.03-.6-6.2,1.16-9.03Z"/><path class="cls-4" d="M30.91,796.13c11.68,3.78,23.46,7.28,35,11.44,7.59,2.73,15.47,4.29,23.06,7.1,18.62,6.89,37.58,12.83,56.53,18.79,6.73,2.11,14.53,3.15,19.79,9.03-17.14-5.58-34.3-11.12-51.42-16.74-23.83-7.83-47.65-15.69-71.44-23.64-4.11-1.37-8.54-2.32-11.51-5.98Z"/><path class="cls-23" d="M693.04,581.07c-3.09,15.64-8.38,30.69-12.28,46.11-.7,2.75-1.48,5.48-2.23,8.22-1.43,.21-1.95-.79-2.43-1.83-1.2-5.45-.52-10.98-.6-16.47-.08-5.6-1.05-10.94-3.51-16-3.13-6.44-8.23-10.22-15.26-11.33-35.92-5.71-71.74-12.05-107.66-17.75-8.28-1.31-8.17-1.28-6.77,7.09,.75,4.47,3.31,8.78,1.58,13.55-1.85,1.66-3.7,.52-5.43-.16-5.92-2.32-12.29-2.3-18.38-3.68-4.22-2.15-6.22-6.72-10.17-9.28-2.97-1.93-5.6-3.13-9.16-1.65-3.32,1.38-6.94,.92-10.46,.76-11.28-2.26-21.94-6.39-32.57-10.68-5.46-2.2-8.85-6.23-11.38-11.35-6.64-13.42-13.35-26.79-20.06-40.18-2.17-4.33-4.41-8.63-7.93-12.08-1.61-1.55-3.63-2.34-5.67-3.1-9.27-6.26-17.92-13.51-28.36-17.95-1.08-1.23-1.23-2.58-.55-4.05,1.89-2.33,4.23-1.26,6.62-1.15,4.54,.2,9.14,.76,13.66-.39,30.2-1.38,60.4-2.95,90.61-4.06,16.92-.63,28.37,9.07,31.41,25.7,3.61,19.74,7.21,39.47,10.73,59.22,.56,3.17,1.31,5.39,5.38,4.85,17.98-2.38,35.64,.93,53.32,3.38,30.81,4.26,61.59,8.72,92.37,13.13,1.74,.25,3.44,.76,5.16,1.14Z"/><path class="cls-3" d="M404.06,477.71c-4.16,2.04-8.65,.76-12.96,1.27-2.33,.28-4.89-.78-6.94,1.18-.73,1.33-1.64,2.43-3.25,2.71-1.93,.36-3.78,.14-5.58-.65-7.24-4.74-8.45-12.64-9.64-20.08-1.53-9.51-.8-19.22-.34-28.85,.13-2.71,1.37-5.04,2.97-7.19,3.46-1.39,6.94-.78,10.26,.28,6.59,2.11,12.85,1.8,18.86-1.75,3.95,1.83,3.54,5.52,4.05,8.96,.54,3.68-1.66,7.29-.02,10.93-4.13,10.67-4.31,22.66-12.92,33.18h15.52Z"/><path class="cls-86" d="M401.46,444.53c-2.93-2.67-.94-6.1-1.32-9.15-.46-3.73-.92-7.38-2.71-10.75,4.42-4.46,.47-8.97,.08-13.46,3.45,1.63,3.8,5.02,4.36,8.12,1.52,8.42,1.4,16.85-.41,25.23Z"/><path class="cls-23" d="M691.04,582.33c5.99,6.56,20.55,18.8,20.55,27.47-.02,42.13-.11,84.25,.1,126.38,.03,7.01-2.78,12.02-8.34,15.44-12,7.39-25.15,11.47-39.24,12.38-.3-2.36,1.47-3.59,2.87-4.88,6.28-5.78,8.59-13,8.49-21.37-.15-13.65-.06-27.3-.03-40.95,0-3.07-12.41-14.58-11.37-17.55,.23-.62,.55-1.2,.93-1.74,2.29-2.58,5.02-5.1,1.31-8.62-.38-.49-.64-1.03-.82-1.62-.53-3.96,2.79-4.28,5.17-5.5,2.7-1.34-9.14,7.79-10.46,4.79-.44-1.83-3.49-2.05-2.85-4.56,7.38-23.45,26.44-54.24,32.83-77.97,.16-.6,.56-1.14,.85-1.7Z"/><path class="cls-56" d="M677.2,634.1c.45,.43,.89,.86,1.34,1.29-1.28,7.17-4.75,13.79-5.27,21.14-3.11,3.3-5.31,6.84-3.46,11.66,1.01,2.62-.55,4.57-2.07,6.45-3.43,3.56-1,7.3-.31,10.99-6.57,26.26-13.46,52.43-21.8,78.19l-.41,.11-.42-.05c-1.47-3.93-4.99-3.97-8.08-3.57-6.87,.88-13.67,2.3-20.49,3.51-25.47,3.84-50.93,7.69-76.4,11.53-7.62,1.15-15.24,2.25-22.86,3.43-1.9,.3-4.07,.1-5.25,2.18-6.85-1.1-10.43-6.04-13.56-11.52-.39-.68-.31-1.3,.25-1.85,1.1-.82,2.42-1.27,3.73-1.16,11.57,.95,10.41-2.49,11.9-11.98,2.63-4.02,5.93-7.97,1.47-12.83-1.61-7.33,.64-14.52,.97-21.76,.67-14.31,2.44-28.57,2.73-42.93,.07-3.4,.5-7.03,3.23-9.78,3.07,1.4,3.19,4.29,4,6.66,4.62,13.6,9.45,27.12,14.66,40.51,2.31,5.94,5.4,10.05,12.53,8.82,1.64,.51,2.53,1.62,2.68,3.33-.06,2.01-.77,3.67-2.56,4.74-11.1-1.77-16.76-9.1-20.3-19.12-3-8.49-5.99-16.97-8.32-24.4,.31,14.37-2.48,29.81-2.84,45.4-.03,1.1-.74,2.45-.27,3.25,6.26,10.79-2.95,19.55-3.81,29.39-.42,4.86-4.86,6.4-9.44,8.22,3.13,1.99,5.65,1.1,8.11,.83,15.37-1.69,30.43-5.28,45.7-7.49,18.76-2.71,37.51-5.56,56.31-7.97,7.17-.92,14.01-3.97,21.44-3.78,2.12,.05,2.93-1.68,3.39-3.5,5.21-20.5,11.85-40.63,16.23-61.36,.65-3.07,1.05-6.05,.13-9.14-.51-1.7-.57-3.53-.11-5.25,3.55-13.31,7.79-26.37,13.64-38.87,.71-1.52,1.25-3.43,3.55-3.37Z"/><path class="cls-44" d="M368.31,426.11c-1.72,15.29-3.27,30.56,1.68,45.62,1.27,3.85,3.13,7.21,6.34,9.74-6.62,2.8-11.64-1-16.55-4.36-4.4-3-6.97-7.65-9.36-12.31-.45-3.11-1.17-6.22-.06-9.34,2.76-1.31,2.2-3.59,1.87-5.94-.24-1.77-2.25-4.16,1.26-5.04,2.98,2.92,4.7,3.3,5.43-1.81,.94-6.61,.4-14.38,9.38-16.55Z"/><path class="cls-27" d="M353.5,444.47c-1.99,2.14,.74,3.89,.48,5.85-.27,1.98,1.58,5.38-2.95,4.72-4.68-4.49-11.14-6.25-15.99-10.48,5.77,.6,8.5-1.89,8.04-7.77-.13-1.72-.12-3.51,1.63-4.62,4.7,2.84,7.33,7.16,8.79,12.3Z"/><path class="cls-46" d="M666.35,677.49c-1.41,2.41,11,13.46,11,16.1,.01,14.29-.39,28.59,.12,42.87,.42,11.82-3.73,20.88-13.37,27.55-4.3,1.65-8.63,1.31-12.96,.15l-6.34-.25c.39-9.12,3.59-21.03,5.93-29.66,4.14-15.23,4.9-31.17,9.37-46.31,.74-2.51,10.98-.95,13.24-2.71,1.88-.84-8.57-9.34-7-7.73Z"/><path class="cls-23" d="M153.39,640.72c-.05-3.06-.35-6.14,2.41-8.49,.73-.62,1.28-1.87,1.28-2.84,.03-4.34-.09-3.9,4.96-3.44,5.22,.48,10.31,.12,14.85,3.85,4.44,3.65,3.77,8.96,5.18,13.48,.75,2.39-2.72,2.73-4.94,2.81-8.16-.74-15.92-3.23-23.75-5.37Z"/><path class="cls-23" d="M195.75,834.26c1.21,3.2,2.75,1.14,4.38,.39,1.05-.48,2.22,.14,2.67,1.24,.57,1.39-.7,2.3-1.6,2.23-3.14-.23-6.07,5.03-9.31,.36,.83-1.83,2.21-3.15,3.87-4.22Z"/><path class="cls-23" d="M207.78,736.14c0-24.72,.14-49.45-.11-74.16-.05-5.18,1.36-6.9,6.67-6.82,5.03,.08,7.49,1.23,6.76,6.68-.35,2.6-.14,5.29,0,7.94,.18,3.48,2.03,6.39,5.45,6.46,5.42,.11,5.15,3.28,5.14,7.04-.05,42.16-.13,84.32,.07,126.48,.03,5.91-2.02,7.58-7.7,7.52-16.28-.15-16.28,.05-16.28-16.24,0-21.63,0-43.26,0-64.89Z"/><path class="cls-18" d="M242.28,664.62c-1.85-7.03-3.91-13.92-8.51-19.81-5.63-7.22-13.84-8.86-22.02-10.71-6.64-4.34-12.48-9.35-15.61-16.97-1.7-4.14-5.38-6.15-9.33-7.82-5.46-2.31-5.68-3.15-1.79-7.09,1.31-1.33,2.71-2.47,1.97-4.44-.84-2.24-3.07-2.17-4.99-2.49-2.94-.5-7.17,.62-6.05-4.89,4.03-4.83,8.24-9.49,13.21-13.38,1.55,.56,2.96,1.66,3.17,3.14,1.63,11.38,11.01,16.48,18.59,22.91,3.05,2.59,6.05,5.08,8.35,8.34,2.19,3.1,4.82,5.72,8.16,7.58,1.94,1.08,3.94,2.26,5.08,4.14,8.17,13.5,21.91,20.78,33.84,29.98,3.51,2.71,7.47,5.56,12,6.94,3.32,2.78,5.88,6.36,9.33,9.01,2.05,2.17,4.92,2.81,7.45,4.1,6.61,3.37,7.7,9.5,2.8,14.77-.97,.46-2.02,.52-3.07,.56-8.4,1.17-16.82,2.19-25.22,3.29-4.19-1.11-4.7-5.88-8.27-8.07-4.03-2.48-7.53-5.96-11.95-7.99-4.78-2.2-5.46-6.95-7.15-11.09Z"/><path class="cls-55" d="M277.84,660.66c-3.66,.44-6.46-.48-7.27-4.57-5.59,2.68-6.63-3.38-9.53-5.37-10.98-7.52-20.83-16.12-30.04-26.11-8.54-9.26-17.46-18.99-28.09-26.33-6.52-4.5-11.07-9.8-11.95-17.93-.11-1-1.75-1.89-1.79-3.34,2.17-3.13,4.85-5.75,7.98-7.91,6.98-.79,11.29,4.39,14.88,8.47,8.32,9.44,18.44,17,26.49,26.66,3.66,4.39,9.05,6.63,13.01,10.96,5.71,6.25,13.17,10.88,16.87,18.7,2.58-.64,1.22-4.48,4.31-3.81,3.69,4.66,.62,10.46,2.62,15.39,.34,5.14,4.8,9.61,2.52,15.19Z"/><path class="cls-2" d="M271.45,630.14c-.27,2.35,.62,4.82-.85,7.29-6.39-2.94-7.51-10.26-12.62-14.46-12.26-10.07-23.76-21.06-35.42-31.85-6.26-5.79-10.7-13.28-18.26-18.02-2.32-1.45-5.27-1.85-7.14-4.01,7-7.58,13.16-15.94,21.24-22.5,.48,.51,.73,1.11,.76,1.8-.05,.67-.25,1.3-.59,1.87-.95,1.5-2.25,2.7-3.46,3.97-2.84,2.96-2.47,5.85,0,8.8,1.58,1.88,3.46,3.41,5.5,4.71,12.62,8.01,23.79,17.79,34.52,28.13,1.26,1.22,3.09,2.09,3.6,3.79,1.62,5.37,4.17,9.14,10.67,8.26,1.62-.22,3.03,1.22,3.13,2.87,.4,6.48,2.01,13.05-1.09,19.34Z"/><path class="cls-23" d="M243.5,715.05c.49,33.15,.98,66.31,1.46,99.46-1.19-.45-2.38-.9-3.66-1.39-1.05,2.79,.77,8.25-3.39,7.89-3.49-.3-2.29-5.49-2.22-8.58,.31-15.69,.89-31.38,1.23-47.07,.12-5.25,.49-10.54-1.16-15.71-.45-1.4-.57-3.24-.06-4.58,5.49-14.33,.87-29.21,2.58-43.73,.17-1.45-.27-3.43,1.68-3.68,.63-.08,1.52,1.8,2.28,2.78,1.78,4.76-.41,9.85,1.25,14.62Z"/><path class="cls-40" d="M175.96,590.39c.61,3,2.51,3.65,5.34,3.31,3.13-.37,6.47-.06,7.62,3.46,1.11,3.4-.18,5.84-4.05,6.87-2.05,.54-2.13,2.68-.02,3.1,7.71,1.54,11.41,6.27,14.53,13.38,2.33,5.32,8.12,9.12,12.37,13.59-15.99-3.72-32.07-7.03-47.77-11.92-.08-3.17,.98-5.87,4.45-5.98,4.65-.15,4.31-2.48,3.18-5.63-2.39-6.69-2.09-7.24,4.73-8.58,2.35-.46,4.8-.61,5.97-3.37-1.55-2.27-4.03-.9-5.95-1.56-1.93-.66-4.83-.6-3.07-4.06,.52-1.24,1.36-2.16,2.66-2.62Z"/><path class="cls-16" d="M218.38,549.22c0-.44,.02-.88,.04-1.32,1.21-1.85,2.75-3.44,3.95-5.3,1.41-2.13,3.01-4.06,5.32-5.28,3.17,2.29,6.9,2.98,10.63,3.68-.4,5.93,2.49,10.36,6.38,14.44,3.34,3.51,7.78,5.75,10.79,9.62,2.8,3.94,2.94,8.61,3.59,13.14-2.85,5.72-8.09,6.49-11.24,1.39-1.37-2.23-2.51-4.02-5.31-4.14-.87-.04-1.9-.29-2.4-.97-6.1-8.32-15.65-13.35-21.23-22.15-.6-.95-.99-1.96-.5-3.09Z"/><path class="cls-41" d="M243.5,715.05c-2.56-4.69-.54-9.77-1.25-14.62,.01-11.94,.02-23.88,.03-35.82,3.77,2.17,3.16,7.61,7.52,9.58,4.48,2.03,8.31,5.45,12.35,8.01,3.95,2.5,4.87,5.61,6.63,8.86-4.26,1.81-8.59,2.94-13.21,1.47-3.61,2.07-9.4-.76-11.33,3.04-1.69,3.34-.54,8.12-.63,12.27-.05,2.41-.07,4.81-.1,7.22Z"/><path class="cls-10" d="M238.49,541.38c-4.46,.92-8.75,1.4-10.8-4.07,12.23-12.81,23.6-26.46,36.88-38.26-2.79,5.98-2.48,13.85-10.28,16.75-.22,.65-.58,1.27-1.16,1.55-6.29,3.09-6.95,7.91-4.29,13.78-1.47,6.91-4.41,9.82-10.35,10.25Z"/><path class="cls-23" d="M194.06,643.4c1.72,.48,5.14-1.16,5.24,1.91,.1,3.21-3.4,1.58-5.29,2.15-.63,.19-1.3,.27-1.91,.51-2.07,.85-4.48,1.01-4.86-1.46-.49-3.18,2.44-2.97,4.61-3.1,.66-.04,1.32,0,2.21,0Z"/><path class="cls-64" d="M222.37,542.6c-.1,2.67-1.86,4.11-3.95,5.3-.01-.43-.02-.86-.02-1.3,.9-1.75,2.24-3.08,3.97-4Z"/><path class="cls-23" d="M216.42,637.25c-2,1.07-3.34,1.07-4.79,.29,1.25-1.27,2.59-.77,4.79-.29Z"/><path class="cls-8" d="M277.84,660.66c-1.32-4.89-2.65-9.79-3.97-14.68-.4-8.55-1.22-17.1-.33-25.66,.03-1.48,.05-2.96,.07-4.43,.91-8.26-3.97-15.51-4.14-23.59,2.66-5.05,8.16-5.74,12.53-8.17,2.04-.55,3.93-.15,5.57,1.14,8.42,6.62,16.47,13.68,24.54,20.72,1.17,1.02,1.73,2.5,2.12,4.02,.78,5.47,4.39,7.65,9.44,8.54,16.48,2.9,33.18,3.9,49.78,5.76,12.03,1.34,24.17,.7,36.16,2.35,1.5,.21,3.12,0,4.23,1.4,.85,2.16,.3,3.8-1.82,4.85-7.71,15.5-15.42,31-23.13,46.51-5.67,9.19-13.31,9.8-22.29,5.29-2.34-1.18-4.99-1.75-7.69-1.56-5.91-1.42-12.03-.99-17.99-2.05-15.98-2.25-32.3-2.52-47.69-8.27-2.44-.91-4.81-1.89-7.1-3.11-3.23-2.59-6.03-5.57-8.28-9.06Z"/><path class="cls-48" d="M341.81,679.51c5.67,1.33,11.72,.91,17.09,3.63-16.98-.29-33.6,2.93-50.34,5.07-3.05,.39-6.16,.22-9.25,.31-1.59,.41-3.56,1.95-3.95-1.3l2.59-.13c5.86-3.76,12.71-3.18,19.15-4.38,8.17-1.53,16.51-1.82,24.7-3.2Z"/><path class="cls-29" d="M295.37,687.22c.96,1.53,2.52,1.2,3.95,1.3-9.28,2.74-18.94,2.79-28.44,3.84-5.03,.55-10.2,3.56-15.32,.17,4.41-.49,8.81-.98,13.21-1.47,8.86-1.28,17.73-2.56,26.59-3.84Z"/><path class="cls-11" d="M412.02,632.9c.51-1.33,1.02-2.67,1.53-4,.41-1.83,.58-3.73,1.87-5.25,3.58-4.49,7.63-8.19,13.93-7.93,1.36,.31,2.5,1.02,3.51,1.96,5.71,6.63,8.73,14.68,11.55,22.75,2.24,6.42,4.66,12.78,6.65,19.28,1.16,3.36,2.25,6.74,3.42,10.1,1.82,4.19,3.9,8.3,4.34,12.96,.6,4.98,1.51,9.85,4.85,13.87,1.95,2.19,2.8,4.95,3.93,7.57,5.2,16.23,15.28,28.13,31,35.07,1.21,.53,2.37,1.2,3.24,2.25,1.77,3.01-.25,4.56-2.45,5.76-3.57,1.95-7.41,3.08-11.45,1.64-8.93-3.18-17.63-7.01-26.79-9.54-1.08-.3-1.82-1.2-2.44-2.15,0-6.67-2.59-12.49-6.56-17.56-5.52-7.07-11.47-13.8-17.23-20.68-2.15-3.55-7.27-5.03-7.1-10.19-2.3-5.09,.31-9.92,.87-14.83,1.1-9.74,1.15-19.24-2.9-28.49-2.32-5.3-5.9-8.94-11.61-9.51-2.76-.28-1.83-1.81-2.15-3.07Z"/><path class="cls-42" d="M427.8,688.8c2.37,3.4,4.73,6.8,7.1,10.19-2.56-.49-3.52-3.15-5.73-4.23-4.3,3.01-2.72,8.58-5.31,12.32,.54-6.26-.8-12.93,3.94-18.28Z"/><path class="cls-79" d="M458.69,737.24c9.44,2.21,18.59,5.3,27.37,9.38,4.96,2.3,9.38,1.15,13.8-1.27,1.51-.82,2.48-1.85,1.24-3.62,5.33-1.7,10.54-1.41,15.63,.94,5.56,4.83,5.5,5.32-1.33,10.73-6.56,7.01-16.29,9.01-25.11,5.22-3.94-1.69-7.52-4.27-12.19-5.31-.35,4.49,3.98,7.52,2.25,11.65-1.04,1.42-2.2,.76-3.36,.22-3.43-3.03-7.02-5.94-9.03-10.23-3.9-5.48-11.8-8.85-9.26-17.7Z"/><path class="cls-80" d="M477.07,764.21c.84,.37,1.68,.74,2.51,1.11,6.51-.8,12.79-.1,18.75,2.81-.05,.44-.1,.89-.15,1.33-4.68,0-9.05,.41-9.22,6.68-.06,2.01-1.63,2.1-3.17,2.61-7.7,2.52-14.56,1.29-20.66-4.07,3.08-5.36,2.69-11.3,2.88-17.14,1.88-.22,2.31,1.24,2.33,2.47,.11,4.95,2.96,5.24,6.72,4.21Z"/><path class="cls-83" d="M477.07,764.21c-.81,3.85-3.41,2.08-5.66,1.96-2.81-.15-2.21-2.03-2.33-3.69-.12-1.7,.38-3.54-1.07-4.95-.02-.86-.04-1.72-.05-2.58,3.69,2.44,6.62,5.64,9.11,9.27Z"/><path class="cls-51" d="M268.87,512.02c4.22-2.33,8.43-4.7,13.3-5.45,3.83,.02,5.89,3.22,8.8,4.9,9.51,7.78,19,15.59,29.09,22.62,5.92,4.12,8.37,2.95,9.29-4.28,.36-2.84,.21-5.69-.25-8.53-.31-1.92-.94-3.92,.83-5.55,3.42-.33,5.03,1.9,6.37,4.5,3.23,11.15,6.7,22.22,10.17,33.29,2.86,9.15,.26,17.74-4.33,25.81-2.14,4.18,1.22,7,2.54,10.33,.9,2.26,3.52,4.54-.03,6.79-10.73-1.5-20.13-5.58-27.08-14.22-2.6-3.23-5.4-6.31-7.87-9.66-.7-4.43-4.79-7.12-5.89-11.36-1.2-8.29-5.94-15.04-9.57-22.3-5.78-11.55-14.57-20.14-25.36-26.91Z"/><path class="cls-34" d="M335.04,444.57c6.5,1.72,12.77,3.76,15.99,10.48-.13,3.07,.96,6.14-.06,9.2,1.06,6.2-1.81,11.49-3.91,16.96-.41,.87-.88,1.72-1.34,2.56-2.73,5.1-5.83,9.91-10.52,13.49-5.07,3.78-10.15,7.54-17.02,6.82-6.13-2.45-10.93-6.78-15.69-11.16-2.37-3.45-4.84-6.87-4.37-11.4-1.57-6.55,.05-13.45-2.56-19.97-1.04-2.59,.98-6.42,3.46-6.08,5.07,.7,6.83-2.88,9.64-5.31,7.76-6.72,17.12-5.91,26.37-5.59Z"/><path class="cls-77" d="M247.55,530.79c-4.08-8.41-2.51-11.9,6.74-14.99,2.23,.05,4.46,.1,6.69,.15,.81-.57,1.69-.79,2.67-.55,3.56,2.18,7.63,3.57,10.68,6.57,5.11,5.01,5.44,6.32,3.84,13.52,1.1,1.39,2.47,2.55,3.44,4.01,2.77,4.16,1.39,6.19-3.21,8.18-12.66,5.46-19.04-4.89-27.48-10.17-.84-1.18-1.72-2.35-2.27-3.71-.54-.94-.04-2.25-1.08-3.02Z"/><path class="cls-73" d="M263.6,516.18c-.87-.07-1.74-.15-2.61-.22,1.66-3.26,5.08-2.97,7.89-3.93,9.56,3.54,16.93,9.43,21.96,18.58,4.29,7.81,9.82,14.96,12.77,23.48,.77,2.23,3.3,4.43,1,7.17-2.03,.42-2.75-1.26-3.83-2.38-4.76-6.64-8.83-13.62-11.93-21.25-4.63-11.41-13.65-18.03-25.24-21.44Z"/><path class="cls-43" d="M303.4,492.16c4.85,3.57,9.7,7.15,14.56,10.72,.69,.74,.72,1.56,.31,2.44-2.08,1.02-4.32,1.59-6.5,2.35-2.63,.18-4.35-1.56-6.3-2.9-4.79-3.29-9.7-6.36-15.57-7.38,1.37-2.62,2.74-5.23,4.11-7.85,5.17-6.39,6.37,1.37,9.4,2.63Z"/><path class="cls-52" d="M289.85,512.35c-2.56-1.93-5.12-3.85-7.67-5.78,1.33-1.69,2.66-3.39,3.99-5.08,4.3-1.99,8.1,.64,10.94,2.6,4.47,3.09,8.89,3.97,13.95,3.57-1.53,8.06-9.87,11.06-17.88,6.33-1.09-.64-1.86-1.81-3.33-1.65Z"/><path class="cls-9" d="M311.25,508.12c-8.25,5.84-12.93-3.65-19.61-4.62-1.88-.27-3.66-1.32-5.48-2,.66-1.89,2.11-3.08,3.73-4.11,7.65-3.14,11.49,4,17,6.51,1.85,.85,3.32,2.67,5.62,2.82,.37,1.18-.03,1.66-1.25,1.4Z"/><path class="cls-21" d="M303.4,492.16c-3.28-.35-4.95-6.46-9.4-2.63,.6-3.07,1.75-5.86,4.13-8.02,1.76,3.55,3.51,7.1,5.27,10.65Z"/><path class="cls-28" d="M677.2,634.1c-4.2,9.92-10.97,19.65-11.73,29.83-.53,7.01-9.44,13.89-1.86,21.41-1.8,7.13-3.51,14.29-5.42,21.39-4.19,15.61-8.48,31.2-12.71,46.8-.5,1.83-.39,4.46-3.08,4.22-12.28-1.12-23.58,4.15-35.56,5.27-15.23,1.42-30.36,4.06-45.5,6.4-14.93,2.31-29.81,4.9-44.72,7.35-1.73,.28-3.48,.46-5.22,.58-2.37,.17-4.89-.41-5.41-2.79-.63-2.88,2.5-2.61,4.1-3.01,4.78-1.2,6.63-3.84,7.02-8.89,.34-4.34,.47-9.34,4.87-12.45,1.57-1.11,2.23-3.5,1.14-4.77-6.52-7.59-2.23-16.26-1.93-24.11,.51-13.55,2.51-27.07,3.27-40.97,2.33,6.78,4.94,13.49,6.92,20.38,2.14,7.45,5.52,14.32,8.82,21.26,1.56,3.29,3.77,5.55,7.67,4.95,3.35-.52,4.74,1.4,5.76,4.02,2.87,3.47,1.5,8,3.01,11.89,4.55,11.68,12.03,14.15,21.53,5.93,4.41-3.82,8.83-5.15,14.34-5.06,11.69,.18,21.86-4.35,31.29-10.84,2.75-1.89,4.33-4.44,3.4-7.91-1.02-3.8-4.15-4.05-7.34-4.19-3.77-.16-7.44,.7-11.16,1-9.7,.79-19.15,.57-24.94-9.29-2.11-15.18-8.45-29.13-12.62-43.7-1.69-5.9-6.38-11.31-3.73-18.14,5.1-3.26,11.06-2.81,16.66-3.65,21.41-3.2,42.89-5.96,64.39-8.51,1.54-.18,3.08-.4,4.58-.76,4.48-1.07,5.15-2.75,2-6.23-5.06-5.58-11.41-9-18.97-9.92-24.56-3.01-49.06-6.46-73.51-10.26-3.51-.54-7.08-.2-10.54-1.02-5.02-4.66-9.07-9.81-8.62-17.21-1.29-6-2.45-12.04-3.91-18-1.2-4.88,.02-6.92,5.38-5.94,11.22,2.04,22.49,3.87,33.75,5.72,26.19,4.31,52.37,8.68,78.58,12.81,10.98,1.73,19.83,12.65,20.12,25.91,.15,6.83-.06,13.68-.11,20.52Z"/><path class="cls-87" d="M516.73,742.67c-5.23,.09-10.5,.69-15.63-.94-18.03-6.52-29.83-18.87-34.97-37.43-3.1-13.6,1.28-26.65,2.95-39.88-1.87-3.34-5.05-1.5-7.62-1.86-3.98-.57-8.32,1.03-11.86-2.08-5.25-14.38-8.88-29.46-18.01-42.19,1.16-2.7,3.63-3.05,6.06-3.15,20.89-.91,41.77-1.38,62.56,1.49,.87,.12,1.73,.3,2.53,.7-17.46-7.87-52.9-10.03-73.89-4.47-1.1,.25-2.22,.32-3.34,.23-3.15-.61-5.8-1.75-5.85-5.6,3.68-4.69,9.32-4.27,14.32-5.53,8.42-.98,16.85-1.94,25.46-3.54-1.31-1.58-2.97-1.67-4.21-2.51-2.69-1.36-5.17-3.03-7.45-5.01-2.95-2.08-4.77-4.93-6.49-8.11-8.44-15.63-13.44-32.44-17.54-49.59-1.63-6.84-3.36-13.66-5.53-20.36-1.07-3.3-2.3-6.78,.41-10,4.61,2.78,6.53,7.6,8.8,12.03,7.32,14.27,14.51,28.62,21.53,43.04,2.07,4.25,5.09,6.9,9.41,8.59,10.44,4.08,20.99,7.82,31.83,10.7-.08,6.4-6.08,9.44-8.28,14.64-1.27,5.44,3,3.29,4.85,3.12,8.53-.8,16.96-2.64,25.6-2.4,1.54,.04,3.09-.02,4.63,.05,14.79,.69,19.87,4.45,24.73,18.41,10.87,31.22,21.97,62.36,33.26,93.42,3.81,10.49,3.05,12.36-7.15,16.48-4.46,1.8-8.81,4.2-13.92,3.02-9.4,2.27-9.48,2.3-13.47-6.82-6.89-15.76-12.12-32.13-18.42-48.45-1.77,24.67-3.53,49.34-5.3,74.01Z"/><path class="cls-15" d="M553.92,723.94c5.36-1.9,10.66-4.03,16.11-5.65,5.59-1.66,6.34-4.91,4.51-9.93-4.83-13.25-9.42-26.58-14.15-39.87-6.72-18.87-13.53-37.72-20.21-56.61-5.05-14.29-9.37-17.15-24.81-17.61-11.76-.35-23.18,2.46-34.82,2.94-.6,.02-1.2-.09-1.96-.15,.21-2.6,.74-4.86,2.38-6.75,9.38,1.78,18.62-.36,27.89-1.02,.62-.97,1.2-1.99,2.43-2.31,2.56-.23,4.56,1.13,6.39,2.56,3.61,2.81-.48-3.36,2.02-1.67,8.27,0,16.42,.55,23.67,5.21,2.63,5.25,5.26,10.51,7.88,15.76,2.09,1.74,3.27,4.04,4.24,6.53,3.73,9.6,7.25,19.28,10.92,28.91,.84,2.21,1.93,4.48,.97,6.99,5.61,17.62,11.16,35.25,16.88,52.83,.93,2.86,1.01,5.52,.21,8.31-2.11,3.29-3.67,6.63-4.68,10.6-1.91,7.49-17.13,9.7-24.35,4-.14-1.21-.44-2.35-1.54-3.08Z"/><path class="cls-58" d="M418.64,502.83c.49,12.42,5.93,23.68,8.35,35.67,3.26,16.2,9.75,31.33,16.87,46.21,1.28,2.68,4.45,2.86,5.4,5.48,1.32,2.75,3.06,4.83,6.55,4.16,2.75,1.24,5.5,2.48,9.53,4.3-11.05,2.82-21.06,4.09-31.2,4.66-5.88-14.83-12.22-29.49-16.31-44.98,.36-13.96-1.98-27.69-3.61-41.47-.37-3.11-2.56-5-4.81-6.86-1.82-1.51-4.64-2.88-3.85-5.63,.74-2.55,3.68-2.86,6.08-3.32,.66-.13,1.26-.38,1.79-.79,2.1,.13,3.88,.89,5.2,2.57Z"/><path class="cls-37" d="M413.44,500.25c.39,5.81-6.54-.22-6.97,4.3,.07,.39,.02,1.03,.22,1.12,9.01,4.29,10.47,12.18,10.79,21.09,.28,7.82,1.75,15.6,2.38,23.42,.22,2.71,1.12,5.71-.91,8.25-2.7-1.25-3.35-3.93-4.33-6.33-6.43-15.86-12.72-31.78-18.63-47.84-2.62-7.12-7.44-12.89-10.82-19.53-.21-.74,.01-1.31,.68-1.71,10.69,3.34,18.78,10.85,27.59,17.21Z"/><path class="cls-6" d="M510.2,590.3c1.03,1.34-.02,2.49-.95,2.17-6.83-2.35-13.46,.06-20.17,.44-2.84,.16-6.34,1.15-8.1-2.59,3.08-4.38,6.16-8.76,9.24-13.14,4.25-.54,8.38-.3,12.77-1.87,5.63-2.02,8.98,4.15,13.01,7.19,1.65,1.25,2.51,3.55,3.73,5.37,.01,2.18,1.24,5.71-3.22,2.8-1.6-1.05-3.31-1.94-4.97-2.91-1.69-.73-3.45-1.17-5.29-1.37,2.17,.44,2.85,2.39,3.96,3.89Z"/><path class="cls-17" d="M385.85,483.04c.05,.34,0,.67-.17,.97,.51,8.92-2.4,11.84-11.34,11.16-3.91-.3-7.76-1.05-11.45-2.46-2.58-1.27-5.28-2.27-8.04-3.08-.58-.17-1.14-.39-1.7-.61-2.15-.94-4.46-1.45-6.58-2.5-1.66-.65-1.39-2.47-2.19-3.64,.36-.45,.72-.91,1.08-1.36,2.38-1.92,4.85-1.57,7.31-.23,1.53,.83,3.06,1.63,4.63,2.39,8.48,4.07,16.85,7.47,24.13-2.08,.87-.47,1.75-.94,2.62-1.41,.19,1.17,.38,2.35,1.69,2.87Z"/><path class="cls-12" d="M381.54,481.58c-1.09,1.38-2.4,2.63-3.24,4.15-3.44,6.2-8.04,4.99-13.45,2.85-6.38-2.52-12.11-6.97-19.38-7.07,1.83-5.75,3.67-11.51,5.51-17.26,.91,.92,2.13,1.68,2.68,2.78,4.67,9.42,12.55,13.68,22.69,14.44,1.73,.04,3.47,.07,5.2,.11Z"/><path class="cls-59" d="M555.46,727.01c5.85,2.46,11.7,3.3,17.55,0,3.04-1.72,6.93-2.25,5.44-7.85-.93-3.49,2.88-5.46,6.04-6.74,7.92,8.81,17.99,8.64,28.5,6.95,2.59-.42,5.3-.09,7.92-.39,3.96-.45,6.92,.4,8.2,4.68,1.29,4.3,.59,7.8-3.38,10.32-10.34,6.56-21.04,11.94-33.8,11.57-4.7-.14-8.77-.22-12.52,4.88-2.88,3.92-9.76,4.39-15.12,5.57-1.42,.31-2.45-.72-3.25-1.86-4.86-6.96-8.84-14.2-7.41-23.17,.61-1.31,1.22-2.63,1.84-3.94Z"/><path class="cls-88" d="M498.33,768.13c-6.35-.26-12.73-.34-18.75-2.81,.43-4.09-2.61-6.9-3.83-10.38-.41-1.16-1.63-2.4-.28-3.56,1.11-.96,2.52-.58,3.75-.04,1.61,.71,3.32,1.35,4.73,2.37,10.58,7.63,21.03,6.04,31.45-.3q-.07,14.51-17.07,14.72Z"/><path class="cls-50" d="M89.42,670.22c-1.64,2.78-3.98,5.36-7.03,6.94-1.7,.88-1.88-1.17-1.91-2.42-.09-3.82,2.28-5.99,5.49-7.19,1.57-.59,2.89,.48,3.45,2.66Z"/><path class="cls-72" d="M124.16,632.82c2.32-.22,2.83-1.8,2.68-3.74-.37-4.71,2.65-7.11,6.47-7.82,3.82-.71,6.54,1.92,8.29,5.27,1.89,3.62,1.18,6.64-2.11,9.09-.32,.24-.45,.74-.67,1.12-4.82-1.57-10.14-1.23-14.66-3.91Z"/><path class="cls-38" d="M110.94,650.03c-1.5,1.26-2.94,2.6-4.5,3.77-3.55,2.66-3.31-.21-3.46-2.45,.3-3.16,1.89-5.33,4.93-6.34,1.64-.54,3.23,.09,4.26,1.16,1.64,1.71-1.19,2.42-1.23,3.85Z"/><path class="cls-71" d="M341.81,679.51c.36,1.09,.68,2.24-1.04,2.31-14.42,.58-28.47,4.07-42.81,5.28,3.3-6.35,1.45-10.97-5.49-13.16-2.59-.82-4.68-2.13-6.35-4.22,18.15,5.62,36.99,7.32,55.69,9.79Z"/><path class="cls-64" d="M270.18,591.85c2.08,7.82,5.88,15.27,5.12,23.71-1.17,1.17-1.31,2.73-1.64,4.22,.55-.09,1.03-.66,1.65-.22-1.65,8.74-1.27,17.59-1.42,26.41-3.1-4.93,.96-10.95-2.42-15.84,0-5.52-.07-11.05,.01-16.57,.05-3.19-.81-5.69-4.49-4.2-5.27,2.14-7.26-1.94-8.4-4.94-3.02-7.97-9.7-12.18-15.71-17.17-1.01-.83-2.52-1.25-3.18-2.27-5.13-7.93-13.9-11.15-21.06-16.41-10.18-7.48-10.39-11.26-.24-19.37,5.09,5.5,8.59,12.55,16.07,15.74,1.53,.65,2.4,3,3.41,4.66,1.62,2.66,2.93,5.58,7,4.22,2.94-.98,3.14,1.62,3.83,3.29,2.23,5.37,4.74,5.79,9.48,1.45,4.16,.2,3.75,4.15,4.91,6.49,1.62,3.28,3.42,5.87,7.09,6.78Z"/><path class="cls-81" d="M270.18,591.85c-3.63,2.28-5.6,1.28-7.11-2.77-1.33-3.58-2.14-7.53-4.89-10.5-1.36-4.56-2.73-9.12-4.09-13.68-1.47-2.15-3.11-4.23-2.98-7.05,.24-4.49-1.4-8.67-2.05-13.01-.48-3.13-2.36-7.06,2.48-8.87,5.34,3.79,10.66,7.61,16.03,11.36,4.82,3.36,8.49-2.09,13.05-1.92,1.6,.06,1.6-2.77,.3-4.39-1.37-1.7-2.77-3.38-4.16-5.06,.78-3.53,2.02-4.32,4.5-2.53,2.32,1.68,4.05,4.07,5.37,6.56,3.86,7.25,9.6,12.87,15.37,18.5,1.49,.33,.83,2.69,2.6,2.76,1.03,3.88,7.19,5.03,5.53,10.35-1.76,3.88-5.93,4.07-9.09,5.66-6.07,3.05-11.68,7.33-18.83,7.78-4.01,2.27-8.02,4.54-12.03,6.8Z"/><path class="cls-26" d="M252.84,558.57c.41,2.11,.83,4.22,1.24,6.33-6.61-4.7-13.27-9.23-16.63-17.19-1.14-2.7-.97-4.49,1.04-6.33,4.69-2.1,8.62-4.85,9.06-10.59,1.11,.52,1.26,1.58,1.48,2.61,.34,8.53,1.87,16.88,3.81,25.16Z"/><path class="cls-24" d="M282.2,585.04c9.31-4.48,18.61-8.96,27.92-13.44,1.23,1.24,2.65,2.34,3.66,3.74,7.65,10.65,17.9,17.36,30.58,20.44,7.09-1.01,13.39,2.11,19.61,4.45,9.03,3.39,17.85,3.41,26.95,1.21,3.04,.16,5.72,1.09,7.64,3.61,3.09,6.33,1.53,8.75-5.21,10.1-16.22,3.25-32.33,2.06-48.52-.16-6.53-.9-13.2-.21-19.81-.26-5.03,.02-9.72-.7-12.33-5.81-8.76-7.56-17.55-15.08-26.25-22.7-1.32-1.16-2.7-1.23-4.23-1.17Z"/><path class="cls-47" d="M312.69,608.91c3.78,1.56,6.8,5.23,11.53,4.1,9.16,.76,18.36,1.37,27.53,1.69,5.29,.18,10.42,1.21,15.64,1.66,9.93,.86,19.53-2.42,29.49-1.46,5.13,.49,5.03-4.39,5.21-8.15,.92-2.29,2.79-3.05,5.07-3.12,4.25,1.32,8.72,2.01,12.65,4.3,1.6,1.63,2.98,3.58,5.57,3.76,3.34,2.57,.6,3.93-1.17,5.26-3,2.26-7.04,3.37-8.13,7.65-.47,1.65-1.04,3.23-2.52,4.28-29.65-2.16-59.37-3.57-88.82-8.06-10.13-1.55-11.73-2.97-12.04-11.93Z"/><path class="cls-2" d="M275.3,619.56c-.6,.86-1.19,1.71-1.79,2.57q-.63-4.13,1.78-6.58c0,1.34,0,2.67,0,4.01Z"/><path class="cls-76" d="M428.02,611.65c11.03-4.97,22.78-4.59,34.34-3.83,11.54,.76,23.17,1.66,34.38,5.04,4.74,1.43,9.42,2.95,12.41,7.69-14.83-5.67-30.44-3.82-45.57-4.34-10.45-.36-21.49-.96-31.98,2.07-.72-.58-1.44-1.16-2.16-1.74-1.65-1.29-2.03-2.95-1.42-4.89Z"/><path class="cls-20" d="M471.51,663.38c-3.04,13.48-4.75,27.13-5.38,40.92-1.1-2.22-2.21-4.43-3.31-6.65-3.07-4.47-3.58-9.9-5.5-14.8-1.4-4.31-2.79-8.61-4.19-12.92-1.32-2.75-.56-4.9,2.42-5.35,5.27-.8,10.48-2.99,15.96-1.2Z"/><path class="cls-70" d="M471.51,663.38c-4.49,1.78-9.27,2.06-13.98,2.45-2.88,.24-4.6,.93-4.4,4.1-1.18-3.15-2.36-6.31-3.54-9.46,5.85-.01,11.7-.12,17.54,.02,1.86,.04,4.78-.87,4.38,2.88Z"/><path class="cls-13" d="M428.02,611.65c.47,1.63,.94,3.26,1.42,4.89-5.93,.24-9.44,4.5-13.36,8.07-.74-4.46,3.35-5.15,5.66-7.17,1.81-1.58,5.35-1.96,3.64-5.74,.88-.02,1.77-.03,2.65-.05Z"/><path class="cls-14" d="M457.32,682.85c2.73,4.6,4.13,9.7,5.5,14.8-4.59-3.91-4.94-9.39-5.5-14.8Z"/><path class="cls-85" d="M311.25,508.12c.42-.46,.84-.93,1.26-1.39,1.45-1.71,3.08-2.58,5.23-1.17,3.33,4.34,8.32,6.83,12.01,10.78,1.78,6.46,2.67,12.86-.32,19.29-1.81,3.88-3.8,4.56-7.44,1.89-10.98-8.05-21.9-16.17-32.13-25.17,2.78-4.27,5.13,.83,6.38,1.33,7.25,2.9,11.06-1.02,15.03-5.57Z"/><path class="cls-53" d="M390.84,602.51c-7.61,2.44-14.91,4.11-23.01,.52-7.43-3.3-15.61-4.9-23.46-7.25,2.51-2.74-.99-3.96-1.56-5.9-.97-3.27-4.83-5.75-2.59-9.88,3.72-1.97,6.17-5.55,9.78-7.64,1.77-1.03,3.21-3.29,5.77-1.7,3.04,4.09,5.17,8.69,6.91,13.4,1.65,4.45,4.57,7.17,8.64,9.36,6.34,3.41,13.17,5.72,19.52,9.09Z"/><path class="cls-61" d="M354.82,570.55c-3.42,2.77-6.81,5.57-10.26,8.29-1.24,.98-2.27,3.14-4.34,1.16,8.01-12.72,5.99-25.41,.65-38.52-2.89-7.1-4.3-14.8-6.37-22.23,.25-.7,.74-1.11,1.47-1.26,4.22,.14,6.11,3.29,7.73,6.4,6.14,11.75,10.7,24.24,16.59,36.13,2.56,5.16-.82,8.21-5.47,10.03Z"/><path class="cls-30" d="M334.93,518.05c-.15,.41-.29,.81-.44,1.21-1.22-1.58-2.75-2.63-4.75-2.93-5.11-2.36-10.66-4.23-12.01-10.78,.07-.89,.14-1.78,.22-2.67,6.67,.33,11.56-3.65,16.76-6.91,2.8,2.07,2.24,5.1,2.31,7.96-.45,4.74,1.52,9.85-2.09,14.12Z"/><path class="cls-65" d="M335.31,504.21c-.2-2.75-.4-5.5-.6-8.24,3.64-4.06,7.23-8.15,9.67-13.1,.88,.9,1.76,1.8,2.64,2.69,1.62,1.02,2.82,2.44,3.89,4.01,12.7,19.05,24.68,38.57,37.36,57.63,2.02,3.03,4.84,5.86,4.12,10.06-2.73,1.67-4.6-.27-6.44-1.71-13.16-10.31-26.45-20.43-39.76-30.54-7.21-5.47-7.48-6.05-3.72-14.06,1.58-3.37,.46-4.38-2.65-4.74-1.7-.19-3.64,.1-4.5-2Z"/><path class="cls-54" d="M302,558.48c-6.52-3.28-11.4-8.11-14.79-14.65-1.6-3.09-4.08-5.72-6.15-8.56-1.87-2.56-3.39-2.84-4.3,.68-2.05-3.26-2.05-3.27,.88-4.41,2.69-1.04,.96-2.24,.06-3.24-3.33-3.69-6.02-8.14-11.31-9.55-1.28-.34-2.33-1.2-2.78-2.57,12.59,.23,20.02,8,25.26,18.14,4.21,8.16,8.14,16.44,13.14,24.16Z"/><path class="cls-78" d="M252.84,558.57c-3.18-8.1-4.82-16.43-3.81-25.16,1.21,.49,2.18,1.21,2.5,2.56-2.3,2.94-1.35,6.12-.63,9.24,1.03,4.4,2.54,8.73,1.94,13.36Z"/><path class="cls-1" d="M567.4,651.28c-5.38-14.14-10.75-28.29-16.13-42.43,16.55,.4,32.68,4.26,49.06,6.07,12.01,1.32,23.96,3.09,35.95,4.64,8.72,1.13,15.82,5.27,21.54,11.79,1.43,1.63,2.79,3.73,2.11,6.04-.87,2.93-3.65,1.76-5.67,2.04-28.95,3.97-57.9,7.91-86.86,11.85Z"/><path class="cls-60" d="M392.27,557.12c-13.67-21.29-27.34-42.59-41.03-63.87-.7-1.09-1.87-1.91-1.7-3.42,.22-3.52,2.67-1.33,4.15-1.63h0c2.27,2.03,5.4,1.47,7.95,2.66,3.4,.72,6.79,1.52,10.22,2.15,9.3,1.71,10.63,.83,13.83-9,4.96,5.42,8.65,11.59,11.32,18.44,7.27,18.68,14.62,37.33,21.95,56,4.74,12.87,9.52,25.73,14.2,38.62,.72,1.97,2.19,3.92,.99,6.23-4.9,1.16-9.81,2.3-14.34,4.63-4.11-.31-8.21-.64-11.86-2.84-3.88-5.36-4.2-11.95-5.98-17.99-2.98-10.09-6.82-19.88-9.69-29.99Z"/><path class="cls-39" d="M455.8,594.34c-4.75,2.65-5.92-.32-6.55-4.16,2.18,1.39,4.37,2.77,6.55,4.16Z"/><path class="cls-68" d="M510.2,590.3c-2.29-1.45-4.57-2.9-8.07-5.11,4.38-.03,7.56-1.28,9.4,2.59-1.02,.54-1.28,1.48-1.33,2.52Z"/><path class="cls-36" d="M361.63,490.86c-2.87-.21-6.22,.99-7.95-2.66,2.89,.16,5.57,.95,7.95,2.66Z"/><path class="cls-36" d="M353.69,488.2c-1.13,1.2-3.22-.08-4.15,1.63-1.46-1.05-2.16-2.56-2.52-4.26,2.43,.35,4.79,.88,6.67,2.64Z"/><path class="cls-31" d="M392.27,557.12c1.97,.99,2.53,2.97,3.17,4.78,4.96,14.17,10.18,28.26,12.5,43.19-1.88-.34-3.52,.09-4.88,1.46-2.4,1.49-3.98-.06-5.6-1.49-1.98-1.44-4.2-2.26-6.62-2.56-13-3.62-26.56-6.36-31.53-21.74-1.14-3.52-2.97-6.82-4.49-10.22,5.22-3.85,5.51-7.63,2.11-13.6-5.3-9.32-8.94-19.58-13.38-29.4-1.83-4.04-4.1-7.81-8.61-9.48,.12-4.62,.25-9.23,.37-13.84,.85,.17,1.81,.67,2.53,.44,3.04-.97,6.58,0,8.01,1.61,1.9,2.15-1.68,4.33-2.84,6.49-1.68,3.12-2.98,5.79,.67,8.56,15.22,11.55,30.35,23.23,45.55,34.81,.8,.61,2.02,.68,3.04,1.01Z"/><path class="cls-69" d="M397.46,605.06c1.86,.5,3.73,.99,5.59,1.49,1.91,8.29-.22,10.7-8.37,9.22-4.26-.77-8.32,.59-12.46,.76-19.44,.81-38.74-.99-57.99-3.53,16.54-1.34,32.82,2.23,49.27,2.59,7.46,.16,14.55-2.45,22.07-2.27,1.89,.05,3.64-4.86,1.89-8.27Z"/><polygon class="cls-49" points="102.98 672.38 84.95 649.85 89.42 642.16 98.1 638.1 109.52 635.66 116.72 630.77 161.63 643.38 157.19 664.62 131.45 687.1 102.98 672.38"/><polygon class="cls-1" points="98.1 625.67 161.63 643.38 161.63 633.9 160.4 627.14 163.99 622.17 165.71 617.14 171.97 614.89 174.03 610.77 175.77 607.16 178.16 603.63 180.64 600.68 182.01 595.28 173.71 589.1 170.53 587.6 170.21 580.81 165.29 577.01 156.55 577.01 147.97 580.81 131.13 577.01 120.01 592.01 120.32 599.26 118.42 608.27 112.68 616.26 98.1 625.67"/></g><g><path class="cls-87" d="M931.53,823.74c.74-3.5,1.15-6.97-.51-10.35-.43-5.5,.2-11.09-1.46-16.48l-.29-.37,.28-.38c-1.71-4.34,.5-9.1-1.42-13.42l-.15-1.53c.75-4.88,2.05-9.82-1.58-14.22l-.37-.4,.26-.48c-.51-3.38,.28-6.92-1.23-10.18l-.24-2.7c-1.1-9.04-1.02-18.23-3.34-27.12l.08,.18c-1.73-4.17,.91-8.88-1.57-12.96,.25-2.71,.59-5.44-1.15-7.87-1.16-12.8-1.65-25.6-.36-38.42,.05-.85,.1-1.7,.15-2.56,2.27-9.52,3.22-19.18,2.81-28.94-.13-3.08-.93-6.12,.17-9.16l-.07,.17c1.59-10.51,1.77-21.16,3.24-31.68l-.05,.09c9.9-9.11,17.12-19.87,20.27-33.12,.18-.47,.36-.94,.53-1.41,1.73-1.2,.44-3.35,1.48-4.77v.02c1.78-2.94,2.85-6.03,1.99-9.52-3.61-2.26-6.5,.39-9.59,1.48-12.77,4.47-25.6,7.26-39.35,4.55-11.17-2.2-19.2-7.3-23.99-18.01-2.76-6.17-4.7-13.72-13.05-15.48-3.46,1.22-4.22,4.47-5.42,7.32-10.4,24.52-17.93,49.81-21.87,76.26-4.88,32.76-13.43,64.81-20.34,97.17-8.18,38.28-18.13,76.15-26.79,114.32-1.01,4.45-1.19,9.92-8.05,9.62-8.82,1.13-11.3,3.29-11.99,9.97-.26,2.52,.65,3.91,3.02,4.48,17.8-.64,19.91,1.34,24.8,23.16,.45,.64,1.06,1.01,1.83,1.12q6.02-5.08,12.52,.47c7.12-1.02,10.63-4.64,11.63-12.08,.37-2.78-.41-5.78,1.58-8.25-.13-.49,0-.88,.42-1.17,2.7-1.82,2.27-4.87,2.94-7.49,2.26-3.48,2.51-7.53,3.29-11.44,5.46-10.49,9.14-21.55,10.71-33.3l-.03,.09c2.04-1.22,.69-3.48,1.56-5.05,2.46-1.39,.36-4.2,1.83-5.9,6.21-11.31,9.29-23.8,13.21-35.95,2.64-8.17,5.45-16.31,6.74-22.3,1.76,12.31,2.42,27.06,8.23,40.92,1.87,3.38,1.96,7.06,1.78,10.78,1.7,2.49-.23,5.62,1.41,8.12,.45,.37,.52,.8,.19,1.29,2.04,2.9-.97,6.87,2.02,9.57,2.02,3.33,.9,7.03,1.22,10.55,.97,10.8,.4,11.57-9.62,12.9-7.45,.99-10.58,5.03-9.15,12.45,1.41,7.32,5.1,13.1,12.36,15.97,5.16,2.04,10.19,4.72,13.69,8.8,8.81,10.27,19.76,11.44,31.93,9.1,5.78-.79,7.62-5.56,9.25-9.97,.74-1.99,.83-3.37,3.26-2.91,2.33-7.83,.55-15.72,.37-23.59Z"/><path class="cls-7" d="M863.44,519.48c5.47,4.05,8.61,9.92,10.85,15.96,4.25,11.45,13.13,16.42,24.12,18.61,15.61,3.11,30.61,.98,44.89-6.11,1.59-.79,3.08-2.09,5.09-1.49,8.03-3.15,11.78-8.94,11.32-17.64-1.43-27.18-3.94-54.38-2.94-81.57,.88-24.1-1.25-48.12-.33-72.18,.27-7.16-.74-14.15-6.36-19.51l.04,.06c-4.02-10.25-13.01-16.02-20.81-22.78-5.49-4.75-12.13-8.26-15.46-15.19-.49-1.05-.98-2.09-1.48-3.14-4.16-13.55-14.64-13.31-25.7-11.79-8.62-.28-14.94,5.1-21.89,8.92-3.4,1.87-6.63,4.02-9.83,6.23-2.01,1.75-4.97,2.88-4.34,6.42,2.96,3.44,8.08,2.14,11.55,5.52-9.25,.58-18.08,2.1-26.55,5.3-9.57,3.61-19.07,7.45-29.53,7.77-2.37,.07-4.61,1.05-6.11,3.14-.16,8.87,3.22,16.76,6.88,24.54,1.33,2.83,2.36,5.79,3.74,8.61,3.35,4.43,6.9,8.6,12.79,9.7,8.62,.36,17.28,1.07,25.83-.38,5.97-1.01,7.57,1.78,7.31,6.9-.68,13.05-1.54,26.1-3.5,39.02-3.5,23.02-7.63,45.92-13.26,68.55-2.08,8.36-5.46,15.71-12,21.56-2.12,1.9-5.6,3.78-2.99,7.72,4.7,4.02,11.02,2.81,16.28,5.02,4.72-.74,3.59-5.07,4.77-7.95,.79-1.92,1.24-3.99,1.83-6,2.53-8.57,3.2-8.9,11.37-5.4,1.45,.62,3,.92,4.42,1.58Z"/><path class="cls-84" d="M855.31,319.54c9.75-6.13,19.66-11.96,30.43-16.18,.44-.35,.57-.68,.4-1-.16-.31-.32-.46-.48-.46-.14-.33-.32-.66-.4-1.01-.04-.16,.12-.37,.18-.55,2.72-13.94,3.56-27.92,.54-41.91-3.73-17.32-15.72-26-32.05-29.46-22.27-4.72-39.69,2.34-51.47,22.27-4.27,7.22-5.75,15.07-6.07,23.28-.15,3.72,1.78,5.85,4.92,7.22,6.12,3,7.98,9.39,11.44,14.49,1.44,2.12,2.35,5.07,5.63,4.64,2.73-.36,3.47-2.77,4.26-5.08,2.24-6.56,5.22-2.38,7.05-.01,5.09,6.63,9.23,14,15.47,19.73,2.87,2.63,5.44,5.98,10.13,4.02Z"/><path class="cls-65" d="M841.57,536.7c-5.77,19.08-11.55,38.16-17.32,57.24,.28,.48,.2,.88-.25,1.2-5.02,9.38-6.46,19.85-8.78,29.98-4.44,19.42-9.33,38.74-14.03,58.09-1.56,6.43-1.06,12.92-2.28,19.29,.04,5.44-1.14,10.63-3.32,15.6-2.91,6.24-4.95,12.68-4.42,19.7l.2,.44-.36,.33c-3.39,11.5-7.01,22.95-7.81,35.02,.05,2.66,.45,5.41-1.75,7.55-1.42,1.38-1.71,3.02-1.11,4.86-.13,3.24-.47,6.44-2.18,9.31-1.37,1.35,.12,3.5-1.33,4.83v-.04c-.9,4.2-2.63,8.06-4.74,11.78-.77,2.62-1.89,5.19-1.14,8.03,.37,1.12,1.06,2.02,1.95,2.77,2.03,1.72,4.95,1.05,7.05,2.62,4.95,2.1,8.11,1.43,9.35-4.69,6.53-32.24,15.95-63.8,22.34-96.09,3.8-19.2,8.19-38.29,12.9-57.29,6.99-28.13,11.36-56.76,17.17-85.11,4.44-21.66,10.87-43.02,21.73-62.64-1.69-2.89-4.7-3.85-7.47-5.22-5.25-2.59-8.09-.98-9.43,4.65-1.42,5.99-3.29,11.86-4.97,17.79Z"/><path class="cls-63" d="M760.71,852.24c7.98,1.47,15.96,2.94,23.95,4.42,.99-3.97-3.55-5.34-4.13-9,6.7,.6,3.98,6.37,5.57,9.57,3.32,2.49,6.99,4.07,11.19,4.24,.07-5.95,.48-11.9-3.14-17.26-5.48-8.13-12.82-10.6-22.09-7.86-10.26,5.29-10.75,7.78-2.94,14.87q-3.95-.87-8.41,1.03Z"/><path class="cls-67" d="M760.71,852.24c2.78-.13,5.57-.27,9.74-.47-8.68-6.99-2.5-11,1.61-15.42-3.31-5.57-.12-10.04,7.88-11.05-1.62-2-3.83-2.82-6.27-3.19-3.34-1.64-5.96-.64-6.29,2.96-.88,9.63-6.24,14.94-15.21,17.33-1.14,.3-1.52,1.25-.87,2.39,2.39,3.42,4.28,7.49,9.41,7.46Z"/><path class="cls-19" d="M798.83,861.67c3.69,1.68,7.39,1.69,11.08,0-.55-3.94-3.05-7.15-6.53-7.43-4.72-.38-1.97,5.5-4.55,7.43Z"/><path class="cls-25" d="M803.5,280.15c-.32,1.82,1.95,3.21,.7,5.46-4.42-.62-8.86-1.54-13.6-.3-7.28,1.9-12.28,5.63-13.47,13.29-.56,3.61-1.83,6.48-5.26,8.1-7.23,1.5-10.93,7.61-15.39,12.41-3.61,3.88-3.55-.64-5.14-1.36-1.21,8.26-4.89,15.35-8.9,22.66-5.74,10.47-4.23,13.44,5.41,20.17,1.28,.89,2.49,1.87,3.74,2.8,19.37,7.36,39.05,13.47,59.84,15.28,.44-6.14-4.27-10.29-5.99-15.58-1.84-5.63-3.2-11.41-4.77-17.13,.97-2.97,.23-5.64-1.42-8.16-1.25-1.03-2.75-1.36-4.3-1.52-1.82-.12-3.75-.32-5.42,.37-3.36,1.38-.85-1.69-1.74-2.12-2.99-.99-5.86-1.39-2.98-5.99,4.91-7.85,7.95-16.66,18.42-19.95,5.87-1.85,8.86-2.07,11.6,3.94,3.56,7.81,7.91,15.25,14.14,21.38,7.78-2.29,15.65-4.38,21.95-9.92,.57-2.38,3.22-2.69,4.41-4.45-9.96-4.06-15.42-12.74-21.2-20.97-1.47-2.1-2.33-4.66-4.35-6.42-1.98-1.73-4.05-3.68-6.93-2.49-2.6,1.07-1.59,3.49-1.46,5.5,.14,2.3-.47,4.32-2.91,4.88-2.55,.58-2.72-2-3.56-3.39-3.48-5.72-5.49-12.44-11.39-16.49Z"/><path class="cls-32" d="M822.48,387.11c2.91,2.67,6.53,1.62,9.77,1.46,5.93-.3,7.52,2.26,7.72,7.9,1.01,28.37-2.05,56.25-8.83,83.78-3.61,14.67-6.71,29.48-10.68,44.06-1.53,5.62,.47,7.18,5.25,7.64-.36-.92-1.29-2.08-.18-2.79,13.89-8.91,15.74-23.7,19.23-37.99,5.34-21.83,8.54-44.02,11.91-66.16,1.68-11.06,1.34-22.41,2.11-33.62,.35-5.09-2.09-6.95-6.56-5.75-9.85,2.65-19.84,.86-29.74,1.48Z"/><path class="cls-57" d="M798.74,337.89c.32,2.76-.07,5.7,1.91,8.07,18.58-.35,34.68-10.52,52.69-13.27,4.67-.71,9.11-1.04,14.05,.62-3.3-8.18-10.38-7.85-16.49-9.32-7.65,2.41-15.04,5.44-22.14,9.18-10.25,.03-20.7-1.15-30.03,4.72Z"/><path class="cls-45" d="M751.31,844.78c9.95-2.56,17.97-6.91,17.65-19.02-.09-3.32,2.27-3.57,4.72-3.65-.66-.58-1.32-1.17-1.99-1.75-4.86,.5-9.71,1.41-14.57,1.38-4.69-.02-7.82,1.8-10.01,5.71-1.18,5.95,.94,11.34,2.89,16.76,.4,.29,.84,.48,1.32,.57Z"/><path class="cls-33" d="M751.34,317.75v8.45c7.4-7.03,13.97-13.27,20.53-19.5-9.78-6.38-15.91-3.08-20.53,11.05Z"/><path class="cls-62" d="M786.1,857.22c2.77-5.62,2.49-10.1-4.47-12.2-1.54-.46-3.17-1.19-4.24,.43-1,1.52-.12,2.99,.98,4.22,2.09,2.32,4.18,4.65,6.28,6.97l1.44,.57Z"/><path class="cls-22" d="M798.74,337.89c3.86-3.18,8.34-.8,12.5-1.27,5.96-.68,11.75-1.95,17.53-3.45-5.19-9.29-10.51-18.51-15.49-27.91-1.65-3.11-3.17-1.38-5.03-.73-10.59,3.7-19.95,8.66-23.67,20.47-1.06,3.37-3.34,6.36-5.42,10.19h8.61c1.71,1.97,4.84,.81,6.48,2.93,1.5-.08,3-.16,4.49-.23Z"/><path class="cls-74" d="M811.33,298.07c-3.62-2.58-1.44-8.12-7.12-6.35-2.53,.79-3.79,2.72-2.91,4.67,1.72,3.83,5.23,2.09,10.03,1.68Z"/></g></svg>