<?xml version="1.0" encoding="UTF-8"?><svg id="Layer_2" xmlns="http://www.w3.org/2000/svg" viewBox="0 0 1080 1080"><defs><style>.cls-1{fill:#fbd358;}.cls-2{fill:#7e4824;}.cls-3{fill:#6e3d25;}.cls-4{fill:#030202;}.cls-5{fill:#f4ce6a;}.cls-6{fill:#620705;}.cls-7{fill:#070402;}.cls-8{fill:#dcb7a8;}.cls-9{fill:#a7b1b7;}.cls-10{fill:#683225;}.cls-11{fill:#6d3527;}.cls-12{fill:#703422;}.cls-13{fill:#c4a396;}.cls-14{fill:#060405;}.cls-15{fill:#353334;}.cls-16{fill:#390f01;}.cls-17{fill:#a7bfd2;}.cls-18{fill:#693424;}.cls-19{fill:#5a220f;}.cls-20{fill:#610102;}.cls-21{fill:#b1cbe0;}.cls-22{fill:#f9d45d;}.cls-23{fill:#040404;}.cls-24{fill:#2f2f31;}.cls-25{fill:#070506;}.cls-26{fill:#c99888;}.cls-27{fill:#ba9c70;}.cls-28{fill:#6b3725;}.cls-29{fill:#c98;}.cls-30{fill:#a0998d;}.cls-31{fill:#693327;}.cls-32{fill:#2f2e2e;}.cls-33{fill:#b48976;}.cls-34{fill:#deb7a9;}.cls-35{fill:#020304;}.cls-36{fill:#f6f9ed;}.cls-37{fill:#2f2f2f;}.cls-38{fill:#6a3626;}.cls-39{fill:#6e3526;}.cls-40{fill:#a30406;}.cls-41{fill:#570100;}.cls-42{fill:#c2ddf3;}.cls-43{fill:#c49482;}.cls-44{fill:#040305;}.cls-45{fill:#501b09;}.cls-46{fill:#040204;}.cls-47{fill:#f99d29;}.cls-48{fill:#333;}.cls-49{fill:#81995c;}.cls-50{fill:#2d2b2e;}.cls-51{fill:#4e0201;}.cls-52{fill:#95b8d9;}.cls-53{fill:#6c3426;}.cls-54{fill:#787e8a;}.cls-55{fill:#b5c399;}.cls-56{fill:#99b767;}.cls-57{fill:#c3ddf4;}.cls-58{fill:#2e2c2d;}.cls-59{fill:#632f21;}.cls-60{fill:#6d3622;}.cls-61{fill:#100e0f;}.cls-62{fill:#f0d47b;}.cls-63{fill:#fdfdfd;}.cls-64{fill:#690103;}.cls-65{fill:#090708;}.cls-66{fill:#c69e8f;}.cls-67{fill:#232525;}.cls-68{fill:#713628;}.cls-69{fill:#2f2d2e;}.cls-70{fill:#dcb1a6;}.cls-71{fill:#530801;}.cls-72{fill:#86ae42;}.cls-73{fill:#98b0c3;}.cls-74{fill:#2c2c2c;}.cls-75{fill:#030305;}.cls-76{fill:#cdd3d9;}.cls-77{fill:#2e2e2e;}.cls-78{fill:#624314;}.cls-79{fill:#6f392a;}.cls-80{fill:#672d21;}.cls-81{fill:#6f0000;}.cls-82{fill:#8ca2b0;}.cls-83{fill:#f69e29;}.cls-84{fill:#470101;}.cls-85{fill:#cd9986;}.cls-86{fill:#660c0d;}.cls-87{fill:#7f8b90;}.cls-88{fill:#312f30;}.cls-89{fill:#48261e;}.cls-90{fill:#bbd5eb;}.cls-91{fill:#507f0b;}.cls-92{fill:#6d3423;}.cls-93{fill:#491406;}.cls-94{fill:#2f2d2f;}.cls-95{fill:#fbd75a;}.cls-96{fill:#333132;}.cls-97{fill:#642c1e;}.cls-98{fill:#6d3729;}.cls-99{fill:#67331e;}.cls-100{fill:#302e2f;}.cls-101{fill:#6a3026;}.cls-102{fill:#628338;}.cls-103{fill:#110f10;}.cls-104{fill:#6f3d1e;}.cls-105{fill:#cc9987;}.cls-106{fill:#010101;}.cls-107{fill:#3c3c3c;}.cls-108{fill:#683426;}.cls-109{fill:#6f3e2d;}.cls-110{fill:#6d3224;}.cls-111{fill:#040203;}.cls-112{fill:#060606;}.cls-113{fill:#0c0a0b;}.cls-114{fill:#6a3624;}.cls-115{fill:#c59d8d;}</style></defs><path class="cls-16" d="M87.67,770.47c.88-2.22-.31-5.14,2.28-6.79,6.73-17.53,11.82-35.83,23.66-50.99l-.13,.19c4.96-15.77,13.98-29.26,25.02-41.14,9.17-9.86,13.5-21.3,15.62-34.07,1.2-7.25,2.65-14.43,6.33-20.93,5.55-3.96,8.98-8.16,3.98-15.25-1.89-2.67-.48-6.63-.25-10.02,.93-16.42,3.46-32.66,4.72-49.02,1.16-15.16-2.22-29.5-6.88-43.69l.06,.14c-5.28-12.48-3.39-24.75,1.07-36.95,1.48-1.38,3.26-1.76,5.22-1.54,28.48,14.43,57.35,27.89,88.26,36.56,6.31,1.77,12.59,3.48,19.06,4.47,1.19,.38,2.24,.98,3.19,1.79,2.75,3.15,3.45,6.76,2.47,10.78-13.41,54.62-27.81,108.96-43.56,162.97-6,20.58-20.91,32.56-35.36,45.69-2.46,3.29-4.38,6.93-6.63,10.37-20.22,32.63-34.25,68.1-47.77,103.8-6.01,15.86-11.66,31.85-16.73,48.04-4.05,12.94-5.5,13.85-20.05,13.41-16.63-3.5-31.22-11.21-44.56-21.55-6.53-5.68-6.98-12.69-4.45-20.35l-.02,.09c1.3-2.98-.79-6.84,2.42-9.31l-.05,.13c2.95-27.03,14.02-51.62,23.08-76.81Z"/><path class="cls-106" d="M326.14,141.59c2.58-2.75-.32-7.09,2.83-9.68,4.13-10.12,7.06-21.2,19.51-24.76,2-1.17,4-2.35,6-3.52,5.78-5.78,13.07-7.64,20.84-7.16,9.23,.57,18.66-2.14,27.68,1.68,2.55,3.11,6.07,1.32,9.14,1.8,15.99,1.51,27.54,10.25,36.72,22.73,2.5,3.4,4.91,6.84,7.99,9.75,9.63,9.09,8.45,21.48-7.38,23.53-11.93,.43-23.91-.04-35.64,3.12-6.32,1.7-11.64,4.39-13.82,10.96-2.77,8.35-7.07,7.91-12.5,2.53-1.37-1.36-2.62-2.86-4.14-4.04-6.19-4.84-11.44-3.22-10.43,4.2,3.08,22.56-13.9,27.76-28.5,35.01-12.27,6.1-12.76,5.85-8.43,19.1,5.01,15.33,5.93,30.99,5.25,46.89-2.24,17.42-8.2,33.28-19.7,46.82-7.48,9.24-16.44,16.29-28.42,18.47-4.53,.82-9.69,1.48-12.93-2.61-2.97-3.76,.78-6.98,2.19-10.45,3.67-9.06,4.12-18.68,3.87-28.36-.49-16.68-.41-33.35-.08-50.02-.05-6.06-.99-12.02-2.06-17.97-.6-17.23-5.67-34.07-4.62-51.46,1.26-8.21,2.5-16.5,8.05-23.16,2.9-3.48,6.12-6.82,11.41-5.91,1.48-.28,2.96-.56,4.44-.84,3.28-3.28,7.6-2.44,11.58-2.84,4.03-.41,8.32,.07,11.14-3.82Z"/><path class="cls-50" d="M439.85,691.31c3.5-3.95,3.34-8.64,2.74-13.43-.64-5.09,1.13-9.83,2.17-14.7,.94-.95,1.98-1.68,3.16-2.27,5.73-1.94,7.19-6.4,7.28-11.83,.1-6.17,.08-12.34,.08-18.52,.09-77.15-.18-154.3,.18-231.45,.05-11.85,2.28-13.36,17.5-11.6,5.89,2.1,7.65,7.32,9.08,12.56,13.83,50.62,28.5,101.01,42.41,151.62,1.36,4.95-.9,10.06,1.68,14.7l-.03-.1c3.36,5.02,3.03,11.07,4.63,16.58-.32,5.77,1.97,10.91,3.91,16.13,5.54,10.44,8.27,21.7,9.85,33.31l-.28,.72,.58,.51c4.56,7.22,8.48,14.59,5.44,23.57-5.87,4.53-11.84,8.66-19.63,4.15-.89-15.59-7.04-29.91-11.11-44.7-17.68-64.28-35.78-128.44-53.75-192.64-.68-2.43-1.57-4.8-4.4-7.04v10.63c0,63.34,.07,126.69-.03,190.03-.04,25.33,2.47,50.73,1.38,75.86-.48,10.97-3.65,22.6-3.77,34.17-.04,4.24,.23,8.48,.36,12.71-.13,59.36-.26,118.73-.41,178.09-.02,7.71-.12,15.42-.18,23.13-1.44,1.15-2.62,.93-3.54-.66-3.08-6.19-2.15-12.87-2.16-19.38-.08-66.5,.06-133-.21-199.5-.02-6,2.8-13.45-4.9-17.56-2.81-.53-5.62-1.06-7.54-3.5-.38-.78-.16-1.3,.65-1.59,.72-2.82,.79-5.56-1.11-8.02Z"/><path class="cls-94" d="M357.18,705.7c-3.89,11.34-7.69,22.7-9.57,34.6-.67,.36-.79,.86-.36,1.49-1.5,15.84-5.02,31.1-13.2,44.98-.24,1.27-.47,2.54-.71,3.81-6.02,33.64-14.52,66.57-27.85,98.14l.04-.12c-.65,4.96-1.22,9.96-2.38,14.8-2.01,8.4-2.66,15.49,6.83,20.51,5.64,2.98,6.24,9.42,4.42,15.5-1.69,5.65-5.34,10.19-11.37,9.92-11.06-.51-14.43,5.96-16.88,15.01-1.58,5.84-4.2,12.46-12.89,8.01-.72-1.42-1.43-2.84-2.15-4.27,6.7-18.4,6.6-18.01-11.06-22.54-13.25-3.39-26.57-4.59-40.05-3.52-7.05,.56-10.38-2.16-12.62-8.57-5.45-15.59-9.2-31.05-1.36-46.94,10.63-3.16,16.21,5.19,22.52,10.64,10.99,9.49,22.28,17.93,37.05,20.25,6.21,.98,12.4,1.6,16.85-4.34,11.24-32.54,18.65-66.15,28.22-99.14,10.86-37.43,20.1-75.32,31.3-112.66,6.29-2.71,10.88,.43,15.21,4.44Z"/><path class="cls-69" d="M565.73,770.47c-3.38-20.41-10.86-39.73-15.91-59.69-.79-3.1-2.81-3.06-5.06-3.25,3.71-7.62,10.22-6.05,16.57-5.07,6.95,17,11.91,34.65,16.78,52.33,5.38,19.57,7.72,39.93,15.44,58.9,4.99,12.25,6.37,25.34,8.72,38.2-.38,4.92,1.27,9.34,3.33,13.67,1.27,1.33,1.8,2.92,1.75,4.73-.31,3.4-.18,6.69,2.53,9.27,2.88,5.06,2.78,10.94,4.45,16.33l-.02-.06c6.99,10.03,4.94,22.53,9.08,33.34-.43,.61-.31,1.09,.35,1.44,6.78,9.77,8.56,21.27,11.07,32.48,1.05,4.7,.84,9.63-4.67,11.59-5.88,2.09-8.91-2.22-10.18-6.68-3.98-13.94-9.88-27.49-9.79-42.38l.06,.14c-4.54-4.69-2.61-11.28-4.91-16.63,.37-.69,.25-1.27-.37-1.75-5.1-9.62-9.2-19.53-8.87-30.71,.39-.7,.26-1.28-.39-1.74-3.84-4.19-3.92-9.46-4.19-14.67,.4-.66,.26-1.19-.41-1.58-2.28-1.94-.09-5.17-2.06-7.2l.06,.15c-8.76-17.88-14.37-36.66-16.09-56.54l.23-.81-.6-.59c-3.83-4.32-2.77-10.06-4.36-15.03-2.88-2.09-2.33-5.25-2.55-8.17Z"/><path class="cls-26" d="M110.95,895.95c.29,11.36,9.59,18.18,13.87,27.53,2.3,2.33,6.52,3.61,5.3,8-1,3.61-4.47,3.97-7.51,4.16-25.45,1.6-58.29-21.8-57.4-51.27-.75-.71-1.5-1.42-2.24-2.13,.53,.12,1.03,.04,1.5-.24,1.07-2.41,1.52-5.23,4.27-6.55,13.23,8.57,26.98,16.05,42.21,20.51Z"/><path class="cls-75" d="M586.2,310.15c-5.52,5.5-8.94,11.5-9.71,19.86-.96,10.45-9.9,14.15-19,8.99-6.24-3.55-12.18-7.63-18.26-11.47,5.17-6.45,13.53-10.6,14.49-20.09,2.28-5.92,3.23-14.42,11.5-13.45,8.5,1,18.66,1.09,23.02,11.44-.11,1.19-.5,2.27-1.17,3.26-.8,.19-1.09,.68-.87,1.47Z"/><path class="cls-24" d="M586.96,306.98c-5.01-9.26-14.71-9.85-23.06-10.44-5.79-.41-5.86,7.41-7.53,12.12-3.51,.56-3.84-2.09-4.49-4.42,3.06-12.15,3.51-24.16-1.92-35.87,3.65-.27,7.31-.81,10.89,.47,8.57,1.6,17.14,3.19,25.71,4.79,1.21,.21,2.42,.41,3.62,.62,3.32,11.34,5.62,22.58-3.21,32.73Z"/><path class="cls-88" d="M491.41,136.91l6.94,2.25c1.09,12.26-4.25,22.99-8.54,33.84-1.97,4.97-6.15,5.23-9.99,1.09-5.87-3.2-7.39-7.35-4.59-13.9,3.15-7.38,5.06-15.28,7.51-22.96,2.89-.1,5.78-.21,8.67-.31Z"/><path class="cls-61" d="M439.85,691.31c2.36,.42,5.84-.84,6.57,2.35,.89,3.85-3.26,4.09-5.46,5.67-3.75-1.45-2.71-4.71-2.84-7.53,.57-.18,1.15-.34,1.73-.49Z"/><path class="cls-63" d="M537.92,195.14c-3.93,3.15-7.84,3.27-11.74-.06l.19-.3c3.82-3.08,7.61-3.12,11.37,.1l.17,.27Z"/><path class="cls-45" d="M208.49,876.99c-12.64-10.49-11.41-26.09-13.93-39.94-5.7-31.34-2.7-62.69,2.43-93.87,1.23-6.93,1.39-13.98,2.21-20.95,1.37-5.64,6.97-7.23,10.77-9.88,19.24-13.46,24.86-34.29,30.64-54.89,9.98-35.53,19.54-71.19,28.81-106.91,3.37-12.97,4.46-26.49,9.87-39.01,.87-2.01-.88-5.14-1.41-7.76,.98-1.04,2.19-1.63,3.61-1.79,3.98,.11,6.5,2.21,7.92,5.82,3.07,10.46-1.18,20.67-1.06,31.07,.23,20.86-.35,41.74,.16,62.6,.72,29.39-3.61,58.6-2.63,87.98,.3,9.06-3.6,17.35-6.11,25.84-12,40.62-14.95,82.79-21.69,124.31-2.15,13.25,.3,27.12-5.54,39.83-14.13,11.17-30.85,10.23-44.04-2.45Z"/><path class="cls-81" d="M280.35,503.49c-.83,.1-1.65,.19-2.48,.29-.76-.09-1.53-.14-2.29-.16-29.19-7.77-57.19-18.85-84.98-30.55-5.68-2.39-10.55-6.12-15.9-9.04-3.17-2.83-7.15-4.68-10.12-7.68-4.36-4.4-8.15-11.92-2.74-15.1,12.46-7.34,10.47-22.91,21.54-31.65,8.26-6.52,8.1-21,13.44-31.34,7.82-15.14,27.62-17.26,37.79-3.51,2.31,3.12,3.73,6.77,5.85,10,8.58,13.07,20.31,14.26,30.59,2.9,3.37-3.73,7.8-4.77,12.1-6.38,6.23-2.99,9.17-9.51,14.43-13.53,4.66-3.84,11-5.63,14-11.5,4.11-5.87,8.01-11.94,14.61-15.46,6.21-3.82,12.07-11.7,19.5-1.74,.31,1.28,.03,2.42-.81,3.44-27.6,11.39-37.9,37.45-49.14,61.38-7.03,14.97-5.61,33.1-7.82,49.84-2.2,16.64-2.72,33.56-7.57,49.8Z"/><path class="cls-64" d="M284.88,382.93c-6.65,2.7-12.33,5.42-15.71,13.25-3.02,6.99-22.78,2.26-29.38-6.48-1.15-1.52-1.97-3.32-2.78-5.06-3.64-7.84-7.66-16.37-17.2-16.93-11.5-.68-20.93,8.73-25.47,21.21-2.99,8.21-2.46,17.52-8.78,24.85-2.3,2.67-6.08,2.92-6.96,4.63-1.84,3.58-10.94,6.63-2.04,12.62,3.54,2.38,.27,6.81-2.24,6.52-6.46-.75-10.86,1.3-12.05,7.29-1.36,6.85,4.49,9.98,9.1,13.45,1.52,1.14,2.95,2.39,4.42,3.59-2.32,2.02-4.64,1.57-6.96-.01-1.35-.02-2.7-.05-4.05-.07-12.12-8.45-9.31-17.44-1.93-27.71,21.98-30.6,35.42-65.51,49.37-100.12,8.34-10.98,14.28-10.96,22.13,1.25,6.75,10.49,16.25,19.16,18.8,32.55,1.52,7.97,8.57,12.28,17.52,12.17,4.85-.06,10.13-1.07,14.21,3Z"/><path class="cls-71" d="M168.83,461.86c2.32,0,4.64,0,6.96,.01,23.42,14.94,49.58,23.49,75.6,32.38,8.18,2.79,17.24,3.4,24.19,9.37-24.85-2.43-47.29-12.56-69.75-22.32-12.76-5.54-26.62-9.25-36.99-19.44Z"/><path class="cls-89" d="M161.95,617.33c.53-8.16,1.45-16.26,4.23-24.03-.16,6.65,.3,12.96,11.11,14.17-6.56,4.22-10.95,7.04-15.33,9.86Z"/><path class="cls-29" d="M953.26,684.45c18.87,.08,37.74,.44,56.6,.1,7.59-.14,11.22,1.49,10.69,10.13-.73,11.89-.51,23.88,.02,35.8,.33,7.43-1.91,10.27-9.67,9.98-13.46-.52-26.95,.08-40.43-.12-5.68-.08-9.31,1.36-7.65,7.77,4.32,16.66,5.41,34.03,11.03,50.4h-.1c4.84,36.65,13.5,72.59,20.08,108.91,1.78,9.84,3.89,19.63,5.49,29.5,.51,3.11,2.34,7.51-2.37,8.93-5.18,1.56-6.5-2.95-7.75-6.55-9.73-28.03-19.07-56.2-29.11-84.12-13.42-37.32-24.59-75.43-39.6-112.18-1.22-11.91,7.94-19.44,12.21-29.04,4.95-5.49,7.54-12.38,11.01-18.75,2.34-4.3,3.92-9.33,9.54-10.74Z"/><path class="cls-93" d="M927.56,592.02l2.46,2.53c.3,3.39-2.86,3.89-4.71,5.77,4.61,.66,9.51-3.35,13.8,.82,17.09,20.09,19.61,42.67,11.49,67.08-3.64,1.04-5.97-1.22-7.82-3.62-18.72-24.28-44.71-27.52-72.6-25.12-3.41,.29-6.74,1.58-10.21,.67-2.62-1.74-5.05-2.3-6.78,1.22-1.49,.65-2.95,.6-4.39-.11-1.38-1.13-1.24-3.07-2.46-4.55,.52,2.56,.76,4.92-1.48,6.66-.96,.55-1.99,.86-3.1,.92-2.36-.2-4.12-1.38-5.45-3.27-.8-1.5-.45-3.11-.41-4.61-.31-.59-.54-1.29-.7-2.02-.24,.66-.12,1.33,.37,2.08,.68,5.7-9.87,5.15-6.65,12.19,.02,2.67-.76,5.12-1.99,7.46-.62,.87-1.45,1.45-2.46,1.76-6.44-1.44-4.49-9.09-8.91-11.98,.08-.68,.25-1.4,.08-1.97-.08-.26-.62,.05-.61,.66,0,.71,.14,1.42,.28,2.16,.62,3.08,6.03,5.09,2.42,8.93-3.44,3.65-6.18,.03-8.97-1.64-2.27-1.36-5.06-1.91-6.68-4.28,4.43-20.32,28.12-40.7,48.32-41.42,3.04-.11,6.18,1.02,9.16,.64,6.71-.86,10.03,12.23,17.41,4.83,4.68-4.7,7.3-11.46,10.84-17.29,.36-.41,.73-.82,1.09-1.23,6.52-2.3,13.86-2.31,19.54-6.97,1.84-.65,5.15-1.16,5.34-.09,1.73,9.85,7.12,2.9,11,2.63,1.14-.12,2.06,.27,2.77,1.15Z"/><path class="cls-57" d="M934.75,714.91c-4.75,9.36-9.49,18.71-14.24,28.07-10.6,18.18-21.49,36.21-31.65,54.63-3.25,5.89-5.33,7.63-10.04,1.73-16.24-20.33-36.83-36.89-51.16-58.88,6.72-.43,12.2,3.96,18.56,4.84,15.52,2.14,30.93,3.68,42.93-9.73,.44-.96,.95-1.87,1.49-2.78,2.61-3.94,6.8-6.27,9.92-9.7,2.57-2.43,5.08-4.91,7.52-7.47,4.05-3.96,8.04-7.96,11.91-12.1,7.7-6,12.13-16.1,22.87-18.31,5.76,1.24,4.8,4.58,2.79,8.47-3.65,7.06-6.89,14.34-10.89,21.22Z"/><path class="cls-105" d="M762.71,809.42c3.48-19.94,6.98-39.87,10.43-59.82,.52-2.99,.75-6.03,1.12-9.05,.27-.55,.53-1.1,.79-1.65,9.22-8.96,20.65-5.52,31.2-4.79,6.43,.44,5.65,6.88,5.23,11.86-12.42,36.69-23.82,73.73-38.15,109.77-3.94,9.91-5.24,20.8-9.96,30.58-2,4.14-3.13,10.51-8.49,9.16-5.83-1.47-4.37-8.08-3.95-12.91,1.57-18.31,4.7-36.37,9.61-54.07,1.76-6.34,1.6-12.71,2.17-19.08Z"/><path class="cls-105" d="M774.26,740.55c-16.13-.08-32.27-.42-48.39-.13-6.65,.12-9.82-1.43-9.51-8.88,.52-12.66,.53-25.36,0-38.02-.31-7.41,2.74-9.06,9.45-8.94,14.58,.25,29.18-.18,43.77-.34,2.8-1.47,4.71-.61,5.89,2.22-.28,6.52,.56,13.15-1.65,19.51-3.39,3.42-6.76,6.5-8.23,11.69-2.19,7.72-2.27,13.36,6.99,15.74,3.44,.88,7.25,2.61,2.18,6.71l-.51,.45Z"/><path class="cls-83" d="M948.69,675.34c.04,1.58,.08,3.17,.12,4.75-1.31,4.4-4.9,5.36-8.8,5.87-11.9,4.91-24.41,6.35-37.14,6.57-5.36-.89-10.72,1.4-16.08,.05q.76-7.19,10.08-7.68c-4.45-4.57-11.43-.33-15.86-4.68,6.2-10.18,16.93-7.43,26.1-9.13,1.33-.25,2.55,1.51,4.05,.29,1.46,.18-.75-1.93-.12-.51,.24,.55-.13,.89-.97,.58-23.03-8.42-43.19-2.62-61.64,12.22-3.27,2.63-7.05,4.63-11.24,5.63-14.72,2.06-28.88,6.35-43.02,10.76-1.14,.45-2.32,.75-3.52,.97-3.67,.51-7.34,.61-10.95-.45-1.79-.72-3.14-1.84-3.42-3.89,.95-2.37,2.93-3.79,4.87-5.25,22.86-12.41,45-26.88,70.36-27.02-6.75-2.97-17.98,4-26.23-4.33-.66-1.14-.65-2.28,.03-3.4l.96,.14c.7-2.79,2.66-4.23,5.27-4.99,21.18-3.64,42.12-8.6,64.04-5.55,15.83,2.2,29.09,9.73,42.63,17.06,4.39,3.2,8.86,6.34,10.48,11.98Z"/><path class="cls-52" d="M774.66,686.83c-1.69-.86-3.39-1.73-5.08-2.59-1.72-3.08-2.3-6.51,1.92-7.29,8.77-1.63,7.71-8.07,7.79-14.12,.11-8.47,.4-16.95,.14-25.42-.41-13.06,.41-25.32-8.14-37.95-12.33-18.22-9.55-40.58-7.55-61.74,.43-4.52,1.75-9.49,8.42-8.34,14.78,2.08,15.23,2.42,15.28,18.08,.09,26.64-.35,53.24-1.77,79.88-.92,17.19,.36,34.64,1.08,51.96-.86,4.68-3.38,7.83-8.22,8.81-1.45,.09-2.74-.34-3.86-1.28Z"/><path class="cls-115" d="M762.71,809.42c5.97,11.75-.59,23.01-3.38,33.39-4.55,16.94-5.69,33.61-5.69,51.21,8.3-5.54,37.03-83.16,55.68-149.08,1.91-2.25,1.54-8.01,7.11-4.58-20.89,60.16-41.77,120.32-62.67,180.47-2.4,6.92-4.97,13.79-7.27,20.75-1.17,3.54-3.42,5.16-6.96,4.46-3.79-.75-3.15-3.6-2.62-6.39,8.25-43.48,15.38-87.18,25.79-130.23Z"/><path class="cls-42" d="M783.79,682.18c0-45.15-.26-90.3,.23-135.44,.1-9.48-.84-16.37-11.87-17.36,33.01-.29,29.85-4.46,30.4,28.82,.29,17.62-.42,34.67-12.19,49.28-4.23,5.25-2.79,12.29-2.33,17.96,1.35,16.62-3.38,33.87,4.59,49.85,.88,7.2-3.4,7.79-8.83,6.88Z"/><path class="cls-43" d="M816.43,740.36c-3.7-.54-4.68,3.15-7.11,4.58,.39-6.18-.38-9.71-8.71-8.87-8.75,.88-17.7-.5-25.86,4.04,1.45-3.82-.59-3.98-3.79-4.62-10.05-2.01-12.3-6.76-8.72-16.39,1.17-3.15,2.1-6.41,2.91-9.67,1.31-5.36,4.35-2.57,7.02-1.62,.35,.41,.7,.82,1.06,1.23,4.41,9.08,22.62,13.88,30.88,8.11,2.11-1.33,3.8-.34,5.43,.96,1.59,1.6,2.1,4.07,4.24,5.23,1.67,.76,3.47,1.25,4.95,2.39,.62,.77,1.04,1.64,1.31,2.58-.09,4.24,6.74,6.75,3.02,11.9l-6.63,.15Z"/><path class="cls-72" d="M893.07,558.89c6.22-1.17,3.36-6.12,3.51-9.36,.4-8.68,.14-17.39,2.21-26.52,1.87,7.48,3.77,14.96,5.6,22.46,1.78,7.29,3.5,14.59,5.47,22.82,8.89-7.63,10.31-18.48,17.16-25.71,5.02-.44,4.88,3.16,5.09,6.48-3.09,13.37-6.17,26.75-10.39,39.84-4.27,2.93-7.88-2.05-11.99-1.02-6.08-9.36-14.52-17.36-16.67-28.98Z"/><path class="cls-91" d="M893.07,558.89c5.87,9.19,15.1,16.49,15.96,28.48-.4,.37-.8,.73-1.19,1.1-5.35,5.11-13.08,4.53-19.1,8.05h-.92c-6.97-9.17-13.94-18.35-20.91-27.52-.11-4.42,2.55-4.02,5.49-3.16,4.81,.62,8.79,4.62,14.28,3.62,.28-7.29-6.55-12.21-5.91-19.35,1.65-1.35,3.33-1.49,5.04-.12,2.42,2.97,4.85,5.94,7.27,8.91Z"/><path class="cls-90" d="M823.06,740.21c1.2-4.71-7.89-5.83-4.01-11.47,2.68-2.72,6.18-3.51,9.52-2.47,20.94,6.54,42.36,9.54,64.26,9.37-9.73,12.27-33.54,18.89-48.11,12.53-5.69-2.48-12.51-2.67-17.06-7.7-1.53-.08-3.06-.17-4.6-.26Z"/><path class="cls-5" d="M830.23,654.47c-1.32,.79-2.64,1.57-3.96,2.36-.43-2.63-1.08-5.3,1.53-7.3,1.33-1.46,2.77-2.79,4.58-3.63,2.99-1.98,6.48-2.09,9.86-2.6,.68-.06,1.3-.28,1.85-.67,1.44-.95,2.99-1.56,4.72-1.64,1.47-.37,2.94-.73,4.4-1.1,1.55-.7,2.45-3.31,4.8-1.62,16.73-2.31,33.38-4.51,50.21-.1,18.01,4.72,30.99,16.15,42.35,30.04,.38,2.65,.27,5.16-1.9,7.12-3.97-2.2-6.98-5.4-9.47-9.13-26.08-24.33-56.29-27.82-89.24-17.84-6.59,2-13.39,3.34-19.75,6.1Z"/><path class="cls-36" d="M920.5,589.25c3.25-12.93,6.51-25.87,9.76-38.8,1.84-4.59,.19-9.85,2.73-14.3,2.05-3.11,2.05-7.58,6.16-9.33,2.99,7.9-2.5,14.35-3.9,21.47-1.84,9.34-4.76,18.49-7.6,27.6-1.71,5.47,.46,10.76-.09,16.12l-1.1-.25-1.13,.1c-1.99-.18-3.87-.55-4.83-2.62Z"/><path class="cls-19" d="M825.31,656.69c.22,.8,.44,1.6,.66,2.39-2.07,4.96-6.84,5.98-11.14,7.71-3.41,.93-6.85,2.24-10.01-.66-.08-.79-.15-1.58-.23-2.37,1.24-3.05,.3-5.3-2.51-6.86-1.65-2.38-1.69-4.76,0-7.14,5.95-1.65,9.62,2.46,14.01,7.04,1.09-5.29-3.63-7.81-2.21-11.52,.85-.64,1.68-.62,2.5,.06,5.93,1.46,4.49,8.71,8.92,11.34Z"/><path class="cls-62" d="M804.82,666.13c3.38,1.09,6.14-.9,9.11-1.84,2.97,7.53-3.94,8.9-7.77,11.63-8.29,5.91-17.54,10.49-24.65,18.03-.9,1.76-2.46,2.35-4.31,2.43-7.59-2.68-1.64-6.24-.62-9.48,2.56-1.33,5.61-1.9,7.21-4.71,3.48-1.61,7.43-2.61,8.84-6.88,4.95-1.88,9.65-4.09,12.19-9.17Z"/><path class="cls-76" d="M941.77,684.81c2.35-1.57,4.7-3.15,7.05-4.72,2.92,0,4.28,1.56,4.45,4.36-7.66,9.24-9.67,21.93-18.51,30.46,1.05-7.81,6.18-13.85,9.12-20.85,1.42-3.38,3.38-6.64-2.62-7.18-.6-.64-.72-1.16-.36-1.56,.3-.34,.59-.51,.89-.51Z"/><path class="cls-109" d="M939.11,601.14c-6.28-.38-12.18,4.53-18.81,1.32,.42-6.13,6.83-4.9,9.73-7.91l-.38-.45,.25-.53c4.4-.23,7.52,1.56,9.12,5.76,.07,.6,.1,1.21,.09,1.82Z"/><path class="cls-102" d="M885.8,549.98c-1.68,.04-3.36,.08-5.04,.12-2-3.64-3.99-7.27-6.86-12.49,7.79,2.46,10.4,6.9,11.9,12.36Z"/><path class="cls-56" d="M934.95,536.34c-.65,5.01-1.69,9.89-4.69,14.11-.48-2.87,.06-6.16-3.23-7.88,1.65-3.04,3.31-6.07,4.96-9.11,2.34-.43,3.49,.35,2.96,2.88Z"/><path class="cls-3" d="M802.09,656.89c2.74,.39,6.79-1.56,7.91,1.53,1.31,3.63-3.32,3.72-5.4,5.33-2.14-1.81-2.63-4.23-2.51-6.86Z"/><path class="cls-36" d="M939.02,599.32c-3.04-1.92-6.08-3.84-9.12-5.76,8.21-6.27,8.41,.16,9.12,5.76Z"/><path class="cls-55" d="M934.95,536.34c-.99-.96-1.97-1.92-2.96-2.88,1.48-3.19,1.45-8.02,7.16-6.64-1.4,3.17-2.8,6.34-4.2,9.51Z"/><path class="cls-49" d="M872.39,565.83c-2.09,.6-4.44,.74-5.48,3.16-2.48-1.33-3.86-3.41-4.32-6.44,4.04-1.05,7.03,.79,9.81,3.28Z"/><path class="cls-34" d="M502.58,260.18c15.06-5.34,28.71-4.18,39.85,8.62-.14,.36-.18,.9-.44,1.04-16.77,9.08-24.7,25.5-33.94,40.83-3.33,.51-6.65,.82-9.24,3.53-7.44,7.8-17.9,11.25-26.16,17.89-.84,.74-1.7,1.45-2.58,2.14-4.72,2.87-5.84,7.34-5.89,12.5-.04,4.42,.59,9.04-2.31,12.98-.98,.62-2.03,.75-3.13,.41-3.23-3.41-2.39-7.78-2.82-11.87-.22-2.16,.23-5.05-2.89-5.29-2.7-.21-3.81,2.14-4.47,4.38-1.17,3.97-.12,8.44-2.68,12.11-.85,.74-1.83,1.04-2.95,.87-3.48-2.35-2.19-6.83-4.32-10.36-3.59,2.64-1.92,7.3-4.59,9.8-.94,.59-1.95,.76-3.03,.46-3.18-16.17-14.04-5.51-21.67-6.16-22.72-4.42-45.13-9.86-66.3-19.5-5.35-.67-10-3.43-15.05-5.01-4.46-2.58-11.01-3.67-8.26-11.44,11.36-12.63,15.48-28.36,18.98-44.36,1.07-2.11,.4-4.44,.82-6.59,.65-3.32-2.5-8.45,2.6-9.59,4.33-.97,5.66,3.98,7.69,7,12.94,11.55,26.39,22.45,40.67,32.3,5.34,3.69,10.25,8.42,17.55,7.62,11.69,2.68,22.87-.63,34.13-2.98,4.5-2.41,9.62-2.66,14.36-4.19,5.2-1.51,10.23-3.68,15.48-4.88,11.73-2.68,19.24-9.01,21.33-21.34,.87-5.16,3.85-9.26,9.26-10.94Z"/><path class="cls-85" d="M349.8,264.58c-2.42-1.77-4.84-3.54-7.62-5.57-3.65,4.48,.92,10.8-3.49,14.76,.88-19.12-1.69-37.69-9-55.49-1.92-4.67-1.16-7.46,4.32-9.58,10.41-4.01,20.59-8.7,29.85-15.15,5.23-3.64,8.41-7.85,5.94-14.57-.52-1.41-.84-3.07-.65-4.55,.65-5.25,.08-12.05,6.09-13.82,5.6-1.65,9.67,3.31,12.8,7.66,1.78,2.47,2.69,5.62,7.24,6.51,1.28-14.68,11.64-19.02,24.33-19.98,9.98-.76,20-.97,30.01-1.43-1.41,13.84-6.65,26.93-8.93,40.35-2.51,14.77-9.83,23.59-20.52,32.91-13.72,11.97-26.71,20.84-45.32,12.64-4.61-2.03-8-.84-10.96,3.13-5.25,7.05-11.2,13.63-14.09,22.17Z"/><path class="cls-84" d="M319.7,318.12c-.95,7.18,6.97,5.49,9.34,9.35,6.82,6.48-.38,10.84-2.43,15.98-6.67,2.62-8.13,10.43-13.88,13.97-2.42,1.91-5.26,1.06-5.29-1.39-.17-14.16-10.79-11.79-19.26-12.41-4.24-.31-8.51,.37-11.78-3.21-1.79-2.37-2.76-4.97-2.16-7.99,.81-2.74,2.59-5.02,3.63-7.65,2.91-8.47,2.45-16.9-2.34-24.34-5.79-9-5.6-20.71-13.73-28.6-2.65-2.57-1.02-5.74,.9-8.32,2.52-3.38,6.07-5.84,8.48-9.35,1.66-1.88,3.66-2.98,6.24-2.77,1.87,.38,3.22,1.39,3.91,3.2,.59,2.97-.56,5.63-1.44,8.33-1.95,5.66-1.8,11.35-.24,17.06,2.06,6.95,6.04,12.94,9.65,19.11,.59,11.2-.01,22.1-6.69,31.84-3.88,5.67,.92,5.49,4.34,5.54,14.41,.19,24.07-8.22,32.74-18.36Z"/><path class="cls-86" d="M277.86,252.94c-1.89,.07-3.62,.47-4.62,2.32-10.59,4.54-15.3,17.27-27.42,19.68-1.16-.03-2.17-.44-3.03-1.21,10.62-18.78,26.81-32.06,43.92-44.43,2.05,5.6,3.38,11.3,2.31,17.31-1.37,2.52-2.83,4.93-6.12,5.16-1.78-.06-3.61-.33-5.03,1.17Z"/><path class="cls-70" d="M282.8,251.05c2.07-1.48,4.14-2.96,6.21-4.43,.1,17.5,.2,35,.3,52.49-7.19-4.01-9.89-10.88-11.67-18.34-1.38-6.15-1.38-12.3,0-18.45,.87-2.33,1.74-4.66,2.6-6.99,1.25-1.19,.48-3.58,2.55-4.28Z"/><path class="cls-14" d="M550.19,656.27c9.1,4.58,11.29,12.15,6.19,21.38-5.62,4.43-11.56,7.61-19.02,4.91-2.17,.21-4.38,1.17-6.44-.4,1.64-6.32-2.48-10.95-4.72-16.13,.42-2.55,2.34-3.7,4.39-4.74,7.08,.48,12.97-3.71,19.6-5.01Z"/><path class="cls-25" d="M558.89,684.51c6.05,5.59,11.62,11.25,2.44,18.81-5.37,2-11.54,.86-16.57,4.2-1.46-.1-2.93-.21-4.39-.31,.53-5.51-1.83-10.53-2.66-15.81,.75-.74,1.51-1.49,2.26-2.23,5.68-4.08,11.47-7.72,18.91-4.66Z"/><path class="cls-100" d="M558.89,684.51c-6.3,1.55-12.61,3.11-18.91,4.66-.87-2.21-1.75-4.41-2.62-6.62,6.34-1.64,12.68-3.27,19.02-4.91,.84,2.29,1.67,4.58,2.51,6.86Z"/><path class="cls-96" d="M526.2,666.02c10.36,2.81,11.42,8.34,4.72,16.13-7.46-3.66-12.2-8.11-4.72-16.13Z"/><path class="cls-15" d="M537.72,691.41c6.8,4.28,7.44,9.58,2.66,15.81-8.38-4.01-10.02-9.15-2.66-15.81Z"/><path class="cls-46" d="M65.21,884.36c6.82,23,19.49,40.54,43.97,47.01,2.94,.78,5.92,1.6,8.93,1.91,3.31,.35,7.36,1.47,9.55-1.77,2.16-3.19-2.91-4.94-2.84-8.05,8.89,1.5,16.26,6.53,23.16,11.59,7.55,5.53,6.66,14.07,4.17,22.21-2.24,7.31-8.09,8.42-14.63,8.45-18.96,.07-36.75-2.84-50.36-17.97-3.82-4.24-8.38-7.84-13.78-10.09-11.11-1.93-13.35-9.93-13.35-19.47,1.29-11.34-1.71-23.34,5.18-33.82Z"/><path class="cls-8" d="M208.49,876.99c13.51,6.28,27.13,10.66,41.44,2.26,10.16,14.02,21.26,27.17,35.14,37.74-13.56,7.26-26.38,3.44-38.8-2.99-9.6-4.96-17.06-12.87-25.36-19.6-4.41-3.58-8.65-7.65-14.88-7.88,.82-3.17,1.64-6.35,2.45-9.52Z"/><path class="cls-32" d="M445.21,663.33l-.25,2.86c-1.16,.7-2.16,.52-2.99-.55,2.14-15.75,.84-31.58,.88-47.36,.19-65.59,.08-131.19,.08-197.83-4.68,2.5-4.39,6.46-5.31,9.74-20.59,73.4-41.17,146.81-61.78,220.2-.83,2.95-1.95,5.82-2.94,8.73-7.83,4.6-15.13,1.1-22.51-1.43,1.69-11.66,6.84-22.31,9.95-33.59,21.24-77.08,43.68-153.82,63.99-231.16,.78-2.98,1.03-6.24,4.92-7.03,4.3-.55,8.48,.13,12.63,1.06,5.33,1.19,7.62,4.51,7.51,9.98-1.7,84.04-.17,168.1-.78,252.15-.04,4.95,.42,10.14-3.41,14.23Z"/><path class="cls-112" d="M350.4,656.87c7.72-1.46,14.91,2.47,22.5,2.25,1.72,1.35,3.44,2.7,5.17,4.05-1.35,5.51-4.63,10.7-2.73,16.74v.04c-8.4,1.97-16.82,4.27-25.15-.33-8.98-8.77-8.92-14.71,.21-22.74Z"/><path class="cls-23" d="M357.18,705.7c-5.47,.4-9.55-3.33-14.4-4.8-8.73-5.76-6.96-14.5,4.16-20.55,7.38,.89,14.77,1.8,19.42,8.76,.84,.78,1.69,1.57,2.53,2.35-2.32,4.22-2.79,8.86-3.02,13.54-2.62,3.7-5.78,.62-8.69,.7Z"/><path class="cls-48" d="M366.37,689.11c-6.35-2.31-12.69-4.62-19.04-6.93-1.4-2.53-1.05-4.24,2.17-4.59,8.54,1.6,17.1,2.95,25.84,2.36-1.83,4.19-12.03,.19-8.97,9.17Z"/><path class="cls-74" d="M375.33,679.91c-8.56-7.13-4.34-12.16,2.73-16.74,6.12,6.73,7.3,12.65-2.73,16.74Z"/><path class="cls-107" d="M365.88,705.01c-5.77-6.03-4.06-10.39,3.02-13.54,6.04,6.09,4.36,10.45-3.02,13.54Z"/><path class="cls-113" d="M441.97,665.64c1,.18,2,.36,2.99,.54,4.06,4.88,1.24,8.37-2.37,11.69-6.18-3.77-6.96-7.82-.63-12.24Z"/><path class="cls-4" d="M502.58,260.18c-1.91,2.82-5.18,5.49-5.53,8.49-2.83,24.57-22.02,27.04-40.47,30.69-3.09-4.17-.78-8.24,.53-12.11,4.56-13.56,7.95-27.48,12.81-40.94,2.91-8.06,4.91-16.02-1.66-23.39-2.88-17.87,7.2-32.67,11.56-48.83,4.97,1.6,7.67-.18,9.14-5.25,2.89-9.96,6.23-19.8,9.39-29.69,15.44,3.14,30.89,6.2,46.3,9.47,5.83,1.24,9.15,5.13,6.89,10.96-4.57,11.77-6.9,24.43-13.8,35.29-3.79-.03-7.58-.07-11.37-.1-7.68-3.73-15.36-7.45-23.04-11.18-6.29,.3-7.7,5.21-9.52,9.88-3.86,9.94-5.54,20.71-11.38,29.89-.66,7.05,5.76,6.12,9.32,7.65,16.05,6.88,16.08,6.67,11.2,23.08-.56,1.87-2.83,3.92-.38,6.08Z"/><path class="cls-77" d="M468.26,222.92c7.26,2.5,10.61,5.74,7.42,14.75-7.18,20.28-12.83,41.1-19.1,61.69-4.64,1.54-9.27,3.08-13.91,4.62-9.33,3.42-14.94-.89-18.7-9.01-1.91-2.34-1.7-4.77-.82-7.54,6.28-19.68,12.53-39.38,18.55-59.14,1.36-4.46,3.62-6.11,8.28-5.74,6.06,.48,12.17,.28,18.27,.37Z"/><path class="cls-13" d="M423.97,294.96c6.05,3.39,10.15,10.81,18.7,9.02-9.67,3.89-20.03,3.34-30.1,4.57-2.71,.33-4.24-1.35-4.56-4.05,5.45-2.96,12.49-3.26,15.96-9.54Z"/><path class="cls-111" d="M445.21,663.33c-.05-79.88-.13-159.76-.11-239.65,0-9.43-2.73-18.95,1.49-28.31,1.73-3.84-1.22-5.29-4.92-5.59-5.29-.43-10.56-1.21-15.83-1.85-9.8-4.96-10.38-6.82-4.99-16.06,19.8-3.66,39.73-1.68,59.62-1.18,2.32,.06,4.37,1.35,6.07,3.02,1.78,9.1-2.31,14.28-10.97,16.39-15.29-.68-14.98-.66-15.64,15.59-2.18,53.23-.45,106.48-.93,159.71-.26,28.56-.6,57.15,.23,85.69,.33,11.48-3.65,14.64-13.99,12.24Z"/><path class="cls-65" d="M456.52,941.81c-9.14,4.74-8.52-1.96-8.55-7.46-.23-38.89-.32-77.79-.56-116.68-.23-38.88-.58-77.76-.88-116.63,10.06-1.95,10.16,4.23,10.15,11.6-.17,76.39-.13,152.78-.15,229.17Z"/><path class="cls-103" d="M458.6,683.27c-.75,4.38-4.2,3.6-7.05,3.71-3.19,.12-6.18-.31-6.2-4.57-.02-4.24,2.87-4.72,6.13-4.64,3.72,.1,6.62,1.29,7.13,5.5Z"/><path class="cls-35" d="M508.04,310.67c5.17-19.13,14.32-34.99,34.39-41.87,.83,.02,1.65,.04,2.48,.06,1.56-.88,3.07-.95,4.49,.31,8.72,4.87,10.02,12.52,7.95,21.38-1.05,4.49-2.22,8.94-3.34,13.41-3.28,17.21-9.41,21.53-23.09,16.29-7.63-3.19-15.25-6.38-22.88-9.57Z"/><path class="cls-58" d="M419.84,373.73c-.29-7.97,2.34-13.62,11.29-14.27,.71,.43,1.46,.5,2.23,.2,3.21-2.56,6.45-2.35,9.7-.07,.64-.08,1.28-.2,1.9-.37,4.71-3.21,9.38-3.11,14.03,.12,.63,.23,1.28,.32,1.95,.27,2.62-2.1,5.53-2.85,8.81-1.95,1.15,.5,2.23,1.15,3.23,1.91,9.43,0,14.8,3.89,13.53,14.13l-66.67,.02Z"/><path class="cls-54" d="M472.99,359.58c-.83,.05-1.67,.1-2.5,.15-5.17-9.25-5.2-18.49,0-27.74,.73-.16,1.44-.12,2.15,.12,.27,20.97,.02,19.84,20,15.34,11.35-2.56,23.69-.86,35.57-.74,3.52,.04,5.39,2.46,5.04,6.27-.32,3.41-2.49,4.79-5.44,4.58-13.27-.95-26.62,2.09-39.96-1.91-4.39-1.32-12.1-5.26-14.85,3.94Z"/><path class="cls-67" d="M530.92,320.25c13.84,3.29,18.2-6.88,23.09-16.29,.12,1.9,.46,3.69,2.36,4.7-2.19,9.48-7.3,16.31-17.13,18.86-3.88-1.16-7.45-2.68-8.32-7.27Z"/><path class="cls-37" d="M482.44,223.37c.9-13.48,7.47-25.32,11.06-38.03,1.93-6.83,6.13-3.48,9.83-1.75-5.95,9.79-7.77,21.13-11.71,31.67-1.75,4.68-3.5,8.36-9.19,8.11Z"/><path class="cls-34" d="M549.4,269.17c-1.5-.1-3-.21-4.49-.31,5.31-3.61,10.63-3.1,15.94-.02-3.82,.11-7.63,.22-11.45,.33Z"/><path class="cls-41" d="M242.79,273.73l2.63,.14c5.5-1.14,7.36,1.99,8.46,6.69,2.07,8.84,5.84,16.38,15.08,20.19,4.51,1.85,6.7,6.23,6.92,11.14,.25,5.49,2.51,10.34,4.33,15.35-.88,2.21-2.42,3.76-4.62,4.65-3.44,3.71,0,5.14,2.3,6.96,2.2,2.97,6.06,3.33,8.28,2.09,8.94-5,15.15,5.19,23.63,3.56,3.66-.71,2.91,3.49,1.45,5.88-1.8,2.95-5.08,5.94,1.47,7.04-.93,8.33-9.07,8-13.93,11.59-1.3,.84,.35-.19-.96,.64-22.67,14.41-27.57,12.48-33.65-13.33-.44-1.88-.45-4.16-1.84-5.38-11.65-10.21-14.28-26.06-23.78-37.66-4.83-5.9-9.2-12.5-7.14-20.99,2.62-6.9,6.32-13.14,11.36-18.56Z"/><path class="cls-20" d="M231.44,292.29c3.3,10.32,12.26,18.28,15.48,27.36,6.29,17.73,23.66,29.8,24.05,49.96,.16,8.21,6.08,7.63,10.48,5.16,5.56-3.12,11.55-3.93,17.35-5.76-4.36,4.92-7.28,11.28-13.92,13.92-3.06,0-6.13,0-9.19,0-19.19,0-22.55-4.87-28.62-23.15-3.98-12-13.23-22.73-23.31-31.28-5.88-4.99-5.74,7.49-11.53,5.46,4.4-14.81,11.15-28.54,19.21-41.67Z"/><path class="cls-40" d="M298.01,500.91c-4.38,.38-9.03,.07-11.87,4.5-1.93-.64-3.86-1.28-5.79-1.92,.09-26.92,6.81-53.26,7.86-79.93,.95-24.09,16.23-40.44,26.03-59.78,6.2-12.22,17.13-19.35,30.48-22.57,4.08,9.64-1.56,16.24-7.75,21.87-11.53,10.5-21.96,21.33-25.7,37.3-2.18,9.32-3.26,18.71-4.41,28.15-2.59,21.36-2.9,42.91-5.68,64.25-.38,2.95,.18,6.32-3.18,8.13Z"/><path class="cls-6" d="M326.61,343.45c-1.53-5.68,5.64-10.04,2.42-15.98,4.63,1.46,9.26,2.92,13.9,4.39,2.45,1.85,4.98,3.66,2.77,7.28l-.63-.37c-8.2-6.5-12.51,2.29-18.46,4.68Z"/><path class="cls-109" d="M920.5,589.25c1.61,.87,3.22,1.75,4.83,2.62-4.77,3.98-9.89,7.04-16.29,6.74-1.84-5.26,6.85-3.78,4.62-8.52-.31-.65-2.85-.26-4.36-.35-.55-.36-.78-.78-.7-1.24,.08-.5,.2-.74,.35-.74l.07-.38c4.02-.57,7.8,.34,11.47,1.88Z"/><path class="cls-101" d="M866.02,621.19c6.61,1.33,13.11,3.62,18-4.32-3.31,11.61-9.27,12.84-18,4.32Z"/><path class="cls-12" d="M913.77,628.9c-2.17,.63-4.32,1.44-6.53,1.86-2.91,.55-6.13,1.55-8.43-1.25-1.2-1.46,.31-2.8,1.2-3.98,2.56-3.4,5.73-3.54,8.96-1.25,1.79,1.27,3.18,3.09,4.75,4.67l.04-.04Z"/><path class="cls-78" d="M908.96,587.75c.13,.66,.25,1.32,.34,1.99-5.17,7.36-12.99,6.69-20.56,6.78,5.47-5.85,12.67-7.71,20.22-8.76Z"/><path class="cls-60" d="M913.73,628.93c4.01,.51,8.47-1.42,12.5,2.6-2.59,4.18-5.64,6.1-10.9,4.47-5.26-1.63-2.32-4.48-1.57-7.11l-.04,.04Z"/><path class="cls-19" d="M832.67,647.71c-1.27,1.54-2.86,2.24-4.86,1.82-2.28-4.16-9.78-9.72,2.82-9.84,1.38-.01,2.75-2.36,4.12-3.63,.71-.86,1.5-.98,2.38-.24,.02,1.56,.04,3.11,.07,4.67-.95,2.75-2.79,4.95-4.51,7.21Z"/><path class="cls-98" d="M947.16,645.63c-.09,3.06-2.32,4.01-4.57,3.8-2.94-.27-6.41-1.01-6.91-4.59-.37-2.62,2.12-3.97,4.47-4.05,3.36-.12,5.5,2.03,7.01,4.84Z"/><path class="cls-68" d="M909.02,620.43c5.24-6.28,9.1-5.42,13.73-.83-4.45,3.61-8.36,2.51-13.73,.83Z"/><path class="cls-104" d="M848.82,640.98c-1.13,1.82-2.88,1.87-4.72,1.64,.29-.71,.8-1.4,.82-2.12,.13-3.29-5.72-4.48-3.11-8.55,.39-.6,2.2-.68,3.2-.43,5.5,1.38,3.04,6.08,3.8,9.45Z"/><path class="cls-92" d="M896.79,622.53c-1.06,2.9-2.98,5.2-6.31,5.63-1.55,.2-3.41-.88-3.16-2.55,.51-3.34,2.97-5.23,6.27-5.62,1.5-.18,3.1,.26,3.19,2.54Z"/><path class="cls-80" d="M919.29,607.48c-3.57,3.88-7.09,3.81-11.39-.03,4.02-4.25,7.53-4.66,11.39,.03Z"/><path class="cls-18" d="M923.77,625.47c4.62-5.09,7.84-3.01,10.96-.79,1.31,.93,.48,2.13-.36,2.76-4.02,3.02-6.8-.09-10.59-1.97Z"/><path class="cls-97" d="M884.72,614.11c2.97-5.18,6.1-7.11,11.34-5.07-2.1,5.06-5.39,6.77-11.34,5.07Z"/><path class="cls-39" d="M897.87,615.48c2.64-3.43,4.9-5.43,8.35-3.78,.76,.36,1.65,2.24,1.36,2.7-2.32,3.62-5.46,3.56-9.71,1.08Z"/><path class="cls-110" d="M921.58,611.46c5.02-2.13,8.23-.51,11.1,2.03,.24,.21-.48,2.36-1.09,2.55-4.11,1.32-6.87-.91-10.02-4.58Z"/><path class="cls-11" d="M816.39,645.35c-.83-.02-1.67-.04-2.5-.07-2.25-2.14-3.28-4.61-.03-6.4,2.18-1.2,4.61-.09,5.76,2.19,1.68,3.3-1.03,3.7-3.24,4.28Z"/><path class="cls-28" d="M935.86,636.65c-1.26,3.57-4.01,4.23-6.52,4.81-1.59,.37-3.18-1.08-2.6-2.66,.94-2.55,2.93-4.64,5.93-4.43,1.15,.08,2.21,1.54,3.19,2.28Z"/><path class="cls-10" d="M837.11,635.83c-.79,.08-1.58,.16-2.37,.24-2.96-.57-6.08-1.08-5.8-5.12,.04-.63,1.54-1.66,2.36-1.66,4.21,.03,5.62,2.8,5.82,6.54Z"/><path class="cls-53" d="M935.82,617.89c4.5-.73,7.05,.5,8.79,3.21,.16,.25-1.19,2.1-2,2.24-3.68,.63-5.34-1.82-6.79-5.45Z"/><path class="cls-2" d="M832.67,647.71c.02-3.34-.44-6.97,4.51-7.21,1.69,.93,3.38,1.87,5.07,2.8-3.19,1.47-6.39,2.94-9.58,4.41Z"/><path class="cls-31" d="M896.2,604.29c3.37-3.47,5.98-4.08,9.09-1.91-2.07,4.09-5.04,3.96-9.09,1.91Z"/><path class="cls-10" d="M822.95,635.88c-1.13-1.8-2.2-2.9-2.57-4.21-.59-2.11,.98-2.54,2.6-2.23,1.8,.34,2.42,1.85,2.13,3.44-.16,.87-1.11,1.6-2.16,3.01Z"/><path class="cls-38" d="M852.86,629.6c-.65-.5-2.34-1.17-2.83-2.35-.76-1.78,.77-2.68,2.45-2.66,1.73,.03,2.76,1.12,2.94,2.83,.14,1.25-.27,2.22-2.55,2.17Z"/><path class="cls-99" d="M832.9,624.29c.67,1.65-.64,1.9-1.63,2.05-1.81,.27-3.8,.35-4.56-1.76-.18-.51,.86-1.94,1.6-2.19,1.92-.66,3.52,.18,4.59,1.9Z"/><path class="cls-59" d="M859.27,617.46c1.02,1.54,2.2,2.62,2.45,3.89,.26,1.32-1.17,1.75-2.16,1.1-1.12-.74-1.96-1.91-2.91-2.89,.73-.58,1.45-1.16,2.63-2.11Z"/><path class="cls-79" d="M944.51,631.9c-.52,1.82-2.05,1.74-3.42,1.64-1.42-.1-3.15-.43-2.3-2.45,.33-.77,1.66-1.44,2.61-1.56,1.58-.2,2.76,.66,3.1,2.37Z"/><path class="cls-104" d="M858.03,638.26c-1.6,.54-3.2,1.08-4.8,1.62,.48-1.98-2.48-4.87,.77-5.86,2.85-.88,3.8,1.73,4.04,4.24Z"/><path class="cls-108" d="M848.62,619.82c-1-1.06-2.64-2.02-2.68-3.03-.07-1.95,1.9-1.91,3.08-1.29,1.12,.59,1.87,1.9,2.78,2.89l-3.18,1.42Z"/><path class="cls-114" d="M865.71,631.07c-1.02,.49-1.94,1.29-2.87,1.31-1.98,.05-2.4-1.56-1.98-3.04,.2-.73,1.64-1.77,2.14-1.6,.79,.27,1.27,1.46,2.71,3.33Z"/><path class="cls-17" d="M902.24,724.12c-1.71,4.53-6.54,5.85-9.44,9.15-15.33,3.85-29.36-4.06-44.21-4.93-8.77-.51-17.47-1.93-26.28-.94-3.97-2.66-.87-4.49,.97-5.96,3.9-3.14,8.51-5.07,13.16-6.86,3.7-1.09,7.32-2.51,11.26-2.55,15.06,1.71,29.76,5.8,44.93,6.91,3.84,.28,7.47,1.49,9.61,5.18Z"/><path class="cls-87" d="M941.77,684.81c-.11,.71-.29,1.39-.52,2.07-6.83,6.22-13.65,12.44-20.47,18.66-14.67-.02-29.29-.62-43.69-3.82-1.67-6.57,3.63-7.31,7.61-8.28,5.74-1.41,11.41-3.27,17.32-3.95,13.25-1.56,26.51-3.12,39.76-4.68Z"/><path class="cls-82" d="M876.5,700.72c14.87,.56,30.02-1.39,44.28,4.82-3.02,4.73-7.05,8.44-11.66,11.56-1.28,.9-2.76,1.75-4.24,1.42-14.01-3.15-28.5-4.32-41.92-9.97,.23-10,6.6-9.41,13.54-7.83Z"/><path class="cls-21" d="M821.29,726.45c24.68-6.56,47.79,3.37,71.51,6.82,0,.78,.02,1.57,.03,2.36-14.57,10.9-28.66-2.09-43.12-.94-10.59,.85-19.65-7.91-30.67-5.96-.22-.72-.39-1.45-.5-2.2,.89-.88,1.8-.95,2.74-.08Z"/><path class="cls-73" d="M862.58,707.7c15.98,.82,31.19,5.42,46.53,9.4-1.48,3.14-3.89,5.37-6.88,7.02-18.56-3.14-37.13-6.27-55.69-9.41,2.73-8.33,8.26-10.25,16.04-7.01Z"/><path class="cls-43" d="M776.59,686.89c1.46,3.08-4.34,6.62,.61,9.48,.65,.78,1.3,1.56,1.94,2.34,.33,5.05-1.16,8.71-6.94,9.11l-.03-.03c1.1-6.96-2.41-14.46,2.49-20.96,.65-.12,1.29-.1,1.93,.06Z"/><path class="cls-95" d="M811.5,726.13c-2.66-1.53-2.17-4.38-2.85-6.75-.48-9.49,8.38-13.2,12.32-19.96,4.44-5.53,10.3-9.17,16.46-12.42,10.89-8.22,24.37-12.45,34.33-22.19,1.08-1.06,3.58-1.08,5.36-.92,12.46,1.11,25.18,1.11,37.31,8.1-11.63,2.87-23.2,2.49-33.32,7.92-14.46,8.57-30.22,14.79-43.67,25.24-8.79,6.83-16.24,15.3-25.94,20.98Z"/><path class="cls-47" d="M811.5,726.13c18.67-22.23,41.57-38.1,69.61-46.22,7.53,.4,16.47-3.98,20.69,6.51-4.86,2.09-12.3-2.36-15.9,5.03-7.62,8.33-19.03,9.41-28.25,14.73-6.65,3.84-13.94,6.53-20.4,10.79-5.27,3.26-11.76,4.45-15.97,9.48-.91,.03-1.82,.05-2.74,.08-2.35-.13-4.7-.27-7.05-.4Z"/><path class="cls-47" d="M839.8,659.08c37.54-12.77,71.91-8.34,101.87,17.98-8.72,8.16-25.62,9.08-39.72,1.66,4.04-2.18,8.26-.55,12.25-1.15,2.88-.43,5.24-1.47,5.95-4.56,.82-3.54-1.87-5.01-4.34-5.84-13.06-4.36-26.69-6.46-40.26-7.85-11.8-1.2-23.82-.25-35.75-.25Z"/><path class="cls-1" d="M830.23,654.47c30.39-17.55,61.58-19.91,93.33-4.19,6.72,3.33,12.56,8.54,15.66,15.93-7.48-1.26-13.13-6.32-19.66-9.53-26.29-12.9-53.22-8.03-80.19-3.32-3.02,.53-6.09,.75-9.13,1.11Z"/><path class="cls-22" d="M781.52,693.94c3.14-8.98,11.78-12.13,18.42-17.38,4.88-3.85,12.26-4.83,13.99-12.28,4.01-1.73,8.03-3.47,12.05-5.2,9.33,5.08,20.68-.08,30.11,6.19-27.59,2.82-50.77,16.54-74.57,28.66Z"/><path class="cls-33" d="M772.21,707.82c2.31-3.04,4.63-6.08,6.94-9.11,3.88,.02,7.76,.03,11.65,.05,5.59,5.48,10.91,11.16,13.84,18.62,.37,2.52,.74,5.03,1.11,7.55-4.91-.72-10.14-.62-14.61-2.42-3.52-1.42-6.64-3.45-10.63-3.09-9.35,.85-11.53-3.44-8.3-11.6Z"/><path class="cls-9" d="M804.64,717.38c-6.49-4.81-11.4-10.8-13.84-18.62,.79-.11,1.58-.22,2.37-.33,6.3-2.69,13.04-3.43,19.72-4.35,4.97-.68,9.12,.31,9.83,6.39-4.68,6.31-9.36,12.61-14.05,18.92-1.34-.67-2.68-1.34-4.02-2Z"/><path class="cls-30" d="M822.7,700.47c-5.09-6.74-12.16-4.48-18.55-3.53-3.65,.54-7.19,1.91-11,1.49,14.01-6.68,28.72-10.65,44.26-11.43-3.52,6-10.06,8.7-14.72,13.47Z"/><path class="cls-27" d="M837.26,716.97c9.27-9.16,21.79-12.48,32.93-18.28,5.11-2.66,10.47-4.84,15.71-7.25,5.35-.82,10.48-3.46,16.11-1.97-8.22,4.4-18.38,4.38-25.51,11.24-4.88,1.84-10.76,1.71-13.91,6.98-6.27,.23-11.48,2.87-16.05,7.01-3.09,.75-6.19,1.51-9.28,2.26Z"/><path class="cls-66" d="M345.7,339.14c0-2.78-.64-5.31-2.77-7.28,19.93,7.99,40.5,13.82,61.45,18.37,2.27,.49,4.63,.48,6.04,2.74-7.3,7.66-15.37,7.95-24.73,3.65-9.24-4.25-18.98-7.41-28.5-11.05-3.83-2.14-7.66-4.29-11.49-6.43Z"/><path class="cls-44" d="M470.49,331.98c0,9.25,0,18.49,0,27.74-3.18-.04-6.36-.07-9.54-.11,.03-5.28,.46-10.59,0-15.83-.65-7.31,1.76-11.58,9.54-11.8Z"/><path class="cls-7" d="M443.07,359.59c-3.23,.03-6.47,.05-9.7,.07,.01-3.08,.27-6.18-.02-9.24-.45-4.76,2.78-6.26,6.25-6.58,5.24-.47,3.17,3.99,3.45,6.51,.34,3.04,.04,6.15,.02,9.23Z"/><path class="cls-51" d="M280.22,327.25c-.66-.38-1.31-.78-1.98-1.14-9.93-5.21,.62-21.07-13.8-24.95-10.71-2.88-12.65-13.38-13.82-23.4-.17-1.48-3.39-2.61-5.2-3.9,10.69-4.08,14.67-18.21,27.82-18.61,.18,3.86-3.33,4.75-5.42,6.81-3.66,3.62-7.53,4.96-.36,11.45,6.67,6.03,7.08,18.51,11.74,27.37,4.75,9.03,4.25,17.44,1.03,26.35Z"/><path class="cls-51" d="M277.65,262.32c0,6.15,0,12.3,0,18.45-3.28-6.15-3.28-12.3,0-18.45Z"/><path class="cls-51" d="M277.9,338.85c-2.75-.19-5.43-.87-6-3.94-.48-2.58,1.89-2.69,3.7-3.01,.77,2.32,1.53,4.64,2.3,6.96Z"/><path class="cls-51" d="M282.8,251.05c-.85,1.43-1.7,2.85-2.55,4.28-.8-.8-1.59-1.59-2.39-2.39,.64-3.25,1.45-6.06,4.94-1.9Z"/></svg>