<?xml version="1.0" encoding="UTF-8"?><svg id="Layer_5" xmlns="http://www.w3.org/2000/svg" viewBox="0 0 1080 1080"><defs><style>.cls-1{fill:#517199;}.cls-2{fill:#030202;}.cls-3{fill:#496180;}.cls-4{fill:#040304;}.cls-5{fill:#5f84b5;}.cls-6{fill:#be9a88;}.cls-7{fill:#deb7a9;}.cls-8{fill:#638bbd;}.cls-9{fill:#d0b6af;}.cls-10{fill:#ba9588;}.cls-11{fill:#6a94c8;}.cls-12{fill:#4d607e;}.cls-13{fill:#482c27;}.cls-14{fill:#6d99d2;}.cls-15{fill:#93b7dc;}.cls-16{fill:#deb7a8;}.cls-17{fill:#d0b7b0;}.cls-18{fill:#d3b8b2;}.cls-19{fill:#181818;}.cls-20{fill:#2b2b2b;}.cls-21{fill:#2c2c2c;}.cls-22{fill:#2e2e2e;}.cls-23{fill:#49688e;}.cls-24{fill:#6e99d1;}.cls-25{fill:#597dad;}.cls-26{fill:#5579a6;}.cls-27{fill:#5577a4;}.cls-28{fill:#949494;}.cls-29{fill:#75564e;}.cls-30{fill:#010101;}.cls-31{fill:#3d4a61;}</style></defs><path class="cls-30" d="M462.48,979.53c2.29-1.16,4.58-2.31,6.86-3.47,1.14-1.15-.66-.23,.72-.94,27.87-14.27,20.63-40.2,18.96-62.74-.84-11.26-3.62-22.93-4.87-34.48-4.9-45.4-13.74-90.05-25.35-134.17-15.45-58.68-22.16-118.78-29.32-178.81-2.15-18.02-4.06-36.06-5.41-54.15-.33-4.37-1.65-8.85,1.6-12.78,6.51-4.05,14.05-3.21,21.07-3.7,32.34-2.28,64.5-6.51,96.84-8.67,10.33-.33,13.22,6.35,15.43,15.01,14.79,57.91,22.89,117.06,33.25,175.8,11.62,65.89,24.75,131.53,31.74,198.16,3.27,31.21,6.62,62.45,5.02,93.92-.29,5.67,1.86,9.19,6.94,11.34,4.44,1.88,9.06,3.49,12.68,6.89,5.44,13.7,1.34,22.63-12.51,26.4-10.39,2.83-21.4,3.28-31.25,8.16-1.21,.59-2.47,1.05-3.75,1.46-10.08,2.89-20.13,6.08-30.85,4.92-8.09-.88-15.26-3.76-17.9-12.12-2.81-8.88,.77-17.11,8.53-20.64,20.25-9.2,20.17-23.46,16.23-42.69-10.83-52.86-22.25-105.65-30.23-159.06,.38-4.72-1.16-9.23-1.31-12.62,1.8,6.93,.24,15.65,3.54,23.67,4.8,45.19,4.38,90.68,8.45,135.91,1.12,12.42-.48,24.91-.49,37.38,0,8.93-3.46,16.53-12.71,20.02-1.98,.71-4.03,1.05-6.11,1.19-8.48-.51-16.64,1.16-24.67,3.74-1.86,.61-3.75,1.05-5.68,1.33-9.17,2.89-18.45,5.35-28,6.61-6.39,.85-12.78,.74-19.04-1.12-6.9-2.05-12.46-5.79-14.4-13.09-2.02-7.6,2.88-11.88,8.39-15.65,2.38-1.49,4.92-1.75,7.6-1.01Z"/><path class="cls-22" d="M592.27,481.48c4.17,19.72,8.34,39.44,12.5,59.16,.22,2.26,.43,4.52,.65,6.79,3.66,11.01,2.63,22.94,6.78,33.92,1.54,4.07,1.58,8.73-.14,13.03-1.25,3.1-1.77,6.56-.88,9.47,5.44,17.77,2.02,36.48,6.05,54.31,2.29,10.13,.84,20.43,1.8,30.62,1.21,12.91,6.14,25.27,5.21,38.36,.26,4.04-.75,8.38,2.75,11.65,3.33,6.22,5.71,12.65,4.44,19.9-.45,.72-.35,1.34,.31,1.88,2.65,2.68,3.26,6.26,4.33,9.65,.49,1.73,.79,3.49,.97,5.27,.62,8.26,3.21,16.3,2.91,24.67,.04,1.2,.09,2.4,.15,3.6,.09,6.06-.75,12.26,2.66,17.83,1.19,2.35,1.65,4.82,1.31,7.44-3.28,6.03-.2,11.31,2,16.69,1.09,4.58,1.1,9.24,1.14,13.9-.18,5.95-.58,11.91,1.43,17.68,.82,4.07,1.11,8.18,1.02,12.32,.37,11.9-1.48,23.89,1.51,35.69,.75,3.69,1.04,7.39,.23,11.11-3.3,13.84-1.26,27.85-1.15,41.77,.03,3.58,1.45,7.07-1.55,10.09-.8-.11-1.65-.06-2.39-.34-20.53-7.7-19.27-7.75-19.87-29.15-.94-33.27-3.26-66.53-7.54-99.59-5.21-40.15-11.54-80.12-18.66-119.97-5.71-31.96-11.31-63.93-16.94-95.9-8.56-48.56-15.85-97.35-28.45-145.15-1.87-7.08-4.39-9.45-10.8-9.37,.73-4.08,4.13-4.56,7.24-5.01,9.91-1.43,19.65-3.67,29.44-5.73,4.38-.92,8.86-1.57,11.58,3.41Z"/><path class="cls-14" d="M409.55,496.22c-4.94-26.89-.71-53.86,.05-80.72,.73-25.77,1.23-51.56,1.99-77.33,.12-3.96-.64-8.12,1.77-11.76,5.32,9.16,5.76,19.23,6.39,27.96,1.24-3.88-1.75-10.1,1.45-16.85,6.15,5.33,7.18,11.32,7.26,17.05,.12,9.61,2.89,18.05,8.02,26.06,3.93,6.15,6.32,13.35,7.34,20.31,2.13,14.67,9.94,25.75,19.11,36.51,2.4,2.81,3.83,3.44,6.71,1.16,5.92-4.69,13.48-7.37,17.46-14.4,.48-1.02,1.01-2.02,1.54-3.02,1.96-3.46,5.29-5.57,8.08-8.2,4.29-3.82,8.24-7.98,12.29-12.04,2.6-2.49,5.16-5.03,7.65-7.63,3.36-3.27,6.66-6.6,9.89-10.01,6.57-6.52,13.15-13.01,19.52-19.74,7.01-6.86,13.49-14.32,21.89-19.6,3.15-1.98,6.3-5.46,10.29-1.25,3.42,12.35-.7,25.15,2.32,37.51,1.33,28.17,5.13,55.95,14.49,82.65,2.54,7.26,1.14,12.88-2.79,18.63-3.19-3.11-6.38-1.26-9.9-.47-12.73,2.85-25.56,5.23-38.35,7.79-39.23,4.44-78.53,8.17-117.97,10.15-5.51-.84-11.47,1.01-16.49-2.74Z"/><path class="cls-28" d="M549.05,792.24c-3.58,2.56-.44,6.83-2.49,9.78-2.46-8.02-2.5-16.15-.18-24.59,.89,4.94,1.78,9.88,2.67,14.82Z"/><path class="cls-2" d="M556.96,114.25c10.87-.17,21.74-.39,32.62-.49,1.99-.02,4.3-.16,5.92,.74,11.75,6.51,6.09,17.86,7.1,27.25,.74,6.89,.55,16.48-7.56,16.9-16.31,.85-33.91,6.57-48.56-6.47-7.13-2.22-6.67,2.9-6.85,7.2-.35,8.63,.42,17.27-.27,25.9-4.24,11.61-10.1,21.92-21.98,27.42-33.47,10.97-56.5-9.92-52.85-47.16-2.06,6.17,.26,14.23-5.47,20.18-9.62,1.24-7.53-6.57-7.62-11.1-.3-15.65,.05-31.32-.02-46.98-.02-4.8,.44-9.66-1.39-14.28-2.72-9.58-5.62-19.15-4.32-29.32,4.99-6.67,10.07-2.54,14.64,.32,8.32,5.21,17.72,8.62,25.27,15.07,1.04,.14,2.08,.34,3.1,.52,5.44,.14,3.92-6.75,8.22-7.98,5.25-.13,2.73,8.69,8.7,7.88,1.41-.48,2.79-.99,4.13-1.58,3.44-1.85,3.35-6.79,7.23-8.27,8.91-2.28,16.41-.7,21.41,7.75,.67,1.45,1.16,2.99,1.36,4.6q1.91,15.09,17.2,11.9Z"/><path class="cls-15" d="M536.66,186.34c.22-10.04,.53-20.08,.63-30.12,.09-8.39,3.31-9.13,9.19-4.03-7.37,7.56-6.83,27.68,1.57,33.95,14.18,10.58,28.48,21.63,45.73,26.38,14.12,3.89,19.07,13.28,21.1,26.01,5.58,35.04-5.04,66.09-25.37,93.74-6.54,8.89-9.11,17.15-8.65,27.45,.3,6.82-.16,13.67-.28,20.5-4.34-7.39-1.46-15.45-2.09-23.18-.44-5.49,.56-11.16-3.01-16.04-2.88-1.77-4.56-4.59-6.42-7.28-3.31-7.06-8.8-12.36-14.14-17.82-3.28-3.36-7.51-6.36-6.71-12.07,2.82-5.55,8-8.95,12.34-13.01,15.84-14.78,20.2-34,21.98-54.37,.62-7.11-2.01-12.22-8.22-16.04-10.59-6.52-20.59-13.97-31.25-20.4-5.27-3.18-8.94-6.91-6.43-13.66Z"/><path class="cls-4" d="M461.92,50.74c7.96-3.05,16.85-5.32,13.51-17.65,17.73,4.4,35.31,4.64,51.87,11.99,7.52,3.34,12.47,7.47,16.9,13.48,1.86,7.9,3.73,15.8,5.59,23.7,1.28,4.27,.47,8.65,.66,12.98,.36,7.94-3.4,9.92-10.4,7.1-4.71-13.41-15.07-20.2-28.12-23.8-10.06-13.69-25.78-15.24-40.5-19.19-4.2-1.13-11.94,.35-9.53-8.61Z"/><path class="cls-6" d="M539.36,99.18c5.94,3.53,10.45,4.1,10.41-4.96-.02-3.99,.02-7.99,.03-11.98,3.74,6.57,1.75,13.63,1.9,20.53,.1,4.45-1.12,9.78,5.27,11.47q-20.16,11.22-19.96-12.68c0-.79,.1-1.58,.15-2.38,.73-.79,1.47-.79,2.21,0Z"/><path class="cls-16" d="M461.92,50.74c-.29,4.11,2.82,4.07,5.54,4.67,7.42,1.63,14.77,3.59,22.23,4.98,10.51,1.96,18.22,7.53,23.35,16.82,4.43,4.35,6.56,9.08,2.41,14.83-1.62,2.99,2.01,8.52-4.45,9.17-1.74-.42-3.96-6.09-5.05,.47q-5.71,2.51-8.43-8.46c-3.55,2.61-1.18,6.98-3.28,10-3.5,5.01-4.61,2.13-5.74-1.44-1.08-.34,.22-2.45-1.64-2.21,.44,.86,.17,1.43-.83,1.71-1.64,1.79-5.04,4.23-5.69,1.71-3.45-13.2-18.97-9.24-25.12-18.43-1.28-1.92-4.46-3.54-7.6-2.23-15.62-1.07-25.87,9.03-36.71,17.79-15.27,12.35-30.42,24.86-49.28,32.29,13.01,6.68,27.36,9.73,39.94,16.85,4.39,2.48,9.99,3.85,10.69,10.27-12.9,22.18-12.55,47.07-14.69,71.45-.35,3.95,.09,8.21-3.86,10.9-3.34-10.6-13.66-13.95-21.18-20.1-20.29-16.57-38.12-35.55-55.6-54.92-3.49-6.3-7-12.58-10.47-18.89-5.92-10.77-5.69-20.46,4.03-29.34,20.17-18.43,43.75-31.35,68.2-42.89,10.18-4.81,20.71-8.85,30.93-13.58,13.72-6.35,27.78-10.8,43.13-9.05,3.46,.39,6.2-1.27,9.17-2.36Z"/><path class="cls-5" d="M393.71,241.87c1.02-15.18,2-30.37,3.07-45.55,1.02-14.37,6.95-26.99,14.26-39.08,1.54-1.27,3.2-1.36,4.94-.47,2.01,5.6-2.48,9.98-2.8,15.15-1,3.39-1.64,6.87-2.45,10.31-3.01,16.83,.59,32.21,6.94,48.11,6.04,15.12,16.4,28.39,19.14,44.87,.69,4.16,3.51,7.18,6.34,10.08,10.51,10.78,17.24,23,15.44,38.75-.58,5.12,2.71,9.22,4.99,13.39,13.54,24.68,22.44,51.46,34.8,76.67-1.01,3.83-5.41,4.27-7.25,7.27-9.06,1.71-12.63-4.8-14.37-11.28-5.24-19.6-18.79-35.1-25.4-54.19-5.2-15.01-13.25-29.06-17.8-44.57-2.66-9.07-4.87-18.52-12.1-25.94-6.2-6.36-1.25-15.66-3.97-23.23-.91-2.52,1-5.7-1.73-7.85-7.35-4.14-14.7-8.29-22.05-12.43Z"/><path class="cls-8" d="M415.76,254.3c.87,1.27,2.52,2.55,2.49,3.79-.44,18.61,13.56,32.1,17.38,48.93,5.51,24.3,20.59,44.58,26.9,68.42,.7,2.64,1.85,5.8,3.85,7.35,7.88,6.1,10.62,14.57,12.27,23.75,1.31,7.32,5.32,12.41,12.49,14.82,0,.81,.02,1.62,.02,2.43-3.31,2.26-6.46,4.71-10.14,6.47-6.91,3.3-13.36,.97-15.12-5.16-9.08-31.67-28.35-58.55-40.65-88.65-.93-2.27-1.56-4.57-1.03-7.05-.59,.33,2.9-4.65-1.41-.9-3.03,2.62-4.45-3.13-5-5.91-2.58-13.02-4.41-26.13-1.94-39.42l.04,.09c2.39-3.91,1.75-7.94,.43-11.99l-.59-16.97Z"/><path class="cls-11" d="M415.87,283.18c-1.1,14.17,2.22,27.8,5.08,41.49,.27,1.31,.18,4.03,2.14,.83,.57-.93,.66-2.15,1.6-5.45,3.03,23.84,16.51,40.73,26.14,59.46,6.77,13.17,12.06,27.03,16.27,41.3,1.75,5.91,4.43,11.49,12.68,6.61,3.34-1.98,7.56-2.45,11.37-3.61-3.87,12.03-19.24,12.26-24.11,23.4-.44,1-3.97,.34-3.96-1.1,.08-11.46-13.49-13.74-15.6-23.39-6.06-27.73-24.04-51.73-26.06-81.05-.34,5.59-.68,11.19-1.02,16.78-.41-11.2-9.39-20.49-7.04-32.04-.29-.65-.24-1.26,.14-1.86,2.35-4.76,1.72-9.6,.45-14.47-.02-9.01-1.61-18.13,1.9-26.9Z"/><path class="cls-8" d="M413.96,310.07c3.15,4.93,3.43,9.76-.45,14.47,.15-4.82,.3-9.65,.45-14.47Z"/><path class="cls-5" d="M416.34,271.28c3.09,4.11,3.48,8.13-.43,11.99,.14-4,.29-7.99,.43-11.99Z"/><path class="cls-1" d="M411.19,171.85c-.91-5.64,1.43-10.19,4.81-14.4,1.91-.92,3.39,0,4.83,1.11,12.07,11.26,15.05,27.41,20.67,41.67,9.83,24.95,20.94,49.36,30.76,74.31,3.97,10.08,6.39,20.68,11.22,30.49,2.93,5.95,2.69-3.35,4.33-.41,7.09,8,4.61,18.76,8.11,27.79,5.15,15.89,9.98,31.96,24.53,42.42-3.57,8.24-3.31,8.62,7.12,10.24-2.21,4.22-5.66,7.23-9.6,9.76-3.86,1-5.62,6.82-10.83,4.72-3.1-2.97-5.15-7.14-4.49-10.86,2.06-11.57-4.91-19.4-10.06-28.15-8.94-15.2-16.07-31.19-23.24-47.32-6.79-15.26-12.67-31.09-19.77-46.29-14.46-30.97-26.65-62.95-38.38-95.07Z"/><path class="cls-25" d="M498.38,414.1c-2.72-.21-4.01-1.69-5.03-4.29-6.53-16.66-17.04-31.6-21.59-49.12-1.91-7.37-5.32-14.12-10.22-19.61-9.64-10.81-3.02-25.17-9-36.79-2.2-4.27-3.57-8.88-7.19-12.28-7.06-6.62-14.61-12.89-12.66-24.34,.27-1.59-1.28-3.75-2.46-5.29-11.74-15.35-16.5-33.82-22.26-51.66-3-9.3-3.8-19.58,.83-29.18,4.15,10.6,10.87,19.83,15.87,30.03,10.03,20.47,14.82,43.12,26.84,62.68,4.49,7.97,3.2,17.82,8.36,25.57,.57,.93,1.03,1.93,1.42,2.95,1.21,4.54,1.08,9.5,4.31,13.41,.57,.95,1.04,1.94,1.45,2.96,4.49,18.05,10.87,35.22,22.47,50.09,3.05,3.91,4.35,8.61,4.48,13.56,.22,8.19,4.41,13.93,11.07,18.16,.97-.29,1.93-.35,2.92-.17,1.05,.05,1.91,.47,2.59,1.24-3.14,4.95-7.17,9.02-12.19,12.08Z"/><path class="cls-31" d="M571.12,333.02c2.95,1.84,4.19,4.61,4.37,7.97-9.42,8.35-18.84,16.71-28.26,25.06-3.89-1.04-9.36,7.11-11.87-2.04,.05-1.12,.33-2.18,.81-3.19,1.31-1.81,3.15-3.04,4.84-4.44,6.25-5.94,13.84-10.33,19.58-16.87,.72-.79,1.5-1.52,2.3-2.23,2.47-1.93,4.55-4.64,8.22-4.26Z"/><path class="cls-3" d="M537.15,363.37c1.72,7.08,7.82-2.36,10.08,2.67-6.56,6.34-13.12,12.69-19.68,19.03-3.44-2.39-6.39,4.51-9.82,.59-3.91-4.48-2.78-8,2.36-10.55,3.24-7.48,9.09-11.15,17.06-11.75Z"/><path class="cls-26" d="M510.57,402.02c-.82,0-1.64-.02-2.45-.03-.61-.54-.82-1.07-.61-1.61,.2-.54,.41-.8,.61-.8,3.39-1.35,5.52-5.31,9.84-4.75-1.76,3.12-4.14,5.6-7.38,7.18Z"/><path class="cls-24" d="M536.66,186.34c.35,4.7,2.21,7.95,6.69,10.53,9.75,5.62,19.08,12,28.47,18.23,14.39,9.55,16.52,15.03,13.42,31.95-4.39,24-15.34,43.85-35.85,57.82-.95,1.03-2.11,1.4-3.49,1.14-11.82-4.28-19.49-12.32-22.84-24.59-2.66-9.74-6.27-19.21-10.65-28.26-7.58-15.65-4.29-29.66,5.08-43.13,9.13-5.67,14.73-14.2,19.17-23.68Z"/><path class="cls-18" d="M517.49,210.02c-9.94,20.59-4.23,39.37,4.36,59.13,6.11,14.06,10.27,28.28,25.15,35.66,1.01,1.09,.97,2.14-.11,3.15-12.15-.41-20.35-6.15-24.54-17.73-4.11-11.37-8.47-22.64-13.68-33.58-4.56-9.57-8.16-19.49-4.46-30.31,2.09-6.13-2.2-5.31-5.75-5.77-11.65-1.51-21.29-6.75-29.31-15.55,16.61,19.37,20.47,42.35,20.84,67.12,.22,14.67,3.93,29.42,6.99,43.98,1.24,5.92,3.36,11.72,0,17.61-.96,1.06-2.04,1.21-3.24,.44-4.94-9.1-2.59-20.03-7.32-29.19-7.27-8.36-4.85-19.3-7.68-28.84,.98-22.91-3.87-44.11-16.53-63.7-5.41-8.37-8.19-18.34-3.13-28.5,.86-9.01,1.7-18.03,6.89-27.46-2.61,38.02,6.96,63.27,51.53,53.54Z"/><path class="cls-21" d="M531.02,153.2c-24.74-18.65-40.58-18.21-60.18,1.68-2.96-19.68,5.11-33.41,21.25-36.13,20.64-3.48,33.9,8.25,38.93,34.45Z"/><path class="cls-19" d="M476.76,174.39c6.11-15.82,13.72-22.39,26.03-21.87,12.46,.53,19.66,7.4,22.21,19.44-2.45,9.13-7.53,15.5-17.39,17.27-13.93,2.51-24.03-2.68-30.84-14.84Z"/><path class="cls-12" d="M459.06,183.93c-1.06,12.61,2.92,23.84,9.75,34.15,11.72,17.69,14.37,37.23,12.29,57.82-6.05-.38-7.4-5.55-6.95-9.45,2.24-19.09-8.76-34.12-16.15-49.56-7.76-16.2-13.63-33.29-22.93-48.88,3.49-4.3,8.53-.8,12.3-2.79,5.4-.37,5.99-3.96,5.92-8.36-.26-15.16-.36-30.33-.52-45.5,5.21,17.45,1.57,35.26,2.12,52.89,.17,5.56-.17,11.13-.22,16.7-.03,3.13,1.32,4.37,4.4,2.97Z"/><path class="cls-20" d="M476.76,174.39c1.5,.46,3.38,.49,4.45,1.44,18.49,16.31,28.22,15.48,43.78-3.87,2.43,17.67-6.07,30.04-21.47,31.25-14.88,1.17-26.53-11.38-26.76-28.82Z"/><path class="cls-10" d="M515.45,92.04c-.8-4.94-1.61-9.89-2.41-14.83,13.32,1.88,24.6,6.2,26.32,21.97-.74,0-1.48,0-2.21,0-5.33-8.15-13.4-7.98-21.7-7.15Z"/><path class="cls-13" d="M505.95,101.68c-.24-2.81-.88-5.67,1.31-9.16,1.44,3.34,2.59,6.02,3.74,8.69-1.68,.16-3.37,.31-5.05,.47Z"/><path class="cls-29" d="M486.03,101.27c-.58-2.55-1.16-5.11-2.16-9.51,4.61,3.24,5.44,6.23,4.63,10.02-.82-.17-1.65-.34-2.47-.51Z"/><path class="cls-17" d="M546.86,307.55c.04-.91,.08-1.82,.13-2.74,.79,.11,1.59,.13,2.39,.06,5.86,10.45,18.74,15.49,21.74,28.16-2.41,2.01-4.81,4.03-7.22,6.04-1.88-12.56-14.53-19.29-17.04-31.51Z"/><path class="cls-27" d="M508.11,399.58v2.41c-.81,0-1.61,.01-2.42,.02-5.13-2.44-8.05-6.71-8.59-12.12-1.03-10.29-5.09-19.41-10.86-27.6-9.77-13.88-14.33-30.14-21.73-45.08h0c-3.41-4.25-1.84-10.15-4.85-14.54h0c-5.14-8.19-3.19-18.96-9.69-26.65-8.78-4.97-8.5-14.87-11.8-22.63-8.51-19.96-13.36-41.65-28.13-58.55-3.82-4.37,3.33-9.29-1.25-13.31,.36-3.34-1.08-7.12,2.4-9.69,7.53,3.03,8.64,10.65,10.46,16.78,5.59,18.88,14.75,36.24,21.68,54.42,6.77,17.76,14.43,35.2,21.42,52.85,9.54,24.06,18.28,49.03,34.83,69.44,8.69,10.71,2.86,23.62,8.54,34.26Z"/><path class="cls-23" d="M447.37,165.23c-2.49,2.79-6.1,1.16-9.7,2.56,6.75,4.17,6.23,11.8,9.23,17.74,8.82,17.46,16.33,35.57,25.12,53.05,3.56,7.09,5.14,14.03,4.65,21.75-.36,5.67-.16,11.28,4.44,15.58,4.85,9.13,2.92,19.49,5.3,29.07-.09,1.2,.21,2.62-.32,3.58-2.46,4.43-2.61-.35-3.34-1.09-9.18-9.36-8.81-22.79-14.2-33.94-10.51-21.71-19.4-44.24-28.19-66.73-6.4-16.37-11.37-33.3-21.69-47.87,8.89,5.18,18.47,7.25,28.71,6.31Z"/><path class="cls-9" d="M493.72,334.16c.77,0,1.53,0,2.29,0,11.42,8.5,11.52,23.26,21.73,33.03,4.62-1.6,10.36-9.88,19.88-6.21-.16,.79-.31,1.59-.47,2.38-5.69,3.92-11.38,7.83-17.06,11.75-3.85,.86-7.54,.15-9.38-3.38-6.36-12.2-15.2-23.31-16.99-37.58Z"/><path class="cls-26" d="M464.51,317.21c6.87,3.12,7.18,10.54,9.64,16.11,6.46,14.66,15.63,27.75,22.71,42,4.21,8.47,1.06,19.39,8.84,26.68-1.73,2.05-3.47,4.1-5.2,6.14,.78-5.6-.56-9.64-5.11-12.41-2.53-1.54-4.53-3.49-4.15-6.69,1.8-15.14-9.47-24.3-15.8-35.87-6.04-11.03-8.96-23.46-10.93-35.97Z"/><path class="cls-26" d="M449.97,276.03c9.01,6.78,8.33,17.09,9.69,26.65-9.21-6.71-5.89-17.98-9.69-26.65Z"/><path class="cls-26" d="M459.66,302.68c4.72,3.81,5.05,9.08,4.85,14.54-6.72-3.14-4.39-9.3-4.85-14.54Z"/><path class="cls-7" d="M537.62,360.99c-3.56-.46-5.76,2.21-8.55,3.6-11.77,5.83-17.27,3.69-23.11-8.79-3.36-7.19-6.64-14.42-9.95-21.63,1.81-13.11-3.51-25.51-5.82-37.82-2.99-15.91-3.41-31.83-5-47.67-1.26-12.57-6.06-23.08-12.56-33.21-3.89-6.07-7.81-11.93-7.29-20.23,10.49,16.18,24.63,24.38,45.51,22.01-10.72,18.03-2.05,33,5.24,48.27,2.74,5.74,6.21,11.57,7.06,17.67,2.02,14.37,12.4,19.59,23.71,24.36,6.47,10.08,20.12,16.27,17.04,31.51l-.03,.03c-8.73,4.78-15.8,11.44-21.87,19.24-1.46,.89-2.92,1.78-4.37,2.67Z"/><path class="cls-17" d="M542,358.33c5.15-8.84,9.3-18.83,21.87-19.24-6.05,7.82-13.77,13.74-21.87,19.24Z"/></svg>