<?xml version="1.0" encoding="UTF-8"?><svg id="Layer_8" xmlns="http://www.w3.org/2000/svg" viewBox="0 0 1080 1080"><defs><style>.cls-1{fill:#7eb133;}.cls-2{fill:#060506;}.cls-3{fill:#121211;}.cls-4{fill:#71a41c;}.cls-5{fill:#030204;}.cls-6{fill:#b38f83;}.cls-7{fill:#deb9ad;}.cls-8{fill:#6c7788;}.cls-9{fill:#cbd7e5;}.cls-10{fill:#030202;}.cls-11{fill:#7fb033;}.cls-12{fill:#a80100;}.cls-13{fill:#588324;}.cls-14{fill:#debbae;}.cls-15{fill:#042b7c;}.cls-16{fill:#5d8f13;}.cls-17{fill:#8f9ca8;}.cls-18{fill:#7eaf33;}.cls-19{fill:#80b034;}.cls-20{fill:#040406;}.cls-21{fill:#71534c;}.cls-22{fill:#262f3c;}.cls-23{fill:#c49989;}.cls-24{fill:#b5c0d0;}.cls-25{fill:#2e2d2d;}.cls-26{fill:#6b9c20;}.cls-27{fill:#6b9c1f;}.cls-28{fill:#7eb132;}.cls-29{fill:#71a41e;}.cls-30{fill:#171615;}.cls-31{fill:#0b499d;}.cls-32{fill:#951616;}.cls-33{fill:#80b036;}.cls-34{fill:#343436;}.cls-35{fill:#7eb034;}.cls-36{fill:#957466;}.cls-37{fill:#012a7b;}.cls-38{fill:#f9f5f2;}.cls-39{fill:#e0b6ad;}.cls-40{fill:#7fb034;}.cls-41{fill:#ebf7d9;}.cls-42{fill:#020203;}.cls-43{fill:#7eb134;}.cls-44{fill:#7eb033;}.cls-45{fill:#7eae3c;}.cls-46{fill:#030508;}.cls-47{fill:#000201;}.cls-48{fill:#563b3a;}.cls-49{fill:#2f2f31;}.cls-50{fill:#040504;}.cls-51{fill:#432f36;}.cls-52{fill:#6c9d21;}.cls-53{fill:#3e3e40;}.cls-54{fill:#020202;}.cls-55{fill:#491531;}.cls-56{fill:#ebf3d9;}.cls-57{fill:#6c7689;}.cls-58{fill:#deb6a7;}.cls-59{fill:#7fb133;}.cls-60{fill:#e9f8cb;}.cls-61{fill:#deb7a9;}.cls-62{fill:#044ea3;}.cls-63{fill:#5c8a21;}.cls-64{fill:#1a1518;}.cls-65{fill:#074ea1;}.cls-66{fill:#04297a;}.cls-67{fill:#2f2b2a;}.cls-68{fill:#66971b;}.cls-69{fill:#4c7e00;}.cls-70{fill:#163171;}.cls-71{fill:#5f862e;}.cls-72{fill:#2e2e30;}.cls-73{fill:#971113;}.cls-74{fill:#7daf33;}.cls-75{fill:#786f7e;}.cls-76{fill:#467f04;}.cls-77{fill:#606875;}.cls-78{fill:#f5fbed;}.cls-79{fill:#7fb035;}.cls-80{fill:#6b9b1f;}.cls-81{fill:#6a9c20;}.cls-82{fill:#6b9d20;}.cls-83{fill:#59861a;}.cls-84{fill:#5a626e;}.cls-85{fill:#e0f8b4;}.cls-86{fill:#4f8008;}.cls-87{fill:#7faf35;}.cls-88{fill:#2c3c6b;}.cls-89{fill:#4d342e;}.cls-90{fill:#666f7f;}.cls-91{fill:#76a72b;}.cls-92{fill:#074a9e;}.cls-93{fill:#730304;}.cls-94{fill:#a18ea6;}.cls-95{fill:#514f76;}.cls-96{fill:#75a829;}.cls-97{fill:#611b19;}.cls-98{fill:#6b9d1f;}.cls-99{fill:#deb8ac;}.cls-100{fill:#dbb7a9;}.cls-101{fill:#0c2102;}.cls-102{fill:#c1dbf2;}.cls-103{fill:#56850c;}.cls-104{fill:#7faf37;}.cls-105{fill:#5c352c;}.cls-106{fill:#5b8814;}.cls-107{fill:#bfdb8b;}.cls-108{fill:#325b97;}.cls-109{fill:#6a9c1f;}.cls-110{fill:#4f8013;}.cls-111{fill:#141415;}.cls-112{fill:#bfdc8b;}.cls-113{fill:#87b641;}.cls-114{fill:#f1fbe2;}.cls-115{fill:#cea999;}.cls-116{fill:#2e3b6e;}.cls-117{fill:#b78f81;}.cls-118{fill:#020003;}.cls-119{fill:#171617;}.cls-120{fill:#f0f7df;}.cls-121{fill:#6a9b1f;}.cls-122{fill:#1a356e;}.cls-123{fill:#212121;}.cls-124{fill:#a3cb6c;}.cls-125{fill:#b9b2b1;}.cls-126{fill:#dfb2a2;}.cls-127{fill:#6f0101;}.cls-128{fill:#e3f5c2;}.cls-129{fill:#b18172;}.cls-130{fill:#578610;}.cls-131{fill:#313133;}.cls-132{fill:#f1f7e1;}.cls-133{fill:#1c508d;}.cls-134{fill:#b88878;}.cls-135{fill:#eaf7db;}.cls-136{fill:#201918;}.cls-137{fill:#6a9d1f;}.cls-138{fill:#d1b8b0;}.cls-139{fill:#80b033;}.cls-140{fill:#84b145;}.cls-141{fill:#054da3;}.cls-142{fill:#2e2e2e;}.cls-143{fill:#daefbe;}.cls-144{fill:#f5fced;}.cls-145{fill:#e8f3d3;}.cls-146{fill:#7faf33;}.cls-147{fill:#161616;}.cls-148{fill:#6d7688;}.cls-149{fill:#d0e7ac;}.cls-150{fill:#919ba6;}.cls-151{fill:#6f0000;}.cls-152{fill:#578520;}.cls-153{fill:#3c3c3e;}.cls-154{fill:#00297b;}.cls-155{fill:#2f5995;}.cls-156{fill:#321a13;}.cls-157{fill:#6d423b;}.cls-158{fill:#b38779;}.cls-159{fill:#010204;}.cls-160{fill:#0c2d78;}.cls-161{fill:#040505;}.cls-162{fill:#9f0508;}.cls-163{fill:#080707;}.cls-164{fill:#044ea4;}.cls-165{fill:#15190e;}.cls-166{fill:#070707;}.cls-167{fill:#0c0c0e;}.cls-168{fill:#3f3f41;}.cls-169{fill:#5a8323;}.cls-170{fill:#070708;}.cls-171{fill:#ca9888;}.cls-172{fill:#1f5a9a;}.cls-173{fill:#aba1be;}.cls-174{fill:#528306;}.cls-175{fill:#ac7f6f;}.cls-176{fill:#555b67;}.cls-177{fill:#bf8f80;}.cls-178{fill:#bc9c99;}.cls-179{fill:#641214;}.cls-180{fill:#c6998b;}.cls-181{fill:#9d0306;}.cls-182{fill:#171616;}.cls-183{fill:#67971b;}.cls-184{fill:#210707;}.cls-185{fill:#161516;}.cls-186{fill:#2c3522;}.cls-187{fill:#598813;}.cls-188{fill:#010101;}.cls-189{fill:#a77d6e;}.cls-190{fill:#71a51b;}.cls-191{fill:#4b3d51;}.cls-192{fill:#022e81;}.cls-193{fill:#ddb7aa;}</style></defs><g><path class="cls-123" d="M966.42,806.82c9.06,21.33,8.13,43.96,8.56,66.39,.13,6.94,.08,13.89-.02,20.83-.03,2.13,1.07,5.16-2.91,5.16-4.88,1.64-9.54,5.44-14.97,1.47-1.82-2.57-1.36-5.43-1.17-8.31,2.13-31-.36-61.65-7.26-91.94-4.59-15.3-7.54-30.87-7.59-46.91,0-3.79-.55-7.64,1.27-11.22,4.83-2.43,9.67-4.94,14.71-.42,.29,12.79,.54,25.59,.89,38.38,.1,3.74-.03,7.56,2.08,10.93l-.02-.04c2.31,3.5,4.8,6.93,4.67,11.43-.4,1.82,.57,3.08,1.74,4.25Z"/><path class="cls-159" d="M859.48,887.39c-.05,2.13-.1,4.27-.15,6.4-.18,8.35-1.72,10.09-9.78,10.81-7.6,.68-15.09,1.97-22.26,4.61-7.3,2.69-14.87,2.84-22.47,2.98l-2.62-.32c-4.14-1.18-8.46-2.19-8.77-7.7-.29-5.23,3.5-7.37,7.3-9.46,6.19-3.39,13.18-5.32,18.49-10.27,.32-.36,.68-.74,.75-1.2,.57-4.05-.85-9,5.05-10.56,6.16-1.63,12.39-2.96,17.82,1.56,2.57,2.14,4.74,3.32,8.29,2.78,7.13-1.08,9.66,2.32,8.34,10.37Z"/><path class="cls-142" d="M820.76,318.58c3.56-1.41,5.35-3.9,4.36-7.96,4.98,1.51,9.51,2.88,14.05,4.26,2.44,.76,4.89,1.51,7.33,2.27,1.78,1.32,4.79,.59,5.66,3.42,.39,.36,.78,.72,1.16,1.08,8.25,1.22,11.09,3.84,12.19,12.15,1.09,8.22,.41,16.52,.51,24.78-7.12,3.59-10.46,2.66-13.04-3.63-4.96-12.09-9.66-14.85-22.52-13.2-2.14,.27-4.28,.43-6.43,.29-2.31-.11-4.51-.59-6.38-2.06-4.6-4.71-2.74-9.63-.46-14.58,1.08-2.34,3.8-3.81,3.57-6.82Z"/><path class="cls-46" d="M878.28,901.57c4.09-1.55,6.8-4.56,8.79-8.33,7.93-7.5,17.53-6.67,27.2-5.45,4.01,3.68,.04,5.55-2.06,7.16-4.55,3.48-9.89,5.66-15.23,7.68-4.68,1.77-7.74,4.59-7.26,10.02-.06,3.29,5.02,3.89,4.05,7.66-5.39,.99-10.78,1.99-16.18,2.98l.07,.06c-2.08-.75-4.25-.36-6.37-.58-5.49-.59-7.72-5.11-5.39-10.57,.51-.96,1.02-1.92,1.52-2.88,.96-6.3,4.95-8.35,10.85-7.74Z"/><path class="cls-54" d="M967.26,434.93c-.87,2-1.74,4-2.6,6-4.82,7.18-9.65,14.36-14.47,21.54-1.31,2.83-3.04,5.32-5.71,7.06-3.46,2.15-6.97,4.59-9.48-1.15-.31-1.03-.35-2.07-.11-3.12,.84-2.5,3.28-3.33,5.08-4.84,8.39-7.01,11.48-18.69,7.62-29.08-2.88,3.78-2.89,9.35-7.64,11.77-1.58,.23-2.77-.25-3.33-1.85-.2-4.79,3.04-8.35,4.55-12.53,1.79-4.94,.48-8.06-4.2-10.39-6.07-3.03-12.22-3.33-18.63-1.57-6.39-.02-12.55-.51-15.41-7.63-.54-15.21,1.3-13.28,11.22-14.32,1.59-.17,3.12-.86,4.68-1.3,5.7-.47,11.4-.99,17.1-1.4,3.22-.23,6.12,.74,8.63,2.82,3.41,1.85,4.27-1.12,5.71-3.01l-.02,.02c4.14-.48,6.77,.92,5.64,5.49-1.1,4.42,1.26,3.98,4.26,3.99,6.05,.03,13.7,7.91,14.6,14.62-8.5,3.91-5.07,12.55-7.47,18.88Z"/><path class="cls-147" d="M974.74,416.05c-2.07-4.03-5.34-7.07-8.45-10.25-2.19-2.24-3.94-4.17-7.82-2.29-3.49,1.68-6.94-2.19-5.27-4.32,4.19-5.34-.17-5.63-2.96-7.24,8.2-7.27,14.49-8.42,22.98-4.22-4.58,8.61,2.81,12.29,7.11,17.24-.05,4.61-2,8.26-5.59,11.08Z"/><path class="cls-166" d="M980.32,404.97c-5.07-1.32-8.46-5.09-10.42-9.33-.98-2.11-.88-6.57,3.31-7.91,6.85,3.9,7.83,10.22,7.11,17.24Z"/><path class="cls-147" d="M950.26,391.94c-.6,3.48-1.72,5.97-5.71,3.01,2.86,.8,3.54-2.52,5.71-3.01Z"/><path class="cls-12" d="M957.05,741.87c-4.72-1.39-9.31,.64-13.98,.53-8.05,3.33-16.46,1.85-24.64,1.26-9-.65-17.92-2.51-26.5-5.56-3.26-1.09-5.95-3.05-8.32-5.5-7.21-4.45-7.98-11.31-7.23-18.87,2.23-22.4,2.61-44.91,4.24-67.35,1.65-22.68,3.44-45.39,7.81-67.75,1.7-8.71,4.98-17.1,10.04-24.48,3.2-4.66,6.76-9.57,13.73-8.56,5.31,3.29,7.04,8.75,8.63,14.29-.12,3.86-2.45,6.64-4.66,9.5-3.58,4.63-4.15,9.33-1.2,14.69,3.49,6.33,7.73,12.12,11.77,18.08,4.17,6.15,9.12,9.75,16.86,7.34,4.13,.42,6.07,2.79,7.24,6.75,1.88,6.38,3.26,13.02,7.24,18.61,.44,.66,.77,1.37,1.03,2.12,3.14,9.93,1.24,20.32,2.78,30.35,2.01,13.14,3.91,26.32,7.73,39.12,.34,7.63,2.87,14.92,3.53,22.5,.29,3.34,.66,6.72-2.54,9.09-4.21,2.41-9.46,1.12-13.58,3.85Z"/><path class="cls-57" d="M983.39,515.99c14.74,12.47,26.25,27.76,37.53,43.24,.91,1.25,2.3,2.82-.09,4.14-1.31,.81-2.15,1.92-2.1,3.51,.18,5.92-3.51,8.96-8.55,9.91-5.04,.96-6.08,3.87-5.89,8.17,1.08,23.3-2.6,46.41-2.97,69.65-.05,3.1,0,6.38-3.5,8.03-12,2.35-23.84,3.3-34.76-3.92-.59-1.55-1.46-3.11-1.29-4.76,1.15-11.34-3.49-21.17-7.86-31.1-.98-2.23-1.23-4.57-.24-6.91,.38-.72,.97-1.18,1.76-1.37,3.53-.27,3.33,3.66,5.59,4.99,2.73-.54,2.76-2.89,3.08-4.91,3.81-24.74,9.37-49.2,12.53-74.04,1.01-7.97,2-16.18-1.44-24-1.17-2.66-.82-4.7,2.55-5.19,.51,.34,1.01,.68,1.52,1.02,1.03,1.6,2.57,2.6,4.15,3.54Z"/><path class="cls-150" d="M997.81,662.65c1.84-2.52,1.41-5.44,1.47-8.29,.47-24.97,4.13-49.82,2.89-74.86-.11-2.27,.08-4.73,3.17-4.38,7.58,.86,11.74-2.37,12.81-9.87,.2-1.39,1.41-1.78,2.67-1.89-2.28,2.45-.74,4.88-.04,7.39,6.82,24.49,7.03,49.07,1.25,73.81-3.04,13.01-12.3,17.22-24.22,18.09Z"/><path class="cls-75" d="M977.72,511.44c-.66,.94-2.11,2.32-1.87,2.77,6.62,12.2,2.3,24.56,.92,36.95-2.41,21.49-8.05,42.42-10.71,63.85-.36,2.9-.22,7.17-3.65,7.78-3.74,.66-4.72-3.07-5.44-6.25-.13-.58-1.53-.86-2.56-1.54,.13,.05,.23,.26,.22,.25-.45-.46-.68-1.06-.96-1.62,.1,.32,.27,.69,.74,1.37-.69,6.06,2.04,11.35,4.68,15.64,5.61,9.09,4.07,18.56,3.96,28.1l-.4,.13-.37-.19c-3.3-7.44-.88-16.01-4.63-23.36l.03-.04c-5.09-7.84-6.46-17.05-9.47-25.67,.53-3.82,2.67-6.05,6.51-6.58,4.72,2.04,2.99,7.65,6.36,11.19,2-8.87,3.12-17.5,4.51-26.08,2.63-14.61,5.36-29.2,7.74-43.85,1.05-6.45,.92-12.88,.83-19.33-.08-5.44-2.19-9.26-8.22-9.78-5.84-.5-9.09,1.73-10.5,8.33-1.91,8.92-4.04,17.74-7.63,26.14-1.11,2.59-1.76,5.56-4.74,6.9-3.8-1.06-3.24-4.34-3.31-7.02-.28-11.63,2.14-22.87,6.35-33.6,2.52-6.42,7.23-11.23,14.3-13.05,3.13-.75,5.98,.26,8.8,1.45,1.71,3.73,6.2,4.11,8.52,7.1Z"/><path class="cls-93" d="M959.08,484.2c3.35,2.3,5.35,5.8,7.88,8.83,1.6,1.92,1.64,3.31-.98,4.15-3.74,5.14-10.18,5.66-15.12,8.75-2.19,1.37-4.71,2.2-7.03,3.41-3.41,1.78-3.86,3.94-2.38,7.55,3.13,7.68,.37,11.73-8.63,13.59-.78-.78-1.2-1.76-1.49-2.8-.4-1.34-.44-3.13-1.55-3.85-7.79-5.12-6.34-13.28-7.08-20.74,.08-1.09,.35-2.13,.83-3.11,8.79-7.97,20.11-11.86,29.8-18.4,2.9-1.96,4.17,.98,5.74,2.62Z"/><path class="cls-162" d="M933.27,530.27c1.14-.85,2.21-1.85,3.45-2.53,4.88-2.66,6.63-5.9,2.71-10.85-2.72-3.44-2.6-6.22,2.08-8.26,8.25-3.6,16.32-7.62,24.46-11.46,.44,1.46,.87,2.92,1.31,4.38-.88,2.78-3.38,1.76-5.24,2.23-11.18,3.19-14.87,12.43-17.2,22.26-2.32,9.81-5.09,19.75-1.76,29.95-3.06,4.93-3.64,4.83-8.14-1.4-.47-3.62-4.34-4.31-6-6.92-1.16-4.05,.73-7.75,1.33-11.6,.73-2.08,.88-4.45,2.99-5.81Z"/><path class="cls-73" d="M957.64,635.32c5.71,6.96,3.14,15.56,4.63,23.36,.95,14.9,5.19,29.29,6.9,44.08,.59,1.16,.79,2.3-.26,3.34-4.45-9.88-5.29-20.62-6.87-31.1-1.99-13.14-2.98-26.44-4.4-39.67Z"/><path class="cls-9" d="M950.48,469.69c4.72,1.14,3.61,5.94,5.53,8.83-5.47,8.52-15.7,9.99-23.22,15.51-2.36,1.73-5.05,3.41-7.83,4.67-2.89,2.08-5.22,4.77-7.73,7.26-.44,.48-.92,.92-1.41,1.34-2.08,1.53-4.22,2.89-5.72-.56-.88-2.02-2.7-3.37-3.5-5.41-.04-.69,.18-1.29,.65-1.8,6.95,1.58,11.98-2.54,17.15-5.96,6.33-4.19,13.06-7.68,19.56-11.57,3.02-1.8,7.14-3.54,5.35-8.6-.2-1.43-.14-2.78,1.18-3.72Z"/><path class="cls-179" d="M924.27,498.35c4.65-4.19,10.29-6.82,15.82-9.46,5.82-2.77,10.97-6.37,15.92-10.37,.58,2.13,3.42,3.04,3.07,5.68-1.95-.62-3.03-2.8-6.11-.81-9.24,5.99-19.01,11.16-28.57,16.65-.41-.35-.56-.72-.46-1.1,.1-.39,.22-.59,.34-.59Z"/><path class="cls-32" d="M968.92,706.09l.26-3.34c3.08,9.98,4.06,20.34,5.66,30.59,.54,3.45-.86,4.88-4.21,4.68,1.85-5.51,1.84-11.07,.36-16.65-1.33-5.01-2.33-10.06-2.06-15.29Z"/><path class="cls-138" d="M950.48,469.69c-.11,1.44-.22,2.88-.33,4.32-.1,1.13-.71,1.93-1.64,2.51-2.87,.77-5.36,3.52-8.73,1.67-1.11-4.59,2.58-6.94,4.68-10.02,1.91-1.9,3.81-3.8,5.72-5.7,.1,2.4,.2,4.81,.3,7.21Z"/><path class="cls-93" d="M962.05,503.79c1.75-.74,3.5-1.49,5.24-2.23,.64,.93,1.27,1.85,1.91,2.78-2.49,1.18-4.77-.34-7.15-.55Z"/><path class="cls-75" d="M983.39,515.99c-3.1,.84-3.42-1.6-4.15-3.54,1.74,.76,3.26,1.78,4.15,3.54Z"/><path class="cls-8" d="M885.41,731.99c1.9,1.41,3.79,2.82,5.69,4.22,2.83,3.07,2.72,7.1,3.29,10.82,2.5,16.1,4.9,32.09,11.6,47.29,5.03,11.43,5.85,24.19,7.64,36.51,2.34,16.12,3.99,32.33,4.16,48.64,.03,2.86,.23,5.78-1.15,8.46-.29,.31-.58,.62-.87,.93-9.94-.96-19.48,.72-28.72,4.37-2.03-.19-4.8,.67-5.36-2.23-1.43-7.34-7.8-14.16-2.27-22.36,.86-1.28,.28-3.76-.09-5.59-8.05-39.82-16.17-79.62-24.28-119.42-1.52-1.8-2.15-3.87-1.95-5.35,1.34,2.58-.98,6.17,.52,9.6,1.98,38.92,3.95,77.83,5.96,116.75,.08,1.63,.04,3.64,.94,4.78,5.77,7.32,5.66,10.73-1.06,17.98-1.04-7.09-3.56-11.83-11.94-7.78-1.17,.57-2.5,.57-3.72-.86-4.84-5.64-13.43-7.21-19.88-4.07-2.93,1.43-2.79,3.51-1.71,5.88,1.11,2.41,1.92,4.57-1.8,5.26-7.16-4.64-5.72-12.04-5.23-18.59,.48-6.45-.11-12.6-1.53-18.79v.1c-2.37-4.13,.39-8.87-1.55-13.05l.07,.1c-2.24-4.25,.31-9.03-1.48-13.33-.1-1.32-.19-2.64-.29-3.96-2.24-10.52-4.63-21.02-4.08-31.89l-.21-2.67c-2.75-16.3-5.75-32.57-6.95-49.1l.1,.11c-2.39-4.2,.33-9-1.56-13.25l-.34-5.48c-1.15-2.37,.28-5.12-1.1-7.46,.23-.39,.2-.76-.09-1.12-1.85-3.86,.3-8.16-1.31-12.05-.09-1.28-.17-2.56-.26-3.83-1.08-2.17-.48-4.46-.48-6.7,.18-2.19,2.42,1.64,3.14-1.28,.79-3.23,4.27-3.22,7.27-2.95,6.21,.57,12.35,1.57,18.45,2.77,4.41,.86,7.8-.04,10.81-3.64,5.2-6.22,11.2-11.77,15.4-18.82,4.43-8.58,11.23-15.37,17.68-22.27,4.76-5.1,5.42,.12,6.1,3.71-.58,15.3-3.04,30.44-3.45,45.76-.12,4.51-.34,9.09-.83,13.59-1.53,14.1,3.9,24.14,16.66,30.26Z"/><path class="cls-90" d="M850.92,661.35c-4.48,9.34-12.32,16.1-19.23,23.35-3.96,4.15-10.49-.01-15.74-.63-3.94-.47-8.03-.59-11.91-1.63-2.98-.8-5-.24-6.33,2.72-.8,1.78-.99,1.7-2.85-.76-1.45-1.3-.38-3.34-1.4-4.76l-.17-2.44c-1.73-3.87,.32-8.14-1.26-12.03-.08-1.27-.16-2.54-.23-3.8-1.61-2.13-.35-4.47-.51-6.7,13.09,2.35,26.44,2.75,39.53,5.1,.47,.08,.94,.16,1.39,.3l18.72,1.3Z"/><path class="cls-148" d="M888.21,913.59c-1.91-5.92,.81-9.48,6.04-11.7,5.5-2.33,11.28-4.08,16.22-7.56,2.08-1.47,4.7-2.53,5.33-5.46l-.11,.1c6.32-2.66,12.98-1.26,17.13,2.86,5.18,5.15,10.88,6.03,17.24,6.55,2.58,.21,5.24,.04,7.4,1.89,4.98,1.21,9.71-1.06,14.61-1.07-2.7,1.26-3.68,3.18-2.59,6.11,1.5,4.03,1.15,8.22,.83,12.4-2.56,5.1-7.68,5.82-12.25,5.93-13.81,.34-27.52,2.55-41.37,1.92-4.97-.22-9.48-1.09-12.4-5.66-1.41-2.2-3.42-3.04-6.05-3-3.68,.06-6.99-1.26-10.02-3.31Z"/><path class="cls-17" d="M888.21,913.59c6.47,1.6,14.55-1.24,18.63,7.18,.7,1.45,3.68,2.44,5.66,2.54,16.21,.78,32.33-.97,48.45-2.23,3.39-.26,6.46-1.59,9.34-3.37,.61,5.11-2.47,8.02-6.75,8.55-17.51,2.16-35.09,3.48-52.74,1.44-2.03-.23-3.91-1.3-4.64-3.03-2.59-6.19-7.26-5.79-12.4-4.35-1.31-2.69-5.52-2.99-5.56-6.73Z"/><path class="cls-188" d="M957.44,900.28c-6.45,.76-12.79-.08-19.07-1.41-2.71-.57-5.8-.79-5.81-4.86,0-2.26-2-2.25-3.63-2.54-4.42-.81-8.84-1.66-13.26-2.49,.36-28.33-2.97-56.3-8.73-83.98-2.91-13.99-10.82-26.52-12.14-41.1-.84-9.26-3.34-18.33-3.71-27.68,16.96,5.13,34.39,6.28,51.96,6.19,0,3.71,0,7.42,0,11.13-3.01,3.67-6.83,5.52-11.54,6.57-12.12,2.7-16.75,13.73-10.87,24.92,.56,1.07,1.14,2.72,2.1,2.79,6.86,.49,12.32,7.54,20,4.14,2.94-1.3,5.08-.6,5.61,3.09,.23,1.61,.79,3.26,1.92,4.59,5.09,13.07,5.81,26.99,6.95,40.65,1.18,14.24,2.6,28.57,1.66,42.93-.37,5.7-.97,11.38-1.46,17.07Z"/><path class="cls-161" d="M950.29,799.63c-1.63-.76-2.62-1.98-2.84-3.81-.54-4.37-2.7-3.74-5.3-1.68-.93,.73-2.28,2.25-2.77,2.02-5.77-2.78-11.97-4.34-17.81-6.65-3.64-1.44-4.49-7.29-4.47-12.12,.06-14.29,2.23-17.24,16.53-19.44,3.77-.58,5.48-4.77,9.44-4.42,.1,15.73,3.18,30.99,7.22,46.1Z"/><path class="cls-24" d="M853.64,747.89c-2.06-3.69-1.28-7.64-.16-11.77,.53,2.51,1.06,5.01,1.59,7.52-1.63,1.03-.85,2.87-1.43,4.25Z"/><path class="cls-154" d="M786.15,608.23c-5.65,.23-7.06-2.4-6.68-7.93,1.07-15.9,1.49-31.85,2.16-47.78-2.38-2.84-2.05-6.29-2.07-9.62-.08-9.83-.27-19.67,.02-29.49,.59-19.72-1.14-39.27-3.64-58.78-.65-5.06,.58-10.04,.08-15.05-.35-7.46,5.15-10.43,10.42-13.58,2.21-1.32,4.44-2.59,6.66-3.88,3.22-1.7,4.94,.32,6.24,2.74,1.24,2.31-.19,4.1-1.73,5.69-1.49,1.54-2.87,3.22-4.48,4.62-3.05,2.66-3.07,5.5-1.34,8.93,5.04,9.99,8.92,20.54,14.37,30.35,.67,1.92,1.43,3.79,1.95,5.76,.93,3.74,1.76,7.51,1.75,11.37-.13,36.47,2.71,72.9,1.43,109.37-.04,.89-.07,1.78-.08,2.66-.29,3.81,.78,8.18-4.07,10.17-7.61,.51-14.76-.78-20.99-5.55Z"/><path class="cls-62" d="M776.01,439.58c2.93,5.69,1.75,12.04,2.62,18.03,4.58,31.48,3.21,63.23,2.99,94.91-7.31,4.34-11.74,11.71-18.02,17.14-4.85,4.2-8.95,9.27-14.51,12.66-8.44,4.94-8.37,4.88-14.37-3.54-3.9-5.47-6.33-11.68-9.35-17.59-1.61-3.16-1.59-6.41,.13-9.58,5.01-6.39,9.47-13.32,15.15-19.05,16.83-16.99,23.34-38.51,28.17-60.94,2.3-10.7,4.79-21.37,7.19-32.05Z"/><path class="cls-171" d="M817.73,338.57c1.94,.53,3.89,1.05,5.83,1.58,3.95,6.26,1.69,13.46,2.94,20.17,2.37,12.8,1.89,26.1,6.82,38.47,.61,1.54,.53,3.27,0,4.91-4.5,4.16-7.88,.08-11.61-1.56-.9-.81-1.58-1.71-1.24-3.03-6.83-9.55-11.43-20.24-15.69-31.08-1.14-2.89-2.76-6.31,.45-9.22,2.78-2.16,1.56-5.08,1.56-7.82,0-7.04,4.57-12.14,10.95-12.41Z"/><path class="cls-92" d="M804.81,474.11c-7.61-10.18-10.98-22.48-16.48-33.71-2.56-5.22,4.28-7.46,7.07-10.01,6.06-5.52,2.3-6.62-2.31-8.28,.57-3.3,3.56-4.12,5.82-5.69,3.1-.79,5.23-5.2,9.27-2.46,.24,.81,.26,1.62,.08,2.44-4.64,15.68-3.05,31.62-2.06,47.53,.22,3.54,1.45,7.1-1.4,10.17Z"/><path class="cls-180" d="M708.2,592.64c-1.9-3.4,3.65-8.68,1.76-12.08-2.33-1.41-3.16-.53-4.37-2.78-.33-.54-3.41-2.51-3.68-3.08-1.01-3.4-1.91-1.3-3.68-4.18-.89-1.9-.32-3.28-1.21-5.18,6.58-2.53,19.84-8.47,26.07-7.41,5.1,6.24,9.09,12.99,9.8,21.26-2.12,3.87-23.15,9-24.69,13.45Z"/><path class="cls-2" d="M817.73,338.57c-8.27,3.83-10.02,6.91-8.98,15.98,.31,2.69,1.54,6.06-3.52,4.25-3.52-9.35-2.79-19.02,.16-28.01,2.15-6.57,8.5-10.31,15.38-12.21,4.85,1.38,1.42,3.24,.16,4.71-3.9,4.54-6.23,9.33-3.19,15.28Z"/><path class="cls-70" d="M807.68,415.09c.04-.5,.07-1,.11-1.5-.48-2.63,2.12-3.89,2.69-6.05,3.33-2.82,6.66-5.63,9.99-8.45,.51,.53,1.02,1.05,1.53,1.58,2.37,3.2,2.35,6.44,.13,9.69-2.27,1.96-5.13,3.28-6.67,6.07-2.56,1.25-5.18,1.41-7.86,.43-.47-.61-.44-1.2,.08-1.77Z"/><path class="cls-172" d="M732.89,579.19c-3.27-7.09-6.53-14.18-9.8-21.26-.72-2.69-.18-4.89,2.42-6.31,.4,11.97,7.95,20.99,13.07,30.94,2.95,5.73,6.94-.94,10.51-.24q-7.32,6.55-16.2-3.13Z"/><path class="cls-133" d="M810.48,407.54c.07,2.45-.9,4.43-2.69,6.05-2.96,.95-5.92,1.89-8.88,2.84,3.86-2.96,7.71-5.92,11.57-8.89Z"/><path class="cls-100" d="M717,577.82c-1.68,6.67-3.63,9.97-8.4,14.23-8.93,.27-20.05-11.53-18.74-20.03,.7-4.49,5.07-5.19,8.09-7.26,1.5,1.65,3.26,1.51,5.12,.76,3.78-2.12,7.42-4.3,6.81,3.27-.1,1.2,3.23,.17,4.22,1.9l-.1-.16c.12,4.04,.5,4.96,2.99,7.29Z"/><path class="cls-89" d="M714.11,570.69c-1.24-1.68-7.21,2.8-4.96-4.16,.61-1.9-3.87-1-6.08-1,0-2.58,2.58-2.46,3.86-3.7,5.23,.66,6.6,4.44,7.18,8.87Z"/><path class="cls-61" d="M832.32,404.81c-1.94-10.93-5.75-21.37-6.45-32.71-.65-10.63-2.65-21.2-2.31-31.95,6.13-.42,12.35-2.07,18.38-.25,5.62,1.69,11.01,4.99,11.74,11.19,.91,7.81,4.9,8.94,11.28,7.43-.5,7.87,.57,16.08-6.07,22.41-1.07,1.02-.65,3.59-.92,5.45-4.23,9.34-9.44,17.65-20.59,19.83-1.88,.25-3.73,.34-5.07-1.39Z"/><path class="cls-66" d="M858.38,393.59c12.12,4.15,21.19,12.6,30.09,21.3,.32,.37,.47,.77,.44,1.19-.03,.44-.09,.65-.17,.65-.69,.66,.27-.1-.43,.56-8,7.49-8,7.72-.51,15.44,1,2.58,.48,4.92-1.08,7.11-8.98,9.91-18.44,19.39-26.28,30.3-.96,1.34-1.84,3.85-4.36,1.77-1.43-3.25,.17-6.11,1.32-8.92,4.64-11.27,8.03-22.97,11.89-34.5,1.93-5.75,3-11.77-2.9-16.33-2.1-1.54-4.64-2.4-6.55-4.24-2.42-4.58-4.25-9.23-1.47-14.34Z"/><path class="cls-14" d="M902.92,409.15c4.17,4.5,9.37,6.34,15.42,6.04,11.57,1.22,12.76,10.56,14.98,19.12,.17,6.32-3.67,7.52-8.84,6.72-3.52-.54-6.8-1.84-9.79-3.8-5.95-4.87-14.43-5.88-19.27-12.48-.14-.31-.28-.63-.42-.94-.04-.34-.07-.68-.12-1.02,.31-2.14,1.36-3.74,3.42-4.59,1.54-3.02,3.08-6.04,4.62-9.07Z"/><path class="cls-193" d="M858.38,393.59c.89,4.69,.07,9.71,2.72,14.05,2.97,11.45-1.87,20.49-13.93,26.1-2.83,1.32-5.71,2.37-8.86,2.46-.69-.08-1.33-.32-1.91-.7-1.2-3.76,1.32-6.94,1.63-10.47,.15-.63,.37-1.25,.61-1.85,.51-1.21,1.02-2.41,1.47-3.64,3.91-8.67,8.41-17.03,13.41-25.11,1.03-1.66,1.64-4.14,4.46-3.91l.39,3.07Z"/><path class="cls-117" d="M857.99,390.52c-7.1,9.32-10.9,20.5-17.14,30.3-1.3-1.05-1.63-2.53-1.82-4.08-.01-3.99-.23-7.96-1.17-11.86,7.06-2.24,11.79-7.18,15.72-13.21,1.23-1.89,1.81-4.49,4.41-5.3,0,1.38,0,2.77,.01,4.15Z"/><path class="cls-108" d="M898.29,418.22l-2.37,4.13c-1.29,.06-2.49-.17-3.54-.98-1.43-1.56-3.38-2.69-4.06-4.87,.05-.54,.09-1.07,.14-1.61,3.28,1.11,6.55,2.22,9.83,3.33Z"/><path class="cls-99" d="M935.77,465.67c.05,.89,.1,1.77,.15,2.66,2.22,4.45-.73,6.46-3.91,8.38-3.88,1.83-7.86,3.34-12.22,3.6-6.69,.36-13.22-.26-19.37-3.21-.99-.53-1.88-1.21-2.72-1.96-4.44-3.73-6.81-8.64-7.54-14.25-.56-4.34-1.95-8.3-4.12-12.04-.09-.68-.03-1.36,.13-2.03,.8-1.85,1.98-3.44,3.3-4.96,.94-.88,1.99-1.66,2.83-2.65,1.92-2.22,2.17-5.24,3.66-7.66,.9-1.45,2.01-2.84,3.97-2.14,1.8,.64,2.36,2.22,2.22,4.02-.22,2.87-1.37,5.51-2.27,8.19-1.17,3.48-1.03,6.64,2.15,8.89,3.12,2.2,6.22,1.96,8.86-1.04,3.99-5.51,8.01-10.43,16.22-8.62,4.02,.89,6.27,1.76,4.35,6.57-.05,.52,1.44-.65,.49-.5,.89-3.95,3.4-4.7,6.91-3.48,3.29,1.88,3.16,4.9,2.72,8.04-1.28,4.99-6.15,8.52-5.81,14.19Z"/><path class="cls-185" d="M931.75,433.79c-2.44-7.66-4.56-15.56-13.41-18.6,2.08-.51,4.14-1.36,6.24-1.48,7.25-.4,14.3,1.51,18.66,7.13,3.75,4.84-1.3,9.76-3.1,14.47-.76,2-1.91,3.85-2.88,5.77-2.73,1.46-4.62,1.12-4.94-2.37-.16-1.65,.33-3.36-.57-4.92Z"/><path class="cls-64" d="M935.77,465.67c-4.55-6.4,2.62-8.9,4.38-13.2,3.81-2.82,1.07-5.53-.14-8.27-.38-.61-.31-1.17,.19-1.69,2.37-5.08,4.74-10.15,7.3-15.62,8.3,11.58,1.69,30.55-8.34,36.24-1.22,.69-2.26,1.68-3.38,2.54Z"/><path class="cls-105" d="M940.2,442.51c-.03,.45-.02,.89,.03,1.34-.61,.63-1.28,.7-2.01,.23-4.03-1.17-4.87,3.04-7.37,4.39-1.74-1.61,2.47-5.54-1.47-5.54-4.05,0-8.98-3.28-12.3,1.82-1.55,2.38-2.86,4.91-5.33,6.52-1.19,.6-1.83-.08-2.35-1.02,.11-4.82,6.02-8.48,2.82-13.98,.4-1.02,.91-1.81,2.18-1.12,3.19,2.02,6.7,3.21,10.33,4.1,4.61,1.12,7.84,.43,7.03-5.46,2.54,1.9-.43,7.97,5.51,7.29,.64,1.18,1.76,1.36,2.94,1.42Z"/><path class="cls-3" d="M917.58,409.85c2.66-4.64,10.59-1.81,9.63-8.84,1.17,.04,3.33-.07,3.36,.13,.66,4.49,3.48,6.86,7.31,8.81,1.04,.53-.46,2.21-1.72,2.09-6.01-.61-12-1.4-18.57-2.19Z"/><path class="cls-6" d="M931.51,475.48c2.26-1.9,5.11-3.44,4.41-7.16,2.95,5.83,5.69-.09,8.54-.14,.27,4.12-3.84,6.32-4.39,10.08-.39,.57-.92,.96-1.57,1.21-1.82,.42-3.7,.53-5.52,.99-1.47,.37-2.88,.09-3.4-1.58-.53-1.72,.95-2.44,1.92-3.39Z"/><path class="cls-151" d="M935.9,553.32c2.12,1.64,2.4,8.21,7.19,2.68,4.51-10.84,8.45-21.8,10.34-33.5,1.28-7.93,5.3-10.4,13.27-9.49,6.77,.77,9.4,3.92,9.59,11.79,.54,22-5.23,43.12-9.17,64.49-2.73,2.4-4.77,5.29-6.37,8.56-1.27,2.61-2.95,4.96-6.1,5.64-2.3,1.66-4.64,3.28-5.89,5.98-1.45,2.16-4.07-.23-5.64,1.45-6.44,2.92-11.39,.93-15.38-4.56-5.01-6.9-10.03-13.75-14.26-21.21-4.03-7.11-2.87-12.81,2.45-18.44,1.73-1.83,2.88-4.2,4.3-6.33,.69-4.88,3.99-7.61,8.05-9.69,3.2-1.05,5.94-.73,7.62,2.64Z"/><path class="cls-127" d="M885.41,731.99c-15.42-5.57-18.41-9.63-18.51-25.65-.14-21.78,2.7-43.36,4.27-65.03,1.95-3.34-1.26-6.55-.28-9.87,.06-.76,.21-1.5,.41-2.23,1.12-5.14,1.63-10.39,2.84-15.51,4.18-15.75,6.57-31.82,8.45-47.97-.07-1.14,.04-2.26,.3-3.37,.38-1.44,.98-2.8,1.52-4.19,4.61-16.17,9.38-32.3,15.32-48.04,1.81-3.5,1.96-8.38,7.36-8.93,1.45,1.05,4.32,.87,4.24,3.16-.23,6.69,3.16,.36,4.43,1.36,2.95,5.57,.96,11.31-.65,16.41-2.28,7.19-4.33,13.95-1.16,21.3,.56,1.3,.23,2.8-.58,4.08-6.01-2.67-9.28,2.35-11.61,5.61-6.7,9.38-10.13,20.13-12.23,31.66-3.43,18.78-4.2,37.8-6.65,56.64-1.01,7.79-.91,15.71-1.38,23.54-1,16.89-1.3,33.83-3.29,50.64-.85,7.17,1.46,12.38,7.18,16.4Z"/><path class="cls-126" d="M913.39,547.5c-2.93-8.02-5.27-15.63-.71-24.36,2.61-4.99,2.17-11.56,3.1-17.42l-.14,.06c6.8,1.62,2.64,6.38,3.34,9.82,.9-3.27-.21-6.9,.62-10.24,.53-2.13,.87-6.14,4.77-2.52,.29,3.04,1.13,6.15,.74,9.1-.53,4.04,.54,6.5,4.15,8.51,2.39,1.33,4.6,3.5,3.48,6.95-1.36,3.73-3.82,5.95-8,5.61-2.91-.23-5.85-.54-6-4.6-1.27,1.79,1.05,3.23,.32,4.88-.54,2.24-5.41,1.9-3.2,6.06,1.33,2.5,1.83,5.87,4.91,6.3,2.71,.37,3.05-3.11,4.54-4.8,.77-.88,1.32-1.95,2.03-2.9,1.2-1.27,2.3-2.78,4.42-1.93,.17,4.36-2.24,8.48-1.23,12.92,.36,1.76-.95,2.24-2.14,2.81-2.72,2.88-5.44,5.75-8.16,8.63-2.28-4.29-4.56-8.58-6.85-12.87Z"/><path class="cls-73" d="M943.13,610.92c1.47-2.06,3.7-1.18,5.64-1.45,2.97,8.6,5.93,17.21,8.9,25.81-6.99-4.02-6.01-11.99-8.42-18.13-1.38-3.52-2.36-5.78-6.12-6.23Z"/><path class="cls-181" d="M954.66,603.49c2.64-3.06,5.07-6.27,6.58-10.07,1.06-2.68,2.77-4.4,5.89-4.13-1.59,9.89-3.18,19.79-5,31.09-5-5.9-4.44-12.16-7.47-16.89Z"/><path class="cls-57" d="M954.78,615.65c-3.08-2.48-3.62-4.46-1.83-7.2,2.66,2.18,1.2,4.7,1.83,7.2Z"/><path class="cls-23" d="M931.76,536.02c-1.48,.49-2.47,1.48-3.08,2.9-1.64,1.06-3.41,1.85-5.36,1.93-2.3,.1-5,1.18-6.62-1.29-1.72-2.63,.87-4.37,1.87-6.42-3.71-4.06-2.46-6.93,2.12-9.16,1.26,2.34-2.85,5.18,.79,6.92,4.74,2.27,8.07-.48,11.26-3.49,.18,.95,.35,1.91,.53,2.86-.76,1.85,.21,4.15-1.51,5.75Z"/><path class="cls-97" d="M924.37,502.84c-1.6-1.12-3-1.72-3.33,1.09-.46,3.93-.95,7.87-1.47,12.1-2.05-3.4,.83-8.28-3.93-10.26,2.06-3.43,4.89-5.96,8.63-7.43,.04,.56,.08,1.13,.12,1.69,0,.93-.01,1.86-.02,2.8Z"/><path class="cls-93" d="M928.39,551.75c.71-.94,1.43-1.87,2.14-2.81,4.25-1.56,4.69,1.55,5.37,4.38-2.16-2.16-4.78-2.13-7.51-1.57Z"/><path class="cls-102" d="M948.78,475.38c.46-.45,.92-.91,1.37-1.36,1.86,.33,3.71,1.04,1.87,3.15-2.32,2.66-4.59,5.36-7.96,7.05-9.37,4.68-18.84,9.44-26.6,16.53-4.44,4.06-6.82-2.25-10.32-.75-2.06,.46-2.43-1.02-2.55-2.44-.56-6.87,7.72-15.62,14.9-15.84,4.48,.1,8.93-.9,13.42-.53,5.59-1.1,11.27-1.94,15.85-5.8Z"/><path class="cls-160" d="M919.99,483.88c-7.5-1.54-15.11,7.99-12.85,16.11-.03,.4-.05,.81-.04,1.21-3.29,2.07-3.99,5.84-5.84,8.86-1.2,.74-.35,5.28-3.71,1.99,1.71-12.23,1.2-24.62,2.42-36.88,6.32,2.34,12.7,4.37,19.6,3.5,2.29,1.56,1.78,3.35,.41,5.2Z"/><path class="cls-9" d="M948.78,475.38c-3.59,6.22-10.08,6.07-15.95,7.26,.14-4.12,4.07-2.71,6.05-4.15,.41-.03,.81-.11,1.2-.23,2.94-.85,5.45-3,8.71-2.88Z"/><path class="cls-77" d="M872.47,631.12c-.06,3.44,.94,7.02-1.3,10.19-.57-1.37,.19-6.15-2.94-1.99-5.62,7.48-12.85,13.67-17.31,22.03-5.43,5.87-11,8.03-17.3,1.05-1.55-1.71-4.05-1.06-6.15-1.02-4.52,.08-8.8,.06-12.83-2.86-3.58-2.59-8.23-.63-11.6,.38-5.79,1.72-8.4-.75-11.03-4.72-1.16-6.68-1.95-13.39-1.58-20.19,6.85,2.39,13.89,1.02,20.83,.83,2.97-.08,5.73-.08,8.35,1.29,9.49,5,20.14,6.09,30.21,9.14,4.78,1.45,7.98-.23,11.22-3.97,3.3-3.82,5.79-8.89,11.44-10.16Z"/><path class="cls-84" d="M872.47,631.12c-3.63,5.35-9.23,8.98-12.62,14.59-1.71,2.82-4.45,2.95-7.61,1.98-11.55-3.52-23.53-5.24-34.79-10.28-5.17-2.31-12.24-.95-18.36-.37-3.72,.35-6.32-.49-8.67-3.05-1.77-5.8-1.03-11.87-1.87-17.76-.39-2.74,.09-5.85-2.41-7.99,6.74,1.47,13.48,2.95,20.22,4.42,1.19,.58,2.91,.69,3.08-.54,1.06-7.3,3.89-2.74,7.4-1.9,13.33,3.18,23.99,12.95,37.84,14.68,3.63,.45,7.14,.55,10.72,.07,3.77-.51,6.77,.19,7.23,4.75-.06,.47-.11,.95-.17,1.42Z"/><path class="cls-156" d="M717,577.82c-6.8-.05-3.43-4.27-2.99-7.29,2.1,2.05,3.36,4.56,4.15,7.35h-.58l-.58-.05Z"/><path class="cls-47" d="M807.85,416.68c2.24-.25,4.42-2.44,6.75-.24,1.16,.53,1.91,1.52,2.22,2.66,2.54,9.4,8.45,15.8,17.24,19.73,1.77,.79,3.27,2.01,3.37,4.25-1.27,27.48-2.95,54.93-3.91,82.4-.73,21.03-1.64,42.06-1.92,63.11-.04,3.11,.07,6.22-.33,9.32-.49,3.88-2.54,6.28-6.54,6.2-5.13-.1-10.54,1.69-15.24-1.93-.07-2.63-.15-5.25-.19-7.88-.56-34.38-1.08-68.75-1.73-103.12-.08-4.27-.84-8.52-1.28-12.78-1.19-18.63-4.04-37.24-.78-55.95,.38-2.21,.89-4.12,2.36-5.78Z"/><path class="cls-142" d="M809.48,602.19c19.87,.26,19.52,.25,19.96-19.53,.65-29.42,1.73-58.84,2.89-88.24,.63-15.99,1.79-31.96,2.82-47.93,.12-1.86,.89-3.67,1.36-5.51-.5-.7-.44-1.36,.17-1.97,9.48-2.3,18.74-4.97,25.25-13.07,.88-1.09,2.34-1.63,3.75-.43,2.74,5.08,1.69,10.11,.15,15.29-2.58,8.71-6.33,16.99-9.03,25.68-1.21,3.91-.99,7.44-1,11.18-.03,13.41,.06,26.81-.03,40.22-.16,22.71,.91,45.36,2.77,67.99,1.45,17.63,.74,18.37-16.66,18.43-3.35,.01-6.71-.06-9.94,1.05-7.56,.24-15.26,2.4-22.52-1.59l.05-1.57Z"/><path class="cls-176" d="M809.43,603.76c7.61-.05,15.22-.1,22.83-.14,6.1-1.26,12.27-.29,18.4-.56,2.59-.11,5.24,.29,7.63-1.1,1.06-.09,1.93,.38,2.2,1.35,1.51,5.37,5.01,6.31,9.88,4.74,1.76-.56,3.68-1.2,5.46,.16,.54,1.88,.48,3.73-.27,5.54-.57,5.39-.82,10.85-2.93,15.96-2-3.27-4.82-3.36-8.39-3.01-11.89,1.15-22.86-2.04-32.4-9.08-4.47-3.3-9.73-3.97-14.5-4.69-3.56-.54-4.35-1.64-4.16-5.02-2.88,2.18-1.71,8.15-6.83,4.75,5.08-1.56,1.89-5.98,3.07-8.88Z"/><path class="cls-65" d="M781.79,581.81c.1-3.39,12.28-15.7,15.13-14.85,3.67,1.1,4.07,4.71,2.25,7.39-3.52,5.19-8.9,8.55-14.47,11.12-3.69,1.7-2.39-2.16-2.91-3.66Z"/><path class="cls-133" d="M807.85,416.68c-3.77,12.31-3.05,24.97-2.37,37.51,.44,8.08,.92,16.13,.8,24.22-1.67-1.03-1.42-2.71-1.46-4.3-1.84-14-1.56-28.09-1.33-42.14,.09-5.83,.15-11.92,4.2-16.87,.06,.53,.11,1.06,.17,1.59Z"/><path class="cls-189" d="M837.85,404.88c6.01,2.58,1.71,7.79,2.96,11.59-1.7,2.18,.23,5.05-1.38,7.25v.02c-3.06-1.05-7.32,4.19-9.69-2.28-.62-1.69-4.45,2.33-7.16,.73-3.23-3.32-4.87-6.91-1.95-11.29,1.67-3.25,1.23-6.78,1.37-10.23,3.44,1.38,6.88,2.76,10.33,4.14,1.84,.02,3.69,.05,5.53,.07Z"/><path class="cls-125" d="M820.62,410.91c-.54,4.17,.83,7.84,2.99,11.29,4.42,4.09,8.71,8.3,12.74,12.78l.51,.49c1.02,1.48,.74,2.85-.34,4.16,0,.45,0,.91-.01,1.36-13.26-2.87-19.49-12.01-21.92-24.54-.21-4.27,2.08-5.81,6.03-5.53Z"/><path class="cls-164" d="M875.38,608.14c-1.8,.64-3.57,1.39-5.4,1.9-8.35,2.33-9.92,1.21-10.78-7.58-2.74-12.84-2.5-25.88-2.51-38.89-.59-13.32-.16-26.67-1.17-39.98-.24-1.33-.24-2.68-.26-4.02,.35-15.32-.77-30.65,.58-45.96,.3-.34,.59-.69,.89-1.03,8.36-12.08,17.79-23.24,28.74-33.06,3.67,1.73,2.81,4.49,1.68,7.32h.02c3.7,9.11,1.83,20.54,11.34,27.24,.49,.37,.98,.73,1.47,1.1,2.89,12.64,1.61,25.1-1.62,37.48-.03,6.69-3.8,12.27-5.5,18.47-2.08,7.61-4.49,15.12-6.26,22.81-1.11,2.61-2.37,5.13-4.16,7.35-.46,.53-1.03,.9-1.69,1.12-1.87,.07-4.23-2.07-5.45,1.09-.84,2.19-.57,4.38,1.21,5.87,4.55,3.82,5.15,8.76,4.5,14.17-2.6,8.04-1.3,16.96-5.63,24.59Z"/><path class="cls-22" d="M856.66,520.09l.08,3.08c1.4,10.57,.23,21.2,.66,31.79,.11,2.79-.67,5.67,.65,8.37,.39,13.04,.77,26.09,1.15,39.14-8.89,2.64-17.96,.71-26.94,1.16,5.69-2.76,11.75-1.2,17.59-1.15,5.35,.04,7.17-1.54,6.92-6.96-1.04-22.65-3.04-45.26-2.97-67.96,.04-14.38,.67-28.81-.19-43.14-.9-14.91,5.04-27.82,10-41.04,2.35-6.27,2.09-12.11,.45-18.22-2.04-5.44,.1-10,3.06-14.38,5.79,4.05,7.15,10.12,4.32,18-4.66,12.96-9.2,25.97-13.73,38.98-.54,1.54-.66,3.22-.98,4.84l-.11,.17c-1.1,15.78-1.16,31.56,.04,47.34Z"/><path class="cls-38" d="M867.11,410.77c-.16,4.98-1.85,9.63-3.06,14.38-6.4,10.1-15.78,14.55-27.53,14.48,.11-1.39,.22-2.78,.34-4.16,2.7-.85,5.4-1.71,8.11-2.55,12.5-3.88,15.52-13.81,16.13-25.28,2.35,.38,4.62,.91,6.01,3.13Z"/><path class="cls-31" d="M888.33,416.49c1.89,1.01,4.26,1.53,4.44,4.3-1.1,4.28-1.61,8.88-5.92,11.51-3.82-.84-7.18-3.11-6.68-6.98,.54-4.24,3.28-7.89,8.17-8.82Z"/><path class="cls-88" d="M886.84,432.3c2.63-3.5,1.72-8.82,5.92-11.51,1.05,.52,2.1,1.03,3.16,1.55l-.13,.06c-2.39,1.45-2.48,3.2-.68,5.2,.72,3.06-.84,5.85-.99,8.8-.06,.97-.22,1.91-.71,2.76-.78,1.45-3.5,1.19-3.22,3.6-1.02,1.36-2.03,2.72-3.05,4.08-.22-2.52-.23-5.08-1.68-7.32,1.38-2.23,1.65-4.67,1.37-7.22Z"/><path class="cls-157" d="M892.58,439.46c.04-.75,.07-1.51,.11-2.26,1.14-3.54,2.59-7.03,2.06-10.89-.22-1.21,.03-2.24,1.09-2.98,4.88,6,12.72,7.34,18.55,11.83-.56,.61-1.13,1.23-1.69,1.84-2.68,2.15-6.97-3.04-9.14,2.24-2.4,5.83-.78,8.74,6.44,10.45l1.75,1.58c-3,3.67-6.58,3.33-10.18,1.2-3.72-2.21-4.91-5.61-3.77-9.77,.75-2.74,1.52-5.48,2.39-8.19,.51-1.58,1.62-3.44-.79-4.07-1.92-.5-1.83,1.56-2.31,2.81-1.08,2.83-1.46,6.06-4.33,7.91-.39-.34-.55-.7-.47-1.09,.08-.4,.18-.6,.29-.6Z"/><path class="cls-191" d="M895.84,423.32c-.12,1.22-.24,2.44-.36,3.65-.46,.35-.81,.26-1.06-.26-1.11-.05-3.02,1.42-2.94-1.08,.08-2.56,2-3.33,4.32-3.24,.17,.3,.19,.61,.04,.92Z"/><path class="cls-158" d="M836.35,434.97c-5.98-2.53-10.19-6.82-12.74-12.78,1.41-.8,2.09-2.37,3.94-2.88,4.28-1.18,7.42-1.68,4.04,5.67,3.31-1.84,5.56-7.08,7.84-1.24,.17,4.07-1.03,7.77-3.08,11.23Z"/><path class="cls-158" d="M839.43,423.73c.26-2.46-.96-5.19,1.38-7.25,.01,1.45,.02,2.9,.03,4.35-.04,1.18-.29,2.25-1.42,2.9Z"/><path class="cls-178" d="M938.87,478.49c-2.02,1.38-4.03,2.77-6.05,4.15-4.28,.41-8.56,.82-12.84,1.23,.56-1.79,.25-3.51-.41-5.21,3.98-1.06,7.95-2.12,11.93-3.19-.13,1.45-2.75,4.69,1.5,3.2,2.24-.78,3.92-.28,5.86-.2Z"/><path class="cls-155" d="M898.51,474.07c-2.48,.13-4.38-1.33-5.1-3.25-2.76-7.43-5.17-15-7.61-22.55-.1-.3,.88-.96,1.36-1.45,4.11,5.46,4.59,12.03,5.61,18.43,.61,3.78,3.76,5.91,5.73,8.81Z"/><path class="cls-48" d="M938.21,444.07c.67-.08,1.34-.15,2.01-.23,3.39,2.09,3.93,5.24,3.02,8.73-1.05,4.03-2.03-.48-3.09-.11,.27-3.01,.7-6.06-1.94-8.4Z"/><path class="cls-51" d="M892.58,439.46c.06,.57,.12,1.13,.18,1.7-.86,.53-1.71,1.07-2.57,1.6-1.18-.79-2.4-1.96-1.28-3.17,.58-.63,2.41-.12,3.67-.13Z"/><path class="cls-39" d="M909.99,449.68c-3.99,2.36-7.83,2.07-9.04-2.67-1.17-4.58-.09-9.89,3.53-12.9,2.22-1.85,5.27,2.21,8.21,2.89,2.8,1.58,3.96,3.54,1.68,6.5-1.54,2-2.93,4.12-4.39,6.18Z"/><path class="cls-55" d="M885.41,554.92c3.21-14.43,7.25-28.6,12.95-42.27,.97-.86,1.94-1.73,2.91-2.59-.81,9.13-6.16,16.74-8.49,25.44-2.12,7.91-3.16,16.25-7.12,23.63-1.44-1.32-1-2.76-.25-4.21Z"/><path class="cls-55" d="M875.38,608.14c1.47-8.71,2.93-17.42,4.4-26.13,1.55-3.21,.31-6.4-.02-9.61-.28-2.67,.53-5.09,2.09-7.26,.6-.63,1.31-.81,2.14-.53,2.18,7.01-.95,13.59-2.27,20.12-1.95,9.67-1.24,19.97-6.16,29.01-.06-1.87-.12-3.73-.19-5.6Z"/><path class="cls-95" d="M885.41,554.92c.08,1.4,.17,2.81,.25,4.21-.43,.87-.87,1.74-1.3,2.61-1.13,.26-2.08-.1-2.88-.9,.74-2.35,2.19-4.24,3.93-5.92Z"/><path class="cls-173" d="M881.48,560.85c1.15-.3,2.23-.38,2.88,.9-.12,.95-.24,1.91-.37,2.86-.49,.01-.98,.03-1.47,.04-1.32-.49-2.14-1.27-1.64-2.82,.26-.29,.45-.62,.59-.99Z"/><path class="cls-115" d="M918.57,533.13c.35,2.06-1.98,3.75-.9,5.78h11.01c-.93,1.38-1.67,2.94-2.82,4.1-1.76,1.79-1.75,6.17-5.94,4.58-4.02-1.52-4.91-4.98-5.84-8.91-1.08-4.57,2.46-4.18,4.49-5.56Z"/><path class="cls-192" d="M880.88,561.83c.55,.94,1.09,1.88,1.64,2.82-1.7,5.66-.38,11.8-2.75,17.36,.17-4.46-.4-8.31-4.66-11.24-4.91-3.38-2.47-8.25-.04-11.41,2.9-3.77,3.46,2.38,5.8,2.48Z"/><path class="cls-66" d="M856.66,520.09c-2.51-2.66-1.26-5.94-1.31-8.92-.18-10.55-.14-21.1-.06-31.65,.02-2.29-.82-4.85,1.32-6.77,.01,15.78,.03,31.56,.04,47.34Z"/><path class="cls-66" d="M858.05,563.32c-2.87-6.34-.89-13.03-1.27-19.54-.4-6.85-.06-13.75-.03-20.62,2.84,5.36,1.04,11.12,1.28,16.68,.34,7.81,.05,15.65,.03,23.48Z"/><path class="cls-94" d="M894.42,426.72c.36,.06,.71,.15,1.06,.25,.82,3.88-.52,7.17-2.78,10.22-.76-3.71,.89-7.02,1.72-10.47Z"/></g><g><path class="cls-111" d="M361.68,506.92c1.27-.4,2.54-.8,3.8-1.2,.85-.05,1.69-.09,2.54-.14,1.69,.08,3.38,.15,5.07,.23,3.99,3.37,7.17,7.55,11.11,10.97,1.01,3.46,.89,6.94,.19,10.43-.21,.61-.56,1.13-1.04,1.56-6.62-2.66-10.95-8.11-15.42-13.21-2.3-2.63-6.84-3.87-6.25-8.63Z"/><path class="cls-69" d="M649.7,717.46c9.52,7.52,10.49,17.87,8.11,28.42-1.35,5.98,.44,5.72,4.79,4.74,5.23-1.18,10.54-2.05,16.88-3.25-3.86,8.87-9.08,14.9-15.9,19.66-.79,4.33-2.99,4.92-6.33,2.36-4.55-3.49-9.56-5.31-15.36-4.36-5.27,.86-9.17,3.23-9.66,9.13-.26,3.16-1.49,5.67-4.3,7.3-3.26,1.9-2.75,4.35-.95,6.92,4.52,6.45,10.15,11.84,16.27,16.72,2.8,2.24,4.62,1.81,4.64-2.2,.01-2.53-.08-5.07,.07-7.6,.34-5.69,2.02-7.75,7.35-6.78,5.82,1.05,12.43-.72,17.34,4.15-1.3,4.16,1.16,6.95,3.59,9.74,.78,1.75,2.09,3.06,3.47,4.35,1.51,1.41,3.4,2.93,1.46,5.24-1.76,2.09-3.65,1.44-5.42-.14-.46-.41-.89-.88-1.99-.89-2.3,7.61-11.58,8.47-15.19,15.17-5.9,2.51-12.43,3.61-18.2,7.91,2.65,2.57,5.8,2.82,8.65,3.75,1.79,.59,4.68,.57,3.05,3.92-3.04,2.96-6.17,5.6-2.46,10.47,3.5,4.61,2.1,7.61-3.95,7.97-2.72,.16-5.42,.52-8.24,.8-1.22,2.22,2.19,3.54,.68,6.27-7.56,1.16-14.36-2.84-21.46-5.49-1.8,.16-3.19-.92-4.72-1.57-3.35-1.46-6.18-4.13-10.09-4.3-3.55-.69-6.83-2.14-10.03-3.76-4.59-2.32-9.46-3.85-14.58-3.52-6.17,.39-10.91-2.28-15.57-5.78-3.17-2.38-3.35-4.52-.42-7.1,1.58-1.39,3.12-2.84,4.51-4.42,6.63-7.58,8.64-16.09,5.1-26.29-4.69,2.81-7.19,7.09-10,11.1-.82,1.18-1.55,2.87-3.19,2.71-2.13-.21-2.17-2.34-2.48-3.9-1.8-9.16-4.92-17.82-9.61-25.9-1.06-4.45,1.82-3.93,4.41-3.3,3.89,.95,7.63,2.48,11.59,3.14,2.03,.34,4.43,1.16,5.66-1.25,1.13-2.2-.29-3.97-1.76-5.61-4.62-5.14-4.59-5.16,1.83-7.33,3.56-1.21,7.19-2.23,10.91-3.58-5.24-5.36-13.56-6.52-20.42-3.13q-6.49,3.21-6.42-4.33c0-.42,.05-.85,0-1.26-.39-3.59-.8-8.56-4.53-8.69-3.24-.11-2.6,5.08-3.02,7.96-.82,5.63-.71,11.35,.06,17.02,.31,2.3,.91,4.62-.97,6.58-2,1.32-3.6,2.95-4.04,5.45-1.2,2.22,.08,6.39-4.58,5.91-2.05-1.74-1.72-4.18-1.76-6.44-.23-14.09-7.01-25.18-16.31-35.22-.34,13.16,4.48,24.96,9.81,36.62-1.08,5.23-4.27,4.4-7.77,2.71-7.14-8.25-12.22-18.03-19.44-26.25-2.9-3.3-5.81-6.55-9.68-9.93,.59,5.12,1.6,9.49,2.84,13.82,.44,1.41,.88,2.83,1.39,4.21,1.24,5.37,4.25,9.98,6.35,14.98-1.28,6.35-3.86,8.22-9.41,5.94-4.24-1.74-6.38-.61-7.56,3.5-1.97,6.86-2.08,13.88-2.98,21.76,4.97-1.79,7.45-4.8,10.43-7,6.25-4.62,6.78-4.55,11.04,2.19,2.22,3.51,3.54,7.61,7,10.8,3.58-5.75,6.64-11.39,6.54-18.24-.03-2.1-.07-4.23,.82-6.23,.48-.86,1.16-1.49,2.06-1.9,1.58-.44,3.12-.03,3.94,1.23,4.26,6.51,10.98,8.58,17.95,10.25,2.66,2.14,3.11,5.39,4.14,8.33,1.05,3,1.95,6.14,4.54,8.14,3.98,3.07,4.08,7.08,1.88,10.66-3.37,5.49-4.71,11.02-3.39,17.3,.3,1.41-.5,2.87-1.04,4.24-.74,1.53-2.04,2.52-3.34,3.51-2.54,2.1-5.19,4.05-7.93,5.88-6.21,4.15-7.06,3.95-10.59-2.83-1.59-4.15-.2-8.29,.1-12.44,.36-4.96-1.54-7.08-6.02-5.29-4.53,1.81-9.32,2.15-13.81,3.75-4.66,5.58-8.62,11.75-14.31,16.42-3.12,1.86-6.03,4.07-9.02-.59-1.91-2.98-4.63-.06-6.7,.44-7.41,1.77-7.42,1.96-8.42-5.88-.96-5.93,.97-9.7,7.36-10.85,2.95-.53,5.58-2.28,5.86-5.81,.28-3.51-1.44-6.21-4.23-8-5.89-3.78-11.89-3.66-17.88,0-4.11,2.51-7.57,6.18-12.5,7.25-2.53,1.47-.83,3.01-.04,4.53,1.23,2.18,1.75,4.58,2.19,7-.69,5.16-4.77,5.15-8.52,5.45-2.74,.21-5.49-.55-4.7,4.23,.62,3.73-2.84,3.65-5.33,3.02-4.9-1.23-9.6-3.13-14.35-4.86-8.63-9.12-19.51-14.45-31.11-18.66-7.92-2.88-16.45-2.92-24.4-6.18-6.17-2.53-12.44,4.22-11.42,11.03,.41,2.72,1.45,5.27,2.36,7.86,.68,1.92,1.88,3.93-.11,5.84-4.17,3.49-8.32,7.01-12.52,10.45-2.74,2.25-3.77,1.45-4.01-2.01-.56-8.22,1.34-16.27,1.31-24.44-1.14-1.24-2.48-2.25-3.73-3.35-5.24-4.62-10.3-5.24-16.12-1.38-7,4.65-13.79,9.66-18.67,16.75-1.24,1.81-3.94,3.46-.48,5.66-1.87,1.98-3.59,4.15-5.66,5.9-1.69,1.43-3.51,3.77-5.93,2.9-2.45-.89-.16-3.92-1.67-5.81-4.7,1.9-9.22,4.87-14.7,4.44-.43-5.83-1.03-11.68,.04-17.48,.47-2.58-.57-3.7-2.71-4.78-4.82-2.44-9.81-4.61-14.08-8.02,.68-4.07,4.45-3.11,6.93-4.06,3.48-1.33,7.01-2.56,7.2-6.9,.19-4.46-2.98-6.63-6.67-8.23-8.75-3.77-16.07-.35-21.66,5.78-5.14,5.64-9.51,5.97-15.83,2.44-8.17-4.56-17.07-7.04-26.65-6.67-2.54,.1-3.86,.26-3.88,3.25-.03,5.1-2.99,5.98-7.25,4.38-6.07-2.27-11.08-.59-15.49,3.89-4.31,4.38-3.02,9.21-1.5,14.17,1.16,3.8,3.54,7.24,3.4,11.42-2.23,6.9-8.29,9.79-13.87,13.17h0c-2.31,1.33-4.61,2.65-7.51,4.31-1.74-8.49-.7-16.45,.32-24.42,.37-5.13-.83-10.3,.82-15.42,.68-2.12-1.21-3.37-3.03-4.2-4.06-1.86-8.1-1.81-12.16,.09-3.44,1.61-6.51,3.8-9.71,5.8-3.08,1.93-6.17,2.93-8.2-1.48,5.69-7.69,4.96-15.98,2.59-24.58-2.61-9.52-4.23-19.37-9.69-27.87-1.33-2.07-2.44-5.04-5.3-4.86-3.17,.2-3.02,3.6-3.86,5.84-3.67,9.75-1.2,18.59,4.22,26.94,3.92,6.04,3.04,7.81-4.3,8.48-5.24,.48-10.44,1.2-15.65,1.89-2.88,.38-5.44,.16-7.67-1.81-13.4-7.99-21.73-7.08-33.5,3.71-.66,.67-1.37,1.29-2.12,1.85-1.38,.9-2.79,1.62-4.37,.4-8.58-1.25-16.86-3.54-24.45-7.81-6.63-3.74-6.59-4.18-1.2-9.61,.72-.73,1.28-1.62,1.92-2.44,.61-2.56,2.54-4.16,4.41-5.7,2.46-2.01,3.4-4.48,2.96-7.56-1.89-6.85-5.73-12.51-10.59-17.58-1.77-1.85-4.85-3.73-.8-6.39,1.67-.77,3.31-2.14,5.02-2.21,5.32-.25,7.56-3.01,7.67-8.02,1.08-3.69,3.41-3.61,6.28-2.14,4.4,2.26,9.02,3.52,14.04,2.93,3-.35,5.82-1.12,8.17-3.07,2.16-1.78,3.05-4.08,2-6.77-1-2.56-3.26-3.16-5.72-3.04-4.99,.24-9.19,2.93-13.76,4.49-2.23,.76-5.26,3.09-6.22-1.62,2.66-3.38,8.53-5.63,8.16-9.39-.28-2.87-5.87-5.17-9.01-7.83-2.52-2.14-4.91-4.43-7.36-6.66-2.67-4.91-7.05-8.83-8.8-15.61,7.8,1.59,15.05,3.08,22.29,4.56,.12,.66-.05,1.29-.58,1.67-5.66,4.11-5.59,4.02-.44,9.41,9.49,9.93,20.85,15.43,34.76,14.99,6.15-.19,6.99-1.72,4.4-7.41-4.27-9.42-10.41-16.24-21.8-16.12-3.03,.03-5.86-.86-7.31-3.99-4.07-9.54-6.33-19.59-8.52-29.69-.88-4.04,.68-4.65,4.11-4.53,5.43,.19,10.88,.05,16.76,.05-5.02-9.65-8.12-19.72-3.43-30.55,1.46-3.29,4.4-2.65,7.09-2.65,6.31,0,12.67,.22,18.86-1.23,8.29-1.94,9.88-5.03,6.6-12.95-1.35-3.26-.1-5.69,1.49-8.24,4.14-6.62,7.81-13.5,10.6-20.8,.86-2.25,2.48-5.11,.34-7.12-2.09-1.97-4.84-.3-7.14,.59-6.16,2.4-10.52,6.84-13.65,12.57-.91,1.66-1.57,3.46-2.61,5.05-.55,.85-1.09,1.98-2.38,1.63-1.16-.31-1.39-1.46-1.66-2.46-.21-.82-.34-1.67-.28-2.51,.49-6.68-.07-13.17-3.57-19.1,1.84-3.34,3.68-6.68,5.52-10.02,.74-4.54,3.38-3.26,5.93-1.87,4.08,2.23,8.27,4.11,13.03,4.06,4.88-.05,6.09-1.84,3.93-6.29-3.49-7.18-9.64-11.27-16.97-13.85-.71-.64-1.2-1.41-1.31-2.38-.94-8.84-5.21-16.78-6.73-25.51-.83-4.77-.39-6.69,4.81-6.11,3.75,.42,8.61,1.87,11.06,.14,3.15-2.21-1.37-6.76-.49-10.46,.14-.6,0-1.26,.03-1.89,.48-10.2,2.92-11.6,11.74-6.62,2.2,1.24,4.64,2.36,6.34,4.14,6.62,6.94,14.18,8.27,23.21,5.51,6.28-1.92,12.99-1.58,19.5-1.04,3.69,.31,5.3-.38,5.56-4.44,.34-5.14,2.81-9.62,6-13.7,2.78-3.54,5.09-2.85,7.4,.38,2.75,3.84,3.76,8.45,5.59,12.69,3.13,6.13,1,13.13,3.08,19.09-1.11-7.79-2.48-15.9-.81-24.12,.35-1.43,.71-2.85,1.04-4.29,.98-4.31,3.11-4.22,6.29-1.94,7.43,5.33,13.08,12.39,19.11,19.09,1.51,1.56,2.98,2.11,4.34-.17,4.4-6.97,7.26-7.06,11.58-.42,3.31,5.1,4.59,10.77,4.86,16.75,.96,.97,1.18,2.19,1.14,3.49q-.2,7.05,7.05,5.62c2.07-.41,4.12-.87,6.21-1.17,2.09-.3,4.4-.69,5.83,1.29,1.49,2.07,.13,4.07-.95,5.83-3.69,6-8.71,10.77-14.16,15.12-2.65,1.25-4.92,2.86-5.57,5.98-5.82,5.32-7.56,4.98-9.83-1.96-.26-.8,.13,.18-.18-.6-1.22-3.05-1.14-7.74-4.32-8.55-3.71-.95-4.56,4.12-6.96,6.23-.48,.42-.98,.77-1.59,.96-5.31-1.68-5.94-8.01-10.84-10.71-1.29,3.35-1.49,6.92-2.55,10.24-1.26,3.94-3.51,5.51-7.63,3.94-5.9-2.25-11.77-2.89-17.78,0-3.56,1.71-5.01-.49-5.33-3.81-.18-1.91,.21-3.77,.45-5.66,1.19-9.37-10.3-19.4-19.54-17.16-1.99,.48-2.13,1.81-2,3.33,.32,3.73,1.37,7.5-2.11,10.58-.97,.86-.26,2.4,.34,3.55,.49,.94,1.23,1.72,1.76,2.62,8.77,14.81,22.2,17.27,37.69,14.26,2.48-.48,4.9-1.26,7.35-1.88,3.42-.87,5.37,.46,5.65,3.93,.33,4.08,2.07,7.71,3.37,11.49,3.19,11.58,9.46,21.57,16.55,31.03,3.64,4.86,6.09,10,6.98,15.98,.91,6.07,3.25,11.74,5.29,17.48,.29,1.46-1.39,3.97-.66,3.92,3.73-.22,5,4.68,8.59,3.86,1.77-.41,3.1-.58,4.66,.62,6.12,4.73,8.45,4.58,14.34-.62,1.82-1.61,3.21-4.25,6.34-2.5,1.57,4.65-4.49,5.54-4.72,9.34,9.78,1.6,20.19-5.84,23.15-16.79,.87-3.22,1.84-6.43,2.6-9.69,.76-4.16-.1-8.46,1.04-12.57,1.77-6.41,4.79-7.92,10.67-4.99,7.94,3.96,15.27,8.84,21.27,15.5,.41,6.27-4.14,10.39-7.12,14.97-1.98,3.04-4.45,.45-5.8-1.87-2.56-4.37-5.52-8.41-9.54-12.87-1.33,8.96,2.66,15.97,4.18,23.42,.56,2.74,3.87,6.28,1.04,8.03-3.12,1.92-5.04-2.61-7.44-4.4-.17-.12-.33-.25-1.14-.85,1.4,5.94,2.75,11.26,4.19,16.57,1.45,5.34,3.62,10.34,6.18,15.22,2.65,5.06,6.69,8.64,11.55,11.41,1.69,.96,3.57,1.73,5.31,.23,1.62-1.4,1.63-3.42,1.11-5.3-1.21-4.34-3.83-7.99-6.34-11.62-2.68-3.87-4.06-7.51-2.25-12.34,1.68-4.49,.25-9.23-.91-13.72-1.15-4.46-.49-6.91,4.74-8.06,9.12-2.02,15.86-7.58,19.88-16.18,.7-1.5,1.06-3.27,2.99-3.82,2.35,1.1,3.82,.56,4.67-2.07,1.03-3.2,2.73-6.08,5.2-8.42,3.95-3.75,7.04-3.19,10.31,1.18,1.86,2.49,.86,6.34,4.16,7.97,2.24,6.39,2.89,13.03,3.11,19.73,.25,7.49,.91,8.46,8.13,10.72,3.83,1.2,7.75,2.32,11.78,2.16,5.91-.23,7.61-3.41,5.44-8.93-2.27-5.8-7.53-9.61-9.89-15.32,.07-1.52,.91-2.37,2.37-2.66,5.19-4.21,10.87-7.62,16.71-10.85,4.15-2.3,6.93-1.9,8.23,3.04,2.1,3.91,1.63,8.09,1.32,12.26-5.49,8.28-10.52,16.74-11.33,27.03-.2,2.55-.87,5.01,1.73,6.85,1.68,1.19,1.23,2.83,.73,4.57-1.52,5.34-.54,6.65,4.91,6.67,7.3,.03,13.03-3.65,17.67-8.66,4.23-4.57,7.52-9.98,10.69-16.5-6.03,.73-10.31,3.34-14.83,5.24-1.71,.72-3.57,2.04-5.33,.64-1.63-1.29-.42-3.15-.09-4.71,.89-4.25,.66-8.34-1.03-12.39-.96-2.3-2.13-4.66-1.1-7.3,1.59-2.34,4.23-2.83,6.61-3.79,4.65-1.77,9.53-1.5,14.35-1.4,5.53,.11,10.95-.52,16.2-2.15,6.86-2.12,7.85-7.21,2.87-12.36-3.57-3.69-8.57-3.07-12.72-4.92-1.59-3.15,1.48-4.07,2.93-5.39,4.1-3.72,3.72-7.49,1.17-11.82-2.17-3.69-5.53-6.35-7.98-9.77-2.53-3.53-1.93-5.25,2.37-5.76,5.53-.66,10.78,1.51,16.22,1.93,2.39,.83,4.8,1.63,7.1,2.72,5.46,2.74,10.77,5.83,16.89,7.01,4.44,.85,6.16,3.66,4.71,7.88-2.64,7.68-.46,14.5,3.19,21.18,2.5,4.56,1.55,6.31-3.77,6.99-1.67,.21-3.38,.08-5.06,.24-9.24,.9-14.96,6.58-15.97,15.83-.09,.84-.1,1.68-.13,2.53q-.38,11.64,10.56,8.3c1.54-.47,3.78-1.72,4.52,.27,2.14,5.78,4.37,1.85,6.04,.08,20.06-21.3,20.08-22.79,11.02-47.36-4.35-11.79-8.29-24.54-18.8-33.15-1.97-1.84-4.42-2.86-6.8-4.02-2.8-1.19-4.97-3.14-6.73-5.59-5.68-5.31-10.99-10.9-14.38-18.77,6.73-.47,12.54,2.45,19.14,2.6-3.22-8.38-5.7-16.56-7.39-24.96-.73-3.6-.18-5.64,4.23-5.22,3.69,.35,7.44,.07,11.58,.07-2.2-6.43-4.23-12.53-2.57-19.26,1.35-5.44,3.71-7.01,8.64-3.82,1.75,1.13,3.75,1.87,5.63,2.79,3.64,1.26,6.36,3.82,9.06,6.41l-.09-.06c1.36,.42,2.24,1.21,2.1,2.77,.78,13.88,4.03,27.09,10.64,39.4,.8,1.48,1.76,2.9,2.98,4.09,.88,.87,1.84,2,3.25,1.24,1-.54,1.06-1.74,1.13-2.8,.38-6.06-1.18-11.74-3.52-17.23-2.83-6.64-6.7-12.68-11.19-18.34-1.66-2.09-3.91-4.08-2.56-7.28,1.6-1.09,3.48-1.92,5.27-1.86,7.27,.24,9.87-3.75,9.95-10.3,.32-.24,.38-.53,.18-.88,1.43-2.75,2.85-5.5,4.28-8.26,5.89-5.43,6.23-5.31,11.93,4.05,.86,2.49,1.94,4.94,2.53,7.5,.51,2.22,1.1,3.95,3.8,3.79,4.2-.55,3,1.56,1.43,3.26-2.42,2.63-5.33,4.78-7.68,7.5-3.45,4-6.71,8.15-8.71,13.1-1.72,4.24-.95,5.22,3.69,4.98,8.86-.45,19.09-10.83,20.84-21.15,.28-1.66,.24-3.36,.59-5.02,.37-1.78,1.17-3.55,3.25-3.1,7.51,1.63,8.05-3.09,8-8.46,.15-3.58-.12-8.15,3.37-9.49,2.73-1.05,5.37,2.61,7.69,4.67,8.06,7.13,15.41,14.83,20.24,24.67,2.63,5.36,6.78,5.63,10.75,1.1,4.86-5.53,10-10.73,16.36-14.56,2.04-1.47,4.79-1.84,6.32-4.1,10.17-6.34,12.28-5.3,12.81,6.63,.12,2.63,.22,4.99,2.51,6.68,2.16,2.48,.4,4.74-.44,7.01-2.49,6.73-4.44,13.55-4.17,20.85,.13,3.62,1.17,6.58,4.59,8.33,3.36,1.72,6.02,.42,8.6-1.78,1.21-1.03,2.33-2.59,4.34-1.75,7.18-1.28,14.36-2.55,22.47-4-3.33,7.64-7.91,13.21-13.59,17.82-2.24,1.82-3.39,3.56-2.49,6.37,.42,3.17-2.13,3.95-4.19,4.69-5.36,1.93-7.51,5.49-7.16,11.17,.2,3.22,1.48,8.19-1.87,9.22-3.29,1.01-3.77-4.24-5.58-6.65-3.6-4.79-7.37-9.37-13.46-10.99-5.6-1.49-7.81,.8-6.01,6.25,4.03,12.21,11.4,22.56,18.71,32.92,1.73,2.45,4.21,2.34,6.85,1.97,2.85-.4,5.94-1.35,8.04,1.81,.18,.62,.2,1.25,.08,1.89-1.54,4.55-6.18,3.72-9.39,5.38-3.88,2.02-9.75,1.69-7.97,9.41,.69,3.01-3.89,5.22-7.39,5.54-2.33,.22-2.42-2.01-2.21-3.69,.43-3.57,.53-7.13,.54-10.72,.02-5.52-1.93-10.3-5.31-14.54-1.14-1.43-2.16-3.59-4.36-3.04-2.27,.58-2.04,2.96-2.16,4.79-.25,3.79,.06,7.55,.71,11.31,1.36,7.9,4.09,15.46,5.71,23.29-.14,1.06-.74,1.74-1.71,2.12-6.52-.23-11.63-4.76-17.87-5.87-.6-.19-1.17-.46-1.77-.64-2.34-.71-5.79,.49-6.86-2.12-1.23-2.99,2.1-4.61,3.75-6.64,4.33-5.33,8.26-10.91,12.07-17.61-10.52,1.3-18.99,5.17-26.67,10.77-3.45,2.52-5.7,6.17-6.49,10.48-.39,2.12-.32,4.41-3.51,3.93-.92-.33-1.55-.97-1.95-1.85-1.11-8.68-.56-17.6-3.72-26.42-3.47,.88-4.95,3.87-6.91,6.03-6.36,7.01-6.23,7.05-12.96-.04-2.58-2.71-5.03-5.58-8.29-8.42-4.48,7.7-6.01,15.74-4.32,23.8,1.17,5.55-.11,7.88-5.4,8.54-9.23,3.94-17.56,11.13-23.91,21.07,14.29,.71,26.12-3.25,35.97-13.01,3.76-1.41,3.74,1.45,4.26,3.73,.02,3.06,.44,6.21-2.08,8.65-21.73-1.02-32.14,15.79-45.06,28.65-.43,.43-.57,1.12-.35,1.78,14.92,3.82,41.43-5.59,50.14-17.84,.36-.5,.53-1.15,.82-1.72,1.21-1.98,2.52-3.82,5.17-3.84,3.58,1.79,1.67,4.84,1.4,7.27-1.03,9.2-2.5,18.36-2.41,27.66,.02,1.62-.54,3.76,1.28,4.56,1.71,.75,3.14-.88,4.45-1.86,4.38-3.3,8.51-6.89,12.69-10.44,3.37-2.87,6-2.31,8.31,1.33,3.73,5.87,7.37,11.8,11.1,17.67,1.26,1.98,2.48,3.03,4.13,.49,7.3-11.24,12.22-23.26,9.83-36.94-1.82-10.37-7.42-17.82-18.59-19.7-1.24-.21-2.46-.61-3.59-1.2-3.55-4.71-2.99-11.11-6.52-15.84,3.77-3.52,9.65-2.7,14.17,1.97,4.86,14.11,12.57,16.86,29.08,17.42,3.47,.12,7.01-1.03,10.51-1.64,2.52-.43,3.66-1.73,3.35-4.29,.31-1.02,1.02-1.58,2.04-1.78,6.18,2.08,13.06,2.31,18.33,6.84-.89,4.17-2,8.26-4.14,11.99-2.66,1.27-4.92-.3-7.25-1.11-5.77-2-11.65-1.84-17.51-.81-3.5,.61-5.71,1.94-1.96,5.57,2.57,2.48,4.62,5.49,6.39,8.63,3.15,5.61,2.82,8.98-1.28,13.87-1.08,1.3-2.26,2.52-3.5,3.66-3,2.74-2.76,5.01,.91,6.77,8.89,4.26,18.46,5.85,28.13,6.89,2.83,.31,4.55-1.82,6.14-3.88,2.85-3.68,5.26-7.65,7.9-11.47,1.05-1.52,2.17-3.36,4.56-1.92Z"/><path class="cls-42" d="M370.48,559.01c.55,.16,1.46,.18,1.6,.51,5.6,13.29,10.61,26.76,8.76,41.57-1.68,13.52-12.12,19.95-24.91,15.78-7.88-2.57-14.79-7.03-22.09-10.72-3.57-2.44-2.44-6.58-3.6-9.89-.26-.95-.41-1.91-.5-2.88-.09-.95-.1-1.9-.03-2.84,.22-4.66,3.59-4.9,7.13-5.32,8.48-1.01,11.42-3.88,12.8-12.04-2.72-.32-3.38,2.09-4.67,3.56-1.42,1.61-2.81,3.19-5.06,3.54-1.78,.28-3.38-.07-4.49-1.63-1.07-1.5-.42-2.96,.59-4.03,3.57-3.8,6.47-8.4,11.75-10.23,1.86,.84,3.41-.46,5.11-.78,1.16,.19,2.17,.7,3.04,1.49,2.35,3.24,5.91,5.18,8.69,7.95,1.03,1.02,2.38,2.23,3.76,.94,1.62-1.51,.26-2.96-.66-4.36-1.47-2.24-5.02-3.6-3.22-7.3,1.18-2.61,4.02-2.2,6.02-3.32Z"/><path class="cls-72" d="M331.29,595.71c1.93,3.22,1.14,7.1,2.55,10.44,1.75,10.04,3.5,20.07,5.26,30.11-.36,1.08-1.3,2.23-2.18,1.9-5.96-2.24-8.69,2.01-11.65,5.65-1.89,2.32-4.52,3.83-5.93,.8-1.93-4.15-4.67-4.67-8.43-4.34-.45,.04-.83-.86-1.11-1.44-1.03-10.24-3.63-20.35-2.4-30.76,.76-1.54,2.16-1.84,3.67-1.7,7.7,.73,13.78-1.9,17.98-8.54,.55-.87,1.29-1.62,2.23-2.12Z"/><path class="cls-7" d="M355.31,565.23c-.88-.33-1.77-.66-2.65-.99-7.39-8.65-12.52-18.59-16.75-29.06,1.12-3.26-.7-6.4,.9-10.17,3.65-8.6,10.54-10.75,17.43-4.16,3.62,3.46,5.41,7.93,7.21,12.41,.33,4.11,5.72,3.02,6.69,6.48-4.17-.18-5.8,1.33-3.74,5.46,2.26,4.5,1.12,10.5,6.09,13.81-.9,2.29-3.69,2.05-5.02,3.75-3.03,2.29-6.3,3.56-10.15,2.48Z"/><path class="cls-11" d="M361.48,657.61c3.71,4.83,8.06,9.14,10.69,14.81,3.58,7.71,.81,12.55-7.6,11.95-5.87-.41-11.59-2.07-17.02-4.45-3.23-1.41-3.77-4.3-3.65-7.41,.29-7.51-1.19-14.82-2.47-22.15-.65-.68-.56-1.24,.27-1.68,3.04-4.34,6.21-3.75,9.62-.38,2.07,2.05,4.35,3.9,6.53,5.84,1.37,.99,2.88,1.83,3.64,3.46Z"/><path class="cls-50" d="M360.43,533.63c-1.02-2.04-2.18-4.02-3.04-6.13-2.75-6.77-8.92-8.17-15.01-9.26-2.96-.53-4.63,5.71-2.15,10.21-1.48-1.04-2.37-2.17-3.09-2.06-1.48,.22-.42,1.58-.56,2.46-.32,2.1,4.64,4.39-.24,6.3-.93,.76-2.03,.9-3.18,.87-4.57-.16-6.03-3.09-6.2-7.08-.19-4.38-.26-8.77,0-13.15,.36-6.14,1.83-7.25,8.24-6.93,1.65,.08,3.34,.31,4.94-.39,7.18-.58,14.29-1.97,21.54-1.56,6.52,7.81,14.19,14.49,21.39,21.63,1.84,1.48,1.71,3.38,1.13,5.36-2.24,2.97-3.7,.11-5.12-.89-3.28-2.32-5.78-5.55-8.81-8.18-1.17-1.01-2.6-1.86-3.95-.59-1.5,1.4-.18,2.6,.67,3.82,2.74,3.96,7.4,6.38,9,11.24-.12,.27-.24,.55-.35,.82l-2.55-.3c-4.72-1.05-9.08-2.84-12.66-6.21Z"/><path class="cls-49" d="M383.12,534.77c-.02-2.07-.03-4.14-.05-6.22l.31,.05c2.89-.53,3.82,2.11,5.53,3.46,1.2,.95,2.41,2,3.87,.74,1.6-1.38,.35-2.62-.52-3.79-1.22-1.63-3.62-3.18-2.45-5.34,1.22-2.26,4.12-1.86,6.35-1.67,3.49,.3,7.06-1.35,10.47,.46,.2,7.47-1.34,15.43,7.46,19.92,1.82,.93,1.23,4.2,.92,6.5-.99,2.7-2.83,2.39-5.11,1.77-6.91-1.87-13.91-3.32-20.97-4.6-4.74-.86-7.97-5.87-13.29-5.91l-.29-.23,.08-.36c2.68-1.42,6.1-1.63,7.71-4.77Z"/><path class="cls-20" d="M415,548.88c-1.53-4.98-3.5-9.5-9.26-11.06-2.35-.64-2.08-2.5-1.49-4.58,1-3.58,2.21-7.18,1.84-11.01-2.21-.91-2.63-2.88-2.94-4.92-1.18-4.74-.16-8.61,5.14-9.5,4.41-.75,4.16-6.04,7.91-7.13,5.04,4.91,4.98,9.03-.18,13.24-.32,.26-.98,.5-.98,.73,.17,6.67-1.36,14.1,1.1,19.81,2.62,6.09,4.11,8.85-1.14,14.44Z"/><path class="cls-53" d="M404.81,517.14c.43,1.69,.85,3.38,1.28,5.08-4.87,2.63-10.27,.39-15.4,1.61,0,2.52,2.06,3.64,3.54,4.79,2.96,2.29,1.6,4.05-.16,5.98-2.14,2.35-3.86,1.61-5.64-.58-1.55-1.92-3.36-3.62-5.05-5.42-.04-4.24-.08-8.48-.13-12.73-1.67-4.2-2.85-8.77-7.93-10.36,7.52,.22,12.89-6.87,20.59-6.04,.42,1.46-.83,2.26-1.35,3.35-1.32,2.77-1.27,5.84-1.03,8.67,.38,4.49,4.62,2.28,7.06,3.23,1.57,.61,3.29,.75,4.21,2.42Z"/><path class="cls-72" d="M404.81,517.14c-1.61-.35-3.25-.61-4.84-1.06-2.8-.79-7.43,1.24-8.18-1.26-1.12-3.71,.11-8.15,.47-12.26,.18-2.1,2.81-1.6,3.65-3.08,4.85-.88,9.71-1.77,14.56-2.64,3.12-.56,5.13,.58,5.72,3.82-.78,5.21-3.78,8.17-8.95,9.12-5.14,.95-2.03,4.76-2.44,7.36Z"/><path class="cls-186" d="M341.69,648.68c-.09,.56-.18,1.12-.27,1.68-2.14-1.59-2.6-4.21-3.81-6.36-3.43-6.09-5.48-6.32-9.95-.84-2,2.45-3.39,5.25-4,8.37-.29,1.47-.48,3.11-2.23,3.35-2.2,.3-2.7-1.47-3.08-3.17-.64-.58-1.13-1.35-1.07-2.15,.36-4.85-1.87-7.14-6.7-6.99-.35-.93-.27-1.76,.56-2.4,3.86-3.32,7.01-2.77,8.55,2.13,1.13,3.61,2.25,3.72,4.38,.88,1.01-1.35,2.04-2.7,3.24-3.88,2.29-2.26,4.31-5.54,8.27-2.24,1.1,.92,2.34-.44,3.51-.79,.87,4.14,1.73,8.28,2.6,12.42Z"/><path class="cls-167" d="M375.32,505.52q8.11,.62,7.93,10.36c-5.06-1.66-8.58-4.89-10.16-10.07,.75-.1,1.49-.2,2.24-.29Z"/><path class="cls-136" d="M360.43,533.63c4.96,.56,8.24,4.54,12.66,6.21-1.65-.03-3.3-.07-4.95-.1-3.06-1.42-7.84-.66-7.71-6.11Z"/><path class="cls-120" d="M474.42,528.81c-3.34-1.68-6.32-3.89-9.06-6.41,4.93-.56,6.87,3.1,9.06,6.41Z"/><path class="cls-145" d="M361.48,657.61c-1.21-1.15-2.42-2.31-3.64-3.46,1.84,.49,3.68,.98,5.53,1.47-.63,.66-1.26,1.33-1.89,1.99Z"/><path class="cls-59" d="M167.59,865.95c-1.66-4.98-3.29-9.96-5-14.92-1.84-5.37-.68-9.77,3.64-13.59,4.63-4.1,9.76-6.23,15.6-3.62,4.63,2.07,6.79,1.74,6.05-3.85-.42-3.21,1.04-3.29,3.92-3.5,11.91-.86,22.52,3.06,32.57,8.56,3.81,2.09,5.32,.98,7.84-1.69,10.14-10.78,18.55-12.74,28.94-6.93,3.59,2.01,5.23,5.18,5.06,8.8-.19,3.91-3.16,6.27-6.82,7.51-3.13,1.07-6.67,.8-9.45,2.98-1.93-.15-3.78-2.27-5.8-.25,4.29,7.06,4.33,7.34-4.3,8.58-14.83,2.13-29.74,4.16-44.44-6.47,2.09,8.36,1.1,15.25,.09,22.15-.02,.78-.03,1.56-.05,2.35-1.84,5.35-4.35,10.41-7.04,15.34-2.25,4.12-4.53,4.09-7.31,.4-2.14-2.84-3.86-5.95-5.93-8.82-2.42-4.41-6.47-7.87-7.55-13.05Z"/><path class="cls-118" d="M311.16,640.15c-.11,.74-.22,1.48-.33,2.21-3.38,5.14-7.71,9.07-13.81,10.71-6.87-4.78-12.95-10.67-20.61-14.35-6.55-3.14-8.73-1.93-9.83,5.37-.57,3.83,1.48,7.94-1.23,11.52-5.15,1.42-5.22-3.55-7.41-5.86-.83-1.34-1.43-2.79-1.81-4.32-.79-4.35-4.32-5.19-7.8-6.27-1.57-.49-4.93-.39-2.2-3.67,6.93-.65,13.07-3.2,18.4-7.67,7.86-3.88,13.64-1.47,17.79,5.9,.52,.93,1.29,1.7,2.2,2.24,1.63,.97,3.44,2.32,5.08,.35,1.42-1.71-.02-3.15-1.17-4.39-2.45-2.63-5.09-5.06-7.55-7.68-2.38-2.54-3.75-5.18-.88-8.31,1.02-1.11,2.04-2.51,.79-3.91-1.62-1.82-3.05-.22-4.39,.69-1.84,1.24-3.71,2.37-5.69,.46-1.96-1.89-1.71-4.1-.66-6.42,.61-1.34,3.04-2.67,.82-4.25-2.15-1.53-4.09-.06-5.51,1.59-3.34,3.87-2.3,7.66,.18,11.61,1.19,1.9,4.84,4.1,.49,6.61-7.6,1.33-15.33,2.06-22.51,5.2-3.04,1.33-5.74,.82-8-1.56-2.97-3.14-6.89-5.59-7.7-10.34,.54-6.21,4.36-10.77,7.85-15.51,3.34-4.53,3.2-4.9-2.29-6.58-.8-.25-1.63-.42-2.44-.65-4.25-1.22-5.46-3.39-2.75-7.37,2.31-3.4,4.82-6.77,6.35-11.41-4.5-.17-7.75,2.26-11.42,2.6-1.52-.19-3.4,.12-3.38-2.31,6.24-5.82,13.12-11.14,16.17-20.16-6.42-.51-12.03,1.52-17.64,2.74-4.64,1.01-5.14,.06-3.82-4.02,.83-2.57,.99-5.35,1.45-8.03,8.11-3.05,16.51-5.41,23.98-10.01,.43,0,.85,0,1.28,0,3.96,.11,4.12,3.76,5.27,6.12,3.53,7.28,7.91,13.81,13.99,19.22,2.89,2.57,5.3,3.11,7.9-.27,2.31-3,5.43-5.25,7.92-8.1,1.29-.99,2.66-1.6,4.3-.91,3.93,4.99,6.11,11.08,10.13,16.02,.47,.68,.92,1.38,1.49,1.97,1.42,1.46,2.92,3.86,5,2.9,2.69-1.24,.36-3.58,.03-5.4-.33-1.81-1.28-3.51-.77-5.44,9.44-3.92,18.24-8.96,26.37-15.16,.46-.35,1.23-.02,1.83,.19,3.22,3.62,1.85,7.9,1.78,12-.12,.64-.34,1.26-.66,1.83-8.34,2.16-12.64,9.83-19.32,14.28-1.93,1.28-2.82,3.07-2.07,5.42,.22,1.49-.15,2.86-.79,4.21-3.76,7.89-2.39,14.88,3.79,20.99,.57,.76,.95,1.58,.9,2.56,.97,10.95,1.93,21.91,2.9,32.86Z"/><path class="cls-141" d="M281.89,456.23c13.33-5.62,26.29-3.65,38.59,2.76,5.23,2.72,6.06,8.83,6.8,14.26,.48,3.51,.29,7.11,.4,10.66-.93,2.67-3.32,2.97-5.6,3.34-9.76,1.56-19.6,2.52-29.43,3.58-3.11,.34-6.38,.45-8.78-2.31-4.19-10.54-2.66-21.45-1.98-32.3Z"/><path class="cls-37" d="M281.89,456.23c.51,.31,1.48,.67,1.46,.93-.89,10.3-.32,20.55,.97,30.78,.55,1.41,2.57,2.5,.96,4.38-4.38,1.73-8.96,2.77-13.52,3.95-3.33,1.09-6.69,2.05-10.1,2.81-2.53,.57-5.33,1.35-7.1-1.69,.17-6.19-.58-12.39,.43-18.56-.09-5.2,3.3-8.48,6.73-11.52,5.86-5.18,12.6-8.93,20.17-11.08Z"/><path class="cls-25" d="M276.79,552.93c-3.26,3.54-6.56,7.04-9.78,10.61-2.72,3.03-4.63,.38-6.34-1.09-6.3-5.41-11.47-11.71-14.88-19.41-1.26-2.85-2.22-5.94-4.64-8.16,1.93-5.37,5.89-7.68,11.44-7.61,1.2,1.06,1.57,2.52,1.64,3.99,.32,6.46,3.49,11.11,8.95,14.34,3.41,4.53,9.96,3.23,13.6,7.32Z"/><path class="cls-25" d="M324.96,558.94c-.91-4.24,1.63-8.93-1.68-12.86-3.39-5.67-1.61-11.43-.33-17.21,.13-8.78-.08-17.55,.05-26.32,.04-2.89-.28-5.89,1.6-8.46,1.92-1.23,3.77-1.35,5.53,.3,2.5,1.97,3.44,4.85,3.01,7.67-.9,6,2.1,7.08,7,6.42-.53,.32-1.03,.83-1.6,.93q-9.71,1.63-9.77,11.5c-.02,2.73,.18,5.49-.09,8.19-.38,3.91,1.21,5.75,5.08,5.74,1.69,1.98,1.73,4.27,1.24,6.66-1.3,4.11-.37,8.37-.88,12.53-.71,5.73-3.31,7.09-9.16,4.91Z"/><path class="cls-15" d="M330.13,494.4l-5.15-.03c-7.24,3.58-14.91,1.33-22.38,1.65-2.64-.38-5.17-1.35-7.83-1.59-.61-.1-1.2-.27-1.79-.45-1.94-.78-4.08-.6-6.06-1.19-.55-.24-1-.61-1.33-1.12-.42-1.24-.84-2.47-1.26-3.71,5.57,3.12,11.19,.43,16.71-.08,8.94-.83,17.99-1.18,26.65-3.94l-.02,.07c3.45,3.54,8.58,1.31,12.38,3.63,1.66,1.01,4.94-.15,5.04,2.57,.1,2.9-3.41,1.55-4.92,2.83-3.22,1.34-6.65,1.14-10.02,1.38Z"/><path class="cls-184" d="M255.54,498.43c5.74-.21,10.9-2.85,16.44-3.9,.65,.82,.91,1.77,.93,2.8-.43,2.9-.59,5.88-2.12,8.51-8.97,2.47-9.85,5.78-3.01,13.27,3.91,4.28,6.18,8.81,5.25,14.67-.96,2.71-1.84,5.5-5.05,6.45-2.45-4.75-3.43-10.18-6.64-14.59-2.17-8.26-6.98-15.83-6.4-24.79-.35-.94-.77-1.9,.59-2.43Z"/><path class="cls-10" d="M261.35,525.65c5.18,3.53,6.96,8.61,6.68,14.63,.58,4.08-1.23,6.05-5.32,5.99-9.36-3.14-10.23-10.81-10.11-19,2.74-1.46,5.79-1.31,8.75-1.62Z"/><path class="cls-122" d="M340.15,493.02c1.36-.85,2.72-1.7,4.81-3-4.97-1.19-8.93-3.42-13.58-3.35-1.84,.03-3.29-.68-3.73-2.68,6.88,2.46,14.8,1.61,21.55,6.56-3.05,2.26-5.93,2.77-9.06,2.47Z"/><path class="cls-116" d="M255.54,498.43c-.2,.81-.39,1.62-.59,2.43-1.45-7.34-2.08-14.69,.05-22.02,.18,6.53,.36,13.07,.54,19.6Z"/><path class="cls-59" d="M62.26,598.18c9.61,5.74,3.22,15.26,5.8,23.05,2.73-5.05,4.51-10.76,9.21-14.48,.66-.52,1.14-1.28,1.83-1.75,4.94-3.36,11.28-7.99,16.01-4.48,4.22,3.13-.19,9.64-2.31,14.31-2.01,4.42-4.12,8.82-6.62,12.97-2.64,4.39-6.47,7.86-1.53,13.66,2.83,3.32-.56,8.74-5.91,10.66-7.19,2.57-14.75,2.44-22.24,2.27-2.75-.06-5.46-.6-7.96,.99-.97-1.78-5.18-1.07-3.66-4.77l-.06-.06c1.11-2.49,2.44-4.85,4.53-7.25-3.67-2.68-7.97-3.29-11.36-5.68-4.81-3.4-4.98-4-1.06-8.14,.73-.77,1.43-1.57,2.24-2.23,8.94-7.24,6.42-11.67,.16-19.62-1.93-2.45-5-3.97-5.92-7.26,6.82-5.76,14.7-5.51,22.77-3.92,2.06,.41,4.05,1.14,6.07,1.72Z"/><path class="cls-1" d="M73.85,568.88c9.24,2.49,15.81,7.9,19.28,17.03,1.77,4.65,.03,6.04-4.44,6.22-5.92,.24-11.27-1.46-15.97-4.74-2.37-1.65-3.55-1.12-4.95,.76,.21-1.59-.84-2.6-1.7-3.69-3.52-3.79-6.99-7.64-10.73-11.25-2.09-2.73-1.19-4.52,1.8-5.59,2.15-.77,4.34-1.24,6.65-.83,3.34,.77,6.75,1.19,10.06,2.08Z"/><path class="cls-76" d="M63.58,567.97c-2.04,.39-4.11,.71-6.13,1.2-4.08,.98-2.01,2.45-.26,3.87-.51,3.11-2.55,1.66-4.19,1.4l-.97-1.11c-.96-2.79-3.33-4.46-5.15-6.57l.05,.07c-.74-2.15-1.15-4.8,2-4.47,5.52,.58,11.16,1.1,16.28,3.66,.79,.39,1.32,1.11,.59,1.93-.64,.73-1.48,.43-2.23,.02Z"/><path class="cls-152" d="M63.58,567.97c.75-.32,2.73-.82,.68-1.5-4.68-1.54-9.56-2.59-14.43-3.46-2.75-.49-2.56,2.04-2.89,3.82-1.95-1.45-2.57-3.63-4.08-6.77,10.66,2.22,20.61,2.77,29.52,7.77,.49,.35,.98,.7,1.47,1.05-3.45,.02-7.02,1.32-10.27-.91Z"/><path class="cls-152" d="M53.01,574.43c1.43-.35,3.15,.14,4.19-1.4,3.08,3.72,7.74,6.2,8.87,11.43-5.17-2.27-9.51-5.64-13.06-10.03Z"/><path class="cls-152" d="M46.89,566.75c2.8,1.34,5.18,3.01,5.15,6.57-2.45-1.61-4.13-3.83-5.15-6.57Z"/><path class="cls-56" d="M199.47,528.57c.19,1.12-.06,2.13-1.25,2.41-1.78,.42-2.58-.78-3.09-2.24,1.46,.35,2.92,.69,4.34-.17Z"/><path class="cls-29" d="M115.68,843.17c2.69,2.33,4.76,1.58,7.63-.4,6.47-4.46,12.9-9.83,21.87-6.14,3.96,1.63,6.8,3.62,4.54,8.22-2.11,4.32,.27,9.25-2.23,13.41-.18-2.67-.67-3.59-3.52-1.67-11.44,7.71-24.57,9.57-37.96,10.24-2.61,.13-5.92,.8-2.53-5.16-3.57,2.71-5.72,4.52-8.04,6.06-1.51,1-3.15,2.83-5.07,1.74-1.98-1.12-.81-3.44-.93-5.24-.06-.8,.14-1.62,.28-2.97-5.14,2.33-9.67,4.96-14.83,6.01-3.28,.67-5.14,.24-5.26-3.76-.13-4.41-1-8.8-.11-13.23,.7-3.48-.1-5.05-4.22-4.24-10.65,2.08-21.44,.9-32.19,.87-5.17-.02-4.26-2.07-2.34-5.25,1.69-2.8,4.93-4.79,4.79-8.61,1.31-.47,2.62-.94,3.93-1.42,3.94,3.18-1.37,4.85-1.14,7.5,.72,.62,1.38-.17,2.1-.28,4.28-.63,5.04-2.32,1.75-5.45-.8-.76-2.24-1.42-1.46-3.03,9.61-11.69,20.3-13.17,35.5-4.91,.31,2.34-1.56,2.13-2.88,2.29-1.68,.21-3.34-.39-5.01-.53-7.79-.65-9.65,1.24-9.52,9.1,.06,4.15-.29,7.49,6.01,5.63,4.83-1.42,7.4,1.22,7.9,6.41,.34,3.57,.12,7.16,.14,10.74,.02,3.07,1.15,4.31,4.3,3.12,2.57-.97,5.05-2.13,7.54-3.25,1.53-.69,3.04-1.2,4.82-1.23,2.04-.03,2.27,4.07,4.34,2.19,3.42-3.1,8.54-3.87,10.91-8.35,1.9-3.58,4.68-6.5,7.87-8.96,.88-.68,2.5-2.22,2.99,.55Z"/><path class="cls-109" d="M25.31,756.49c2.01,3,4.06,.78,6.06,0,4.67-1.81,8.97-4.62,14.26-4.76,3.52-.09,6.3,.55,7.41,4.32,1.15,3.9,.2,6.99-3.37,9.24-8.1,5.08-16.21,3.69-23.94-.45-2.59-1.39-3.68-.73-5.2,.87,0-3.9,.93-7.32,4.79-9.22Z"/><path class="cls-13" d="M20.36,800.28c-2.76-4.47-4.4-9.68-8.66-13.17-1.87-2.17-3.63-4.44-5.64-6.47-3.02-3.04-1.26-4.06,1.77-4.7-2.39,3.38,.61,4.9,2.39,6.77,4.82,5.03,9.73,10,10.14,17.57Z"/><path class="cls-35" d="M630.69,635.26c-1.82-2.26-4.51-1.83-6.43-1.05-5.67,2.31-8.46-.52-11.22-4.88-5.87-9.25-12.47-18.07-16.18-28.54-.21-.6-.53-1.15-.77-1.74-1.22-3-2.39-6.59,.02-8.9,2.09-1.99,5.73-1.17,8.48-.17,7.54,2.74,12.46,8.38,15.89,15.43,.52,1.08,.5,2.48,2.53,3.28,0-3.29,.39-6.4-.08-9.36-1.05-6.51,2.22-9.86,7.79-11.87,1.95-.7,4.19-.97,5.13-3.27,4.54,2.12,9.46,.1,14.17,1.47,7.34,2.13,7.89,3.38,2.92,8.85-1.69,1.86-3.31,3.83-4.69,5.93-4.96,7.58-4.78,8.49,1.26,15.12,2.22,2.44,4.7,4.79,5.56,8.19-1.15,4.34-5.08,5-8.45,6.46-2.48,1.08-4.98,2.08-7.52,2.97-1.4,.07-2.82-.33-4.36,.09-.68-.16-.16,.39,.13,.26,1.26-.57,2.42-.4,2.07,1.53-2.04,1.85-4.12,1.73-6.25,.18Z"/><path class="cls-44" d="M629.46,564.01c-4.03,2.86-6.72,8.58-13.37,5.54-7.11-3.25-6.03-9.38-5.78-15.22,.34-8.11,4.45-15.24,6.25-22.97,4.85-3.2,7.58-.4,10.07,3.46,4.9,7.57,5.01,15.8,3.56,24.29-.28,1.63-.48,3.28-.72,4.91Z"/><path class="cls-43" d="M536.49,515.75c.76,5.09,1.58,10.06-6.45,9.06-4.04-.5-3.54,2.76-3.39,5.19,.66,10.5-13.45,26.88-25.88,25.44-4.01-.46-4.64-1.6-3.33-5,3.58-9.31,9.68-16.7,17.34-22.91,1.08-.87,4.03-1.52,.31-2.89,3.76-1.78,7.91-1.45,11.69-1.07,6.33,.63,9.71-1.17,9.71-7.82Z"/><path class="cls-169" d="M508.76,513.35c-.63-.5-1.56-.88-1.85-1.53-2.33-5.15-5.51-6.51-10.08-2.52,1.37-2.32,2.8-5.69,5.76-4.74,3.72,1.19,5.32,4.99,6.17,8.79Z"/><path class="cls-71" d="M601.22,518.05c-.99,3.08-3.53,3.79-6.32,4.1,1.71-1.98,3.85-3.3,6.32-4.1Z"/><path class="cls-40" d="M348.89,866.9c-1.38-4.79-3.06-9.52-4.07-14.39-1.42-6.87,6.88-15.04,13.2-12.28,10.81,4.71,22.92,4.36,33.49,9.91,8.14,4.28,16.51,7.97,22.22,15.59-8.67,2.56-17.6,2.77-26.51,2.53-2.91-.08-5.84-.39-8.75-.41-2.06,.37-4.02-4.51-6.19-.13-.87,2.4-.1,5.5-3.05,6.98-7.2,11.47-7.15,11.44-14.73-.47-1.64-2.58-2.31-5.98-5.6-7.31Z"/><path class="cls-35" d="M294.66,868.58c-2.39-1.5-4.02-2.64-1.47-5.95,5.58-7.24,12.35-13.06,19.89-17.95,8.31-5.38,16.05-2.83,20.58,6.22-.75,.28-1.84,.34-2.21,.88-6.73,9.81-17.02,12.6-27.88,14.22-3.1,.46-6.32,.4-8.92,2.58Z"/><path class="cls-1" d="M39.62,720.09c4.41,3.82,10.13,1.95,15.13,3.46,10.53,3.18,13.89,12.15,17.39,20.78,1.55,3.82-2.37,4.73-5.45,4.92-13.49,.82-25.23-3.38-35.24-12.44-.93-.85-1.83-1.75-2.66-2.69-2.34-2.66-6.56-4.84-6.22-8.34,.35-3.59,5.77-1.79,8.03-4.23,2.94-.93,6.79,3.8,9.03-1.45Z"/><path class="cls-40" d="M537.93,789.8c0-2.66,.5-4.95,3.85-5.05,2.47,.25,3.31,2.61,5,3.87,6.07,8.79,8.73,18.83,10.71,29.72,3.35-5.17,6.39-10.12,10.81-13.91,.87-.75,1.12-2.67,2.71-2.08,1.73,.64,2.07,2.39,2.46,4.11,2.62,11.51-.49,21.22-9.38,28.86-3.45,2.96-5.07,4.24,.23,7.47,4.17,2.54,7.85,4.44,12.73,4.09,8.65-.62,15.62,4.41,23.27,7.15,.79,.28,1.63,.42,2.44,.62,3.27,1.57,6.16,3.77,9.3,5.56,2.69,1.05,3.82,3.26,4.38,5.88-12.08,4.79-24.33,4.41-36.66,1.14-1.62-1.36-3.47-2.44-4.83-4.11l.03-.03c-3.32-.87-2.34,2-3.06,3.46-1.1,2.22-1.24,4.78-2.58,6.9-1.62,2.9-3.22,5.81-4.88,8.69-1.62,2.81-3.16,3.71-5.15,.12-1.7-3.07-3.86-5.89-5.82-8.82-2.04-1.67-2.53-4.32-4-6.35l.04,.05c-1.33-2.04-2.67-4.07-5.12-4.95,.74-3.04,1.26-5.9,.2-9.17-.93-2.87-.66-5.97,1.66-8.85,3.65-4.53,6.03-8.99-.2-14.22-4.55-3.82-4.23-10.76-6.84-16-2.8-5.79-5.05-11.62-2.13-18.12,.84-1.87-.37-4.13,.81-6.02Z"/><path class="cls-33" d="M652.11,841.72c-.13-1.86-1.25-2.38-2.96-2.47-3.19-.16-6.14-1.28-8.94-2.72-1.05-.54-2.65-.82-2.61-2.34,.03-1.49,1.61-1.76,2.66-2.31,5.76-3.05,11.67-5.68,18.21-6.6,1.4-.71,2.56-1.96,4.3-1.9,1.05,.02,2.09,.16,3.08,.48,2.25,.74,5.81-.95,6.64,2.09,.89,3.25-2.4,5.02-4.53,6.89-4.39,3.84-9.7,6.22-14.8,8.93l-.52,.04-.52-.08Z"/><path class="cls-110" d="M527.66,879.5c-2.31,.4-3.54-.43-3.48-2.91,.07-2.69,.04-5.38,.05-8.07,.29-.65,.64-.65,1.04-.1,1.61,4.03,3.26,6.6,7.71,2.23,2.54-2.5,6.17-3.89,9.32-5.77,.21,.89,.19,1.7-.75,2.19l.07-.06c-2.8,4.63-6.84,7.83-11.65,10.16-.77,.78-1.54,1.56-2.31,2.34Z"/><path class="cls-132" d="M529.97,877.17c3.88-3.39,7.76-6.77,11.65-10.16-2.06,5.47-5.18,9.74-11.65,10.16Z"/><path class="cls-41" d="M569.35,873.43c.65-3.3,1.18-6.63,1.98-9.9,.73-2.93,1.98-3.95,3.65-.45-2.84,2.93-2.43,7.62-5.63,10.35Z"/><path class="cls-143" d="M616.45,866.08c-1.65-1.73-3.3-3.46-4.95-5.19-.26-1.23,.08-1.84,1.45-1.42,1.46,.42,2.88,.89,3.74,2.29-.08,1.44-.15,2.88-.23,4.32Z"/><path class="cls-41" d="M574.96,863.11c2.02,.89,3.92,1.92,4.83,4.11-2.57-.24-4.16-1.63-4.83-4.11Z"/><path class="cls-135" d="M629.49,693.3c1.12,1.11,1.12,2.53,1.1,3.95-.06,4.24,1.81,4.45,4.82,2.33,.22,.23,.45,.46,.67,.69,.46,2.55-1.46,3.39-3.15,4.4-1.63,.53-3.32,1.4-4.58-.67-1-3.55-1.56-7.07,.73-10.39l.41-.31Z"/><path class="cls-114" d="M640.73,652.82c-.05,.52-.09,1.04-.14,1.57-3.47-.13-5.57-2.26-5.5-5.37,.07-3,1.93-5.37,5.6-5.09,.02,.45,.03,.91,.05,1.36-2.62,2.51-2.59,5.02,0,7.54Z"/><path class="cls-144" d="M650.86,630.03c1.69-1.27,3.39-2.53,5.08-3.8-.64,2.68-1.24,5.41-5.08,3.8Z"/><path class="cls-135" d="M639.43,694.67c.51,.06,1.02,.12,1.53,.17-.19,3.21-1.9,4.92-5.11,5.12l-.44-.39c.51-2.31,2.02-3.81,4.02-4.9Z"/><path class="cls-11" d="M635.85,699.97c1.7-1.71,3.41-3.41,5.11-5.12,3.09-1.27,6.07-2.93,9.28-3.73,6.55-1.63,8.7,.51,6.81,7.12-1.25,4.4-3.44,8.55-5.32,12.77-.93,2.08-2.37,3.97-2.04,6.45-5.82,3.84-7.5,10.88-12.11,15.72-1.66,1.74-2.78,3.73-5.52,3.38-10.86-1.4-21.74-2.78-31.59-8.1-3.68-1.99-4.59-3.81-1.01-7.39,10.78-10.75,10.62-12.29,.62-24.5-1.5-1.83-5.11-3.07-3.88-5.78,1.39-3.06,5.22-3.25,8.32-3.64,7.72-.98,15.07,.58,22.12,3.73,.81,.92,1.62,1.83,2.43,2.75,.1,3.63,.19,7.26,.29,10.89,1.66,1.7,.88,3.61,.76,4.05,.1-1.15,1.23-3.39,2.89-5.39,.9-1.1,2.8-1.31,2.82-3.19Z"/><path class="cls-68" d="M672.68,792.67c-5.57-.92-11.13-1.9-16.71-2.76-4.17-.64-7.02,.15-6.45,5.47,.38,3.54-.04,7.16,.08,10.74,.15,4.27-1.89,4.15-4.56,2.29-8.18-5.7-15.24-12.56-20.68-20.95-1.96-3.02-2.43-5.86,2.23-7.16,2.32-.65,3.72-2.16,4.03-4.98,1.23-11.08,12.56-16.38,22.37-10.62,1.81,1.06,3.71,2.1,5.22,3.51,2.56,2.41,4.01,1.16,5.36-1.18-.79,4.1,.75,5.73,4.99,5.15,2.62-.36,5.37-.53,7.8,1.05-.13,.16-.26,.33-.4,.49-2.2,2.49-7.15-.68-8.01,3.17-.6,2.7,2.56,5.09,3.63,7.82,1.02,2.58,1.92,5.13,1.02,7.94l.05,.03Z"/><path class="cls-86" d="M672.63,792.64c-1.32-4.65-3.05-9.06-5.81-13.14-3.23-4.78-2.44-6.01,3.27-6.14,2.1-.05,4.19-.09,6.29-.14,3.2-.29,6.13,1.44,7.04,3.79,.74,1.93-1.83,4.44-3.8,5.85-3.5,2.51-4.18,6.87-6.98,9.78Z"/><path class="cls-83" d="M683.56,808.96c.71,3.4-2.11,4.1-4.15,5.28-3.79,2.19-7.85,3.88-12.14,4.68-3.13,.58-4.88,2.01-5.21,5.15-1.2,.41-2.4,.82-3.59,1.22,2.18-3.97,4.24-7.83,9.43-8.87,4.25-.85,2.39-7.18,6.72-8.43,1.61,.31,.6,2.18,1.72,2.94,1.24,.84,2.25,2.17,3.79,.74,1.52-1.4,.67-2.68-.5-3.75-1.66-1.51-4.06-2.54-3.36-5.49,2.43,2.18,4.86,4.36,7.3,6.54Z"/><path class="cls-40" d="M65.2,705.29c6.8,2.71,9.28,8.88,14.29,12.61-3.69-8.65-5.73-17.74-8.62-26.52-3.67-11.13-.01-20.95,3.32-30.87,1.49-4.43,5.52-7.65,10.75-7.55,4.5,.08,8.73-1.2,13.54-1.64-1.67-5.35-5.56-9.39-6.2-15.09-.57-5.08,.39-9.56,1.94-14.09,1.54-4.48,4.19-4.34,6.8-.92,1.65,2.16,2.97,4.59,4.19,7.03,4.31,8.57,5.34,18.11,7.77,27.24,.42,1.57,.3,3.37-.71,4.9-5.58,8.44-10.66,17.28-18.58,23.88-1.57,1.31-3.29,3.25-5.52,2.19-2.52-1.2-1.34-3.59-.64-5.71-6.25,2.47-6.32,2.51-3.44,7.95,6.04,11.41,12.09,22.79,11.28,36.31-.09,1.47,.3,3.75-.47,4.27-6.45,4.37-.95,7.41,1.02,10.77,3.88,6.61,10.15,12.03,9.69,20.75-.34,6.45-2.11,8.19-8.21,6.07-11.46-3.98-17.71-13.21-22.11-23.81-4.92-11.88-8.05-24.29-10.09-37.77Z"/><path class="cls-40" d="M340.76,716.85c4.37-5.53,7.03-10.79,11.43-14.67,2.65-2.33,3.85-2.75,4.75,1.39,2.17,10.01,1.62,19.15-6.06,27-1.41,1.44-5.22,2.98-3.03,5.78,2.25,2.88,4.27-.19,6.34-1.46,7.87-4.8,19.9,2.48,21.32,12.96,1.36,10.08-1.58,19.18-6.74,27.72-1.66,2.75-3.54,2.82-5.29,.24-2.73-4-5.46-8.02-7.84-12.24-1.84-3.25-3.44-2.98-5.76-.61-3.69,3.77-7.98,6.79-13.11,9.85-1.33-10.85-.28-21.08,1.95-31.13-1.26-.59-2.03-.07-2.33,.65-5.16,12.22-16.21,14.94-27.58,17.02-3.71,.68-7.5,.96-11.28,1.21-2.15,.14-3.51-.76-1.68-2.97,6.46-7.79,12.98-15.5,22.28-20.2,3.77-1.91,7.42-2.96,11.46-1,1.3,.63,2.98,1.54,3.72-.51,.58-1.6,2.15-3.55,0-5.15-8.59-6.35-8.54-16.46-10.79-25.41-1.57-6.25-2.5-12.79-.43-19.34,1.15-3.64,2.45-4.33,5.75-2.02,4.44,3.11,6.49,7.66,8.35,12.34,2.47,6.19,3.89,12.68,4.58,20.56Z"/><path class="cls-11" d="M223.43,575.49c4.24-1.68,8.42-3.54,13.9-4.17-2,7.38-6.26,12.74-10.26,18.87,3.86,1.06,7.39,1.97,10.88,3.01,3.69,1.09,4.25,2.8,1.26,5.63-4.79,4.54-8.36,9.96-10.48,16.27-1.36,3.88,2.37,5.23,3.97,7.47,4.54,6.37,4.02,9.09-3.07,12.41-2.08,.97-4.23,1.81-5.83,3.55-3.85,1.61-5.37,4.58-5.63,8.66-.22,3.46-1.61,6.79-1.62,10.32-1.42,3.26-4.31,5.84-4.56,9.67-.9,.37-1.74,.39-2.38-.49-4.22-5.32-5.15-11.87-6.39-18.2-1.03-5.27-3.15-9.71-6.27-14.12-7.02-9.91-14.39-19.77-16.72-32.17-1.27-2.5,.46-3.59,2.3-4.13,8.97-2.63,11.7-8.54,9.5-17.28-.36-1.44-.17-2.92,.93-4.12,1.66-4.15,3.73-9.33,8.27-9.21,4.35,.11,3.71,6.2,5.49,9.53,1.04,1.95,1.19,4.38,1.76,6.66,2.64-.49,4.68-1.39,6.12-3.38,1.93-3.48,5.83-3.32,8.84-4.79Z"/><path class="cls-4" d="M115.68,843.17c-4.59,.97-6.67,4.87-8.81,8.28-1.73,2.76-3.35,5.14-6.51,6.3-3.59,1.31-6.69,3.24-6.96,7.68-2.53-.84-1.6-2.63-1.94-3.89-.7-2.58-1.75-3.45-4.51-1.94-3.62,1.98-7.66,3.19-11.29,5.17-3.77,2.05-4.43,.29-4.43-2.93,0-4,.04-8-.01-12-.08-6.45-3.11-8.83-8.63-5.84-4.82,2.61-5.47,.87-5.32-3.33,.05-1.47,.04-2.95,0-4.42-.28-9.51,3.46-12.55,13.15-10.49,2.02,.43,3.97,1.71,5.82-.29,4.36,5.11,9.46,.37,14.19,.81,3.34,.31,7-1.08,10.6-.96,1.27,.04,2.7,.04,3.37-1.24,.79-1.5-.74-2.19-1.48-3.1-8.97-11.04-9.19-23-3.82-35.59,2.31-5.42,5.35-2.17,7.17-.14,3.97,4.4,6.62,9.7,8.45,15.41,3.02,9.43,5.06,19.09,7.01,28.77,1.18,5.85-2.61,9.8-6.08,13.75Z"/><path class="cls-35" d="M588.44,553.79c-4.04,9.74-8.34,18.04-16.01,24.13-4.99,3.96-10.55,6.13-17.01,5.27-4.6-.61-6.11,.17-5.03,5.68,3.5,17.93-7.22,27.89-21.2,35.35-2.68,1.43-4.52,.35-3.29-2.64,2.06-5.01-.24-7.83-3.17-11.78-4.76-6.43-6.2-14.63-7.56-22.52-1.03-5.98-2.29-11.97-.3-18.08,1.44-4.43,3.55-4.89,6.76-1.81,7.42,7.13,9.7,16.5,11.29,26.15,.24,1.44,.35,2.9,.63,4.32,.06,.33,.57,.56,1.12,1.07,2.84-3.91,4.97-8.3,8.46-11.69,1.09-1.05,1.14-2.57-.74-2.67-4.41-.23-3.42-3.01-3.24-5.79,.49-7.9,2.54-15.3,6.32-22.27,1.57-2.9,3.51-5.92,6.77-5.83,3.16,.09,3.36,3.88,4.33,6.35,1.23,3.14,2.21,6.36,1.5,10.9,5.44-3.17,9.88-5.85,14.4-8.38,4.61-2.58,9.55-4.31,15.96-5.75Z"/><path class="cls-98" d="M560.71,675.83c19.04,.77,25.22,17.17,24.06,31.41-.95,11.71-6.14,22.79-14.48,32.49-4.72-7.53-9.61-14.86-13.96-22.49-2.16-3.78-3.62-3.59-6.55-.87-4.93,4.56-10.05,8.92-15.67,12.69-4.08,2.74-4.97,1.22-5.02-2.85-.16-11.81,1.2-23.48,3.17-35.09,.19-1.13,.35-2.03-.64-2.79,.26-3.46,2.54-5.31,5.58-5.75,2.74-.4,3.72,2.3,5.02,4.17,2.16,3.12,3.65,6.64,5.77,9.79,1.63,2.44,2.98,2.61,4.55-.11,2.62-4.55,5.74-8.84,5.56-14.51-.08-2.31,.39-4.65,2.62-6.1Z"/><path class="cls-40" d="M436.23,606.17c-2.33-2.89-4.7-5.75-6.97-8.69-1.86-2.4-1.22-3.93,1.85-3.82,3.92,.14,7.82,.59,11.73,.91,3.91,.92,8.15,.31,11.8,2.47,6.03,5.17,10.86,11.03,12.52,19.16,.48,2.34,2.49,4.35,3.74,6.54,3.59,6.28,4.91,13.43,7.53,20.05,5.2,13.1-1.9,22.12-9.26,31.16-2.52,3.1-5.53,5.81-8.44,8.56-1.46,1.38-3.06,3.51-5.34,2.15-2.07-1.23-.31-3.45-.43-5.69-3.8,1.43-7.38,2.99-11.1,4.09-2.33,.69-4.84,.6-4.79-2.99,.06-4.85-.46-9.8,.34-14.53,1.66-9.8,8.59-14.93,19.4-15.23,7.6-.21,7.03,.05,4.1-6.49-2.8-6.24-5.38-13-2.18-20.08,1.94-4.29,.67-5.91-4.02-6.57-6.08-.86-11.52-3.77-16.43-7.53-1.57-.9-2.85-2.14-4.05-3.47Z"/><path class="cls-1" d="M157.82,801.21c4.66-7.71,8.96-13.91,14.45-19.25,2.7-2.62,4.21-2.14,5.25,1.26,3.73,12.11,2.13,23.38-5.77,33.38-5.16,6.54-11.77,11.44-19.27,15.09-1.28,.62-2.64,1.81-4.12,.82-1.7-1.15-1.12-3.1-.92-4.67,.23-1.86,.93-3.66,1.45-5.49,.33-1.16,1.21-2.5-.58-3.16-5.77-2.13-7.04-7.61-8.86-12.4-4.36-11.47-7.1-23.38-7.19-35.7-.04-4.9-.48-11.89,4.67-13.23,4.53-1.18,7.9,4.71,10.26,8.94,4.74,8.53,8.34,17.49,9.07,27.4,.15,2.04,.87,4.03,1.55,7.01Z"/><path class="cls-98" d="M274.17,716.28c4.23,2.52,4.15,5.94,2.77,10.23-2.81,8.68-7.93,16.08-12.38,23.85-.96,1.68-2.02,3.15-1.7,5.17-11.3-5.59-20.93-3.55-28.91,6.27-.38,.47-1.15,.37-1.75,.07-2.49-4.14-7.51-3.68-11.06-6.02-4.12-2.72-5.12-4.85-1.3-8.81,9.56-9.88,9.37-13.49-.35-23.93-5.07-5.45-4.87-6.39,2.17-8.44,7.91-2.3,15.37-.49,22.6,2.8,3.42,1.56,4.93,4.08,4.65,8.04-.34,4.83-.08,9.69,.34,14.8,2.14-9.9,9.9-15.68,15.96-22.68,2.79-1.76,5.9-1.41,8.96-1.33Z"/><path class="cls-35" d="M640.69,643.92q-6.43,4.78-.1,10.46c1.38,2.58,2.8,5.13,4.12,7.74q3.63,7.16-4.01,9.72c-3.4,.1-8.03-1.62-6.68,5.04,.47,2.32-2.02,2.03-3.38,2.65-5.86-2.36-12.34-3.02-17.83-6.41-5.56-1.52-10.63-3.83-14.05-8.77-4.67-11.1-7.62-22.57-7.52-34.7,.02-3.02,.06-6.7,3.06-7.68,3.25-1.07,4.8,2.69,6.58,4.82,7.2,8.58,6.29,18.6,4.57,28.75,3.09,.47,4.5-2.19,6.72-3.11,1.03-.42,1.81-1.53,.7-2.46-6.23-5.21,.26-5.72,2.81-7.35,4.51-2.89,10.53-2.41,14.64-6.33,.49,1.36,1.56,1.42,2.75,1.22,2.55-.81,5.09-.8,7.64,0,7.85,2.17-.46,4.26-.03,6.4Z"/><path class="cls-18" d="M297.02,653.07c4.6-3.57,9.2-7.14,13.81-10.7,7.41-2.68,8.39-1.47,7.54,9.34-4.57,11.77-12.25,19.88-25.4,21.52-2.3,.29-1.76,1.65-1.44,3.23,1.41,7.09,4.34,14.17,.02,21.37-.42,.71,.93,2.63,1.66,3.86,2.6,4.33,5.5,8.5,7.89,12.95,1.69,3.14,1.93,6.98-.72,9.49-2.75,2.61-5.86,.41-8.67-1.13-8.16-4.47-12.28-12.18-15.25-20.31-3.08-8.44-5.49-17.18-6.65-26.77,4.54,1.65,6.26,6.04,10.39,8.24-3.28-11.5-8.52-22.21-7-35.39,5.62,5.19,9.56,10.13,12.63,15.84,.64,1.2,.92,3.18,2.81,2.95,1.36-.17,1.53-1.77,2.11-2.89,2-3.91,4.17-7.73,6.27-11.58Z"/><path class="cls-190" d="M192.95,576.67c.12,1.04,.23,2.08,.37,3.11,2.01,14.91,2.72,14.07-10.84,19.8-1.37,.58-2.03,1.29-2.25,2.62-1.86-3.73-4.08-7.33-3.76-11.77,.24-3.33-1.51-3.28-3.96-2.36-6.41,2.41-13.21,2.04-19.84,2.89-10.86,1.39-17.29-4.67-23.55-11.7-1.39-1.56-3.02-3.13-3.78-5-1.23-3.03-7.56-6.51,.46-9.41,2.05-.74,.1-3.04-.05-4.56-.91-9.47-.97-9.52,8.43-7.47,2.66,.58,5.3,1.44,7.8,2.5,6.89,2.94,9.86,9.18,8.33,16.98-.49,2.47-1.42,5.52,.36,7.26,1.67,1.63,3.67-1.15,5.53-1.82,5.64-2.03,10.91-.74,15.92,1.43,3.79,1.64,4.91,.18,5.59-3.05,.86-4.09,1.77-8.17,2.73-12.54,6.43,2.62,7.83,9.45,12.51,13.11Z"/><path class="cls-59" d="M186.89,751.12c7.97-5.55,15.73-9.48,23.6-13.13,.31,.49,.74,1,.68,1.07-6.02,6.8-7.89,14.98-7.99,23.77-.01,1.35-.55,2.35-1.77,3.1-6.5,3.99-13.46,6.07-21.08,4.67-6.59-1.21-7.34-3.13-4.46-10.11-12.9,.94-12.97,.8-10.3-12.13,1.92-9.28,3.73-18.63,9.7-26.34,5.64-7.28,7.93-6.92,11.05,1.56,1.59,4.32,2.88,8.68,3.05,13.45,.16,4.52-2.49,8.37-2.47,14.1Z"/><path class="cls-52" d="M454.17,767.08c-.75-5.64,4.9-.48,5.76-4.23-3-5.1-6.34-10.83-9.72-16.53-1.64-2.77-3.39-1.9-4.95,.04-3.6,4.46-8.5,7.44-12.68,11.23-3.04,2.76-4.91,1.25-4.78-2.07,.4-10.03,.54-20.16,4.08-29.75,1.71-4.63,5.2-3.65,8.28-1.86,3.71,2.16,6.31,2.29,9.81-1.08,5.46-5.26,15.02-2.56,18.65,4.09,6.25,11.46,3.63,22.29-1.68,33.03-.93,1.87-2.38,3.48-2.42,5.71-3.23,2.08-6.82,1.55-10.36,1.43Z"/><path class="cls-1" d="M560.71,675.83c-1.09,7.61-2.23,15-6.8,21.76-3.15,4.66-4.71,4.09-7.13,.13-1.96-3.21-4.11-6.34-5.66-9.75-2.08-4.56-4.2-5.97-7.61-1.24-.47,.65-1.25,1.07-1.88,1.6-1.73,.82-2.9,2.2-3.8,3.84-.84,1.5-2.21,2.48-3.58,3.42-2.91,2-4.95,.9-5.38-2.25-.59-4.24-1.61-8.68,1.34-12.6,1.73-2.75,1.09-5.87,1.39-8.84,1.09-4.06-1-8.85,2.79-12.3,1.54-1.23,3.38-2.03,5.25-1.6,4.65,1.06,8.63-.77,12.68-2.5,2.5-.56,4.93-.7,6.99,1.22,.44,.42,.89,.84,1.33,1.25,1.2,.91,3.32,.47,3.75,2.52,5.12,3.88,4.55,10.09,6.31,15.35Z"/><path class="cls-11" d="M161.71,633.46c4.76-6.35,7.89-12.71,13.94-16.58,6.16,8.64,3.71,19.74-1.5,27.17-3.99,5.68-9.4,10.25-15.74,13.44-1.27,.64-2.69,1.99-4.05,.94-1.23-.95-1.07-2.92-.57-4.18,1.59-3.95,.32-6.41-2.93-8.98-3.45-2.73-3.56-7.48-4.91-11.41-3.19-9.26-4.3-18.83-3.74-28.61,.13-2.29-.08-5.26,2.44-5.87,2.86-.7,5.13,1.53,6.81,3.8,6.08,8.19,8.35,17.77,9.8,27.62,.09,.61,.21,1.21,.46,2.66Z"/><path class="cls-68" d="M345.41,803.34c3.12-4.1,6.1-8.34,9.42-12.27,2.8-3.31,4.51-3.48,6.02,1.6,5.13,17.32-8.98,31.47-21.41,36.79-3.1,1.33-3.66-.76-2.83-2.68,2.17-5-.81-7.82-3.16-11.75-7.3-12.24-9.63-25.93-8.3-40.08,.48-5.15,2.81-5.66,7.25-2.49,4.43,3.16,5.79,8.18,7.6,12.79,2.21,5.63,4.48,11.34,5.41,18.08Z"/><path class="cls-40" d="M90.83,557.84c2.19,2.83,4.38,5.65,6.56,8.48,.49-.29,.98-.57,1.47-.86-2.44-8.01-5.5-15.86-6.74-24.17-.48-3.24-2.29-7.74,.63-9.22,2.78-1.41,4.09,3.43,5.83,5.57,7.73,9.49,12.63,20.34,14.32,32.53,.17,1.24,.52,2.92-.1,3.73-4.81,6.34-.24,10.53,3,15.27,2.36,3.45,4.73,7.06,4.88,11.5,.07,2.07,.54,4.47-1.65,5.75-2.16,1.27-4.28,.66-6.56-.43-5.36-2.58-9.09-6.84-12.1-11.63-6.81-10.85-9.56-23.06-11.66-35.42,.71-.37,1.41-.74,2.12-1.11Z"/><path class="cls-40" d="M198.51,693.86c-3.19-1.41-3.54-5.24-6.13-6.96-2.89,5.84-5.77,11.65-9.16,18.5-7.19-10.86-14.33-20.65-17.75-32.42-.91-3.15-1.66-7.07,1.95-9.88,4.22-3.27,8.14-6.79,14.15-3.84,2.92,1.43,6.46,2.82,7.17,5.78,2.19,9.16,7.38,13.44,16.86,13.1,2.9-.1,4.6,1.76,1.39,4.23-3.93,3.02-5.91,7.42-8.48,11.49Z"/><path class="cls-11" d="M271.64,810.96c1.93-5.52,4.8-9.77,5.19-14.97,.38-5.02-.93-6.86-6.41-5.69-8.88,1.9-14.18,7.72-18.49,14.97-.92,1.56-1.61,3.25-3.07,6.23,.17-7.06-.86-12.66,.83-18.15,3.27-10.65,12.38-11.46,21.26-12.21,5.16-.43,5.12-1.81,2.3-5.61-5.51-7.43-5.5-15.7-2.07-23.99,1.83-4.42,4.75-4.79,7.32-.81,7,10.88,10.34,23.32,10.97,35.84,.34,6.81-6.51,12.43-10.74,18.15-1.65,2.23-3.03,5.17-7.08,6.24Z"/><path class="cls-137" d="M520.21,680.74c0,2.29,.02,4.58,.02,6.87q0,8.64,7.6,4.56c-3.61,8.06-10.64,12.34-18.29,15.32-10.6,4.13-21.64,6.78-33.2,6.23-1.22-.06-2.73,.43-3.5-.8-.95-1.53,.22-3.02,1.12-3.96,9.3-9.69,17.93-20.2,29.88-26.88,5.08-2.84,10.66-3.97,16.36-1.34Z"/><path class="cls-11" d="M388.47,660.25c1.23,.54,2.45,1.08,3.68,1.62,2.22,7.54,6.51,14.87,1.31,24.03,6.78-2.84,12.41-5.3,18.13-7.51,1.21-.47,2.77-1.87,4.05-.44,1.23,1.37-.02,2.82-.71,4.02-6.3,10.99-12.32,22.35-26.61,24.68-2,.32-4.04,.25-6.18-.11-5.54-.92-6.33-3.42-3.35-7.72,1.33-1.92,2.79-3.57-1.06-4.23-2.35-.41-1.98-2.35-1.71-4.04,1.77-11.08,4.04-21.95,12.46-30.3Z"/><path class="cls-44" d="M632.69,756.78c-4.42,11.64-10.56,20.88-20.81,26.92-2.96,1.75-6.22,2.44-9.68,2.38-4.52-.09-8.99-1.24-13.56,.85-2.59,1.19-5.14-.29-5.02-3.71,.37-9.82,2.52-19.26,8.26-27.34,3.5-4.92,5.85-4.36,8.31,1.09,.78,1.72,1.44,3.51,1.94,5.33,1.91,7.06,1.9,7.11,8.65,3.19,6.66-3.88,13.34-7.67,21.9-8.71Z"/><path class="cls-98" d="M525.28,660.46c-2.77,3.32-1.34,7.99-3.69,11.44-.24-1.52,.49-4.04-2.65-2.57-.59-7.96-7.52-8.01-12.74-10.19,3.57-1.05,5.75-1.64,4.32-7.08-2.04-7.73-.02-15.85,3.33-23.35,1.37-3.06,2.71-4.03,5.27-.9,3.19,3.9,6.89,7.4,10.01,11.35,2.05,2.6,2.99,1.85,4.64-.31,2.66-3.49,5.62-6.75,8.56-10.02,2.66-2.96,3.89-2.25,4.59,1.59,1.59,8.7,3.02,17.39,2.38,26.28-2.51-.01-5.02-.02-7.53-.03-2.47,1.5-3.24-.63-4.33-2.05-2-2.58-3.16-5.76-6.05-8.89-1.06,5.86-.87,11.57-6.13,14.72Z"/><path class="cls-27" d="M516.44,803.81c.98,10.11-1.61,19.14-8.16,26.97-4.72-3.96-6.65-9.71-9.63-14.72-2.07-3.48-3.26-3.31-5.96-.77-3.34,3.15-7.21,5.73-10.86,8.55-2.34,1.81-3.5,1.01-3.39-1.73,.32-8.17,.93-16.3,3.5-24.15,1.49-4.53,4.33-5.46,8.18-2.84,5.26,3.59,7.4,.95,8.52-4.02,.2-.05,.52-.2,.58-.13,4.77,5.58,10.43,9.96,17.22,12.82Z"/><path class="cls-82" d="M42.79,816.16c1.95-8.85,3.5-15.87,5.21-23.63-6.01,2.31-11.52,4.63-18.12,4.84,5.26-10.11,12.06-18.28,19.7-25.84,2.24-2.22,4.36-2.28,5.19,.84,1.03,3.85,3.13,4.17,6.43,3.39,5.29-1.25,7.2,1.54,7.57,6.45,.5,6.69-3.33,11.57-6.5,16.75-4.37,7.14-10.84,11.87-19.47,17.2Z"/><path class="cls-27" d="M546.79,788.62c-2.38-.36-3.4-2.49-5-3.86,1.88-1.54,.93-3.33,.64-5.21-1.36-8.82-.91-17.59,1.16-26.28,.92-3.87,2.31-4.45,5.3-1.46,4.93,4.92,4.71,10.82,3.42,17.73,8.9-7,17.6-6.51,26.35-1.6,1.15,.65,3.06,1.24,2.94,2.94-.13,1.74-2.01,1.92-3.37,2.33-5,1.49-10.02,2.9-15.55,4.49,1.97,1.51,3.8,2.59,5.19,4.08,2.03,2.17,2.49,5.08,1.43,7.7-1.14,2.85-4.17,1.86-6.15,1.45-4.92-1.03-9.78-2.5-14.54-4.14-2.54-.87-2.49-.05-1.83,1.83Z"/><path class="cls-109" d="M501.81,745.45c-10.84-.51-20.88-2.5-26.03-13.88-1.09-2.42-1.19-4.84-1.28-7.37-.11-2.89,.98-4.32,4.03-4.17,3.97,.19,7.99-.45,11.81,1.27,9.61,4.32,18.07,10.61,27.15,15.83,1.52,.88,3.6,2.36,3.37,4.27-.3,2.43-3.14,1.83-4.73,2.1-4.73,.79-9.39,2.31-14.32,1.94Z"/><path class="cls-11" d="M397.01,777.06c14.16,1.11,25.68,8.36,36.94,16.07,2.74,1.87,2.48,3.77-1.09,4.46-11.16,2.15-22.26,4.25-33.18-1.34-5.48-2.8-8.36-7.25-10.25-12.86-1.72-5.1-.18-7.03,5.06-6.35,.83,.11,1.68,.02,2.52,.02Z"/><path class="cls-35" d="M579.89,659.13c6.36,.87,11.71,4.45,17.63,6.51,5.23,2.03,10.43,4.1,13.95,8.84,2.13,2.59,3,4.27-1.66,5.24-9.12,1.9-17.98,2.85-27.21,.21-8.9-2.54-13.87-8-15.51-16.87-1.57-4.35-.83-6.42,4.34-4.7,2.71,.9,5.72-.44,8.46,.77Z"/><path class="cls-44" d="M456.93,556.06c9.91,8.12,17.15,18.36,24.51,28.45,2.56,3.51,5.45,6.99,6.51,11.43,.64,2.69,1.55,5.77-.78,7.71-2.71,2.25-6.16,1.38-8.84-.42-4.56-3.06-8.66-6.85-11.4-11.61-6.28-10.87-8.25-23.08-9.99-35.55Z"/><path class="cls-139" d="M397.41,653.04c5.37-6.7,11.07-13.01,19.22-16.46,.62-.08,1.25-.16,1.87-.24,6.69-.59,12.59,.8,16.62,6.75,3.43,5.05,2.01,10.09-3.72,12.11-5.16,1.82-10.54,2.78-16.07,2.76-5.65-.02-11.35-.54-16.87,1.24-1.56-1.84-2.69-3.76-1.04-6.15Z"/><path class="cls-40" d="M232.2,761.86c3.57-4.39,7.44-8.71,12.84-10.52,6.52-2.18,12.71-.76,17.81,4.19,6.16,6.78,4.43,12.82-4.52,15.16-10.71,2.8-21.59,.97-33.03,1.45,1.96-4.29,3.81-7.68,6.89-10.28Z"/><path class="cls-19" d="M466.75,864.86c.06-6.31-2.83-8.52-9.12-7.32-4.01,.76-8.31-.91-12.34,.81-1.88-1.72-.96-4.5-2.43-6.38-.51-.82-.33-1.79,.23-2.26,1.53-1.26,1.81-2.22-.24-3.1,5.43-1.28,9.23-5.38,13.86-8.05,7.06-4.05,16.43-3.15,21.29,2.22,5.2,5.74,3.85,12.67-3.5,14.62-5.41,1.44-8.41,3.62-7.73,9.45Z"/><path class="cls-40" d="M516.44,803.81c-8.75-.29-13.78-5.78-17.8-12.69-3.14-4.61-5.89-9.39-6.4-15.11-.21-2.54,2.81-4.15,1.97-6.64-.34,1.57-.67,3.37-3.23,2.76-2.36-5.34-3.33-10.95-3.76-18.02,13.7,11.81,22.66,25.73,31.71,39.58,1.96,3.27,2.53,6.35-1.24,8.82-.41,.44-.82,.87-1.24,1.31Z"/><path class="cls-81" d="M579.89,659.13c-2.95,.02-6.02,.57-8.81-.07-4.09-.93-4.08,1.26-3.99,4-3.8-2.97-8.13-3.32-12.69-2.57-1.25-.84-2.5-1.68-3.75-2.52,3.43-1.47,1.17-4.89,2.49-7.4,5.15-9.8,14.58-12.95,23.68-16.49,3.71-1.44,7.81-2.89,12.91-2.54-4.91,9.68-10.69,17.97-18.2,25.41,2.7,2.1,6.2-.29,8.36,2.18Z"/><path class="cls-11" d="M115.78,685.74c-1.16-.21-2.91,.52-3.25-1.05-.22-1.02,.37-2.55,1.11-3.39,6.59-7.39,13.25-14.78,22.28-19.32,2.21-1.11,4.72-2.1,7.32-1.31,3.57,1.08,7.95,1.63,8.93,5.91,.95,4.14-2.08,6.71-5.08,9.38-9.05,8.03-20.37,8.16-31.31,9.79Z"/><path class="cls-1" d="M506.21,659.14c2.08,.03,4.18-.1,6.24,.12,5.35,.56,7.72,4.32,6.5,10.07-9.28,11.98-22.61,13.48-36.3,13.94-2.16,.07-3.53-.79-1.75-2.99,7.06-8.69,14.17-17.33,25.31-21.14Z"/><path class="cls-26" d="M386.9,746.48c7.11-10.59,14.88-18.5,25.54-23.16,4.5-1.96,8.81-.29,12.57,2.01,3.96,2.42,3.34,7.63-.98,11.09-10.52,8.44-22.64,11.11-37.13,10.06Z"/><path class="cls-183" d="M608.89,813.99c.29-8.86-.76-16.42,7.51-20.31,2.36-1.11,4.38-3.81,7.34-1.47,3,2.37,4.4,5.6,4.17,9.38-.67,11.26-5.15,21.04-11.95,29.85-.73,.95-1.88,2.18-2.87,2.21-1.94,.06-1.91-2.12-2.14-3.36-1.09-5.97-2.6-11.92-2.07-16.3Z"/><path class="cls-11" d="M454.17,767.08c3.23-2.09,6.8-1.68,10.36-1.43,11.57-.47,20.37,4.08,25.9,14.4,3.54,6.62,2.31,8.9-4.99,8.55-14.78-.71-23.81-10.04-31.27-21.53Z"/><path class="cls-44" d="M274.17,716.28c-2.58,3.18-5.91,1.32-8.96,1.33-12.51-2.11-20.84-10.1-27.9-19.86-1.1-1.51-1.11-2.47,1.06-3.11,12.63-3.72,29.61,4.1,34.91,16.11,.8,1.81,.99,3.62,.89,5.53Z"/><path class="cls-79" d="M525.28,868.42c-.35,.05-.69,.08-1.04,.1-1.59-2.67-3.22-.69-4.8-.02-7.85,3.3-16.04,4.93-24.53,5.04-1.39,.02-3.03,.52-3.82-1.31,2.6-6.36,7.05-11.34,12.37-15.43,3.46-2.66-.65-2.45-.96-3.64,6.89-.41,12.99-4.77,20.16-3.96,3.29,.37,4.2,1.74,3.43,5.06-1.07,4.62-2.03,9.36-.79,14.16Z"/><path class="cls-74" d="M475.99,530.92c.44-.14,.83-.04,1.14,.3,4.88,7.8,11.34,14.57,14.88,23.26,2.65,6.5,4.58,13.07,4.11,20.17-.1,1.6,.44,3.58-1.61,4.38-2.08,.81-3.66-.35-4.98-1.81-4.17-4.61-6.62-10.17-8.73-15.91-2.89-7.9-4.31-16.18-6.05-24.36-.46-2.16,.06-4.17,1.24-6.02Z"/><path class="cls-11" d="M525.33,792.36c-7.35-12.52-11.29-25.99-10.87-40.76,13.52,11.71,20.94,26.15,19.78,44.5,1.07,4.47-1.86,3.84-4.21,2.96-2.91-1.08-4.26-3.67-4.7-6.7Z"/><path class="cls-26" d="M88.99,813.08c-.12,3.48-1.3,5.01-5.16,4.07-14.65-3.57-20.35-21.54-10.28-32.73,1.72-1.91,3.3-2.5,5.2-.36,1.25,1.41,3.03,2.6,3.68,4.25,3.15,8,4.92,16.4,6.56,24.76Z"/><path class="cls-121" d="M443.93,813.73c6.49-9.06,13.23-16.11,22.52-19.97,4.15-1.73,8.6,.19,11.25,3.45,2.43,2.99-.24,5.96-2.59,8.13-8.63,7.97-19.08,9.07-31.18,8.39Z"/><path class="cls-187" d="M209.61,666.69l2.36,.22c4.57,1.17,8.92,5.18,13.88,1.04,4.74-2.54,9.78-4.33,14.8-6.19,4.13-1.12,3.62-5.56,5.79-8.09,2.71-1.56,5.58-1.29,8.47-.74,.61,.19,1.15,.51,1.61,.96-2.99,6.54-7.39,12.12-11.98,17.59-.27,.14-.54,.27-.81,.41-5.3,.3-6.9,6.05-11.71,7.69-4.51,1.54-7.28,.97-9.63-2.66-.84-1.3-1.95-3.36-2.98-1.86-3.15,4.59-4.36,3.58-5.32-1.1-.22-1.06-1.22-1.75-2.41-1.64-1.89,.18-4.42,2.26-5.38-.63-.72-2.16,2.06-3.38,3.3-5Z"/><path class="cls-106" d="M259.13,648.96c2.05,2.23,2.28,6.18,6.22,6.65-1.53,11.69-5.71,21.61-17.63,26.34-.39,.15-.76,.39-1.15,.51-3.64,1.12-8.54,2.45-10.57-.25-1.8-2.41,3.28-4.46,4.99-6.92,.83-1.2,1.83-2.28,2.75-3.41h-.01c4.97-5.33,9.55-10.96,12.75-17.59l-.07-.18c-.66-2.55,.82-3.97,2.73-5.15Z"/><path class="cls-146" d="M426.69,762.71c-9.11,12.18-17.19,15.46-28.78,11.5-1.92-.65-4.58-1.13-5.08-3.25-.63-2.7,2.47-3.08,4.07-4.04,8.94-5.3,22.88-7.15,29.79-4.22Z"/><path class="cls-28" d="M449.78,830.34c2.22,.47,6.3-1.32,7.2,1.04,1.17,3.09-3.22,4.11-5.07,6.16-7.31,8.13-16.06,8.09-25.45,4.89-1.37-.47-3.02-1.06-3.3-2.66-.33-1.92,1.62-2.23,2.82-2.88,7.31-3.9,14.92-6.81,23.8-6.56Z"/><path class="cls-80" d="M525.33,792.36c1.49,1.7,2.84,3.57,4.51,5.07,1.94,1.74,3.77,1.88,4.39-1.33,4.25-.33,1.16-4.97,3.69-6.3-1.17,8.13,.06,16.13,1.32,24.14-7.45,.24-13.54-2.34-17.67-8.73-.98-1.53-2.02-2.64-3.9-2.7,1.77-2.75,1.22-5.82,1.24-8.82,2.35,.61,4.83,1.82,6.41-1.32Z"/><path class="cls-4" d="M40.75,830.36c1.42,1.22,2.87,2.39,4.24,3.66,1.24,1.15,2.53,2.42,1.83,4.33-.75,2.01-2.24,1.93-4.12,1.46-2.57-.63-4.42,3.68-7.46,1.26,.17-3.68,5.4-5.15,4.26-9.45,.42-.42,.84-.84,1.25-1.26Z"/><path class="cls-128" d="M502.48,853.17h7.38c-8.09,6.28-13.65,12.48-18.79,19.06-.15-1.07-.44-2.06-1.48-2.63,4.59-5.24,9.52-10.23,12.89-16.44Z"/><path class="cls-16" d="M611.47,674.48c-4.65-2.95-9.3-5.89-13.95-8.84,.42-.43,.84-.85,1.25-1.28,4.68,2.92,9.37,5.85,14.05,8.77-.45,.45-.9,.9-1.36,1.35Z"/><path class="cls-101" d="M223.43,575.49c-2.64,2.17-5.71,3.54-8.84,4.79-.45-3.87,2.29-4.94,5.16-5.9,.91,1.42,2.39,.95,3.68,1.11Z"/><path class="cls-11" d="M490.97,772.13c2.47-.79,2.37-3.18,3.08-5.21q1.79,7.26-1.82,9.09c-1.33-1-1.24-2.46-1.27-3.88Z"/><path class="cls-112" d="M612.94,859.47c-.48,.47-.96,.95-1.45,1.42-3.09-1.84-6.69-2.95-8.73-6.25,4.22-.14,7,2.76,10.18,4.84Z"/><path class="cls-60" d="M442.84,846.62c7.2,1.77-1.22,3.57,.01,5.36-.91-1.78-5.69-3.56-.01-5.36Z"/><path class="cls-124" d="M454.65,597.03c-3.96-.71-8.11-.51-11.8-2.47,1.55-.69,3.6,.69,4.88-1.16,2.58,.68,4.87,1.92,6.92,3.63Z"/><path class="cls-107" d="M436.23,606.17c2.08,.31,2.97,2.01,4.05,3.47-2.36-.17-4.6-.67-6.49-2.2,.81-.42,1.63-.85,2.44-1.27Z"/><path class="cls-182" d="M324.96,558.94c5.86,1,8.01-1.44,7.69-7.35-.18-3.39-1.4-7.16,1.13-10.36,2.13-.44,2.77,.79,2.91,2.58-1.91,3.92-1.14,8.13-1.46,12.44,3.41-2.24,6.14,.4,9.13,.78,2.77,2.02,5.77,3.91,5.01,8.11-5.87,1.7-8.54,7.22-12.82,10.81-.62,.52-1.13,1.37-.42,2.2,1.11,1.29,2.63,1.32,4.07,.86,2.91-.93,3.83-3.81,5.33-6.01,1.54-2.27,3.51-3.46,5.81-2.24,2.89,1.53,.4,3.62-.16,5.41-2.41,7.7-7.96,10.91-15.72,10.69-2.84-.08-4.49,.75-4.27,3.86-4.1-1.14-2.36-5.08-3.66-7.57-.49-5.25-2.06-10.31-2.91-15.49-.08-1.9-.45-3.77-.55-5.68,.11-.64,.39-1.19,.81-1.67,.02-.46,.05-.93,.07-1.39Z"/><path class="cls-168" d="M308.26,607.29c-.41-.45-.81-.89-1.22-1.34-1.18-2.05-1.74-4.23-1.47-6.59,.13-4.96,5.68-6.53,7.08-11.06-2.63-.07-3.03,2.09-4.14,3.39-.91,1.07-1.66,2.75-3.45,1.07-1.94-3.26-2.61-6.64-1.1-10.26,5.72-7.42,17.18-7.12,22.04,.54,1.63,2.56,1.31,4.73-.87,6.78-2.91,2.74-5.96,5.34-9.07,9.06,3.95-.59,5.1-3.33,6.85-5.44,2.58-3.11,5.42-4.07,8.26-.19,.04,.82,.07,1.64,.11,2.47-3.4,9.59-10.77,14.58-23.02,11.58Z"/><path class="cls-131" d="M331.18,593.25c-3.45-1.74-6.51-2.35-7.75,2.6-.15,.58-.52,1.19-.96,1.6-2.32,2.15-6.03,5.39-7.92,3.66-3.43-3.13,1.88-4.36,3.32-6.48,.7-1.03,2.11-1.66,2.58-2.74,1.22-2.82,7.12-2.71,4.88-7.52-1.78-3.82-9.39-6.77-13.7-5.41-2.39,.75-4.66,1.9-6.98,2.88-.75-.8-.62-1.8-.63-2.77,.97-2.68,3.52-2.97,5.69-3.26,5.07-.68,7.72-3.43,9.02-8.28,.79-2.93,1.91-6.23,6.13-5.97,.98,1.54,1.54,3.19,1.28,5.04-3.99,2.98-2.8,6.82-1.41,10.41,.87,2.24,2.24,4.37,4.09,6.06,2.48,2.03-.21,5.67,2.4,7.66,0,.84-.01,1.67-.02,2.51Z"/><path class="cls-30" d="M355.31,565.23c3.38-.83,6.77-1.65,10.15-2.48-1.19,3.59,2.5,4.33,3.93,6.27,1.89,2.58,2.83,4.31,.15,6.95-2.9,2.85-4.31,.22-5.43-1.39-2.5-3.57-8.17-4.11-8.79-9.36Z"/><path class="cls-21" d="M342.38,523.19c2.62,1.35,3.68,2.72,3.9,5.47-2.03-1.52-3.29-2.75-3.9-5.47Z"/><path class="cls-119" d="M383.12,534.77c.9,7.19-4.08,4.89-7.71,4.77-3.38-3.68-6.61-7.51-10.19-10.97-1.96-1.89-3.22-3.51-.79-5.62,2.07-1.8,4.15-2.28,6.5,.18,3.88,4.06,8.1,7.78,12.18,11.64Z"/><path class="cls-111" d="M358.26,520.93c-3.25-.05-4.36-1.97-4.14-4.91,.21-2.83,1.71-5.14,4.55-4.89,3.53,.31,4.34,3.24,4.29,6.49-.05,3.44-2.29,3.42-4.71,3.32Z"/><path class="cls-58" d="M323.39,531.3c-1.13,3.29,2.74,7.43-1.71,10.16,1.81,1.09,3.2,2.34,1.61,4.62-7.37,7.59-15.75,13.42-26.44,15.25-2.35,2.41-2.23,7.59-7.52,6.71-3.27-5.35-6.99-10.45-8.87-16.55-.79-3.72,2.83-4.82,4.27-7.22,2.48-4.18,5.68-7.92,7.54-12.48,1.2-2.45,1.4-5.35,3.35-7.46,.84-.49,1.73-.62,2.68-.44,3.28,1.41,2.73,4.46,2.8,7.07,.1,3.66,1.71,4.32,4.85,3.12,3.78-1.45,7.08-3.65,10.25-6.12,1.63-1.27,3.22-3.24,5.51-2.27,2.46,1.04,1.54,3.59,1.69,5.6Z"/><path class="cls-147" d="M266.39,621.26c.63-3.33-2.52-4.72-3.73-7.11-2.63-5.18-.5-11.34,4.76-13.78,2.76-1.28,4.3-.04,6.06,1.68,2.64,2.56-.5,3-1.47,4.13-1.72,1.99-2.51,4.17-.55,6.19,2.05,2.11,3.3-.29,4.64-1.41,1.91-1.6,3.47-4.01,6.09-.58,1.91,2.5,2.37,4.49-.52,6.22-3.82,2.29-2.07,4.3,.08,6.43,3.15,3.12,6.25,6.28,9.41,9.39,1.51,1.48,2.51,2.96,.53,4.77-1.62,1.48-2.97,4.08-5.67,1.54-1.71-1.61-3.98-2.06-5.29-4.78-3.08-6.34-8.6-8.04-15.24-5.14-.75-3.48,3.26-3.55,3.85-5.85,1.17,.04,.6-.52,.4-.38-1.63,1.14-2.97,.98-3.34-1.34Z"/><path class="cls-45" d="M266.39,621.26c1.35,.52,2.69,1.04,4.16,1.61-.56,2.95-3.75,3.67-5.07,5.94-5.44,4.86-11.39,8.43-19.11,7.45-7.04-1.52-13.78-.35-20.37,2.23-.97,.07-1.85-.12-2.57-.81,.5-3.64,4.01-3.4,6.21-4.23,5.61-2.12,5.63-4.81,2.66-9.4-1.82-2.81-5.61-4.72-4.93-8.94,.03-.16,.24-.44,.3-.42,.36,.1,.71,.26,1.06,.4,2.04,4.28,5.84,7.06,8.89,10.48,1.58,1.77,2.97,1.46,4.94,.59,7.57-3.34,15.57-4.82,23.83-4.91Z"/><path class="cls-147" d="M296.98,597.2c0,.45,.09,.72-.01,.86-6.33,9.17,1.39,13.45,6.42,18.74,1.82,1.92,5.28,3.36,1.79,7.07-3.69,3.93-5.41,.62-7.54-1.47-4.52-4.44-8.98-8.94-13.44-13.44-1.5-1.51-3.66-3.85-.59-4.91,4.59-1.58,6.02-5.33,8.25-8.73,.8-1.21,2.03-2.33,3.73-1.72,1.87,.67,1.21,2.44,1.38,3.58Z"/><path class="cls-175" d="M285.66,545.13c-1.74,2.12-3.47,4.24-5.21,6.36-1.22,.48-2.44,.96-3.66,1.44-4.85-1.89-11.2-.6-14.08-6.66,2.21-1.61,4.49-3.15,5.32-5.99,1.24-2.22,2.48-4.45,3.72-6.67,5.97,.02,13.44,6.2,13.92,11.52Z"/><path class="cls-165" d="M225.72,637.53c6.68-3.8,13.52-5.04,20.66-1.27-.74,1.98,.91,1.17,1.63,1.34,.79,.19,1.68,.04,2.42,.33,3.6,1.39,7.68,2.4,7.03,7.69-1.02,.53-2.12,.5-3.03-.05-6.17-3.72-12.15-2.04-18.11,.58-.63,.22-1.26,.34-1.92,.39-5.03-.95-8.57-3.33-8.67-9.02Z"/><path class="cls-72" d="M324.84,561.57c-2.23,1.07-4.09,2.93-4.29,5.17-.7,7.91-5.79,10.44-12.63,11.19-1.26,.14-2.55,.17-3.34,1.41-.42,.57-.86,.58-1.3,.03-2.32-2.64-1.1-4.33,1.4-5.95,4.55-2.95,8.58-6.51,11.63-11.06,2.23-3.32,5.64-1.71,8.58-2.02-.02,.41-.04,.82-.06,1.24Z"/><path class="cls-140" d="M235.72,645.06c7.37-4.7,14.61-4.37,21.73,.57,.56,1.11,1.12,2.22,1.68,3.33-.13,2.13-1.86,3.41-2.73,5.15-3.36,.02-6.72,.04-10.08,.06-.12-.27-.25-.53-.37-.8,1.69-7.77,1.62-7.83-7.97-6.92-.93-.17-1.75-.53-2.26-1.39Z"/><path class="cls-147" d="M303.28,579.37c.43,0,.87-.02,1.3-.03,.02,.83,.03,1.67,.05,2.5-.65,3.9,.84,7.55,1.34,11.32,1.78,1.43-.32,3.7,1.13,5.2-.02,2.53-.04,5.06-.06,7.59-8.23-6.9-9.49-13.88-4.33-23.57,.46-.86,.39-2,.57-3.01Z"/><path class="cls-67" d="M289.33,568.04c4.57,.08,2.54-7.25,7.52-6.71,.99,2.77,1.99,5.53,2.96,8.3,.47,1.33,1.65,2.89,.06,4-1.65,1.16-3.75,1.05-5.3-.24-1.91-1.59-3.5-3.55-5.24-5.36Z"/><path class="cls-129" d="M298.34,524.67c-.87,.04-1.73,.08-2.6,.12-.33-.27-.79-.58-.79-.94,0-12.35-10.55-15.85-18.36-21.42-2.24-1.6-3.57-3.28-4.6-5.56,0-.78,0-1.56,0-2.35,4.65-.4,8.8-3.18,13.6-2.87,.33,.22,.68,.31,1.07,.25,1.99,1.31,4.56-.39,6.49,1.24l-.03-.02c1.82,1.4,5.46-.78,6.05,3.07-.85,9.47,.39,19.01-.83,28.47Z"/><path class="cls-5" d="M298.34,524.67c-2.31-9.65-2.3-19.27,.36-28.85-.02-1.2,1.51-.78,1.77-1.68,8.17,.08,16.34,.15,24.51,.23-.03,10.19-.02,20.38-.13,30.56-.02,2.18,.79,4.65-1.45,6.37-4.95-.21,1.18-3.98-2.06-4.97-4.62,3.15-9.15,7.22-14.87,9.3-6.09,2.21-6.84,1.67-6.75-4.57,.03-2.2,.82-4.64-1.37-6.39Z"/><path class="cls-116" d="M300.47,494.14c-.08,1.1-.83,1.49-1.77,1.68-1.28-2.09-4.15-.88-5.58-2.68,2.53-.25,5.04-.37,7.35,1Z"/><path class="cls-116" d="M293.14,493.15c-2.25,.02-4.56,.42-6.49-1.24,2.24,.02,4.68-1.03,6.49,1.24Z"/><path class="cls-177" d="M285.66,545.13c-3.38-5.36-8.47-8.66-13.92-11.52,.1-5.6-.88-10.67-6.09-14.06-1.13-.74-1.87-2.25-2.49-3.55-1.45-3.03-2.94-6.22-1.06-9.53,2.1-3.71,5.32-.31,7.95-.93,.2-.06,.57-.2,.58-.17,3.11,6.68,10.25,8.36,15.39,12.52,4.49,3.64,8.21,7.96,7.2,14.47-1.34,4.95-4.63,8.74-7.54,12.76Z"/><path class="cls-134" d="M293.2,532.38c-2.73-9.39-8.15-15.98-18.18-18.18-4.51-.99-2.18-6.41-4.99-8.65,.14-3,.61-5.93,1.94-8.67,6.95,4.98,13.7,10.27,20.95,14.76,2.6,1.61,2.79,3.23,2.78,5.55,0,2.53,.01,5.06,.02,7.6-.14,2.76-.74,5.37-2.53,7.58Z"/><path class="cls-85" d="M118.8,845.27c-3.66,3.76-6.24,6.4-8.81,9.05,1.68-3.63,2.3-8.25,8.81-9.05Z"/><path class="cls-63" d="M638.43,632.87c-.48,.36-.96,.72-1.45,1.09-1.33-.11-2.66-.22-3.99-.34,1.8-.85,3.49-2.46,5.43-.75Z"/><path class="cls-149" d="M640.72,637.53c-2.55,0-5.1,0-7.64,0,2.55-1.88,5.09-1.68,7.64,0Z"/><path class="cls-78" d="M376.82,865.94c-1.37,.05-2.84-.21-3.73,1.27-.56-.05-1.13-.11-1.69-.16,.76-5.5,3.02-3.64,5.42-1.1Z"/><path class="cls-103" d="M633.03,703.16c.21,3.07-2.2,5.18-2.76,8.66-1.7-2.8-.81-5.11-.89-7.32,1.22-.45,2.44-.89,3.66-1.34Z"/><path class="cls-113" d="M235.72,645.06c.99,.07,1.98,.14,2.98,.22,.66,.77,2.52,.54,2.38,1.51-.6,4.22,2.91,5.3,5.19,7.34l.05,.04c.34,4.13,.38,8.09-5.11,8.85-2.07,1.37-3.09-.17-4.05-1.55-2.25-3.24-5.31-3.26-8.4-1.83-3.03,1.4-2.48,4.04-1.53,6.55,.56,1.49-.11,2.4-1.26,3.16-5.67,4.94-9.82,1.18-14-2.44-2.49-4.61,.67-6.84,3.82-9.07-.44-2.23,.96-3.57,2.56-4.52,5.25-3.13,10.12-7.09,16.43-8.07,.29-.17,.61-.23,.95-.18Z"/><path class="cls-130" d="M234.77,645.24c-6.2,4.39-13.82,6.64-18.98,12.59-2.09-6.05,1.87-11.54,1.74-17.5-.05-2.15,4.09-1.2,5.9-2.65,.76-.05,1.52-.1,2.28-.16,2.43,3.26,4.03,7.5,9.06,7.71Z"/><path class="cls-174" d="M207.65,616.54c-3.26-5.5-6.27-10.59-9.34-15.79,11.36-.04,10.29-1.37,9.34,15.79Z"/><path class="cls-91" d="M451.7,735.44c-1.81,1.89-.02,5.67-3.21,5.79-2.46,.1-2.76-2.73-3.06-4.83-.09-.62-.25-1.35-.02-1.88,.88-2.06-3.48-5.59,.58-5.95,3.01-.27,3.69,4.5,5.7,6.87Z"/><path class="cls-96" d="M525.28,660.46c3.12-4.43,4.44-9.31,4.03-14.73-.06-.75,.93-2.02,1.72-2.32,1.55-.59,2.06,1.05,2.73,2.01,2.65,3.78,3.74,8.66,8.03,11.27-3.3,2.64-6.63,4.93-11.2,2.82-1.84-.85-3.63,.13-5.31,.96Z"/><path class="cls-104" d="M225.97,669.34c.07-.8,.49-1.82,.15-2.36-2.21-3.45-2.89-7.03,1.43-8.78,3.81-1.54,8.66-3.46,10.99,2.61,.53,1.38,1.26,2.08,2.66,2.2-5.08,2.11-10.16,4.22-15.24,6.33Z"/><path class="cls-69" d="M256.47,654.28c2.36,2.2-.42,3.42-1.2,4.6-3.2,4.87-5.64,10.51-11.55,13,3.71-6.26,7.12-12.74,12.75-17.61Z"/><path class="cls-163" d="M336.1,543.8c3.72,4.01,5.63,9.04,7.84,13.91-3.7,.9-9.44-1-9.58-2.21-.44-3.72-2.94-8.53,1.75-11.7Z"/><path class="cls-153" d="M328.79,583.08c-6.25-2.99-9.28-11.66-5.93-17.17,1.58-2.6,2.14,.56,3.25,.7,.63,5.53,3.25,10.74,2.68,16.47Z"/><path class="cls-170" d="M331.42,572.71c-1.96,.15-2.75-.78-2.59-2.23,.4-3.53,2.61-5.58,5.98-6.27,1.3-.27,2.86,.36,2.49,1.95-.76,3.28-3.48,4.99-5.88,6.55Z"/><path class="cls-34" d="M307.11,598.36c-1.74-1.44-1.1-3.39-1.13-5.2,1.28-2.08,2.43-4.25,3.87-6.21,1.37-1.86,3.3-1.71,4.87-.32,1.88,1.66,.21,2.67-.86,4-2.15,2.68-5.51,4.28-6.75,7.73Z"/><path class="cls-36" d="M320.33,537.43c-.15,2.43-1.51,3.05-3.09,3.52-.5-2.53,1.32-2.7,3.09-3.52Z"/><path class="cls-87" d="M246.26,654.12c-6.49,.44-7.11-4.13-7.57-8.85,.41-.07,.84-.09,1.24-.22,2.79-.91,5.91-2.44,8.07,.53,2.25,3.09,.11,5.93-1.75,8.54Z"/></g></svg>