<?xml version="1.0" encoding="UTF-8"?><svg id="Layer_1" xmlns="http://www.w3.org/2000/svg" viewBox="0 0 1080 1080"><defs><style>.cls-1{fill:#060506;}.cls-2{fill:#c2def7;}.cls-3{fill:#c3ddf5;}.cls-4{fill:#d9b8a8;}.cls-5{fill:#4a3a34;}.cls-6{fill:#a7bed0;}.cls-7{fill:#91b7dc;}.cls-8{fill:#c2bac1;}.cls-9{fill:#3e3d3d;}.cls-10{fill:#457501;}.cls-11{fill:#315501;}.cls-12{fill:#fdfefd;}.cls-13{fill:#d3b6ad;}.cls-14{fill:#7eb134;}.cls-15{fill:#3e3f3f;}.cls-16{fill:#040404;}.cls-17{fill:#dee7ed;}.cls-18{fill:#f5eee5;}.cls-19{fill:#dfb7a9;}.cls-20{fill:#d3967e;}.cls-21{fill:#323232;}.cls-22{fill:#020202;}.cls-23{fill:#151515;}.cls-24{fill:#cdcac7;}.cls-25{fill:#466c1a;}.cls-26{fill:#7fb133;}.cls-27{fill:#deb7a9;}.cls-28{fill:#96b2cd;}.cls-29{fill:#4c7e00;}.cls-30{fill:#ebcfc5;}.cls-31{fill:#e9dad3;}.cls-32{fill:#cf977f;}.cls-33{fill:#464445;}.cls-34{fill:#c3c3c3;}.cls-35{fill:#380f02;}.cls-36{fill:#ddb7a9;}.cls-37{fill:#c79788;}.cls-38{fill:#deb7a8;}.cls-39{fill:#b36a51;}.cls-40{fill:#4d7e01;}.cls-41{fill:#b1beca;}.cls-42{fill:#030303;}.cls-43{fill:gray;}.cls-44{fill:#040302;}.cls-45{fill:#3e6a00;}.cls-46{fill:#cfdae6;}.cls-47{fill:#c1def6;}.cls-48{fill:#fcfdfc;}.cls-49{fill:#ca9a89;}.cls-50{fill:#3f3d3e;}.cls-51{fill:#302f30;}.cls-52{fill:#2b2b2b;}.cls-53{fill:#3a3a3a;}.cls-54{fill:#fdfdfd;}.cls-55{fill:#2d2c2c;}.cls-56{fill:#c2def6;}.cls-57{fill:#c1def5;}.cls-58{fill:#464646;}.cls-59{fill:#171515;}.cls-60{fill:#cb9988;}.cls-61{fill:#dfb7a8;}.cls-62{fill:#c3e3fb;}.cls-63{fill:#dfdedd;}.cls-64{fill:#1d1d1d;}.cls-65{fill:#f3dedc;}.cls-66{fill:#ba745e;}.cls-67{fill:#b1a6a7;}.cls-68{fill:#2e2e2e;}.cls-69{fill:#9bb8d7;}.cls-70{fill:#ce8f73;}.cls-71{fill:#e9e5e2;}.cls-72{fill:#050505;}.cls-73{fill:#161616;}.cls-74{fill:#141414;}.cls-75{fill:#b1b1b1;}.cls-76{fill:#2d2d2d;}.cls-77{fill:#333231;}.cls-78{fill:#020204;}.cls-79{fill:#f1dcd4;}.cls-80{fill:#171514;}.cls-81{fill:#c8dfef;}.cls-82{fill:#ae8577;}.cls-83{fill:#543835;}.cls-84{fill:#b56a52;}.cls-85{fill:#525252;}.cls-86{fill:#070707;}.cls-87{fill:#f3f3ef;}.cls-88{fill:#cd9887;}.cls-89{fill:#d9d9d9;}.cls-90{fill:#c2bfba;}.cls-91{fill:#fbfefb;}.cls-92{fill:#7a6157;}.cls-93{fill:#141517;}.cls-94{fill:#c9def0;}.cls-95{fill:#d7c9c4;}.cls-96{fill:#010101;}.cls-97{fill:#cfe0ed;}.cls-98{fill:#3e3f3e;}.cls-99{fill:#dfe7ed;}.cls-100{fill:#a2a2a2;}.cls-101{fill:#375f01;}.cls-102{fill:#fcfcfc;}</style></defs><g><path class="cls-96" d="M572.79,805.58c-.19-2.82-.38-5.65-.57-8.47-2.05-2.49,.4-5.71-1.33-8.25-.14-1.72-.28-3.44-.42-5.17-1.53-3.4,.05-7.24-1.51-10.63l.3-.41-.3-.41c-3.84-4.86,.14-10.62-1.8-15.7l.08,.15c-4.74-5.47,.94-12.15-2.07-17.82-.14-1.63-.29-3.26-.43-4.9-2.7-4.22-1.66-8.88-1.62-13.43-.06-.64-.11-1.28-.17-1.91-2.97-12.81-2.26-25.96-3.55-38.93l-.17-3.15c-2.53-7.22,.51-14.89-1.78-22.13,.94-2.23,.35-4.4-.26-6.57-4.43-10.49-3.82-21.74-4.55-32.72-1.48-22.2-3.62-44.37-4.23-66.62-.15-5.66-3.31-10.21-5.76-15-1.96-8.24,.76-16.43,.32-24.65,.62-4.06,1.13-8.15,2.37-14.39-1.36,5.15-1.25,8.26-2.05,11.25-.14,6.76-1.3,13.44-1.3,20.21-.14,7.81,.32,15.7-3.45,22.96-7.62,4.5-15.4,.79-23.1,.4-5.99-.3-11.88-1.45-17.75-2.72-5.27-1.78-7.4-5.27-6.44-10.89,.68-4-.72-8.2,.84-12.17-.44-2.37-1.83-4.79,.35-7.03,1.67-5.85-.62-12.04,1.51-17.85,.57-2.83,1.36-5.65,.37-8.55,1.86-4.66-.15-9.71,1.44-14.4,.16-3.47,.31-6.95,.46-10.42,2.17-5.95-.58-12.36,1.71-18.29l.22-3.29c2.41-6.35-1.03-13.3,2.02-19.57l-.07,.19c1.65-11.52,2.62-23.1,3.33-34.71,.02-1.29,.04-2.58,.05-3.87-2.14-12.92,2.1-25.47,2.21-38.26l.46-.64-.36-.7c2.55-9.59-1.77-19.99,3.49-29.25,1.47-7.17,1.18-14.67,3.97-21.6,.22-7.21,1.51-13.95,8.03-18.41l-.13,.14c3.86-6.59,11.18-7,17.25-9.63l-.11,.06c2.82-2.21,5.87-3.83,9.6-3.64,3.09-.83,6.18-1.66,9.27-2.49,5.9,.78,4.2,5.47,3.84,8.65-.56,4.92-.07,8.04,5.82,8.38,5.43,.31,7.88,2.88,4.05,7.99-3.4,4.54-1.36,8.37,1.01,12.31,7.88,13.13,17.34,25.21,25.25,38.32,1.97,3.26,4.64,6.12,5.53,9.98,.57,3.44-1.74,4.99-4.46,6.48,2.02,3.06,9.87,.8,7.23,7.84-3.49,2.69-7.88,2.02-11.79,3.13-22.76,6.44-33.02,32.59-20.14,51.54,6.16,9.07,9.5,9.5,18.61,3.5,4.54-2.99,7.88-8.65,14.6-7.49,.69,.64,1.05,1.43,1.07,2.37-1.96,6.48-7.06,10.26-12.45,14.14,4.48,2.21,10.77-.93,13.48,5.12,2.32,20.64,.77,41.33,.99,61.99,.3,27.41,1.59,29.15,28.8,33.49,4.73,.76,9.47,1.35,14.25,1.22,8.22-.23,11.93,3.53,12.76,11.82,3.23,32.29,7.99,64.4,12.34,96.56,7.51,55.5,16.82,110.74,24.38,166.23,2.84,20.8,5.71,41.6,8.06,62.47,2.14,19,1.57,20.38-17.38,23.9-3.69,.43-7.47,.12-11.1,1.23-1.61,.31-3.2,.27-4.78-.17-6.31-2.49-5.07-8.86-7.01-13.6-10.37-55.7-21.73-111.2-32.41-166.84,.57-5.19-1.37-10.07-1.95-15.11-.18-4.21-1.41-8.35-.95-12.61,.07-1.22-.45-2.33-.74-3.49,.03,1.47,.85,2.8,.7,4.32,.03,6.02,.78,11.95,2.02,17.82,1.26,8.12,1.68,16.29,1.63,24.48-.2,35.27,.06,70.54-.17,105.82-.03,4.7,1.91,12.94-3.6,12.95-6.31,0-3.91-7.92-3.62-12.64,.4-6.5-2.34-10.86-7.62-14.24-5.61-3.59-9.27,.47-13.81,2.63-10.11,4.81-13.73,13.48-15.63,23.52-.48,2.52-.87,4.94,1.22,7.11,7.58,7.94,23.3,11.15,34.2,7.15,2.89-1.06,5.09-4.06,8.68-3.16,3.74,8.86,2.53,17.88,.91,26.91-.33,.96-.76,1.89-1.24,2.78-2.43,4.54-.94,9.57-1.7,14.32-.36,2.48-1.31,4.67-3.24,6.35-2.34,1.66-5.28,3.28-7.76,2.76-10.19-2.14-17.08,3.7-24.28,9.08-.84,.46-1.71,.84-2.61,1.17-12.35,3.8-24.63,5.97-36.43-1.75-.71-.65-1.28-1.41-1.74-2.26-2.18-5.86-.01-10.45,4.03-14.69,4.2-4.41,9.6-7.41,13.72-11.87,.55-.66,1.12-1.32,1.65-2,3.05-6.3,1.63-12.8,.86-19.26-.09-1.28-.17-2.57-.26-3.85-1.6-3.12,.31-6.75-1.43-9.85l.07,.2c-2.56-10.89-2.71-22.07-3.91-33.12l.35-.65-.48-.56c-2.34-4.61,.15-9.83-1.81-14.5Z"/><path class="cls-96" d="M140.59,913.08c.07,1.21,.13,2.42,.2,3.63-1.01,4.01-2.16,7.87-7.55,7.41-10.86-.46-22.13,2.46-32.25-3.99-10.12-2.44-15.66-9.3-16.39-20.32-.48-7.34,1.26-14.56,1.02-21.91-.18-5.52-1-10.03-5.01-14.68-8.37-9.68-7.68-18.92-.44-26.51,2.8-2.94,6.32-2.53,9.37-3.99l-.13,.04c4.88-2.36,10.88,.27,15.43-3.49,3.11-3.15,7.83-2.18,11.3-4.43,9.88-6.95,21.41-7.35,32.79-8.24,3.58,.54,7.19,.84,10.83,.7,.5-.02,.8,0,.91,0-.16-.08-.33-.01-.58-.04-25.27-2.13-48.26-10.53-68.87-24.98-11.52-8.07-15.24-18.81-12.07-30.27,4.19-3.96,9.47-2.97,14.43-3.05,21.18-.34,42.39,.83,63.52-2.04,11.96-1.62,23.72-3.91,35.14-7.78,7.58-2.63,14.3-7.67,22.65-8.19,16.7,6.31,31.07,16.75,45.76,26.5,15.78,10.47,31.77,20.86,43.9,35.89,9.7,11.04,7.37,22.8,2.07,34.74-2.27,3.96-4.55,7.92-6.82,11.89-2.23,1.84-5.18,2.2-7.59,3.68-1.52,.02-3.28-.59-4.02,1.5-1.45,1.82-3.54,2.8-5.4,4.08-3.57,2.27-7.38,3.8-11.67,3.83-6.09-4.4-6.63-11.95-9.27-18.08-1.2-2.77,4.66-2.96,7.65-3.18,11.93-.88,11.94-.82,17.45-4.87-5.92-2.17-11.59-1.57-17.08-2-9.3-.72-11.24-2.87-10.12-11.92,.43-3.47,1.38-6.88,1.32-10.42-.01-.65-.08-1.27-.47-2.23-6.67,3.27-6.13,9.34-6.32,15.16-.1,3.12,.66,7.14-2.55,8.69-3.61,1.74-6.5-1.51-9.23-3.55-4.4-3.28-6.85-8.38-10.82-12.08-2-1.86-4.01-5.09-7.18-2.59-3.76,2.96-.71,5.86,1.21,8.14,8.66,10.24,18.49,19.33,28.15,28.6,3.36,3.23,7.84,5.68,8.68,10.96-.19,.95-.66,1.73-1.41,2.35-5.93,2.71-10.37,.02-14.46-3.98-2.95-2.88-5.9-5.76-8.81-8.67-1.34-1.32-2.45-2.91-3.94-4.05-2.7-2.07-5.01-7.51-9.05-3.38-3.47,3.53,1.24,6.01,3.34,8.4,2.7,3.06,5.81,5.75,8.59,8.75,2.09,2.26,4.74,4.31,4.2,8-1,1.71-2.46,2.66-4.47,2.68-4.78-1.32-7.66-5.33-11.42-8.1-9.75-7.16-20.91-5.47-26.41,5.1-3.89,7.48-12.3,10.73-15.46,18.53-5.36,3.78-11.66,3.51-17.75,4.14l.2-.09c-4.25,2.86-9.06,3.74-14.03,4.72-7.28,1.44-13.04,.85-16.92-6.39-1.19-2.22-2.96-6.02-6.41-3.47-2.92,2.16-.85,5.23,.64,7.66,2.46,4.01,7.06,6.55,7.97,11.63l-.05-.06c2.54,1.02,4.36,2.53,3.74,5.65Z"/><path class="cls-68" d="M301.87,803.81c-15.13-17.57-34.8-29.36-53.82-41.9-10.59-6.98-21.76-13.09-32.66-19.59,4.4-5.41,9.43-10.23,6.45-18.65-1.23-3.46,2.06-6.41,6.24-6.84,4.39-.27,8.85,.74,13.16-.77,3.6-.21,7.21-.43,10.81-.64,3.3-1.18,6.94,.31,10.2-1.28,6.16-.15,12.32-.3,18.48-.45,5.89-1.11,11.72-1.6,17.15,1.79,.51,.5,1.1,.65,1.78,.44,2.61,1.25,5.57,1.76,7.84,3.72l.03,.02c10.99,4.8,14.46,16.07,9.43,30.65l-.44,.49,.3,.59c-2.05,3.1,2.02,7.56-2.25,10.17-1.77,6.98-3.54,13.97-5.31,20.95-.71,7.7-1.59,15.35-7.37,21.3Z"/><path class="cls-22" d="M286.7,432.8c.07-9.99-9.41-5.65-13.68-9.12-2.03-5.11-3.49-10.37-3.86-15.88-1.42-3.81-1.3-7.63-.08-11.46,3.77-3.65,9.32-3.19,13.51-5.86,1.05-1.29,2.4-1.69,4-1.38l13.21-4.41c2.79-2.78,5.82-4.56,9.81-2.34,5.16,11.99,5.78,25.21,10.03,37.46-.08,1.82-1.22,2.66-2.84,3.06l.14-.02c-3.13,1.72-6.73,1.69-10.03,2.76-2.89,.2-6.52,.37-5.68,4.38,2.26,10.84,1.16,22.98,11.11,31.12,.51,.87,.88,1.78,1.15,2.74,1.88,12.19,5.42,24.11,5.66,36.55-.85,4.14-3.58,7.03-6.52,9.78-9.4,5.76-10.13,5.59-15.75-3.75-1.75,3.71-1.51,8.09-4.29,11.3-1.65,1.29-3.32,2.4-5.3,.54-5.34-13.31-6.93-27.45-8.76-41.46-.78-5.93,2.76-10.18,8.83-11.72,2.12-.79,6.48,.38,3.88-4.53-5.11-8.68-4.68-18.24-4.54-27.75Z"/><path class="cls-68" d="M403.17,509.43c-8.87-1.5-17.44,2.42-26.27,1.46-1.34-.43-2.77-.6-3.92-1.53-1.13-.95-1.99-2.11-2.69-3.4-4-14.2-6.48-28.71-8.72-43.27-.1-3.47,2.62-5.05,4.71-7.06,7.34-4.47,15.33-7.42,23.46-10.05,2.83-4.43,8.11-3.1,11.98-5.07,.31,.32,.62,.32,.94,0,1.85,.69,3.39,1.77,4.34,3.55,3.33,6.1,3.74,11.51-3.51,15.2-1.12,.57-2.11,1.48-2.76,2.6-2.2,3.8,4.53,29.26,8.58,31.16,6.13,2.88,9.45,7.31,9.55,14.12-4.43,6.29-9.96,5.02-15.69,2.29Z"/><path class="cls-68" d="M632,136.59c1.66,1.49,3.32,2.97,4.98,4.46,7.52,4.26,8.31,12.04,10.1,19.29-.36,.58-.27,1.09,.26,1.52,1.64,6.14,.6,12.38,.69,18.58-7.81,4.16-12.23,3.76-14.26-2.88-3.37-11.07-11.2-13.26-21.08-13-3.13,.08-6.27,.13-9.41,.04-6.99-.38-14.24,1.04-20.75-2.84-6.22-4.49-6.56-11.32-7.15-18.05-.19-5.92,5.24-6.25,8.61-8.64,2.43-3.31,7.22-.22,9.65-3.54,11.08-3.68,21.79-1.9,32.37,2.12l-.15-.07c2.36,.39,4.98,.22,6.16,3.02Z"/><path class="cls-76" d="M601.29,347.47c-10.64-16.17-20.95-32.58-32.08-48.4-4.85-6.9-4.69-11.89,2.18-16.47-.53-.87-.85-1.8-1.12-1.78-9.2,.59-15.93-.74-11.23-12.68,.84-2.14,.81-5.13-1.84-6.87,4.25-4.35,10.54-4.69,15.41-7.84,2.53-2.41,5.44-5.52,8.95-3.49,4.5,2.6,2.77,7.85,3.32,12.06,.34,5.87,2.96,11.11,4.74,16.58,2.98,9.62,6.36,19.11,9.49,28.69,1.54,7.01,3.93,13.79,5.78,20.72,1.02,3.74,2.45,7.4,2.37,11.37-.2,3.06-1.03,5.87-3.27,8.11-.9,.68-1.8,.68-2.7,0Z"/><path class="cls-42" d="M250.07,909.22c-2.81,.08-5.42-.44-7.45-2.61-3.15,.94-5.71,.03-7.78-2.45-6.64-8.07-5.09-15.36,4.94-23.29,13.23-.73,25.75,4.57,38.89,4.62,4.53,.35,8.57,1.96,12.31,4.52,5.4,3.7,7.36,9.05,5.31,14.86-1.95,5.55-7.32,6.42-12.68,5.76-1.89-.23-3.71-.75-5.53,.19l-.67-.31-.55,.48c-9,.45-18.24,4.53-26.79-1.76Z"/><path class="cls-76" d="M278.98,887.95c-13.73,.13-26.81-4.45-40.37-5.57-4.51,2.91-8.96,.7-13.44-.15-2.49-1.13-4.57-2.56-4.13-5.79,4.42-4.6,10.19-3.46,15.64-3.63,1.26-.67,2.51-1.33,3.77-2,1.08-1.14,2.34-1.14,3.68-.57,4.77,8.02,8.72,3.22,12.84-.81-2.27,1.14-4.23,1.46-5.41-1.33,2.3-4.33,7.19-.16,9.94-3.03h-.01c2.27-3.77,6.52-2.27,9.69-3.65l11.75-3.79c.83,1.25,.7,2.46-.18,3.63-.54,.3-.67,.72-.39,1.27-.98,8.49-4.76,16.6-3.39,25.41Z"/><path class="cls-72" d="M418.21,505.33c-3.23-5-6.05-10.4-12.99-11.21-4.55-.53-4.16-4.19-3.97-7.32,.43-6.83-.52-13.41-3.8-19.39-2.14-3.91-1.6-7.47,2.21-8.67,9.08-2.85,7.91-8.67,5.54-15.27,7.37,1.23,13.03,6.93,10.56,13.13-3.7,9.27-.23,18.68-2.73,27.71,5.34,5.22,10.81,10.38,7.26,19-.62,.75-.76,2-2.09,2.02Z"/><path class="cls-21" d="M318.98,421.3c-6.7-12.03-7.92-25.42-9.65-38.69,1.03-4.06,3.41-2.62,5.73-1.4l-.1-.03c7.21-.61,9.98,3.77,11.05,9.94,.9,5.2,.9,10.53,2.26,15.66-.45,5.06,2.53,10.97-3.61,14.64-1.92,1.01-3.83,1.53-5.69-.13Z"/><path class="cls-102" d="M328.27,406.79c-1.97-4.25-3.6-8.51-3.75-13.35-.19-6.2-2.93-10.86-9.56-12.26,9.45-3.37,10.8-2.35,12.34,6.88,1.05,6.27,1.4,12.45,.96,18.73Z"/><path class="cls-102" d="M418.21,505.33c.7-.67,1.39-1.35,2.09-2.02,.91,3.93,3.04,8.44-2.37,10.61-5.86,2.36-11.28,1.72-14.76-4.49,4.69-2.55,11.53,2.77,15.04-4.1Z"/><path class="cls-102" d="M307.55,580.1c-.31,11.1-.33,22.28-9.59,30.57l-.23-.16c-1.34-11.62,2.16-21.72,9.61-30.57l.21,.17Z"/><path class="cls-102" d="M521.31,276.83c-2.68,6.14-5.36,12.28-8.03,18.41-3.95-13.76-3.5-14.8,8.03-18.41Z"/><path class="cls-102" d="M626,133.63c-10.66-2.74-21.48-2.89-32.37-2.12,.65-1.37,1.29-2.74,1.94-4.11,10.08,2.39,21.31-.87,30.43,6.23Z"/><path class="cls-102" d="M509.31,316.84c-1.16,9.75-2.33,19.5-3.49,29.25-.87-6.25,.64-12.59-1.39-18.88-1.4-4.33,1.17-7.88,4.89-10.37Z"/><path class="cls-102" d="M505.71,347.44c-.74,12.75-1.48,25.51-2.21,38.26-3.48-13,.14-25.58,2.21-38.26Z"/><path class="cls-102" d="M559.41,679.71c2.25,12.88,2.94,25.9,3.55,38.93-4.93-12.64-3.79-25.83-3.55-38.93Z"/><path class="cls-102" d="M563.13,720.55c1.9,4.31,1.89,8.85,1.62,13.43-3.3,2.38-.22,6.78-3.61,10.33,.9-8.59-2.14-16.38,2-23.75Z"/><path class="cls-102" d="M538.44,267.35c-5.75,3.21-11.5,6.42-17.25,9.63,.81-6.08,8.24-10.22,17.25-9.63Z"/><path class="cls-102" d="M574.73,821.28c2.34,10.92,3.63,21.96,3.91,33.12-4.36-10.68-4.45-21.86-3.91-33.12Z"/><path class="cls-102" d="M315.07,381.2c-1.89,.55-4.26-.85-5.73,1.4-3.18,.69-6.36,1.39-9.54,2.08,1.58-7.34,4.7-8.06,15.27-3.49Z"/><path class="cls-102" d="M580.72,889.49c-.16-2.73-.31-5.47-.47-8.2,1.35-4.46-2.57-8.93,0-13.39,.58,7.19,5.57,14.28,.47,21.6Z"/><path class="cls-102" d="M565.17,738.88c2.27,5.76,1.8,11.83,2.07,17.82-4.99-.21-4.66-3.57-3.47-6.65,1.42-3.68,.91-7.45,1.39-11.16Z"/><path class="cls-102" d="M567.17,756.55c2.13,5.06,1.82,10.39,1.8,15.7-6.6-4.55-2.04-10.37-1.8-15.7Z"/><path class="cls-102" d="M493.95,498.63c.25,6.01,.5,12.03-1.51,17.85-.92-6.07-2.44-12.19,1.51-17.85Z"/><path class="cls-102" d="M557.45,654.42c2.43,7.23,1.8,14.71,1.78,22.13-3.89-7.11-1.23-14.75-1.78-22.13Z"/><path class="cls-102" d="M401.72,440.51c-3.99,1.69-7.99,3.38-11.98,5.07,.87-9.09,7.76-3.92,11.98-5.07Z"/><path class="cls-102" d="M500.18,424.08c-.15,6.58,.09,13.2-2.02,19.57,.75-6.52-2.56-13.45,2.02-19.57Z"/><path class="cls-102" d="M497.93,446.95c.08,6.16,.59,12.35-1.71,18.29,.54-6.1-1.99-12.48,1.71-18.29Z"/><path class="cls-102" d="M547.93,263.76c-2.87,2.09-6.1,3.24-9.6,3.64,2.31-3.56,4.53-7.37,9.6-3.64Z"/><path class="cls-102" d="M495.76,475.67c.24,4.87,.62,9.75-1.44,14.4,.38-4.81-1.7-9.87,1.44-14.4Z"/><path class="cls-102" d="M572.79,805.58c2.32,4.62,1.79,9.59,1.81,14.5-3.86-4.42-1.3-9.65-1.81-14.5Z"/><path class="cls-102" d="M318.98,421.3c1.9,.04,3.79,.08,5.69,.13-1.96,4.1-4.78,3.48-7.86,1.45,.73-.52,1.45-1.05,2.18-1.57Z"/><path class="cls-102" d="M570.89,788.85c1.62,2.56,1.58,5.39,1.33,8.25-6.35-1.8-.26-5.6-1.33-8.25Z"/><path class="cls-102" d="M269.07,396.33c.03,3.82,.06,7.64,.08,11.46-2.87-3.8-2.81-7.62-.08-11.46Z"/><path class="cls-102" d="M568.96,773.06c1.95,3.34,1.72,6.98,1.51,10.63-2.96-3.19-1.29-7.04-1.51-10.63Z"/><path class="cls-102" d="M307.48,719.65c-2.61-1.24-5.23-2.48-7.84-3.72,3.34-.29,6.31,.21,7.84,3.72Z"/><path class="cls-102" d="M286.59,389.1c-.99,1.47-2.46,1.53-4,1.38-.09-1.08-.6-2.86-.19-3.11,1.9-1.14,3.26,0,4.2,1.73Z"/><path class="cls-102" d="M578.57,854.2c1.81,3.09,1.67,6.46,1.43,9.85-2.79-2.95-1.39-6.5-1.43-9.85Z"/><path class="cls-102" d="M292.22,853.65c2.27-1.76,4.4-3.81,7.59-3.68-1.51,3.32-4.37,3.87-7.59,3.68Z"/><path class="cls-102" d="M282.76,861.27c.06-1.21,.12-2.42,.18-3.63,1.75-.83,3.5-1.66,5.26-2.49-.81,2.93-2.93,4.69-5.44,6.12Z"/><path class="cls-68" d="M695.09,902.51c-.53-.24-1.08-.33-1.65-.28-4.48-3.66-5.86-7.92-2.54-13.09,18.46-5.31,18.06-5.27,15.92-24.44-5.59-50.04-12.91-99.82-21.01-149.52-6.52-39.98-11.78-80.18-17.23-120.33-2.47-18.19-4.31-36.49-5.9-54.78-.46-5.27-1.98-7.47-7.36-7.1-10.56,.72-20.81-1.57-31.08-3.69-12.35-2.54-17.15-8.3-17.19-21.08-.07-25.49-.11-50.98-.15-76.46-.52-.87-.49-1.71,.08-2.54,22.31-10.29,29.74-24.72,24.44-48.52-4.32,14.67-13.32,25.85-22.11,37.16-.59,.76-1.64,.79-2.6,.45-.89-1.38-.66-2.68,.25-3.93,.03-.61,.05-1.22,.05-1.84-4.24-7.28-3.53-14.72-.78-22.22,2.06-1.94,3.36-.86,4.15,1.23,1.14,3.04,.92,6.21,.44,9.35,4.84-5.29,8.53-11.3,11.2-17.94,4.04-10.04,3.05-12.8-6.66-18.19-1.38-.77-2.82-1.42-4.14-2.31-1.5-1.08-2.59-2.45-2.88-4.34,.16-2.04,1.82-2.88,3.14-4.01,.65-.58,1.34-1.12,2.03-1.66,7.6-6.82,11.69-16.69,19.95-22.94,.86-.32,1.74-.42,2.65-.35,4.29,1.91,6.16,5.24,5.76,9.89-.25,2.84,.37,5.95,3.81,4.85,7.2-2.3,10.44,2.82,14.51,6.62,3.03,2.83,5.45,6.23,8.35,9.18,1.92,1.95,4.18,3.43,6.62,1.15,2.36-2.19,1.46-4.67-.45-6.73-2.59-2.8-5.46-5.34-8.15-8.05-6.08-6.12-14.32-11.68-3.68-22.96-9.29,5.31-16.35,5.75-21.85-2.32,.04-6.74,5.51-10.34,8.76-15.23,3.78-4.91,6.71-9.77,2.89-16.24-2.26-3.82-7.05-8.07-3.34-12.59,3.48-4.24,9.23-2.6,14.17-1.59,5.64,1.59,11.36,3.69,15.73-2.55,1.29-.53,2.46-.1,3.59,.48,3.67,1.03,4.5-2.86,6.91-4,4.68-2.22,8.59-2.65,9.74,3.91-.02,13.55-3.24,26.62-5.92,39.77-.12,1.39-.38,2.76-.74,4.11-.92,2.61-1.14,5.5-3.02,7.73-7.86-1.3-10.21-5.62-7.81-14.99,1.07-4.17,3.66-8.08,1.39-12.8-4.5,4.49-7.95,9.82-12.81,13.86-3.35,2.78-3.64,6.32-.07,8.81,7.94,5.54,12.07,14.67,19.81,20.34,.74,1.3,1.14,2.7,1.34,4.18,.27,9.16-.4,18.35,.87,27.49-1.19,21.21,3.83,41.83,6.04,62.71,1.34,12.64,2.89,25.3,5.01,37.87,1.17,16.45-2.45,32.69-2.1,49.12,.07,3.18-1.14,6.19-2.84,8.91-2.64,8.37,1.17,16.36,1.49,24.55,2.8,15.73,2.55,31.72,3.29,47.55,2.13,45.74,5.54,91.37,9.4,136.98,4.1,48.49,8.7,96.92,13.59,145.33,1.81,17.89-.1,21.62-11.62,26.58-8.25,1.06-11.9-8.48-19.68-8.58Z"/><path class="cls-72" d="M637.47,728.59l.37,22.61c1.7,22.46,.6,44.95,.64,67.42,.02,12.59,1.41,25.26-.95,37.8-6.13,9.1-23.35,11.89-30.93,4.67-2.78-2.65-6.11-3.81-9.33-4.24-7.8-1.02-8.29-5.36-6.62-11.54,3.01-11.1,6.28-21.96,18.61-26.47,4.05-1.48,6.4-8.4,12.04-4.45,5.93,4.16,13.62,6.85,12.84,16.89-.34,4.33-3.84,9.12,1.96,15.65v-119.39c.7,.03,1.16,.38,1.38,1.04Z"/><path class="cls-73" d="M608.89,389.46c-3.78,7.43-.92,15.41-1.88,23.07-7.63,1.99-12.05,8.84-18.72,12.36-4.47,2.36-7.52,2.73-11.55-1.29-11.38-11.37-14.81-26.21-7.24-42.52,6.82-14.7,19.68-20.65,35.62-20.25,2.9-.53,3.32,1.61,2.61,3.26-1.12,2.59-.22,3.01,2.01,2.91,.92,1.72,.92,3.42-.11,5.1-1.19,1.17-2.79,1.09-4.27,1.4-2.76,.57-4.39,2.19-4.24,5.1,.13,2.57,1.95,3.64,4.23,4.12,1.49,.32,3.05,.43,4.18,1.66,.94,1.84,.96,3.56-.63,5.08Z"/><path class="cls-52" d="M562.72,487.09c-6.04,.28-10.98-1.12-10.89-8.46,.09-7.52,9.92-12.83,22.04-12.37,5.66,.22,4.46,4.34,4.42,7.54-.11,9.41-4.82,13.33-15.57,13.28Z"/><path class="cls-102" d="M599.04,917.15c.78,13.81,.73,13.87-12.85,13.89-4.41,0-8.87-.39-13.23,.08-8.88,.96-13.31-2.16-11.83-11.56,.03-1.32,.05-2.63,.08-3.95,12.32,7.54,25.05,5.18,37.84,1.55Z"/><path class="cls-28" d="M500.61,556.05c-3.76-3.13-2.63-7.42-2.7-11.43,13.38-.54,26.24,5.34,39.74,3.28-2.12,5.31-6.02,8.54-11.55,9.86-8.61,1.12-17.26,2.73-25.5-1.7Z"/><path class="cls-102" d="M637.53,856.42c0-31.92,0-63.85,.04-95.77,0-3.15,.17-6.3,.27-9.45,2.9,2.93,1.68,6.64,1.69,10.01,.09,33.79,.19,67.57-.02,101.36-.05,8.58,2.5,16.86,1.75,25.58-.34,3.92-1.16,7.14-2.56,11.27-2.48-5.18,1.08-10.54-3.06-14.41,4.52-9.27,1.67-19.03,1.89-28.59Z"/><path class="cls-23" d="M561.76,383.79c-1.74-6.87,7.34-13.46-3.96-17.35-.3-.1-.08-3.03,.6-4.25,.43-.77,2.94-1.42,3.21-1.09,6.04,7.56,11.17,.84,17.83,.03-5.89,7.55-11.79,15.1-17.68,22.65Z"/><path class="cls-102" d="M631.73,905.61c-3.35,2.71-3.34,10.15-7.78,9.5-8.71-1.29-16.33,6.28-24.95,2.07,3.29-2.43,6.78-4.65,9.83-7.36,3.26-2.9,5.99-4.98,10.86-2.61,3.8,1.85,8.04-.71,12.04-1.59Z"/><path class="cls-23" d="M558.63,397.93c4.79,6.48,4.94,14.13,9.02,20.19,.74,1.09,.83,2.57-.49,3.3-1.52,.84-3.46,.58-4.23-.87-2.21-4.17-5.23-4.87-9.87-4.63-4.37,.23-4.23-4.48-1.39-5.6,5.99-2.35,5.9-7.22,6.96-12.4Z"/><path class="cls-102" d="M561.27,915.68c-7.81-14.19-3.63-22.75,12.16-24.96,2.47-.35,4.91-.86,7.37-1.3-4.98,4.33-10.08,8.52-14.89,13.02-3.76,3.52-7.1,7.44-4.63,13.25Z"/><path class="cls-73" d="M607.16,429.65c-.09,.7-.17,1.4-.26,2.09-5.14-.82-10.67,1.31-16.5-2.1,6.04-5.19,12.2-9.32,16.56-15.28,.07,1.3,.13,2.6,.2,3.9,3.19,3.8,2.74,7.59,0,11.39Z"/><path class="cls-74" d="M608.94,366.58c-8.13,2.64,1.73-6.66-3.81-5.74-1.71-7.3-8.39-1.69-11.92-4.82-1.67-6.69,8.11-3.18,8.09-8.54,.61,0,1.22,.03,1.84,.06,3.28,2.4,5.09,5.67,5.7,9.65,.71,1.24,1.42,2.47,2.13,3.71,1,.98,1.18,2.15,.85,3.45-.58,1.22-1.51,1.99-2.86,2.23Z"/><path class="cls-89" d="M637.47,728.59c-.44-.38-.9-.73-1.38-1.04-.22-8.62-.45-17.23-.67-25.85-.13-2.14-2.4-4.97,1.84-5.7,.73,5.01,1.46,10.03,2.19,15.04-3.83,5.49,.07,11.86-1.98,17.55Z"/><path class="cls-34" d="M543.89,533.05c-3.29-1.51-1.02-5.64-3.53-7.52,.63-6.95,1.27-13.89,1.9-20.84,.71-.33,1.45-.65,1.99,.2,.22,.34,.01,.87-.29,1.38-.02,8.92-.04,17.85-.07,26.77Z"/><path class="cls-102" d="M687.41,902.34c-.5-4.61,6-12.82-5.94-11.55,2.86-2.16,6.18-1.71,9.43-1.65,.85,4.36,1.69,8.73,2.54,13.09-2.01,.04-4.02,.07-6.03,.11Z"/><path class="cls-102" d="M677.81,891.2c-6.26,.41-7.81-3.02-5.52-12.24,3.38,3.39-.62,10.1,5.52,12.24Z"/><path class="cls-43" d="M637.26,696c-.61,1.9-1.23,3.8-1.84,5.7-2.56-6.29-1.67-12.81-1.31-19.3,.64-.8,1.12-.75,1.41,.27,.58,4.44,1.16,8.89,1.74,13.33Z"/><path class="cls-58" d="M543.96,506.28c-.57-.53-1.13-1.05-1.69-1.58-1.05-3.74,.92-6.69,2.97-11.11,.37,5.23,1.46,9.1-1.27,12.69Z"/><path class="cls-102" d="M635.67,884.98c-.57,5.13,1.8,10.58-1.64,15.41,.3-5.16-.87-10.48,1.64-15.41Z"/><path class="cls-64" d="M635.52,682.66c-.46-.15-.93-.24-1.41-.27-1.46-.82-2.29-2.01-1.82-3.71,.09-.33,1.01-.78,1.3-.65,1.97,.94,2.13,2.73,1.93,4.63Z"/><path class="cls-29" d="M79.46,763.27c-6.39-3.1-6.29-9.27-6.28-14.8,.11-47.56,9.77-92.53,36.9-132.6,3.22,.7,5.07,3,5.42,5.97,1.7,14.46,8.79,26.32,17.55,37.42,3.02,3.83,5.09,8.07,6.04,12.85,.19,.94,.29,1.91,.6,2.8,7.63,22.21,16.57,25.99,34.6,9.68,5.74-4.19,10.72-9.58,17.98-11.39,.94,.55,1.6,1.32,2.01,2.33,1.62,5.12,.06,10.18-.77,15.09-3.38,20-1.5,39.85,.88,59.72-18.02,9.19-37.81,9.82-57.27,11.1-15.81,1.04-31.74,.2-47.62,.32-3.38,.03-7.03-1.17-10.05,1.51Z"/><path class="cls-26" d="M194.4,750.35c-5.53-7.7-4.5-16.91-5.34-25.52-1.68-17.14,2.26-34.02,3.68-51.02-1.54-3.38,.56-5.33,2.83-7.21,10.61-6.33,19.7-14.88,30.42-21.08,2.86-.22,6.16-1.39,6.8,3.16-3.28-.27-5.11,.68-5.73,4.45-3.2,19.38-6.53,38.72-5.42,58.52,.2,3.57,.87,6.2,4.87,6.71-2.42,1.69-4.64,3.87-2.95,6.87,5.55,9.81-.81,13.63-8.18,17.08-6.99,2.68-13.99,5.35-20.98,8.03Z"/><path class="cls-73" d="M271.19,861.42c-2.79,2.39-6.25,2.98-9.69,3.64-5.56-9.43-15.19-14.94-22.14-23.05-5.57-6.5-12.04-12.11-17.55-18.76-4.48-5.4-1.04-7.8,1.67-10.75,4.22-4.58,5.82,.94,8.12,2.72,6.89,5.32,9.69,15.13,19.9,17.82,1.68-9.92-3.3-22.67,11.51-27.33,.69,5.56,.67,11.2-.95,17.07-1.69,6.12-.53,10.48,7.69,9.95,5.87-.37,11.91-.38,17.77,1.24,4.53,1.26,5.33,2.82,1.31,6.07-4.54,3.68-9.62,4.41-15.16,4.07-3.42-.21-6.86-.04-12.2-.04,5.78,5.6,8.91,10.93,9.73,17.35Z"/><path class="cls-73" d="M236.69,872.81c-4.73,2.67-10.12,2.69-15.24,3.84-8.58-5.43-14.34-1.31-19.23,5.7-6.06,2.92-12.59,4.21-19.14,5.44,.93-4.72,2.51-9.25,7.51-10.84,2.95-.94,3.52-2.98,4.64-5.25,7.4-14.95,20.55-17.43,33.05-6.37,2.81,2.48,5.6,4.99,8.4,7.48Z"/><path class="cls-73" d="M244.33,870.86c-1.29-.01-2.58-.03-3.87-.04-5.85-6.17-11.58-12.46-17.6-18.46-3.01-3-3.68-5.25-.38-8.65,3.51-3.62,6.2-3.59,9.29,.18,2.19,2.67,4.55,5.2,6.83,7.79,2.21,6.46,11,8.92,10.4,17.1-1.09,1.73-2.43,2.92-4.67,2.08Z"/><path class="cls-73" d="M212.76,825.88c4.08,.98,6.84,2.97,6.72,7.74-.12,4.86-2.59,6.75-7.21,6.61-4.36-.14-6.11-2.45-6.24-6.63-.15-4.78,2.66-6.74,6.73-7.72Z"/><path class="cls-73" d="M248.15,868.89c-1.01-6.94-9.74-9.61-9.55-17.22,2.99,2.68,6.35,5.06,8.89,8.12,3.8,4.59,8.41,6.02,14.02,5.27-2.27,3.68-7.29,.31-9.64,3.77-1.23,1.07-2.46,1.07-3.72,.05Z"/><path class="cls-85" d="M150.25,818.9c3.37-2.4,8.02-.24,11.24-3.17,2.69-.74,4.82-.1,6.66,3.17h-17.9Z"/><path class="cls-56" d="M836.62,207.81c23.48,33.78,37.94,71.19,48.64,110.89,15.18,56.35,29.48,113.03,49.2,168.08,1.27,3.56,2.49,7.24,5.42,9.94,6.77,17.72,14.68,34.78,27.62,49.04,1.27,1.4,2.36,2.99,3.89,4.12,8.14,6.05,8.32,7.34,1.58,14.64-.87,.94-1.63,1.92-2.33,2.97v.02c-3.37,6.09-6.49,12.38-13.49,15.26-14.79,10.38-29.34,21.28-46.69,27.13-14.06,4.74-27.89,10.55-43.03,11.27-3.04,.71-3.93-1.68-4.68-3.63-5.7-14.8-13.68-28.53-19.42-43.4-4.88-12.65-9.22-25.59-14.87-37.99-2.89-6.35-4.72-13.13-5.76-20.08-.75-5-1.15-10.15-5.01-14.06-3.46-7.1-8.39-13.76-6.71-22.4,27.54-12.6,42.87-36.92,58.3-61.07,5.89-9.22,7.4-19.06,4.53-30.12-3.77-14.53-8.04-28.82-13.93-42.6-2.26-5.27-2.92-10.35-1.03-15.72-6.6-5.37-5.92-11.72-3.55-19.04,2.09-6.46,.38-12.62-5.62-16.87-7.22-5.11-8.76-12.07-6.72-20.27,.93-3.75,1.95-8.21-.36-11.17-6.06-7.75-6.71-16.33-7.29-25.7-.49-8.08-4.04-16-10.74-21.79-3.18-2.75-5.36-6.33-6.21-10.54-1.07-5.32,.45-8.22,6.5-6.77,5.17,1.8,9.87,4.17,11.78,9.87Z"/><path class="cls-12" d="M811.84,479.62c1.04,7.5,4.31,14.2,7.5,20.93,1.52,1.75,2.28,3.92,2.56,6.08,3.68,28.09,16.66,53.01,27.16,78.71,11.99,29.35,25.92,57.86,40.4,86.08,1.36,2.98,2.73,5.97,4.32,8.84,16.93,35.01,34.33,69.78,55.05,102.76,7.44,13.38,15.43,26.4,24.22,38.94,1.99,2.83,3.97,5.81,4.77,9.31-.04,4.32-.66,8.23-6.17,8.66,1.9,3.01,6.01,4.71,5.48,9.15-.17,1.39-1.21,2.1-2.47,2.52-4.41,0-6.71-3.2-8.95-6.21-7.16-9.63-14.7-18.98-21.46-28.92-16.4-26.46-33.41-52.52-48.02-80.08-20.39-38.45-40.54-76.97-56.74-117.43-.71-1.76-1.44-3.53-2.37-5.2-4.32-11.09-9.12-22-13.12-33.26-.78,.27,.21,.51,.28,.72,3.93,11.62,8.94,22.81,13.42,34.21,13.83,33.79,26.32,68.14,41.47,101.38,15.66,34.38,29.99,69.41,48.73,102.32,11.16,23.09,23.14,45.73,37.36,67.11,2.65,3.98,4.85,8.16,6.46,12.65,1.25,3.69,3.9,6.39,6.48,9.14,.56,.62,1.04,1.29,1.49,1.99,1.35,2.54,3.46,4.58,4.84,7.11,.25,.83,.16,1.62-.32,2.35-5.82,.6-11.93-1.25-17.45,1.99-2.21,2.04-4.32,.88-6.45-.19-2.41-1.56-3.7-3.94-4.77-6.48-1.03-3.51-3.59-5.75-6.48-7.72-2.82-2.25-4.32-5.42-6.03-8.46-26.17-46.48-48.84-94.65-69.74-143.68-7.95-19.2-16.68-38.1-21.17-54.19,5,14.83,11.3,33.62,17.06,52.58,15.84,50.65,30.61,101.63,48.84,151.51,1.85,5.07,3.13,10.03-3.69,12.6-8.32,2.2-16.1-.89-24.06-2.37-4.13-2.53-5.46-6.84-7.01-11.02-26.97-72.67-45.94-147.61-62.78-223.12-10.11-45.34-19.67-90.83-25.44-136.98-2.32-18.58-1.97-37.44-4.17-56.07-.11-2.9,.85-5.38,2.9-7.43,5.86-3.67,11.67-9.09,18.08-.82Z"/><path class="cls-47" d="M945.88,816.19c6.91,8.84,13.92,17.6,20.67,26.56,2.29,3.04,4.48,6.02,7.8,7.99,7.74,4.47,11.23,12.84,17.33,18.87,12.91,12.76,25.62,25.67,41.09,35.5,3.34,2.12,7.4,4.13,7.86,9-.21,.89-.58,1.71-1.1,2.46-2.73,2.55-6.46,3.04-9.64,4.69-4.09,1.76-8.21,3.42-12.64,4.16-3.01,.34-6.09,.08-9.04,1.04-.85,.28-1.72,.45-2.61,.57-2.29,.18-4.53,.14-6.29-1.67-.61-.08-1.23-.11-1.85-.08-2.38-1.29-5.73,1.08-7.62-2.03-1.87-1.25-3.74-2.5-5.61-3.74-.08-.61-.14-1.22-.2-1.83-1.73-2.7-4-5-5.75-7.69v.02c-2.12-3.53-5.49-6.06-7.67-9.55-7.46-12.41-15.22-24.65-22.29-37.29-7.84-14.02-16.12-27.85-21.77-42.99-12.65-24.41-22.81-50-35.35-74.46-3.33-6.5-5.48-13.5-8.72-20.03-1.05-2.1-1.62-4.45,1.2-5.61,2.06-.85,3.62,.47,4.7,2.2,4.19,6.72,8.66,13.25,12.36,20.28,13.42,25.54,28.22,50.25,45.14,73.65Z"/><path class="cls-57" d="M976.31,831.61c-9.49-15.97-21.57-30.39-28.74-47.76-17.97-31.57-35.79-63.23-51.22-96.16-1.2-2.55-2.24-5.26-4.43-7.24-2.23-2.02-3.4-4.57-3.7-7.54-1.11-3.24-2.35-6.43-3.93-9.47-.73-1.41-1.27-3.07,.62-4,1.84-.91,3.01,.53,3.72,1.85,1.5,2.79,3.73,5.01,5.5,7.58l-.02-.03c9.51,16.41,19.32,32.61,30.6,47.88,5.39,5.01,7.33,12.69,13.32,17.24,12.36,14.65,20.98,31.87,32.09,47.28,16.87,23.4,32.29,47.86,50.91,70.02,8.55,10.18,15.38,21.81,26.08,30.12v3.66c-5.94,10.81-9.71,11.83-19.79,4.69-9.78-6.92-18.41-15.2-26.64-23.89-2.08-2.24-4.27-4.39-6.12-6.84-2.03-3.64-5.15-6.43-7.69-9.67-1.32-2.06-2.68-4.1-4.12-6.09-2.46-3.71-5.52-7.09-6.44-11.65Z"/><path class="cls-102" d="M976.31,831.61c2.74,3.68,6.94,6.37,7.75,11.37,1.1,2.01,.47,5.19,3.84,5.65,3.46,2.52,7.03,4.95,7.71,9.68-1.36,1.74-2.96,3.43-1.05,5.79,2.23,2.76,4.43,1.21,6.65,.01,8.33,5.89,14.6,14.03,22.76,20.23,12.27,9.32,12.44,9.84,23.14,.71,1.56,10.5-2.54,21.1-.57,31.77-1.02-.22-3.09-.65-5.15-1.08-.66,.65-1.31,.67-1.95-.03-.68-6.52-6.8-8.16-10.9-10.86-21.04-13.88-37.56-32.29-53.48-51.4-.54-.65-.49-1.8-.71-2.72,3.71-5.92-4.24-6.33-4.62-11.22,3.44-.91,6.53-3.24,6.59-7.9Z"/><path class="cls-102" d="M1047.1,881.39c-10.97-3.95-16.08-14.23-22.68-22.37-31.42-38.74-58.38-80.67-85.73-122.31-.49-.74-.46-1.83-.67-2.75,2.61,.74,3.99,4.21,7.57,2.96,9.78-3.4,10.6,4.68,10.09,9.96-.54,5.54,1.19,9.42,4.14,12.96,6.87,8.25,9.44,19.69,19.26,25.75,1.67,1.03,2.46,2.79,1.55,4.98-.32,.78-.02,1.81,0,2.73,9.74-3.04,6.01,7.32,9.98,10.44,4.33,3.4,5.31,10.51,11.6,12.73,.72,.26,1.75,1.76,1.55,2.19-4.88,10.7,2.53,10.58,9.52,11.13,2.64,.21,18.98,20.53,18.33,23.04-2.88,11.14,2.94,17.29,12.25,20.69,4.89,1.79,.64,5.94,3.24,7.86Z"/><path class="cls-81" d="M894.12,668.87c-4.27-1.25-4.97-6.19-9.15-8.91,.39,5.01,4.33,8.45,3.24,12.95-12.96-20.85-21.48-43.84-31.57-66.05-9.71-21.35-17.96-43.35-27.15-64.94-5.65-13.28-7.18-27.49-10.15-41.38,5.49,2.45,4.91,8.18,5.42,12.34,2.11,17.51,10.13,33.02,16.17,49.07,7.61,20.2,16.39,40.04,26.49,59.21,4.49,14.09,14.69,24.95,21.39,37.79,1.74,3.33,4.94,5.86,5.32,9.91Z"/><path class="cls-54" d="M714.21,923.27c-.04,3.3,.2,7.3,4.19,7.32,7.09,.03,12.17,5.23,18.76,6.18-3.99,2.16-25.21,.55-27.1-2.6-3.43-5.73-.91-12.29-1.6-18.45,3.52-.79,3.36,2.52,4.7,4.18,.56,1.06,1,2.15,1.05,3.37Z"/><path class="cls-81" d="M924.71,716.73c-13.25-14.01-23.17-30.15-30.6-47.88,11.68,15.01,21.37,31.3,30.6,47.88Z"/><path class="cls-102" d="M712.39,921.47c-1.31-1.91-2.62-3.82-3.94-5.74-5.21-3.64-7.67-10.07-13.37-13.22,7.87-2.25,12.03,3.68,17.04,7.73,3.25,3.67,3.23,7.41,.26,11.23Z"/><path class="cls-102" d="M968.68,923.39c-10.16,3.39-19.82,2.89-28.71-3.68,3.4-3.33,7.15-.76,10.77-.67,3.38,.09,6.63,2.47,10.12,.58,1.97,.62,3.94,1.24,5.9,1.87,.64,.64,1.28,1.28,1.91,1.91Z"/><path class="cls-54" d="M817.52,923.39c1.39,7.41,7.04,9.86,13.39,11.48-8.49,.87-15.27-.26-13.39-11.48Z"/><path class="cls-102" d="M1006.91,925.24l.04,3.89c-2.99-.37-7,1.31-7.66-3.78,2.54-.03,5.08-.07,7.62-.1Z"/><path class="cls-102" d="M989.82,923.22c2.63,.35,5.6-.61,7.62,2.03-2.91,.73-6.87,5.37-7.62-2.03Z"/><path class="cls-102" d="M836.62,207.81c-3.8-2.58-7.6-5.16-11.41-7.74-4.63-3.78-10.95-3.1-15.91-6.04-3.15-2.14-5.7-4.66-5.56-8.86l.44-.43c7.63,4.14,15.5,6.27,24.31,4.07,2.41-.6,13.96,14.14,13.33,16.56-.69,2.64-4.45-.54-5.2,2.44Z"/><path class="cls-102" d="M647.03,180.81c.1-6.31,.21-12.63,.31-18.94,2.83,14.84,6.95,29.74-1.91,44.08l-.14-.1c-2.17-8.53-1.96-16.9,1.74-25.03Z"/><path class="cls-102" d="M647.08,160.34c-2.42-6.93-5.86-13.32-10.1-19.29,8.64,2.72,12.19,9.51,10.1,19.29Z"/><path class="cls-102" d="M632,136.59c-2.05-1.01-4.1-2.02-6.16-3.02,2.45-1.31,4.97-3.61,7.74-1.18,2.55,2.23-1.07,2.77-1.59,4.21Z"/><path class="cls-40" d="M232.79,648.69c-1.98-2.93-4.75-1.87-7.39-1.46-6.81-3.17-13.01-7.49-19.89-10.55-12.64-8.24-23.68-18.27-33.49-29.7-6.08-9.26-11.66-18.69-9.94-30.66-6.21,2.38-10.52,8.1-16.5,11.3-8.65,3.44-13.85,10.78-19.63,17.43-3.2,3.68-6.15,7.75-11.71,3.64,17.6-31.5,35.36-62.57,72.16-76.29,7.59-2.83,13.49-10.18,20.17-15.45,7.85,3.94,9.25,12.11,12.51,19.07-.93,11.58-9.88,15.39-18.9,16.85-8.15,1.33-6.22,4.58-3.33,8.47,7.39,9.95,15.17,19.65,24.76,27.6,8.78,7.29,17.49,14.72,27.8,19.99,5.07,2.59,10.18,5.62,10.65,12.41,.08,5.71-.24,11.3-4.3,15.87-.11,.3-.24,.58-.31,.89q-4.43,18.99-22.63,10.58Z"/><path class="cls-35" d="M217.5,535.85c-3.65-6.3-7.29-12.6-10.94-18.9-4.66-9.3-10.86-17.83-12.67-28.5-1.46-8.59,.05-16.45,4.2-23.83,17.24-30.68,52.23-42.25,84.39-27.6,7.13,3.25,3.17-2.5,4.21-4.22,3.51,9.37,1.71,20.1,7.39,28.91,.14,3.44-2.68,3.57-4.89,4.37-3.82-.4-7.36,1.41-11.29,1.04-11.09-1.06-12.92,.44-15.45,11.45-.85,3.71-1.5,7.46-2.42,11.16-1.11,4.46-3.59,6.06-8.37,5.3-9.4-1.49-10.77-.33-9.27,9.15,2.32,14.58-6.78,22.91-16.03,31.28-1.62,1.47-4.01,1.84-6.31,1.77-1.01-.16-1.87-.62-2.56-1.37Z"/><path class="cls-10" d="M114.24,608.7c4.65,.87,7.18-1.7,9.98-5.08,5.84-7.05,10.93-15.2,20.64-17.85,.57,.82,.67,1.7,.38,2.64-11.46,9.03-10.34,19.67-4.32,31.25,3.5,6.73,5.98,13.89,7.57,21.4,1.71,8.06,4.27,15.81,10.24,22.08,2.82,2.96,4.99,6.98,5.05,11.07,.12,8.08,4.54,10.79,11.67,11.04-3.87,8.13-11.94,10.95-19.37,12.61-6.14,1.36-17.34-11.35-18.42-20.69-.94-8.1-4.01-14.99-9.33-20.23-7.63-7.52-9.13-17.92-14.34-26.52-2.45-4.05,.95-10.56-3.92-14.56,.55-2.88,1.89-5.29,4.16-7.17Z"/><path class="cls-61" d="M255.74,637.22c.76-5.65,1.52-11.29,2.29-16.94-1.05-8.93,1.41-17.31,3.98-25.67,12.76-9.64,14.71-24.91,19.89-38.48,.72-1.89-1.07-3.5-1.71-5.24,4.67-6.18,9.14-12.44,9.29-20.66,.03-4.63,0-9.26,2.33-13.47,.65-4.36,1.3-8.71,1.94-13.07,.26-1.8,0-4.23,2.56-4.24,2.12,0,2.98,2,3.47,3.91,.16,.61,.38,1.24,.38,1.85,.04,11.16,5.43,7.3,10.69,3.82,7.16-3.09,14.42-4.36,20.08,2.35,3.99,4.73,.31,18.14-5.69,23.26-1.21,1.03-2.56,1.88-3.85,2.82-.78,.72-1.54,1.47-2.27,2.25-3.85,2.21-5.52,5.87-6.3,9.96-1.9,10.07-3.66,20.17-5.48,30.25-3.2,10.19-6.41,20.38-9.61,30.58-4.14,7-8.08,14.12-12.47,20.97-4.79,7.47-10.87,11.92-20.37,7.57-2.75-1.26-6.08-1.24-9.14-1.81Z"/><path class="cls-88" d="M292.04,531.97c-1.74,7.63-3.11,15.47-11.42,19.19-4.56,5.07-10.74,5.26-16.41,3.92-8-1.89-13.24,.53-16.9,7.49-1.75,1.42-3.79,1.16-5.37,.14-8.9-5.78-16.28-13.18-22.11-22.04-.81-1.23-.96-3.03-.03-4.55,14.69-6.78,21.5-18.85,19.47-34.56-.46-3.57-.62-7.2,2.45-9.68,3.11-2.52,6.51-2.13,9.61,.31,5.33,4.2,6.08,1.02,6.7-3.74,.74-5.64,1.8-11.3,3.39-16.75,2.11-7.28,7.19-10.46,14.62-7.89,4.66,1.61,9.28,1.94,14.06,1.58,.48,.27,.66,.57,.52,.87-.14,.32-.29,.48-.44,.48-8.76,1-10.6,6.29-9.02,14.06,2.57,12.6,4.9,25.25,7.33,37.88,3.38,3.85,1.69,9.05,3.56,13.3Z"/><path class="cls-13" d="M319.04,538.15c1.58-6.52,10.58-7.24,10.55-16.35-.03-10.44,.36-12.28-10.22-12.58-2.84-.08-5.68-.12-8.52-.18,2.09-2.45,4.18-4.91,6.28-7.36,2.6-3.79,2.34-10.21,9.23-10.08,1.84,.83,2.84,2.39,3.54,4.19,2.67,6.85,8,8.7,14.93,9.04,9.23,.45,18.82-2.52,27.65,2.42,.58,.67,1.17,1.34,1.75,2-10.4,.08-20.8,.25-31.2,.2-5.62-.02-10.79-.03-7.43,8.09,1.37,3.3-1.14,6.05-1.5,9.11-2.65,6.95-7,11.67-15.08,11.5Z"/><path class="cls-51" d="M305.83,423.26c1.82,9.27,3.65,18.54,5.44,27.81,.66,3.43,1.04,6.88-.04,10.32-5.58-1.35-8.05-5.14-8.95-10.61-1.08-6.55-2.49-13.05-3.98-19.53-1.52-6.61,1.28-8.84,7.52-8Z"/><path class="cls-55" d="M324.7,491.99c-2.52,3.23-5.05,6.46-7.57,9.68-.13-13.21-5.76-25.65-5.54-38.91,6.01-.18,10.47,1.68,10.9,8.55,.17,2.71,1.44,3.96,4.14,3.76-5.19,5.12-3.27,11.05-1.92,16.91Z"/><path class="cls-83" d="M292.04,531.97c-2.81-4-3.52-8.56-3.56-13.3,1.11-.63,2.22-1.27,3.32-1.9,.08,5.07,.15,10.14,.23,15.21Z"/><path class="cls-67" d="M290.17,466.73c.03-.45,0-.9-.07-1.35,1.33-1.22,2.66-2.45,3.99-3.67,1.82,.6,2.51,1.97,1.76,3.59-1.21,2.62-3.53,1.93-5.67,1.43Z"/><path class="cls-49" d="M500.61,556.05c8.51,.46,17.18-1.51,25.5,1.71,1.44,11.55-3.32,23.07,.31,34.79,1.26,4.07-12.36,10.17-17.71,8.21-18.49-6.79-22.07-15.19-13.91-32.73,1.87-4.02,3.87-7.98,5.82-11.97Z"/><path class="cls-22" d="M324.7,491.99c-6.79-7.86-6.15-13.54,1.92-16.91l36.24-14.05c3.21,15.41,6.41,30.81,9.62,46.22-7.9,.15-15.81,.39-23.71,.42q-17.32,.07-22.42-15.06c-.12-.35-1.08-.41-1.65-.6Z"/><path class="cls-38" d="M647.03,180.81c.26,8.4,1.07,16.84-1.74,25.03-6.43,4.98-8.91,12.12-7.55,19.48,3.05,16.55-4.12,25.73-19.27,30.24-1.03,.63-1.82,.4-2.35-.68-.55-3.87,2.13-6.45,4.15-10.12-7.3,2.61-10.76,.2-12.02-7.1-3.71-21.53-6.28-43.2-8.94-64.86-.5-4.04-1.03-8.42,3.9-10.62,5.37-.09,10.75-.49,16.1-.21,8.67,.45,15.45,3.66,16.25,13.59,.71,8.81,7.43,3.99,11.48,5.25Z"/><path class="cls-60" d="M603.21,162.18c-3.89,5.79-.46,11.57-.12,17.4,1.19,20.13,5.55,39.82,7.77,59.79,.58,5.25,3.41,5.5,7.21,3.78,2.25-1.02,4.26-2.59,7.36-4.52-.33,7.87-7.06,11.06-8.93,16.77-.8,1.95-1.92,3.19-4.19,1.96-.89-5.58-2.7-9.66-9.64-10.34-5.71-.56-10.33-4.55-14.46-8.61-5.04-9.72-9.08-19.84-16.88-28.13-7.27-7.72-8.07-17.54-4.08-27.51,3.32-2.14,3.38-5.87,4.53-9.11,2-5.65,3.64-11.66,10.44-13.68,6.86,2.04,13.93,2.13,21,2.19Z"/><path class="cls-1" d="M582.21,159.99c-5.04,5.47-9.19,11.42-8.83,19.28,.25,5.58-3.03,4.22-6.14,3.51-5.6-16.89-2.37-32.07,8.61-40.49,4.31,5.11,1.83,12.67,6.37,17.7Z"/><path class="cls-90" d="M631.62,270.59c.88,1.02,.79,4.62,3.3,1.52,2.32-2.86,3.59-6.55,6.84-8.7,1.16,1.27,1.7,2.9,1.23,4.42-4.4,14.25-7.51,28.96-14.96,42.12-.74,.57-1.93,1.57-2.4,1.25-7.69-5.1-15.87-.55-23.76-1.25-2.02-.18-2.76-2.42-4.76-2.1-3.9-9.5-6.95-19.27-9.32-29.26,.63-.69,1.39-1.18,2.3-1.42,1.41-.18,2.71,.08,3.87,.87,.46,.69,.74,1.56,1.59,1.97,.08-1-.71-1.9-.32-2.97,2.63-3.28,6.59-3.36,10.17-4.38,6.34-.76,12.45-.13,18.11,3.06,1.18,1.26,1.86,5.72,4.02,.6,.88-2.27,.62-5.36,4.1-5.74Z"/><path class="cls-24" d="M597.1,307.86c9.78-.46,19.61-2.04,29.22,1.35,2.86,7.09,.06,12.65-4.76,17.66-6.31-1.48-12.7-3.6-18.43,1.64-2.85-6.64-4.9-13.51-6.03-20.65Z"/><path class="cls-63" d="M603.13,328.5c.15-3.31,.8-6.55,5.1-5.81,4.29,.73,10.26-3.22,12.41,4.07,2.42,10.91-3.11,19.54-8.16,28.29l-.13-.63c-6.04,.69-5.5-4.43-6.67-7.8-.78-2.23,1.31-4.8-.37-7.12-.72-3.66-1.44-7.33-2.16-10.99Z"/><path class="cls-33" d="M605.29,339.5c3.8,4.29,.76,11.81,7.04,14.92-.11,2.27-1.82,2.5-3.51,2.76-3.69-2.16-4.8-5.84-5.7-9.65,.72-2.68,1.44-5.35,2.17-8.03Z"/><path class="cls-75" d="M590.41,278.26c-.88,.11-1.75,.22-2.63,.34-2.91-4.77-4.96-9.83-5.37-15.46,2.8-.03,3.37,3.04,5.5,3.95,2.89,3.27,3.98,6.94,2.5,11.18Z"/><path class="cls-73" d="M225.15,880.47c4.49,.64,8.97,1.27,13.46,1.91-.86,1.7-1.63,3.44-2.58,5.08-3.17,5.48-5.7,10.89,.62,15.99-6.68-1.16-12.84-2.28-20.1-.05-10.73,3.29-15.41-5.89-10.62-19.42,7.76,9.99,9.86,9.6,19.23-3.51Z"/><path class="cls-86" d="M590.41,278.26c-.83-3.73-1.67-7.45-2.5-11.18,.67-3.11,1.35-6.23,2.02-9.34,4.26-2.53,8.61-2.12,13-.4,2.7,1.4,5.73,1.41,8.63,2.02,1.57,.3,2.97,.91,4.01,2.17,1.42,10.12,.59,11.14-10.46,12.97-3.33,1.25-6.65,2.49-9.98,3.74-.35,.87-.84,1-1.48,.28-1.08-.09-2.15-.17-3.23-.26Z"/><path class="cls-82" d="M588.2,238.42c8.43,1.52,14.89,7.9,24.14,8.55,5.2,.36-1.18,6.86,.46,10.49,.72,1.71-.22,2.43-1.69,2.84-2.3,.29-4.4-.39-6.44-1.35-3.42-1.9-7.09-3.49-9.09-7.19h0c-2.34-2.2-6.05-2.62-7.61-5.85l.22-7.49Z"/><path class="cls-18" d="M595.58,251.76c3.16,1.94,6.33,3.89,9.49,5.83,.32,1.78,.03,2.9-2.15,2.02-4.34-.59-8.37-3.31-13-1.87-.36-4.12,6.2-1.7,5.66-5.98Z"/><path class="cls-18" d="M587.98,245.91c2.8,1.61,5.92,2.8,7.61,5.85-3.55-.63-7.18-1.16-7.61-5.85Z"/><path class="cls-16" d="M225.15,880.47c.16,4.36-1.2,8.12-4.72,10.8-7.03,5.35-13.36,2.14-14.52-7.29-.68-1.8-2.47-1.06-3.69-1.61,.71-5.86,3.83-9.75,9.58-11.18,4.8-1.2,7.51,1.75,9.65,5.48,.56,1.93,2,3,3.7,3.81Z"/><path class="cls-53" d="M248.15,868.89c1.24-.02,2.48-.03,3.72-.05,2.12,.18,4.23,.36,7.64,.65-4.09,4.06-5.96,9.34-11.65,8.44-3.13-.49-5.74-3.03-3.54-7.08,1.27-.66,2.55-1.31,3.82-1.97Z"/><path class="cls-5" d="M319.04,538.15c6.06-2.48,10.79-6.69,15.08-11.5,.67,9.35-3.02,12.56-14.99,13.06-.11-.52-.14-1.04-.08-1.57Z"/><path class="cls-100" d="M313.37,388.04c6.44,1.63,13.66,17.35,10.91,22.08-.54,.93-1.88,1.64-2.99,1.93-2.21,.59-2.48-1.36-2.84-2.79-1.66-6.7-3.23-13.43-5.09-21.22Z"/><path class="cls-7" d="M712.39,921.47c-.09-3.74-.17-7.48-.26-11.23,11.3-3.28,12.97-11.01,11.81-21.76-4.7-43.92-8.94-87.9-12.84-131.9-3.12-35.14-5.75-70.33-8.14-105.53-2.19-32.32-3.76-64.68-5.6-97.03,.79-8.4,.27-16.7-1.91-24.86,2.14-1.91,3.54-3.85,3.62-7.16,.42-16.76,1.24-33.51,1.92-50.26-.35-11.2,2.26-21.79,6.44-32.09,.72-1.78,1.47-3.94,.36-5.51-5.92-8.37-2.41-16.29,.81-24.27,1.68-4.15,1.78-8.65,2.81-12.96,1.54-2.63,1.68-5.48,.76-8.24-7.37-22.23,.16-38.17,20.43-48.81,2.79-1.67,5.82-2.5,9.05-2.63,13.59-.18,27.04,2.59,40.7,1.86,5.81-.31,11.29-.99,16.35-3.89,7.09,.03,6.6-5.28,6.95-9.99,2.29-9.82,4.76-19.51,15.76-23.48,2.18,.19,3.94,.97,4.63,3.27,.04,.93,.21,2.07-.39,2.71-8.68,9.23-8.32,20.27-6.42,31.62-3.17,13.52-13.08,23.15-19.99,34.52-7.28,11.98-15.34,23.51-20.76,36.54-5.26,12.64-7.3,25.14,1.71,37.18,1.32,1.76,2.03,3.97,2.45,6.18-1.11,5.35-.11,11.08-3.83,16-2.7,3.57,.41,5.94,3.33,7.23,4.84,2.13,8.28,5.47,10.61,10.11,3.56,8.47,2.74,17.7,2.93,26.34,.86,38.05,8.84,74.95,16.09,111.99,16.77,85.79,37.41,170.6,65.32,253.52,3.94,11.7,7.39,23.67,13.34,34.63-.59,5.69-5.11,3.39-8.18,4.03-2.77-.28-5.72-1.27-7.64,1.9-1.52,.75-1.73,2.13-1.74,3.61-1.22,2.73-3.19,4.7-5.92,5.92-3.69,1.43-7.4,1.39-11.11,.08-1.97-1.16-3.94-2.32-5.91-3.48-7.33-4.47-9.38-14.56-18.41-17.29-.74-.22-.87-1.53-.71-2.55,2.83-18.92-5.99-35.91-9.11-53.84-6.52-37.47-14.86-74.59-23.25-111.69-4.05-17.93-5.23-36.51-8.99-54.41-5.51-26.23-6.33-52.9-10.03-79.26-2.27-16.2-4.16-32.79-4.34-49.33-.31-1.72-1.34-3.49-.66-4.2-.75,2.51,1.63,5.92,.97,9.37,.7,54.14,3.56,108.1,8.03,162.06,4.75,57.41,9.74,114.79,15.9,172.05-.33,6.01-1.22,12.01,5.31,15.99,2.84,1.74,1.37,3.67-1.27,4.6-4.37,1.54-8.94,1.04-13.15,.07-7.96-1.83-16.23-1.9-23.99-4.95-4.53-1.78-9.5-2.46-11.69,3.91-4.57,6.48-11.77,6.64-18.5,7.12-7.25,.52-14.57,.05-21.85,.01-.6-.6-1.21-1.21-1.81-1.81Z"/><path class="cls-78" d="M733.23,341.45c-1.89,1.65-3.67,3.45-5.7,4.92-15.81,11.51-17.94,17.93-14.1,37.32,.84,4.23,6.83,9.89-1.12,13.74-10.04-6.76-18.42-14.79-20.97-27.3-4.82-8.51-1.29-17.65-1.97-26.47,9.61-3.72,9.73-3.81,3.74-11.73-3.63-4.8-3.45-9.83-1.94-15.16,.04-1.25,.08-2.51,.12-3.76,2.02-1.64,.14-9.5,5.52-5.01,7.74,6.45,16.61,9.04,25.83,11.5,4.14,7.02,10.48,12.98,10.6,21.94Z"/><path class="cls-44" d="M612.47,355.05c2.72-9.43,5.44-18.86,8.16-28.29,2.97-5.5,4.73-11.4,5.68-17.55,6.29-14.88,10.8-30.36,15.44-45.8,2.64-4.12,4.25-8.36,0-13.74,9.25,.88,16.05,4.15,22.68,7.91,1.33,6.35,9.89,12.67,.08,19.07-15.55-.12-15.95,.1-8.45,13.41,4.59,8.15-1.16,12.12-5.01,17.2q-14.61,3.54-15.69,19.68c-.09,1.29-.62,2.38-1.52,3.3-6.98,8.4-11.33,19.06-21.37,24.82Z"/><path class="cls-98" d="M641.42,320.58c5.78,2.33,11.5,8.53,17.27-.39,1.32-2.04,3.23-.26,4.41,1.5,1.4,2.09,3.71,4.15,.57,6.38-7.59,5.38-3.05,9.24,1.39,13.32,3.96,3.65,7.61,7.65,11.69,11.17,3.95,3.4,4.42,6.68,.62,10.31-3.46,3.3-6.29,4.36-9.87-.65-3.82-5.36-8.93-9.81-13.47-14.65-2.03-2.16-4-4.46-6.89-1.02-1.77,2.11-3.67,2.34-5.51,.07-1.5-1.85-4.93-3.45-2.98-6.2,3.63-5.1-.73-7.2-3.01-10.2-1.18-5.08,.19-8.62,5.77-9.64Z"/><path class="cls-50" d="M607.16,429.65c0-3.8,0-7.59,0-11.39,8.09-13.56,19.05-25.41,23.6-41.61,12.78,20.61-1.6,51.64-23.61,53Z"/><path class="cls-59" d="M721.88,320.65c-10.31,.07-18.55-4.13-26-11.19-3.36-3.19-2.09,3.49-4.59,3.56,1.72-8.64,2.78-17.49,5.4-25.86,1.52-4.85-4.16-10.38,1.9-14.32,6.06,1.42,5.29,7.6,7.93,11.4,.19,.67,.37,1.34,.56,2,7.75,5.56,8.47,15.03,12.62,22.6,1.04,3.87,4.99,7.22,2.18,11.8Z"/><path class="cls-22" d="M663.95,481.34c-3.51,0-7.05,.33-10.51-.07-8.02-.93-12.91-10.09-9.59-17.41,1.37-3.01,3.43-2.83,6.27-2.31,6.23,1.13,12.65,2.81,18.82,2.26,9.1-.82,12.2,3.72,11.94,11.23-.32,9.28-8.05,5.66-13.12,6.44-1.25,.19-2.55,.03-3.82,.03v-.17Z"/><path class="cls-4" d="M706.52,284.24c-2.64-3.8-5.29-7.6-7.93-11.4-3.26-5.68-6.18-5.11-9.7,.03-3.37,4.92-3.67,4.72-6.78,2.15,.2-1.53,.58-3.25-1.99-1.89-4.08,7.86-10.91,9.39-15.61,3.52,.19-2.69,8.73-6.76-1.39-7.9-1.4-.16-.35-2.59,.31-3.97,1.09-2.28,4.05-4.34,1-7.2,5.36-.01,10.92-.97,16.05,.13,18.8,4.04,21.61,.68,26.05,26.53Z"/><path class="cls-15" d="M689.18,339.7c-3.72-.33-6.63-1.87-8.3-5.38-2.53-5.31-6.7-8.97-11.48-12.29-5.67-3.94-7.45-8.02-.58-13.37,5.48-4.28,9.78-10.06,14.91-15.49,3.45,5.12,4.74,9.28,1.15,15.54-2.92,5.1-3.88,12.46,4.41,15.8,2.46,5.08,4.37,10.16-.11,15.19Z"/><path class="cls-9" d="M610.74,364.55c.07-1.22,.14-2.44,.21-3.66,2.36,.85,4.83,1.48,7.06,2.59,9.86,4.93,11.29,8.45,6.94,18.72-3.55,8.38-7.42,16.68-16.05,23.22,0-5.69,0-10.83,0-15.96,.02-1.89,.04-3.78,.05-5.67,.09-.43,.18-.85,.26-1.28,2.02-5.86-.72-12.13,1.53-17.96Z"/><path class="cls-80" d="M641.42,320.58c-2.4,2.93-5.17,5.63-5.77,9.64h-.9l-.9,.02c.75-4.05-2.23-7.49-.99-12,3.01-11.01,7.03-13.85,18.2-10.98-3.21,4.44-6.42,8.88-9.63,13.32Z"/><path class="cls-93" d="M689.18,339.7c.04-5.06,.07-10.13,.11-15.19,.35-2.64-.75-5.64,1.88-7.73-.26,6.13,.45,11.95,5.77,16.01,2.57,1.96,6.38,2.57,2.97,7.56-3.05,4.46-5.7,6.35-10.54,3.31-.06-1.32-.13-2.64-.19-3.96Z"/><path class="cls-17" d="M695.47,529.15c6.85,7.81,3.41,16.41,1.91,24.86-.26-8.32-3.78-16.38-1.91-24.86Z"/><path class="cls-92" d="M680.12,273.13c.47-1.87,1.69-4.55,3.3-3.46,2.13,1.45,.29,3.78-1.32,5.35-.66-.63-1.32-1.26-1.99-1.89Z"/><path class="cls-102" d="M683.41,897.51c-.33,1.24-.92,1.99-1.84,1.31-.59-.44-1.06-1.45-1.02-2.18,.02-.4,1.18-.76,1.82-1.13,.38,.74,.76,1.48,1.04,2.01Z"/><path class="cls-22" d="M576.46,398.98c.85-4.85,3.93-8.83,10.2-9.34,6.24-.51,12.19,5.13,11.51,11.18-.66,5.91-3.53,10.1-10.47,9.81-6.16-.26-11.2-4.82-11.24-11.65Z"/><path class="cls-16" d="M608.95,383.79c-3.6,2.29-6.81,2.39-9.77-1.25-2.52-3.1-1.07-5.77,.39-8.54,2.4-4.57,5.77-3.74,9.36-1.64,2.37,3.8,2.63,7.64,.22,11.53l-.19-.09Z"/><path class="cls-68" d="M609.14,383.89c-.07-3.84-.15-7.69-.22-11.53,0-1.93,.02-3.85,.02-5.78,.6-.68,1.2-1.35,1.8-2.03,.26,3.72,.26,7.39,1.47,11.09,1,3.04,2.04,7.06-3.08,8.25Z"/><path class="cls-45" d="M175.45,685.26c-10.75,4.35-12,3.65-13.35-8.7-.51-4.64-2.09-9.2-5.11-12.03-8.59-8.03-9.36-18.87-12.35-29.07-1.85-6.3-4.77-12.32-7.62-18.27-6.45-13.46-4.54-21.07,7.81-29.52,1.02,9.31,8.81,14.86,12.74,22.63,4.04,7.99,7.4,15.6,8.86,24.67,1.59,9.86,6.74,19.02,10.81,28.3,1.76,4.01,3.97,7.83,4,12.46,3.28-.92,5.76-4.76,9.54-1.94-3.64,5.78-9.75,8.28-15.33,11.47Z"/><path class="cls-101" d="M190.78,673.79c-4.99,.28-7.7,5.23-13.22,6.33,4.58-9.2-3.99-14.54-5.45-21.81-2.13-10.66-8.24-19.68-9.49-31.13-1.22-11.12-8.11-22.46-18.02-29.83-5.59-4.15,1.53-6.5,.24-9.69,0-.63,.01-1.27,.02-1.9,5.84-4.06,10.44-9.96,19.16-12.59-2.1,13.08,4.47,23.09,9.56,33.6-2.31,8.31-.13,16,4.73,22.5,5.15,6.88,10.75,13.52,13.27,21.75,1.36,4.45,5.53,3.67,7.65,6.19,.98,4.04-.02,7.55-2.8,10.59-1.23,2-2.46,4-3.69,6.01-.65,0-1.31-.02-1.96-.03Z"/><path class="cls-25" d="M196.43,667.82l1.86-11.26c-1.54-8.56,.69-15.72,7.82-21.06,7.27,2.52,14.8,4.63,19.29,11.74-8.98,7.82-18.17,15.34-28.97,20.58Z"/><path class="cls-27" d="M817.67,340.2c-4.09-13.06-3.69-25.13,7.71-34.76,13.2-2.94,20.01,6.11,27.2,14.46,.53,3.81,.52,7.91,6.55,6.49,3.22-.76,4.02,.98,2.42,3.79-2.6,4.53-2.14,8.88-.05,13.6,6.04,13.61,9.7,28.03,14.25,42.16,5.15,16-.19,28.68-8.32,40.92-9.96,15-21.04,29.2-34.14,41.77-6.21,5.97-13.1,9.67-21.46,10.99-6.32-4.59-11.71-.04-17.37,1.78-3.67-.48-1.84-2.33-1.03-3.89,.78-.21,.54-1.17,.37-1.06-1.43,.92-2.84,.66-4.31,.31-4.74-2.68-5.14-6.33-2.39-10.68,1.51-1.5,2.91-3.28,5.49-2.29-1.82-1.84-5.2-1.16-6.46-3.93-.25-.96-.18-1.9,.2-2.82,2.47-3.17,6.02-2.83,9.43-2.94,1.27,.02,2.54,.13,3.78,.44,15.96,3.97,17.1,3.58,25.92-10.57,6.4-10.29,11.06-21.51,16.75-32.17,5.9-11.04,2.15-21.09-3.13-30.8-3.49-6.42-7.03-12.85-11.03-18.98-3.23-7.37-9.37-13.35-10.39-21.78Z"/><path class="cls-46" d="M861.55,330.17c-3.2-3.26-11.83-.99-9.78-9.6-.76-2.23-.08-4.35,.53-6.47,2.16-7.42,.31-13.58-5.49-18.73-7.25-6.45-10.22-14.44-6.76-23.78,3.22-8.7-3.16-12.59-7.82-17.49-.42-.86-.96-1.89-.67-2.7,5.71-15.56-2.82-26.39-11.86-37.35-5.11-6.19-10.49-12.61-9.75-21.6,5.49,1.73,11.68,2.06,15.26,7.63-2.45,.2-7.38-2.88-4.89,3.81,1.22,3.29,2.37,6.42,5.08,8.97,10.15,9.55,14.81,21.19,12.1,35.15-.62,3.2,1.07,4.81,2.9,6.5,6.11,5.65,7.03,12.51,4.9,20.12-1.87,6.64-1.34,12.11,4.84,16.86,9.21,7.07,10.73,13.51,6.71,24.8-1.55,4.35-4.76,8.24,3.6,8.55,3.49,.13,3.59,2.93,1.11,5.35Z"/><path class="cls-2" d="M960.86,919.61c-.25,3.62-2.3,3.73-5.26,3.06-5.17-1.18-10.41-2-15.62-2.96-5.16-.1-10.32-.21-15.48-.31-3.39-.83-7.15-.77-9.61-3.9,3.82-2.07,2.78-5.17,1.6-8.16-13.26-33.41-23.27-67.91-33.89-102.19-5.35-17.26-11.96-34.17-15.36-52-1.12-2.62-2.2-6.18,.59-7.36,3.44-1.45,3.94,2.82,5.33,4.98,.83,1.29,.64,3.05,1.78,4.23,8.17,12.9,12.67,27.51,19.05,41.25,16.93,36.49,34.99,72.38,54.57,107.51,.57,1.02,1.88,1.63,2.85,2.43,1.76,2.7,4.12,4.96,5.75,7.76l3.72,5.67Z"/><path class="cls-94" d="M945.88,816.19c-11.93-9.59-17.78-23.6-25.62-36.05-10.61-16.85-19.98-34.48-29.97-51.72-1.53-2.64-2.92-5.54-7.07-7.68,2.01,9.16,5.21,16.81,9.22,23.98,12.93,23.12,21.74,48.16,33.82,71.67,.53,1.03,.21,2.5,.29,3.77-13.72-18.29-20.97-39.94-30.6-60.27-16.45-34.75-31.79-70.05-45.68-105.93-4.92-12.71-9.16-25.69-13.71-38.55-.69-2.02,.24-2.41,1.98-1.96,11.61,25.1,22.34,50.66,35.05,75.2,20.74,40.06,41.51,80.18,67.19,117.45,2.17,3.15,4.55,6.16,5.1,10.11Z"/><path class="cls-81" d="M891.92,680.46c2.37,.7,3.48,2.56,4.47,4.63,14.63,30.68,30.87,60.49,47.8,89.95,1.56,2.72,3.4,5.44,3.38,8.81-10.2-10.75-15.39-24.59-22.44-37.21-12.04-21.54-23.91-43.24-33.21-66.18Z"/><path class="cls-8" d="M786.81,458.3c.03,.66,.07,1.33,.1,1.99,1.83,1.56,2.12,3.62,1.89,5.85-2.18,3.81-2.94,7.3,2.1,9.52,.81,1.45,3.1,.35,3.7,2.16-.29,1.18-2.13,2.3-.14,3.57-.56,1.9-1.13,3.8-1.69,5.7-4.76-2.14-7.46-7.06-13.21-8.51-2.49-.63-10.41-5.62-1.63-11.58,2.69-1.83,2.32-8.17,3.35-12.45,3.23-.79,3.98,2.05,5.52,3.75Z"/><path class="cls-97" d="M874.93,754.99c-1.91-2.71-3.83-5.41-6.01-8.5-2.53,1.93-1.27,4.54-1.69,6.65-7.95-18.5-11.57-38.24-16.82-57.54,7.28,20.21,18.8,38.62,24.51,59.39Z"/><path class="cls-6" d="M914.89,915.49c3.47,.65,7.75-.72,9.61,3.9l.16,.26c-3.76,1.4-7.55,1.09-11.35,.2-5.09-.12-10.17-.24-15.26-.36-4.15-1.93-8.54-.45-12.79-.92-1.99-.22-4.61,.7-4.85-2.68,3.36-.73,7.33,1.18,10.04-2.33,8.21-.09,16.16,3.03,24.45,1.93Z"/><path class="cls-99" d="M838.54,613.44c-.66,.65-1.32,1.31-1.98,1.96-6.37-11.43-9.88-23.83-12.15-36.67,4.71,11.57,9.42,23.14,14.13,34.71Z"/><path class="cls-102" d="M970.6,900.43c3.6,2.35,7.07,4.8,7.68,9.55-3.6-2.35-7.2-4.7-7.68-9.55Z"/><path class="cls-102" d="M978.27,909.96c3.04,1.72,5.56,3.83,5.75,7.69-3.09-1.69-5.64-3.77-5.75-7.69Z"/><path class="cls-102" d="M957.15,913.94c-2.97-1.81-5.47-3.96-5.75-7.76,3.16,1.66,5.72,3.77,5.75,7.76Z"/><path class="cls-102" d="M1039.47,915.69c-1.92,4.55-5.92,3.84-9.65,3.82,2.71-2.54,6.28-2.93,9.65-3.82Z"/><path class="cls-102" d="M1016.5,923.43c-2.71,3.14-6.35,1.43-9.59,1.84,2.73-3.03,6.34-1.5,9.59-1.84Z"/><path class="cls-12" d="M1001.2,864.11c-.12,2.78,0,6.59-4.15,5.09-3.64-1.32-7.31-4.09-6.97-8.77,.25-3.51,2.94-3.31,5.53-2.12,2.53,1.29,4.43,3.2,5.6,5.8Z"/><path class="cls-12" d="M987.9,848.63c-.9,1.62-2.58,4.27-3.8,3.09-2.42-2.35-.81-5.77-.05-8.74,2.4,1.12,3.7,2.99,3.84,5.65Z"/><path class="cls-102" d="M913.31,919.85c3.78-.07,7.57-.13,11.35-.2-3.74,2.84-7.52,2.68-11.35,.2Z"/><path class="cls-102" d="M866.98,929.01c1.97-1.97,3.95-3.94,5.92-5.92,.03,3.98-1.94,5.95-5.92,5.92Z"/><path class="cls-12" d="M1011.73,884.2c-6.28-1.19-9.55-3.12-10.16-7.87-.07-.58,1.16-1.95,1.51-1.86,4.38,1.08,6.39,4.35,8.65,9.73Z"/><path class="cls-69" d="M768.62,911.39c11.62,2.93,23.23,5.41,35.94,3.82-9-3.01-8.48-9.94-8.01-16.86,.95,.05,1.91,.13,2.54,.97,2.38,3.16,3.45,7.91,8.85,7.43,6.39-.57,12.7-1.81,18.08-5.41,3.49-2.34,2.34-6.35,1.61-9.71-7.34-33.58-13.52-67.41-21.31-100.89-13.14-56.49-23.01-113.46-28.19-171.27-1.76-19.64-3.09-39.26-3.62-58.96,.09-1.58-.34-3.29,1.12-4.53,1.74,9.55,5,19.13,4.88,28.66-.2,16.34,3.54,32.12,4.73,48.23,1.2,16.29,2.37,32.64,6.59,48.68,2.72,10.31,3.48,21.2,4.52,31.88,1.57,16.08,6.37,31.47,9.48,47.21,4.32,21.84,8.49,43.74,13.8,65.36,3.83,15.58,5.73,31.51,9.89,47.1,2.67,9.98,8.22,20.77,4.19,32.23-1.87,5.32,3.98,.16,4.7,3.04,1.75,7.08,8.87,10.69,11.55,17.23-4.86-.86-8.13-4.47-10.03-8.19-3.17-6.22-7.52-7.55-13.13-4.94-17.41,8.1-35.61,6.39-53.85,5.12-2.31-.16-3.02-2.23-4.67-2.84"/><path class="cls-39" d="M714.15,261.24c5.28-5.38,1.98-11.3,.92-16.98-5.45-29.37,12.53-58.16,40.97-65.43,1.33-.75,2.7-.77,4.1-.22,1.58,4.16-1.77,6.5-3.66,9.18-6.09,8.64-11.51,17.55-13.8,28.04-.81,2.12-2.23,3.82-4.01,5.15-5.22,3.88-6.96,8.61-4.34,14.84,1.25,2.97,1.33,6.14-.3,9.15-6.27,6.21-8.72,13.61-7.39,22.37,.5,3.3,2.18,7.73-1.59,9.48-3.83,1.78-8.02-.88-11.44-2.86-4.04-2.34-2.01-5.98-.71-9.2,.47-1.15,.4-2.49,1.23-3.51Z"/><path class="cls-66" d="M714.15,261.24c-3.72,9.71,1.62,13.12,10.85,14.44-.38-11.32-5.78-24.3,8.41-31.55,6.11,15.42,15.5,28.89,25.07,42.25-4.96,1.65-9.84,3.17-15.21,1.28-10.7-3.76-17.41-.02-21.63,11.7,.43,.51,1.06,.55,1.47-.14,3.12-5.22,7.2-10.49,13.38-5.73,5.56,4.28,1.85,10.19-1.74,14.08-3.94,4.28-3.25,9.29-4.16,14.11-3.8,3.38-4.67-.79-5.99-2.61-2.3-3.19-3.31-7.28-6.77-9.67-3.58-7.72-7.16-15.44-10.74-23.16,5.38-2.33,5.43-6.67,4.27-11.42-1.22-4.99-1.36-9.72,2.81-13.58Z"/><path class="cls-32" d="M759.6,179.33c-1.19-.17-2.37-.33-3.56-.5,16.61-3.21,32.93-4.21,47.71,6.35,2.07,2.42,4.14,4.84,6.21,7.26,3.96,8.6,8.18,16.85,14.79,24.03,9.65,10.49,14.67,22.74,8.33,37.16-5.64-.45-4.06-4.7-3.47-7.59,1.4-6.83-1.08-12.45-4.4-17.99-1.17-1.94-2.46-3.87-4.94-4.06-16.66-1.23-22.37-17.05-33.64-25.46-3.49-2.61-1.39-7.6,.01-12.4-8.62,2.57-15.6-3.48-23.71-2.76-2.22,.2-1.57-3.18-3.33-4.04Z"/><path class="cls-77" d="M605.1,274.5c6.84-1.57,10.66-5.38,9.54-12.86,.82-4.8,5.53-2.12,7.83-4.07,11.94-1.92,7.68,7.56,9.15,13.01-.56,2.44-1.13,4.87-1.69,7.31-1.61,2.52-3.39,2.14-5.24,.3-6.28-2.53-12.73-4.18-19.58-3.69Z"/><path class="cls-31" d="M622.47,257.58c-2.61,1.36-5.22,2.71-7.83,4.07-1.24-.22-2.49-.44-3.73-.65-.64-.33-.86-.67-.65-1.01,.21-.34,.42-.51,.64-.51,.63-.68,1.27-1.35,1.9-2.03,1.23-.68,2.46-1.36,3.69-2.05,.66,.05,1.32,.1,1.98,.16,1.33,.67,2.67,1.34,4,2.02Z"/><path class="cls-14" d="M219.8,536.11c6.16,11.38,15.51,19.62,26.1,26.67,4.65,1.52,4.46,5.35,3.19,8.6-3.01,7.71,.48,11.96,6.79,15.44,2.97,1.64,6.55,2.83,7.77,6.63,.1,9.36-3.77,17.89-5.62,26.83-1.5-6.62-7.66-8.08-12.42-10.81-20.17-11.59-36.17-27.7-50.35-45.81-1.54-1.96-2.62-4.4-3.45-6.78-1.41-4.04-2.51-7.29,4.6-6.15,9.28,1.48,17.81-5.18,21.09-14.88,.76,.09,1.53,.18,2.29,.26Z"/><path class="cls-11" d="M206.11,635.5c-3.72,6.6-5.72,13.85-7.82,21.06-3.35,1.94-7.08,3.15-8.27-1.85-2.39-10.07-8.16-17.73-15.09-25.08-5.46-5.79-2.82-14.62-6.59-21.62-1.73-3.22,3.06-1.87,5.24-1.23,10.85,9.57,21.69,19.14,32.54,28.72Z"/><path class="cls-30" d="M508.37,585.72c1.93-3.38,3.8-5.33,7.11-4.23,.49,.16,1.04,1.81,.76,2.33-1.65,2.99-4.26,3.21-7.87,1.9Z"/><path class="cls-87" d="M593.64,278.52c.45-.36,.94-.45,1.48-.28,1.77,.77,4.84,.57,3.24,3.97-.47,1-1.77,2.63-2.18,2.49-3-1.02-2.59-3.73-2.55-6.18Z"/><path class="cls-71" d="M624.69,278.2c1.75-.1,3.5-.2,5.24-.3-.85,2.05-1.5,4.58-4.51,3.74-1.86-.52-2.47-1.87-.73-3.44Z"/><path class="cls-95" d="M610.9,259.48c.01,.5,.01,1.01,0,1.51-2.79,.29-5.73,1.4-7.99-1.38,.72-.67,1.44-1.35,2.15-2.02,1.94,.63,3.88,1.26,5.83,1.89Z"/><path class="cls-48" d="M775.2,560.03c3.45,40.12,7.55,80.15,12.98,120.07,9.62,70.8,28.58,139.7,42.02,209.72,2.56,13.34,2.93,13.27-10.43,17.3-.91,.28-1.8,.62-2.72,.9-14.57,4.39-15.68,3.86-20.5-9.66-2.84-27.79-5.76-55.57-8.5-83.37-1.77-18.01-3.43-36.04-4.87-54.08-3.18-39.9-6.91-79.77-9-119.73-1.41-27.02-.42-54.16-.5-81.24,.57-.97,1.07-.94,1.52,.09Z"/><path class="cls-70" d="M759.6,179.33c10.57,1.53,20.53,7.17,33.48,3.71-8.79,8.39-7.52,13.99,.81,19.64,5.31,3.6,9.28,9.12,14.06,13.56,3.08,2.87,4.69,7.06,11.37,4.86,5.86-1.93,14.73,14.38,13.15,23.06-.6,3.27-3.38,6.54,.6,9.47,10.36,5.45,12.26,9.17,8.96,19.25-2.55,7.8-.66,14.14,5.21,19.51,10.36,9.48,11.38,15.64,4.53,28.19-7.88-6.66-15.08-14.48-26.39-15.14-1.38-.73-2.76-1.45-4.14-2.18-13.35-2.23-18.39,3.01-14.78,15.54,.7,2.44-.26,5.12,1.3,7.37,.22,8.24-.09,8.77-5.56,9.61-4.08-6.41-8.01-12.86-13.11-18.62-6.27-7.08-5.43-15.26-1.57-23.21,5.5-11.33,5.12-22.4-.6-33.5-2.27-4.4-3.51-8.94,.19-13.33,9.58-2.91,13.31-10.14,13.52-19.38,.2-8.65-4.94-14.16-12.42-17.42-7.14-3.11-14.14-3.33-20.1,2.9-4.41,4.61-9.74,6.92-16.22,6.28-3.77-.82-7.78-.98-10.77-3.93,.88-14.77,11.23-24.71,18.48-36.23Z"/><path class="cls-19" d="M788.71,247.9c-2.7,2.66-2.85,6.84-.94,8.67,7.58,7.26,4.35,16.76,6.29,25.13,1.05,4.54-1.34,7.79-3.43,11.37-5.89,10.14-4.95,17.05,2.9,25.63,4.46,4.87,9.45,9.52,8.67,17.07-13.24,11.24-28.86,5.01-43.4,5.26-5.72,.1-11.88-.81-17.82-1.42,2.39-7.18,8.05-11.89,13.08-17.03,5.38-5.5,10.58-11.07,13.25-18.49,2.84-6.88,1.99-12.19-6.04-14.62-1.53-.46-2.6-1.66-3.06-3.28-12.72-11.4-22.42-24.59-24.82-42.07-.02-1.25,.43-2.78-.12-3.72-6.57-11.24-1.32-18.64,7.85-24.86,4-.82,7.54,1.25,11.33,1.79,6.54,1.98,13.5-.23,20.14,2.61,5.24,2.24,9.52,4.65,11.02,10.46,.8,3.11,2.55,5.69,4.6,8.11,2.5,2.97,3.08,6.1,.51,9.38Z"/><path class="cls-91" d="M786.81,458.3c-2.87,.27-3.66-2.52-5.52-3.75-17.12-21.38-8.58-41.63,3.19-61.34,10.69-17.89,22.1-35.36,33.19-53.01,4.21,6.65,9.03,12.96,11.46,20.6,1.75,2.52,.41,4.82-.44,7.21-8.36,23.39-17.36,46.55-29.3,68.33-3.74,6.83-1.17,13.5-2.91,20.01-3.25,.52-6.89-.91-9.67,1.95Z"/><path class="cls-37" d="M769.6,305.26c-6.26,14.18-19.03,22.95-28.61,34.36-2.58,.61-5.17,1.22-7.75,1.84-3.79-6.94-7.57-13.87-11.36-20.81-1.35-3.75-2.7-7.5-4.06-11.24,7.93,.7,6.51,9.86,11.74,13,5.29-1.45,5.6,9.02,11.27,5.11,3.51-2.42,4.77-7.39,7.83-10.53,5.78-5.93,11.3-12.58,20.94-11.73Z"/><path class="cls-36" d="M807.77,326.16c-.94-1.92-1.93-3.82-2.81-5.77-4.81-10.69-3.07-15.71,7.02-21.03,4.81-2.53,6.26,2.42,9.27,3.89-8.31,5.39-11.88,13.57-13.48,22.9Z"/><path class="cls-41" d="M849.29,914.33c2.89-3.12,5.97-2.75,9.8-1.15-3.21,4.14-6.65,1.95-9.8,1.15Z"/><path class="cls-62" d="M775.2,560.03l-.76-.09h-.76c0-3.14,0-6.28,0-9.75,2.8,1.56,1.24,4.02,1.94,5.8-.14,1.35-.28,2.69-.42,4.04Z"/><path class="cls-3" d="M796.48,456.35c-4.73-8.06-2.39-15.11,1.73-22.93,10.36-19.69,19.18-40.13,26.19-61.31,1.28-3.87,3.14-7.55,4.73-11.31,8.7,10.29,14.29,22.29,18.62,34.87,1.74,5.05-.34,10.19-2.51,14.73-7.08,14.81-13.5,29.93-23.56,43.2-5.46,7.2-11.2,8.3-18.81,4.37-1.9-.98-4.25-1.1-6.39-1.62Z"/><path class="cls-65" d="M788.8,466.14c-2.28-1.42-1.93-3.68-1.89-5.85,2.16,.15,5.1-.5,5.94,1.86,1.09,3.08-2.69,2.59-4.04,3.99Z"/><path class="cls-79" d="M794.6,477.82c-1.53-.21-3.06-.42-3.7-2.16,2.68,.06,4.94-2.57,8.71-1.11-2.05,1.34-3.53,2.3-5.01,3.27Z"/><path class="cls-84" d="M769.6,305.26c-10.37,3.99-18.51,10.43-24.35,20.14-5.76,9.56-6.13,9.33-12.81,.75-.97-1.24-1.92-2.5-2.88-3.75-2.75-6.99-.94-12.41,4.59-17.6,2.53-2.37,5.85-7.51,.5-10.35-4.65-2.47-7.61,1.03-8.86,5.66-.8,2.97-2.22,6-5.77,4.48-3.31-1.42-2.18-4.96-1.39-7.59,2.11-6.98,10.43-8.77,13.22-15.37,.47-1.11,2.36-.75,3.4,.13,6.83,5.79,15.04,4.38,22.96,4.44,14.68,5.33,14.87,5.64,11.38,19.05Z"/><path class="cls-20" d="M788.71,247.9c.12-3.15,.66-6.4-2.96-8.29-1.08-.57-2.62-1.55-2.74-2.5-2.28-17.99-17.49-15.45-29.15-18.56-.54-.15-.95-.79-1.43-1.2,5.38,.38,9.92-1.24,13.74-5.22,7.51-7.82,16.19-8.56,26.38-2.47,9.25,5.53,12.36,14.05,9.73,24.11-1.96,7.52-4.57,13.72-13.59,14.14Z"/></g><path class="cls-96" d="M677.81,884.2s-21.11,25.83-24.94,29.36-4.63,21.97,12.62,17.73,42.34-11.8,46.65-21.05-7.29-36.02-7.29-36.02l-27.03,9.99Z"/></svg>